<svg width="35" height="35" viewBox="0 0 35 35" fill="none" xmlns="http://www.w3.org/2000/svg">
<g clip-path="url(#clip0)">
<path d="M8.85542 0.608398C8.18477 0.608398 7.64111 1.15205 7.64111 1.82271V4.25125H10.0697V1.82271C10.0697 1.15205 9.52601 0.608398 8.85542 0.608398Z" fill="#891831"/>
<path d="M25.8554 0.608398C25.1848 0.608398 24.6411 1.15205 24.6411 1.82271V4.25125H27.0697V1.82271C27.0697 1.15205 26.5261 0.608398 25.8554 0.608398Z" fill="#891831"/>
<path d="M30.7126 4.25122H27.0698V9.10838C27.0698 9.77904 26.5261 10.3227 25.8555 10.3227C25.1848 10.3227 24.6411 9.77904 24.6411 9.10838V4.25122H10.0697V9.10838C10.0697 9.77904 9.52607 10.3227 8.85542 10.3227C8.18476 10.3227 7.64111 9.77904 7.64111 9.10838V4.25122H3.99832C1.98643 4.25122 0.355469 5.88218 0.355469 7.89408V30.9655C0.355469 32.9774 1.98643 34.6084 3.99832 34.6084H30.7126C32.7245 34.6084 34.3555 32.9774 34.3555 30.9655V7.89408C34.3555 5.88218 32.7245 4.25122 30.7126 4.25122ZM31.9269 30.9655C31.9269 31.6362 31.3832 32.1798 30.7125 32.1798H3.99832C3.32767 32.1798 2.78401 31.6362 2.78401 30.9655V15.1798H31.9269V30.9655Z" fill="#891831"/>
<path d="M25.5006 17.9647C25.0264 17.4902 24.2574 17.49 23.7829 17.964L14.9272 26.8199L10.9285 22.8212C10.454 22.3471 9.68503 22.3473 9.21089 22.8218C8.73675 23.2963 8.73703 24.0653 9.21153 24.5395L14.0687 29.3966C14.5429 29.8707 15.3115 29.8707 15.7857 29.3966L25.5 19.6823C25.9744 19.2082 25.9747 18.4392 25.5006 17.9647Z" fill="#891831"/>
</g>
<defs>
<clipPath id="clip0">
<rect width="34" height="34" fill="white" transform="translate(0.355469 0.608398)"/>
</clipPath>
</defs>
</svg>
