<svg width="24" height="24" viewBox="0 0 24 24" fill="none" xmlns="http://www.w3.org/2000/svg">
<g clip-path="url(#clip0)">
<path d="M20.4872 15.0399C19.2347 13.7874 17.7438 12.8601 16.1172 12.2988C17.8593 11.0989 19.0039 9.09078 19.0039 6.82007C19.0039 3.15413 16.0214 0.171631 12.3555 0.171631C8.68953 0.171631 5.70703 3.15413 5.70703 6.82007C5.70703 9.09078 6.8516 11.0989 8.5938 12.2988C6.96718 12.8601 5.47631 13.7874 4.22376 15.0399C2.05169 17.212 0.855469 20.0999 0.855469 23.1716H2.65234C2.65234 17.8213 7.00514 13.4685 12.3555 13.4685C17.7058 13.4685 22.0586 17.8213 22.0586 23.1716H23.8555C23.8555 20.0999 22.6592 17.212 20.4872 15.0399ZM12.3555 11.6716C9.68033 11.6716 7.50391 9.49526 7.50391 6.82007C7.50391 4.14488 9.68033 1.96851 12.3555 1.96851C15.0306 1.96851 17.207 4.14488 17.207 6.82007C17.207 9.49526 15.0306 11.6716 12.3555 11.6716Z" fill="#891831"/>
</g>
<defs>
<clipPath id="clip0">
<rect width="23" height="23" fill="white" transform="translate(0.855469 0.171631)"/>
</clipPath>
</defs>
</svg>
