<svg width="44" height="45" viewBox="0 0 44 45" fill="none" xmlns="http://www.w3.org/2000/svg">
<g clip-path="url(#clip0)">
<path d="M36.7718 22.4849C34.801 22.4849 33.1885 20.8349 33.1885 18.8183C33.1885 16.8016 34.801 15.1516 36.7718 15.1516C38.7426 15.1516 40.3551 16.8016 40.3551 18.8183C40.3551 20.8349 38.7426 22.4849 36.7718 22.4849ZM36.7718 16.9849C35.6968 16.9849 34.9801 17.7183 34.9801 18.8183C34.9801 19.9183 35.6968 20.6516 36.7718 20.6516C37.8468 20.6516 38.5635 19.9183 38.5635 18.8183C38.5635 17.7183 37.8468 16.9849 36.7718 16.9849Z" fill="#891831"/>
<path d="M43.0426 31.6514C42.5051 31.6514 42.1468 31.2848 42.1468 30.7348V28.9014C42.1468 27.4348 40.8926 26.1514 39.4593 26.1514H34.0843C33.5468 26.1514 33.1885 25.7848 33.1885 25.2348C33.1885 24.6848 33.5468 24.3181 34.0843 24.3181H39.4593C41.9676 24.3181 43.9385 26.3348 43.9385 28.9014V30.7348C43.9385 31.2848 43.5801 31.6514 43.0426 31.6514Z" fill="#891831"/>
<path d="M8.10531 22.4849C6.13447 22.4849 4.52197 20.8349 4.52197 18.8183C4.52197 16.8016 6.13447 15.1516 8.10531 15.1516C10.0761 15.1516 11.6886 16.8016 11.6886 18.8183C11.6886 20.8349 10.0761 22.4849 8.10531 22.4849ZM8.10531 16.9849C7.03031 16.9849 6.31364 17.7183 6.31364 18.8183C6.31364 19.9183 7.03031 20.6516 8.10531 20.6516C9.18031 20.6516 9.89697 19.9183 9.89697 18.8183C9.89697 17.7183 9.18031 16.9849 8.10531 16.9849Z" fill="#891831"/>
<path d="M1.83431 31.6514C1.29681 31.6514 0.938477 31.2848 0.938477 30.7348V28.9014C0.938477 26.3348 2.90931 24.3181 5.41764 24.3181H10.7926C11.3301 24.3181 11.6885 24.6848 11.6885 25.2348C11.6885 25.7848 11.3301 26.1514 10.7926 26.1514H5.41764C3.98431 26.1514 2.73014 27.4348 2.73014 28.9014V30.7348C2.73014 31.2848 2.37181 31.6514 1.83431 31.6514Z" fill="#891831"/>
<path d="M22.4385 23.4016C19.3926 23.4016 17.0635 21.0183 17.0635 17.9016C17.0635 14.7849 19.3926 12.4016 22.4385 12.4016C25.4843 12.4016 27.8135 14.7849 27.8135 17.9016C27.8135 21.0183 25.4843 23.4016 22.4385 23.4016ZM22.4385 14.2349C20.4676 14.2349 18.8551 15.8849 18.8551 17.9016C18.8551 19.9183 20.4676 21.5683 22.4385 21.5683C24.4093 21.5683 26.0218 19.9183 26.0218 17.9016C26.0218 15.8849 24.4093 14.2349 22.4385 14.2349Z" fill="#891831"/>
<path d="M31.397 35.3183C30.8595 35.3183 30.5011 34.9516 30.5011 34.4016V30.7349C30.5011 29.2683 29.247 27.9849 27.8136 27.9849H17.0636C15.6303 27.9849 14.3761 29.2683 14.3761 30.7349V34.4016C14.3761 34.9516 14.0178 35.3183 13.4803 35.3183C12.9428 35.3183 12.5845 34.9516 12.5845 34.4016V30.7349C12.5845 28.1683 14.5553 26.1516 17.0636 26.1516H27.8136C30.322 26.1516 32.2928 28.1683 32.2928 30.7349V34.4016C32.2928 34.9516 31.9345 35.3183 31.397 35.3183Z" fill="#891831"/>
</g>
<defs>
<clipPath id="clip0">
<rect width="43" height="44" fill="white" transform="translate(0.938477 0.484863)"/>
</clipPath>
</defs>
</svg>
