<svg width="1920" height="9180" viewBox="0 0 1920 9180" fill="none" xmlns="http://www.w3.org/2000/svg">
<rect width="1920" height="9180" fill="white"/>
<path d="M693.426 182.759L687.306 172.989L690.066 171.26L696.186 181.029L704.979 175.521L707.186 179.042L698.393 184.551L703.736 193.08L700.976 194.81L695.633 186.28L685.643 192.539L683.437 189.017L693.426 182.759Z" fill="url(#paint0_linear)"/>
<path d="M704.667 1062.47L698.547 1052.7L701.307 1050.97L707.427 1060.74L716.22 1055.23L718.427 1058.75L709.634 1064.26L714.977 1072.79L712.217 1074.52L706.873 1065.99L696.884 1072.25L694.677 1068.73L704.667 1062.47Z" fill="url(#paint1_linear)"/>
<path d="M447.814 658.308L454.1 664.594L452.324 666.37L446.038 660.084L440.381 665.741L438.115 663.476L443.772 657.818L438.285 652.331L440.061 650.555L445.548 656.042L451.975 649.615L454.241 651.881L447.814 658.308Z" fill="url(#paint2_linear)"/>
<path d="M459.055 1538.02L465.34 1544.31L463.564 1546.08L457.279 1539.8L451.621 1545.45L449.355 1543.19L455.013 1537.53L449.525 1532.04L451.301 1530.27L456.789 1535.75L463.216 1529.33L465.482 1531.59L459.055 1538.02Z" fill="url(#paint3_linear)"/>
<path d="M1464.45 2450.74L1474.32 2460.61L1471.53 2463.4L1461.66 2453.53L1452.78 2462.41L1449.22 2458.85L1458.1 2449.97L1449.48 2441.35L1452.27 2438.56L1460.89 2447.18L1470.98 2437.09L1474.54 2440.65L1464.45 2450.74Z" fill="url(#paint4_linear)"/>
<path d="M1524.62 6322.92L1534.49 6332.79L1531.7 6335.58L1521.83 6325.71L1512.95 6334.59L1509.39 6331.03L1518.27 6322.15L1509.66 6313.53L1512.44 6310.74L1521.06 6319.36L1531.16 6309.27L1534.71 6312.82L1524.62 6322.92Z" fill="url(#paint5_linear)"/>
<path d="M1656.12 4929.78L1662.4 4936.06L1660.63 4937.84L1654.34 4931.55L1648.69 4937.21L1646.42 4934.95L1652.08 4929.29L1646.59 4923.8L1648.37 4922.02L1653.85 4927.51L1660.28 4921.08L1662.55 4923.35L1656.12 4929.78Z" fill="url(#paint6_linear)"/>
<path d="M920.866 7813.7L927.151 7819.98L925.375 7821.76L919.09 7815.47L913.432 7821.13L911.167 7818.86L916.824 7813.2L911.336 7807.72L913.112 7805.94L918.6 7811.43L925.027 7805L927.293 7807.27L920.866 7813.7Z" fill="url(#paint7_linear)"/>
<path d="M202.994 3667.92L213.228 3678.15L210.337 3681.04L200.102 3670.81L190.89 3680.02L187.2 3676.33L196.412 3667.12L187.477 3658.18L190.369 3655.29L199.304 3664.23L209.77 3653.76L213.459 3657.45L202.994 3667.92Z" fill="url(#paint8_linear)"/>
<path d="M1890.19 2940.15L1896.48 2946.44L1894.7 2948.21L1888.42 2941.93L1882.76 2947.59L1880.49 2945.32L1886.15 2939.66L1880.66 2934.18L1882.44 2932.4L1887.93 2937.89L1894.35 2931.46L1896.62 2933.73L1890.19 2940.15Z" fill="url(#paint9_linear)"/>
<circle cx="1218.03" cy="923.876" r="8.82932" stroke="url(#paint10_linear)" stroke-width="5"/>
<circle cx="1784.91" cy="1738.39" r="8.82932" stroke="url(#paint11_linear)" stroke-width="5"/>
<circle cx="1788.59" cy="7004.85" r="8.82932" stroke="url(#paint12_linear)" stroke-width="5"/>
<circle cx="1242.37" cy="3478.38" r="18.7133" stroke="url(#paint13_linear)" stroke-width="5"/>
<circle cx="557.338" cy="1932.7" r="8.82932" stroke="url(#paint14_linear)" stroke-width="5"/>
<circle cx="149.01" cy="2552.43" r="8.82932" stroke="url(#paint15_linear)" stroke-width="5"/>
<circle cx="891.478" cy="597.833" r="8.82932" stroke="url(#paint16_linear)" stroke-width="5"/>
<path fill-rule="evenodd" clip-rule="evenodd" d="M72.8612 878.452L73.6195 852.012L50.3433 864.575L72.8612 878.452ZM68.2929 874.01L70.6607 857.823L55.4586 863.866L68.2929 874.01Z" fill="url(#paint17_linear)"/>
<path fill-rule="evenodd" clip-rule="evenodd" d="M541.438 5058.38L542.549 5019.65L508.447 5038.05L541.438 5058.38ZM534.744 5051.88L538.213 5028.16L515.941 5037.01L534.744 5051.88Z" fill="url(#paint18_linear)"/>
<path fill-rule="evenodd" clip-rule="evenodd" d="M40.5179 3072.37L41.2763 3045.93L18 3058.49L40.5179 3072.37ZM35.9496 3067.93L38.3174 3051.74L23.1153 3057.78L35.9496 3067.93Z" fill="url(#paint19_linear)"/>
<path fill-rule="evenodd" clip-rule="evenodd" d="M124.11 1741.61L125.212 1703.18L91.3869 1721.44L124.11 1741.61ZM117.471 1735.15L120.912 1711.63L98.8203 1720.41L117.471 1735.15Z" fill="url(#paint20_linear)"/>
<path fill-rule="evenodd" clip-rule="evenodd" d="M56.9995 7023.68L58.1016 6985.26L24.2763 7003.51L56.9995 7023.68ZM50.3605 7017.22L53.8015 6993.7L31.7097 7002.48L50.3605 7017.22Z" fill="url(#paint21_linear)"/>
<path fill-rule="evenodd" clip-rule="evenodd" d="M98.9798 2472.28L99.7382 2445.84L76.4619 2458.41L98.9798 2472.28ZM94.4115 2467.84L96.7793 2451.65L81.5773 2457.7L94.4115 2467.84Z" fill="url(#paint22_linear)"/>
<path fill-rule="evenodd" clip-rule="evenodd" d="M996.923 2585.81L997.682 2559.37L974.406 2571.93L996.923 2585.81ZM992.355 2581.37L994.723 2565.18L979.521 2571.22L992.355 2581.37Z" fill="url(#paint23_linear)"/>
<path fill-rule="evenodd" clip-rule="evenodd" d="M98.9798 6351.33L99.7382 6324.89L76.4619 6337.46L98.9798 6351.33ZM94.4115 6346.89L96.7793 6330.7L81.5773 6336.75L94.4115 6346.89Z" fill="url(#paint24_linear)"/>
<path fill-rule="evenodd" clip-rule="evenodd" d="M247.518 197.286L248.276 170.847L225 183.41L247.518 197.286ZM242.95 192.844L245.317 176.658L230.115 182.7L242.95 192.844Z" fill="url(#paint25_linear)"/>
<defs>
<linearGradient id="paint0_linear" x1="688.088" y1="172.5" x2="701.758" y2="194.32" gradientUnits="userSpaceOnUse">
<stop stop-color="#2B91BC"/>
<stop offset="1" stop-color="#F76EF1"/>
</linearGradient>
<linearGradient id="paint1_linear" x1="699.328" y1="1052.21" x2="712.999" y2="1074.03" gradientUnits="userSpaceOnUse">
<stop stop-color="#2B91BC"/>
<stop offset="1" stop-color="#F76EF1"/>
</linearGradient>
<linearGradient id="paint2_linear" x1="453.597" y1="665.097" x2="439.558" y2="651.058" gradientUnits="userSpaceOnUse">
<stop stop-color="#2B4BBC"/>
<stop offset="1" stop-color="#DB2E2E"/>
</linearGradient>
<linearGradient id="paint3_linear" x1="464.837" y1="1544.81" x2="450.798" y2="1530.77" gradientUnits="userSpaceOnUse">
<stop stop-color="#2B4BBC"/>
<stop offset="1" stop-color="#DB2E2E"/>
</linearGradient>
<linearGradient id="paint4_linear" x1="1473.53" y1="2461.4" x2="1451.48" y2="2439.35" gradientUnits="userSpaceOnUse">
<stop stop-color="#2B4BBC"/>
<stop offset="1" stop-color="#DB2E2E"/>
</linearGradient>
<linearGradient id="paint5_linear" x1="1533.7" y1="6333.58" x2="1511.66" y2="6311.53" gradientUnits="userSpaceOnUse">
<stop stop-color="#2B4BBC"/>
<stop offset="1" stop-color="#DB2E2E"/>
</linearGradient>
<linearGradient id="paint6_linear" x1="1661.9" y1="4936.57" x2="1647.86" y2="4922.53" gradientUnits="userSpaceOnUse">
<stop stop-color="#2B4BBC"/>
<stop offset="1" stop-color="#DB2E2E"/>
</linearGradient>
<linearGradient id="paint7_linear" x1="926.648" y1="7820.48" x2="912.609" y2="7806.44" gradientUnits="userSpaceOnUse">
<stop stop-color="#2B4BBC"/>
<stop offset="1" stop-color="#DB2E2E"/>
</linearGradient>
<linearGradient id="paint8_linear" x1="212.409" y1="3678.97" x2="189.55" y2="3656.11" gradientUnits="userSpaceOnUse">
<stop stop-color="#2B4BBC"/>
<stop offset="1" stop-color="#DB2E2E"/>
</linearGradient>
<linearGradient id="paint9_linear" x1="1895.97" y1="2946.94" x2="1881.93" y2="2932.9" gradientUnits="userSpaceOnUse">
<stop stop-color="#2B4BBC"/>
<stop offset="1" stop-color="#DB2E2E"/>
</linearGradient>
<linearGradient id="paint10_linear" x1="1218.03" y1="912.546" x2="1218.03" y2="935.205" gradientUnits="userSpaceOnUse">
<stop stop-color="#AD912C"/>
<stop offset="0.453125" stop-color="#BA760F"/>
<stop offset="1" stop-color="#BD1B1B"/>
</linearGradient>
<linearGradient id="paint11_linear" x1="1784.91" y1="1727.06" x2="1784.91" y2="1749.71" gradientUnits="userSpaceOnUse">
<stop stop-color="#AD912C"/>
<stop offset="0.453125" stop-color="#BA760F"/>
<stop offset="1" stop-color="#BD1B1B"/>
</linearGradient>
<linearGradient id="paint12_linear" x1="1788.59" y1="6993.52" x2="1788.59" y2="7016.18" gradientUnits="userSpaceOnUse">
<stop stop-color="#AD912C"/>
<stop offset="0.453125" stop-color="#BA760F"/>
<stop offset="1" stop-color="#BD1B1B"/>
</linearGradient>
<linearGradient id="paint13_linear" x1="1242.37" y1="3457.17" x2="1242.37" y2="3499.6" gradientUnits="userSpaceOnUse">
<stop stop-color="#AD912C"/>
<stop offset="0.453125" stop-color="#BA760F"/>
<stop offset="1" stop-color="#BD1B1B"/>
</linearGradient>
<linearGradient id="paint14_linear" x1="557.338" y1="1921.37" x2="557.338" y2="1944.03" gradientUnits="userSpaceOnUse">
<stop stop-color="#AD912C"/>
<stop offset="0.453125" stop-color="#BA760F"/>
<stop offset="1" stop-color="#BD1B1B"/>
</linearGradient>
<linearGradient id="paint15_linear" x1="149.01" y1="2541.1" x2="149.01" y2="2563.76" gradientUnits="userSpaceOnUse">
<stop stop-color="#AD912C"/>
<stop offset="0.453125" stop-color="#BA760F"/>
<stop offset="1" stop-color="#BD1B1B"/>
</linearGradient>
<linearGradient id="paint16_linear" x1="891.478" y1="586.503" x2="891.478" y2="609.162" gradientUnits="userSpaceOnUse">
<stop stop-color="#842CAD"/>
<stop offset="1" stop-color="#BD1B1B"/>
</linearGradient>
<linearGradient id="paint17_linear" x1="73.6195" y1="852.012" x2="61.6022" y2="871.514" gradientUnits="userSpaceOnUse">
<stop stop-color="#44A5EB"/>
<stop offset="1" stop-color="#22C983"/>
</linearGradient>
<linearGradient id="paint18_linear" x1="542.549" y1="5019.65" x2="524.942" y2="5048.22" gradientUnits="userSpaceOnUse">
<stop stop-color="#44A5EB"/>
<stop offset="1" stop-color="#22C983"/>
</linearGradient>
<linearGradient id="paint19_linear" x1="41.2763" y1="3045.93" x2="29.2589" y2="3065.43" gradientUnits="userSpaceOnUse">
<stop stop-color="#44A5EB"/>
<stop offset="1" stop-color="#22C983"/>
</linearGradient>
<linearGradient id="paint20_linear" x1="125.212" y1="1703.18" x2="107.748" y2="1731.52" gradientUnits="userSpaceOnUse">
<stop stop-color="#44A5EB"/>
<stop offset="1" stop-color="#22C983"/>
</linearGradient>
<linearGradient id="paint21_linear" x1="58.1016" y1="6985.26" x2="40.6379" y2="7013.6" gradientUnits="userSpaceOnUse">
<stop stop-color="#44A5EB"/>
<stop offset="1" stop-color="#22C983"/>
</linearGradient>
<linearGradient id="paint22_linear" x1="99.7382" y1="2445.84" x2="87.7209" y2="2465.34" gradientUnits="userSpaceOnUse">
<stop stop-color="#44A5EB"/>
<stop offset="1" stop-color="#22C983"/>
</linearGradient>
<linearGradient id="paint23_linear" x1="997.682" y1="2559.37" x2="985.664" y2="2578.87" gradientUnits="userSpaceOnUse">
<stop stop-color="#44A5EB"/>
<stop offset="1" stop-color="#22C983"/>
</linearGradient>
<linearGradient id="paint24_linear" x1="99.7382" y1="6324.89" x2="87.7209" y2="6344.4" gradientUnits="userSpaceOnUse">
<stop stop-color="#44A5EB"/>
<stop offset="1" stop-color="#22C983"/>
</linearGradient>
<linearGradient id="paint25_linear" x1="248.276" y1="170.847" x2="236.259" y2="190.348" gradientUnits="userSpaceOnUse">
<stop stop-color="#3BA2ED"/>
<stop offset="1" stop-color="#8022C9"/>
</linearGradient>
</defs>
</svg>
