<svg width="398" height="274" viewBox="0 0 398 274" fill="none" xmlns="http://www.w3.org/2000/svg">
<g filter="url(#filter0_d)">
<path d="M319.519 141.57C286.541 159.234 189.559 215.111 158.975 232.749C156.146 234.39 152.932 235.255 149.66 235.255C146.388 235.255 143.174 234.39 140.345 232.749L24.0647 164.977C19.4392 162.281 20.9183 157.186 25.5781 154.55L187.84 60.4099C188.675 59.9364 189.62 59.6875 190.58 59.6875C191.541 59.6875 192.485 59.9364 193.321 60.4099L319.63 132.09C320.477 132.565 321.181 133.259 321.667 134.098C322.153 134.938 322.403 135.893 322.392 136.863C322.38 137.833 322.108 138.782 321.602 139.61C321.096 140.438 320.377 141.116 319.519 141.57Z" fill="#6287EF"/>
<path d="M179.657 66.6393C179.657 66.6393 176.896 85.4809 188.78 85.5406C200.195 85.6003 197.253 66.4089 197.253 66.4089C197.253 66.4089 188.909 59.2409 179.657 66.6393Z" fill="#68E1FD"/>
<path opacity="0.15" d="M179.657 66.6393C179.657 66.6393 176.896 85.4809 188.78 85.5406C200.195 85.6003 197.253 66.4089 197.253 66.4089C197.253 66.4089 188.909 59.2409 179.657 66.6393Z" fill="black"/>
<path d="M188.421 70.2573C193.271 70.2573 197.202 68.6374 197.202 66.6391C197.202 64.6409 193.271 63.021 188.421 63.021C183.572 63.021 179.641 64.6409 179.641 66.6391C179.641 68.6374 183.572 70.2573 188.421 70.2573Z" fill="#68E1FD"/>
<path opacity="0.7" d="M188.421 70.2573C193.271 70.2573 197.202 68.6374 197.202 66.6391C197.202 64.6409 193.271 63.021 188.421 63.021C183.572 63.021 179.641 64.6409 179.641 66.6391C179.641 68.6374 183.572 70.2573 188.421 70.2573Z" fill="black"/>
<path d="M174.596 39.1361C174.596 39.1361 168.474 37.6684 170.825 32.5825C170.825 32.5825 175.032 33.4103 174.596 39.1361Z" fill="#938F05"/>
<path d="M178.315 44.2561C178.315 44.2561 177.46 39.9127 180.88 38.1548C180.872 38.1633 183.599 42.7116 178.315 44.2561Z" fill="#938F05"/>
<path d="M182.137 50.9208C182.137 50.9208 181.12 45.724 185.189 43.6248C185.189 43.6248 188.455 49.069 182.137 50.9208Z" fill="#938F05"/>
<path d="M185.095 58.1827C185.095 58.1827 184.078 52.9859 188.148 50.8867C188.148 50.8867 191.414 56.331 185.095 58.1827Z" fill="#938F05"/>
<path d="M177.948 44.3758C177.948 44.3758 175.784 40.5102 172.057 41.3635C172.057 41.3208 172.912 46.5944 177.948 44.3758Z" fill="#938F05"/>
<path d="M181.821 51.0829C181.821 51.0829 179.059 46.5602 174.639 47.7549C174.63 47.7549 175.896 53.9757 181.821 51.0829Z" fill="#938F05"/>
<path d="M184.753 58.2424C184.753 58.2424 181.504 54.0525 177.247 55.6824C177.247 55.7251 179.187 61.8008 184.753 58.2424Z" fill="#938F05"/>
<path d="M187.045 70.3341H187.13C187.417 70.3281 187.703 70.351 187.985 70.4023C187.988 70.374 187.988 70.3454 187.985 70.317C186.646 58.6935 182.073 47.6763 174.784 38.5133C174.399 38.0354 173.732 38.7095 174.108 39.1874C181.234 48.1613 185.709 58.9425 187.027 70.317L187.045 70.3341Z" fill="#42352F"/>
<path d="M201.528 47.4306C201.528 47.4306 206.778 46.1762 204.76 41.8071C204.769 41.8071 201.152 42.5239 201.528 47.4306Z" fill="#938F05"/>
<path d="M198.313 51.8254C198.313 51.8254 199.04 48.0963 196.125 46.5945C196.15 46.603 193.799 50.5027 198.313 51.8254Z" fill="#938F05"/>
<path d="M195.065 57.5342C195.065 57.5342 195.92 53.0713 192.448 51.2793C192.448 51.2878 189.635 55.9556 195.065 57.5342Z" fill="#938F05"/>
<path d="M192.525 63.772C192.525 63.772 193.38 59.3091 189.909 57.5171C189.909 57.5342 187.104 62.1848 192.525 63.772Z" fill="#938F05"/>
<path d="M198.656 51.9278C198.656 51.9278 200.511 48.6084 203.709 49.3678C203.709 49.3422 202.982 53.8308 198.656 51.9278Z" fill="#938F05"/>
<path d="M195.338 57.6792C195.338 57.6792 197.707 53.8051 201.503 54.8206C201.503 54.8206 200.417 60.1624 195.338 57.6792Z" fill="#938F05"/>
<path d="M192.816 63.8232C192.816 63.8232 195.603 60.2307 199.254 61.6643C199.263 61.6643 197.595 66.844 192.816 63.8232Z" fill="#938F05"/>
<path d="M201.366 46.8761C195.944 53.6796 192.256 61.6938 190.619 70.2318C190.892 70.1891 191.183 70.1465 191.474 70.1209C193.092 61.8372 196.678 54.0619 201.93 47.4478C202.264 47.0467 201.734 46.4409 201.366 46.8761Z" fill="#42352F"/>
<path d="M278.701 99.9192L278.743 144.429L183.539 201.312V153.235L278.701 99.9192Z" fill="#76B52C"/>
<path d="M129.623 125.34V170.26L183.539 201.312V153.236L129.623 125.34Z" fill="#8CCE46"/>
<path d="M277.931 100.909L183.001 159.021L129.623 127.951L175.605 110.279" fill="#63A01C"/>
<path d="M123.621 124.444L176.519 155.309C192.696 152.693 208.258 147.152 222.441 138.959C246.108 125.306 278.709 99.9277 278.709 99.9277L230.085 71.469L161.3 112.514C161.3 112.514 142.294 121.884 123.621 124.444Z" fill="#8CCE46"/>
<path d="M129.623 125.34L177.435 153.235C177.435 153.235 199.767 148.832 221.159 136.502C242.551 124.171 272.015 101.216 272.015 101.216L228.085 75.4968L165.909 112.6C154.293 118.099 142.131 122.369 129.623 125.34V125.34Z" stroke="#736357" stroke-miterlimit="10"/>
<path d="M206.675 129.974C220.195 129.974 231.154 123.337 231.154 115.151C231.154 106.965 220.195 100.329 206.675 100.329C193.156 100.329 182.197 106.965 182.197 115.151C182.197 123.337 193.156 129.974 206.675 129.974Z" fill="#63A01C"/>
<path d="M56.6146 166.837C56.0623 162.974 56.4644 159.034 57.7859 155.36C59.9833 149.387 69.5678 165.319 69.5678 165.319" fill="#F2AE16"/>
<path d="M86.1973 148.525C100.134 150.385 109.59 159.618 107.316 169.116C105.042 178.614 91.9258 184.826 77.9551 182.966C63.9844 181.105 54.5623 171.872 56.8366 162.375C59.1109 152.877 72.2608 146.665 86.1973 148.525Z" fill="#F2AE16"/>
<path d="M86.625 143.175C100.562 145.035 110.018 154.268 107.744 163.766C105.469 173.263 92.3535 179.476 78.3828 177.615C64.4121 175.755 54.99 166.522 57.2643 157.024C59.5386 147.527 72.6885 141.314 86.625 143.175Z" fill="#FFD008"/>
<path d="M86.1205 145.299C98.3385 146.929 106.641 155.01 104.631 163.339C102.622 171.667 91.1223 177.103 78.9043 175.473C66.6864 173.843 58.3843 165.762 60.3936 157.434C62.4028 149.105 73.9026 143.67 86.1205 145.299Z" stroke="#F7931E" stroke-miterlimit="10"/>
<path d="M82.9743 153.014C81.9184 153.572 81.0471 154.423 80.466 155.465C79.8848 156.507 79.6186 157.695 79.6997 158.884C77.2202 159.232 74.7464 159.59 72.2783 159.96C72.2623 159.457 72.3169 158.954 72.4407 158.466C72.8255 156.973 69.6876 156.76 69.3029 158.202C69.1305 158.932 69.1073 159.69 69.2345 160.429L65.139 161.069C63.164 161.385 63.6342 163.723 65.6264 163.399L69.9698 162.724C70.8497 164.568 72.3501 166.046 74.2094 166.899C76.0688 167.752 78.1691 167.926 80.1443 167.392C83.6583 166.471 83.4959 163.825 83.1624 161.513C83.1624 161.282 83.094 161.052 83.0513 160.822C85.4054 160.503 87.7652 160.196 90.1307 159.9C90.0727 160.956 89.9036 162.003 89.6262 163.023C89.2244 164.516 92.3622 164.73 92.7641 163.288C93.1006 162.059 93.2675 160.79 93.26 159.516L95.7053 159.217C97.7145 158.987 97.2272 156.657 95.2179 156.888L92.9522 157.161C92.6179 155.847 91.9044 154.66 90.9002 153.747C89.8008 152.855 88.4604 152.308 87.0491 152.177C85.6378 152.047 84.2195 152.338 82.9743 153.014ZM80.2127 162.946C79.3577 165.148 77.1945 165.643 74.963 164.278C74.1316 163.787 73.4352 163.098 72.9366 162.272C75.3078 161.914 77.6819 161.57 80.0588 161.24C80.2466 161.788 80.2994 162.373 80.2127 162.946ZM88.4634 155.215C89.2107 155.794 89.7262 156.62 89.9169 157.545C87.5571 157.841 85.2002 158.148 82.8461 158.466C82.8495 158.252 82.8666 158.038 82.8974 157.826C83.2052 156 85.4538 153.107 88.4634 155.215Z" fill="#F7931E"/>
<path d="M136.463 26.0803L116.798 34.8782L124.647 39.4009L104.127 81.5726L80.7338 73.5427L64.5229 113.854C67.6522 115.723 70.8243 117.515 73.9279 119.435L86.8043 86.8121L109.795 94.0825L132.521 43.7358L141.439 49.0947L136.463 26.0803Z" fill="#68E1FD"/>
<path d="M154.085 139.736L159.454 137.619L157.804 128.975L152.793 127.917L154.085 139.736Z" fill="#7C1251"/>
<path d="M232.702 60.8621C232.702 60.8621 235.549 61.8775 235.865 61.8775C236.182 61.8775 241.192 61.8178 240.867 64.7533C240.542 67.6887 232.702 66.9207 232.702 66.9207L229.094 63.1405" fill="#EA831C"/>
<path d="M242.773 64.4119L238.763 63.0807C238.763 63.0807 233.89 62.0311 233.411 63.0807C232.932 64.1303 234.266 67.6034 234.754 67.7143L238.447 68.5677L242.089 68.9858" fill="#F7931E"/>
<path d="M211.139 103.358C211.139 103.358 186.275 119.657 183.839 119.887C181.402 120.118 156.88 129.675 156.88 129.675C156.88 129.675 158.094 135.836 157.445 138.669C157.445 138.669 202.247 127.405 207.89 125.485C213.533 123.565 226.494 110.757 223.186 107.309C219.877 103.862 211.139 103.358 211.139 103.358Z" fill="#E86A58"/>
<path d="M225.52 77.6728C223.485 75.7528 220.091 67.1768 220.92 65.197C221.749 63.2173 227.23 66.4941 227.23 66.4941L232.71 60.8706C232.71 60.8706 225.075 54.5986 221.424 53.5917C217.773 52.5848 214.952 53.7624 213.789 58.14C212.626 62.5176 216.448 77.9202 215.961 81.18C215.474 84.4397 211.139 103.367 211.139 103.367C214.627 109.34 228.897 112.48 230.889 111.977C232.881 111.473 243.005 88.8856 243.005 88.8856C243.005 88.8856 261.926 76.5805 259.438 70.8461C256.95 65.1117 245.98 63.5074 243.74 63.2344C241.5 62.9613 239.798 70.1976 239.798 70.1976C239.798 70.1976 246.972 72.2114 247.639 73.133C248.306 74.0546 245.151 76.4013 239.174 77.6898C233.198 78.9784 231.872 78.2616 231.872 78.2616" fill="#68E1FD"/>
<path d="M154.084 139.736C154.084 139.736 154.546 135.648 154.871 133.762C155.196 131.876 156.384 121.415 151.63 121.773C146.877 122.131 149.92 132.312 149.741 133.438C149.561 134.564 149.108 137.747 149.809 138.737C150.51 139.727 152.554 140.802 154.084 139.736Z" fill="#7C1251"/>
<path d="M148.108 131.62C148.108 131.62 146.398 132.789 145.227 131.399C144.055 130.008 143.405 118.641 142.542 116.371C141.678 114.101 141.584 110.074 144.363 109.809C147.142 109.545 147.535 110.91 148.108 112.736C148.681 114.562 150.921 120.211 153.007 120.928C154.742 121.477 156.506 121.93 158.291 122.285L157.812 128.975L148.108 131.62Z" fill="#981E61"/>
<path d="M227.597 80.7106C227.597 80.7106 222.715 102.761 222.51 103.358C222.305 103.955 217.876 106.524 217.876 106.524L216.893 102.556L226.238 80.301L227.597 80.7106Z" fill="#091114"/>
<path d="M234.053 78.4322C234.053 78.4322 227.674 83.9362 227.957 83.5522C228.239 83.1682 226.597 80.9922 226.597 80.9922L223.733 81.8455L227.008 76.1282" fill="#091114"/>
<path d="M223.964 68.1836C223.964 68.1836 221.553 77.0924 225.537 79.0466C229.521 81.0007 232.317 78.0908 233.531 75.4284C234.745 72.766 234.224 66.5452 229.094 65.9052C224.605 65.3506 223.964 68.1836 223.964 68.1836Z" fill="#F7931E"/>
<path d="M222.869 66.5795C222.703 66.7895 222.591 67.0375 222.545 67.3012C222.498 67.565 222.519 67.8361 222.603 68.0901C222.688 68.3441 222.835 68.573 223.031 68.7562C223.226 68.9394 223.465 69.0712 223.724 69.1395C224.054 69.2204 224.398 69.2272 224.73 69.1593C225.063 69.0914 225.376 68.9506 225.648 68.7469C226.298 68.2861 226.879 67.5267 227.777 67.8936C228.023 67.9954 228.231 68.1705 228.374 68.3951C228.516 68.6196 228.585 68.8826 228.572 69.148C228.483 69.4937 228.44 69.8494 228.444 70.2061C228.514 70.4558 228.671 70.6718 228.888 70.8145C229.105 70.9572 229.366 71.0169 229.624 70.9827C230.479 70.9827 231.145 70.5901 231.881 71.2472C232.156 71.5038 232.336 71.8465 232.391 72.2188C232.445 72.5911 232.371 72.9707 232.18 73.2952C232.047 73.4369 231.932 73.5945 231.838 73.7645C231.701 74.0035 231.975 74.1827 232.189 74.1144C232.248 74.1031 232.302 74.0732 232.342 74.0291C232.457 73.9041 232.558 73.7667 232.642 73.6195C232.722 73.5425 232.821 73.4867 232.928 73.4569C233.035 73.4271 233.149 73.4243 233.257 73.4488C233.83 73.6024 233.591 74.1997 233.257 74.5069C233.022 74.7495 232.734 74.9343 232.415 75.0468C232.096 75.1593 231.755 75.1965 231.419 75.1555C231.361 75.1493 231.303 75.1611 231.252 75.1893C231.201 75.2176 231.16 75.2608 231.135 75.3132C231.11 75.3655 231.101 75.4244 231.111 75.4817C231.12 75.539 231.147 75.592 231.188 75.6333C231.158 75.6628 231.135 75.6991 231.122 75.7392C231.108 75.7793 231.105 75.822 231.111 75.8637C231.197 76.4472 231.102 77.0428 230.838 77.5704C230.816 77.6039 230.801 77.6413 230.794 77.6807C230.787 77.72 230.787 77.7603 230.796 77.7993C230.805 77.8383 230.821 77.8752 230.845 77.9077C230.868 77.9402 230.898 77.9677 230.932 77.9885C230.927 78.0269 230.932 78.0658 230.946 78.1017C230.961 78.1375 230.984 78.1693 231.014 78.1939C231.043 78.2185 231.079 78.2353 231.117 78.2427C231.155 78.25 231.194 78.2477 231.231 78.236C232.271 77.9594 233.24 77.4616 234.07 76.7768C235.993 75.0453 237.318 72.7516 237.857 70.2232C238.396 67.7827 237.72 64.1987 234.591 64.1475C234.464 64.1569 234.337 64.1424 234.215 64.1048C234.126 64.0622 234.045 64.0044 233.976 63.9341C233.196 63.2496 232.256 62.7732 231.242 62.5494C230.229 62.3256 229.175 62.3616 228.179 62.6541C227.621 62.7838 227.098 63.0344 226.648 63.388C226.271 63.045 225.805 62.8143 225.304 62.7223C224.802 62.6303 224.284 62.6806 223.81 62.8675C222.544 63.4733 222.724 65.4275 223.143 66.5027C223.094 66.4892 223.043 66.4893 222.995 66.5028C222.947 66.5164 222.903 66.5429 222.869 66.5795ZM227.845 67.3219H227.931H227.982C228.032 67.3597 228.087 67.3913 228.144 67.4157C228.32 67.4857 228.467 67.6118 228.563 67.7741C228.364 67.5737 228.121 67.4219 227.854 67.3304L227.845 67.3219ZM223.45 65.5555C223.482 65.6543 223.519 65.7512 223.562 65.8456C223.493 65.7688 223.476 65.6664 223.45 65.5555Z" fill="#935542"/>
<path d="M230.881 111.968C230.881 111.968 226.777 124.768 218.594 127.431C210.412 130.093 203.811 124.947 200.024 126.159C196.236 127.371 165.037 131.185 156.906 129.675C156.906 129.675 155.53 120.868 157.47 119.025C159.411 117.182 193.483 110.244 196.8 109.775C200.118 109.306 214.969 107.027 214.969 107.027" fill="#FF7B61"/>
<path d="M56.4691 154.387C55.9168 150.524 56.3189 146.584 57.6404 142.91C59.8378 136.937 69.4223 152.869 69.4223 152.869" fill="#F2AE16"/>
<path d="M86.0523 136.041C99.9888 137.901 109.445 147.134 107.171 156.632C104.896 166.129 91.7808 172.342 77.8101 170.481C63.8394 168.621 54.4173 159.388 56.6916 149.89C58.9659 140.393 72.1158 134.215 86.0523 136.041Z" fill="#F2AE16"/>
<path d="M86.4795 130.725C100.416 132.585 109.872 141.818 107.598 151.315C105.324 160.813 92.208 167.025 78.2373 165.165C64.2666 163.305 54.8445 154.072 57.1188 144.574C59.3931 135.077 72.543 128.864 86.4795 130.725Z" fill="#FFD008"/>
<path d="M85.9667 132.858C98.1847 134.488 106.487 142.569 104.477 150.897C102.468 159.226 90.9685 164.661 78.7505 163.032C66.5326 161.402 58.2305 153.321 60.2398 144.992C62.249 136.664 73.7573 131.219 85.9667 132.858Z" stroke="#F7931E" stroke-miterlimit="10"/>
<path d="M82.82 140.563C81.7641 141.121 80.8928 141.973 80.3117 143.015C79.7305 144.057 79.4643 145.245 79.5454 146.434C77.0659 146.781 74.5921 147.14 72.124 147.51C72.108 147.007 72.1626 146.504 72.2864 146.016C72.6712 144.523 69.5333 144.31 69.1486 145.752C68.9762 146.482 68.953 147.239 69.0802 147.979L64.9847 148.619C63.0097 148.935 63.4799 151.273 65.4721 150.948L69.8155 150.274C70.6954 152.118 72.1958 153.596 74.0551 154.449C75.9145 155.302 78.0148 155.476 79.99 154.942C83.504 154.02 83.3416 151.375 83.0081 149.063C83.0081 148.832 82.9397 148.602 82.897 148.371C85.2511 148.053 87.6109 147.746 89.9764 147.45C89.9184 148.506 89.7493 149.552 89.4719 150.573C89.0701 152.066 92.2079 152.28 92.6098 150.838C92.9463 149.609 93.1132 148.34 93.1057 147.066L95.551 146.767C97.5602 146.537 97.0729 144.207 95.0636 144.437L92.7979 144.711C92.4636 143.397 91.7501 142.21 90.7459 141.297C89.6465 140.404 88.3061 139.858 86.8948 139.727C85.4835 139.597 84.0652 139.888 82.82 140.563ZM80.0584 150.496C79.2034 152.698 77.0402 153.193 74.8087 151.827C73.9773 151.337 73.281 150.648 72.7823 149.822C75.1535 149.464 77.5276 149.119 79.9045 148.79C80.0923 149.338 80.1451 149.923 80.0584 150.496ZM88.3091 142.765C89.0564 143.344 89.5719 144.17 89.7626 145.095C87.4028 145.39 85.0459 145.698 82.6918 146.016C82.6952 145.802 82.7123 145.588 82.7431 145.376C83.0509 143.55 85.3508 140.623 88.3091 142.765Z" fill="#F7931E"/>
<path d="M54.6737 143.721C54.1214 139.857 54.5235 135.917 55.845 132.243C58.0424 126.27 67.6269 142.202 67.6269 142.202" fill="#F2AE16"/>
<path d="M84.2564 125.408C98.1929 127.269 107.649 136.502 105.375 145.999C103.101 155.497 89.9849 161.709 76.0142 159.849C62.0435 157.989 52.6214 148.756 54.8957 139.258C57.17 129.76 70.3199 123.548 84.2564 125.408Z" fill="#F2AE16"/>
<path d="M84.6841 120.066C98.6206 121.927 108.077 131.16 105.803 140.657C103.528 150.155 90.4126 156.367 76.4419 154.507C62.4712 152.647 53.0491 143.414 55.3234 133.916C57.5977 124.418 70.7476 118.198 84.6841 120.066Z" fill="#FFD008"/>
<path d="M84.1711 122.191C96.389 123.821 104.691 131.902 102.682 140.231C100.673 148.559 89.1643 153.961 76.9549 152.365C64.7455 150.769 56.4349 142.654 58.4441 134.325C60.4534 125.997 71.9617 120.561 84.1711 122.191Z" stroke="#F7931E" stroke-miterlimit="10"/>
<path d="M81.0249 129.905C79.9705 130.464 79.101 131.317 78.5214 132.358C77.9418 133.4 77.6769 134.587 77.7588 135.776C75.2793 136.123 72.8055 136.482 70.3374 136.851C70.3213 136.348 70.376 135.846 70.4998 135.358C70.8846 133.865 67.7467 133.651 67.362 135.094C67.1896 135.824 67.1664 136.581 67.2936 137.321L63.1981 137.961C61.2231 138.276 61.6933 140.615 63.6855 140.29L68.0289 139.616C68.9087 141.46 70.4092 142.937 72.2685 143.79C74.1279 144.643 76.2282 144.818 78.2034 144.284C81.7174 143.362 81.555 140.717 81.2215 138.404C81.2215 138.174 81.1531 137.944 81.1104 137.713C83.4645 137.395 85.8243 137.087 88.1898 136.792C88.1318 137.847 87.9627 138.894 87.6853 139.915C87.2835 141.408 90.4213 141.622 90.8232 140.179C91.1597 138.951 91.3265 137.682 91.3191 136.408L93.7644 136.109C95.7736 135.879 95.2863 133.549 93.277 133.779L91.0113 134.052C90.677 132.739 89.9634 131.552 88.9593 130.639C87.8591 129.745 86.517 129.197 85.104 129.066C83.691 128.936 82.271 129.228 81.0249 129.905ZM78.2632 139.838C77.4082 142.04 75.2451 142.535 73.0135 141.169C72.1821 140.679 71.4858 139.99 70.9872 139.164C73.3584 138.806 75.7324 138.461 78.1093 138.131C78.2958 138.677 78.3485 139.259 78.2632 139.83V139.838ZM86.514 132.107C87.2612 132.686 87.7767 133.512 87.9675 134.436C85.6077 134.732 83.2507 135.039 80.8966 135.358C80.9 135.144 80.9171 134.93 80.9479 134.718C81.2557 132.883 83.5557 129.956 86.514 132.098V132.107Z" fill="#F7931E"/>
<path d="M102.682 122.746C102.682 122.746 103.101 129.231 98.0479 129.632C98.0479 129.632 102.323 131.407 103.041 134.803C103.041 134.803 103.571 130.059 107.915 129.573C106.376 129.232 105.008 128.361 104.05 127.112C103.093 125.863 102.608 124.317 102.682 122.746Z" fill="white"/>
<path d="M278.683 107.685C270.843 112.745 262.96 117.728 255.068 122.703L231.334 137.526L207.496 152.186L195.526 159.456L183.556 166.65L195.329 159.081L207.163 151.606L230.897 136.783L254.743 122.149C262.704 117.268 270.681 112.446 278.683 107.685Z" fill="#009245"/>
<path d="M278.683 112.557C270.843 117.617 262.96 122.601 255.068 127.576L231.334 142.398L207.496 157.058L195.526 164.329L183.556 171.522L195.338 163.97L207.18 156.521L230.915 141.698L254.743 127.013C262.729 122.157 270.698 117.319 278.683 112.557Z" fill="#009245"/>
<path d="M279.641 117.976C271.801 123.036 263.918 128.019 256.026 132.994L232.291 147.817L208.454 162.494L196.484 169.764L184.514 176.958L196.296 169.406L208.129 161.931L231.838 147.134L255.684 132.474C263.644 127.584 271.621 122.746 279.641 117.976Z" fill="#009245"/>
<path d="M279.641 124.538C271.801 129.598 263.918 134.582 256.026 139.557L232.291 154.387L208.454 169.048L196.484 176.318L184.514 183.512L196.296 175.96L208.103 168.467L231.838 153.645L255.684 138.985C263.644 134.146 271.621 129.308 279.641 124.538Z" fill="#009245"/>
<path d="M278.683 131.868C270.843 136.928 262.96 141.912 255.068 146.887L231.334 161.709L207.496 176.369L195.526 183.64L183.556 190.833L195.338 183.281L207.171 175.806L230.906 160.984L254.743 146.332C262.712 141.476 270.689 136.63 278.683 131.868Z" fill="#009245"/>
<path d="M278.735 136.74C270.895 141.801 263.012 146.784 255.12 151.759L231.385 166.582L207.539 181.267L195.569 188.538L183.599 195.731L195.381 188.179L207.214 180.704L230.949 165.882L254.744 151.204C262.738 146.349 270.715 141.502 278.735 136.74Z" fill="#009245"/>
<path d="M130.461 136.817C134.821 139.053 139.139 141.374 143.448 143.704C147.758 146.033 151.998 148.423 156.325 150.786C160.651 153.15 164.875 155.591 169.107 158.04L175.46 161.726C177.563 162.981 179.683 164.209 181.769 165.489C179.581 164.38 177.426 163.22 175.254 162.076L168.782 158.594C164.507 156.265 160.232 153.876 155.906 151.512C151.579 149.148 147.356 146.708 143.123 144.258C138.891 141.809 134.65 139.36 130.461 136.817Z" fill="#009245"/>
<path d="M130.461 142.628C134.821 144.864 139.139 147.185 143.448 149.515C147.758 151.844 151.998 154.234 156.325 156.597C160.651 158.961 164.875 161.402 169.107 163.851L175.46 167.537C177.563 168.792 179.683 170.02 181.769 171.3C179.581 170.191 177.426 169.031 175.254 167.887L168.782 164.405C164.507 162.076 160.232 159.687 155.906 157.323C151.579 154.959 147.356 152.519 143.123 150.069C138.891 147.62 134.65 145.171 130.461 142.628Z" fill="#009245"/>
<path d="M131.213 148.977C135.574 151.213 139.892 153.534 144.201 155.864C148.51 158.193 152.751 160.583 157.077 162.946C161.403 165.31 165.627 167.751 169.859 170.2L176.212 173.886C178.315 175.141 180.436 176.369 182.522 177.649C180.333 176.54 178.179 175.379 176.007 174.236L169.534 170.754C165.259 168.425 160.984 166.035 156.658 163.672C152.332 161.308 148.108 158.867 143.876 156.418C139.644 153.969 135.403 151.52 131.213 148.977Z" fill="#009245"/>
<path d="M131.213 154.814C135.574 157.05 139.892 159.371 144.201 161.701C148.51 164.03 152.751 166.42 157.077 168.783C161.403 171.147 165.627 173.588 169.859 176.037L176.212 179.723C178.315 180.977 180.436 182.206 182.522 183.486C180.333 182.377 178.179 181.216 176.007 180.073L169.534 176.591C165.259 174.262 160.984 171.872 156.658 169.509C152.332 167.145 148.108 164.704 143.876 162.255C139.644 159.806 135.403 157.332 131.213 154.814Z" fill="#009245"/>
<path d="M130.922 159.021C135.283 161.257 139.601 163.578 143.91 165.907C148.219 168.237 152.46 170.626 156.786 172.99C161.112 175.354 165.336 177.794 169.568 180.243L175.921 183.93C178.024 185.184 180.145 186.413 182.231 187.693C180.042 186.584 177.888 185.423 175.716 184.28L169.243 180.815C164.968 178.486 160.693 176.096 156.367 173.732C152.041 171.369 147.817 168.928 143.585 166.479C139.353 164.03 135.12 161.564 130.922 159.021Z" fill="#009245"/>
<path d="M130.922 164.832C135.283 167.068 139.601 169.389 143.91 171.719C148.219 174.048 152.46 176.438 156.786 178.801C161.112 181.165 165.336 183.606 169.568 186.055L175.921 189.741C178.024 190.995 180.145 192.224 182.231 193.504C180.042 192.395 177.888 191.234 175.716 190.091L169.243 186.618C164.968 184.288 160.693 181.899 156.367 179.535C152.041 177.171 147.817 174.731 143.585 172.282C139.353 169.833 135.12 167.375 130.922 164.832Z" fill="#009245"/>
</g>
<defs>
<filter id="filter0_d" x="0.808594" y="-21.3726" width="417" height="320" filterUnits="userSpaceOnUse" color-interpolation-filters="sRGB">
<feFlood flood-opacity="0" result="BackgroundImageFix"/>
<feColorMatrix in="SourceAlpha" type="matrix" values="0 0 0 0 0 0 0 0 0 0 0 0 0 0 0 0 0 0 127 0"/>
<feOffset dx="43" dy="6"/>
<feGaussianBlur stdDeviation="16"/>
<feColorMatrix type="matrix" values="0 0 0 0 0 0 0 0 0 0 0 0 0 0 0 0 0 0 0.25 0"/>
<feBlend mode="normal" in2="BackgroundImageFix" result="effect1_dropShadow"/>
<feBlend mode="normal" in="SourceGraphic" in2="effect1_dropShadow" result="shape"/>
</filter>
</defs>
</svg>
