<svg width="35" height="35" viewBox="0 0 35 35" fill="none" xmlns="http://www.w3.org/2000/svg">
<g clip-path="url(#clip0)">
<path d="M8.86079 0.606689C8.19014 0.606689 7.64648 1.15034 7.64648 1.821V4.24954H10.075V1.821C10.075 1.15034 9.53138 0.606689 8.86079 0.606689Z" fill="#1D607A"/>
<path d="M25.8608 0.606689C25.1901 0.606689 24.6465 1.15034 24.6465 1.821V4.24954H27.075V1.821C27.0751 1.15034 26.5314 0.606689 25.8608 0.606689Z" fill="#1D607A"/>
<path d="M30.718 4.24951H27.0751V9.10667C27.0751 9.77733 26.5315 10.321 25.8608 10.321C25.1902 10.321 24.6465 9.77733 24.6465 9.10667V4.24951H10.0751V9.10667C10.0751 9.77733 9.53144 10.321 8.86079 10.321C8.19013 10.321 7.64648 9.77733 7.64648 9.10667V4.24951H4.00369C1.9918 4.24951 0.36084 5.88047 0.36084 7.89237V30.9638C0.36084 32.9757 1.9918 34.6067 4.00369 34.6067H30.718C32.7299 34.6067 34.3608 32.9757 34.3608 30.9638V7.89237C34.3608 5.88047 32.7299 4.24951 30.718 4.24951ZM31.9322 30.9638C31.9322 31.6345 31.3886 32.1781 30.7179 32.1781H4.00369C3.33304 32.1781 2.78939 31.6345 2.78939 30.9638V15.1781H31.9322V30.9638Z" fill="#1D607A"/>
<path d="M25.5057 17.9631C25.0315 17.4886 24.2626 17.4884 23.7881 17.9624L14.9323 26.8183L10.9336 22.8196C10.4591 22.3455 9.69015 22.3458 9.21601 22.8203C8.74187 23.2947 8.74216 24.0637 9.21665 24.5379L14.0738 29.395C14.548 29.8691 15.3167 29.8691 15.7908 29.395L25.5051 19.6807C25.9795 19.2066 25.9798 18.4376 25.5057 17.9631Z" fill="#1D607A"/>
</g>
<defs>
<clipPath id="clip0">
<rect width="34" height="34" fill="white" transform="translate(0.36084 0.606689)"/>
</clipPath>
</defs>
</svg>
