<svg width="336" height="306" viewBox="0 0 336 306" fill="none" xmlns="http://www.w3.org/2000/svg">
<g filter="url(#filter0_d)">
<ellipse cx="164.411" cy="148.902" rx="132.279" ry="129.555" fill="#E6E6E6" fill-opacity="0.6"/>
</g>
<g clip-path="url(#clip0)">
<path d="M244.597 153.654C244.597 153.654 257.017 151.494 256.18 159.657H244.597V153.654Z" fill="#F4A28C"/>
<path d="M217.027 138.804L213.275 158.379H234.346L231.474 135.879L217.027 138.804Z" fill="#C9C9C9"/>
<path d="M265.769 75.6152H182.178V136.626H265.769V75.6152Z" fill="#24285B"/>
<path d="M237.847 115.953H211.55V118.608H237.847V115.953Z" fill="#40006B"/>
<path d="M249.564 122.919H223.266V125.574H249.564V122.919Z" fill="#FFD200"/>
<path d="M265.769 131.379H182.178V142.926H265.769V131.379Z" fill="#E6E6E6"/>
<path d="M227.286 109.536H205.218V112.191H227.286V109.536Z" fill="#40006B"/>
<path d="M253.944 109.536H231.876V112.191H253.944V109.536Z" fill="#40006B"/>
<path d="M231.281 102.147H211.55V104.802H231.281V102.147Z" fill="#FFD200"/>
<path d="M256.146 102.147H236.415V104.802H256.146V102.147Z" fill="#FFD200"/>
<path d="M206.927 115.953H197.036V118.608H206.927V115.953Z" fill="white"/>
<path d="M216.776 122.919H206.885V125.574H216.776V122.919Z" fill="white"/>
<path d="M200.595 109.536H190.704V112.191H200.595V109.536Z" fill="white"/>
<path opacity="0.14" d="M193.099 97.0352C193.099 97.0352 233.936 92.6252 224.924 142.935L228.032 155.202L215.285 147.768L216.307 142.944H209.556L193.099 97.0352Z" fill="black"/>
<path d="M193.099 82.8602C193.742 82.8602 194.264 82.3001 194.264 81.6092C194.264 80.9183 193.742 80.3582 193.099 80.3582C192.457 80.3582 191.935 80.9183 191.935 81.6092C191.935 82.3001 192.457 82.8602 193.099 82.8602Z" fill="#40006B"/>
<path d="M196.366 82.8602C197.009 82.8602 197.53 82.3001 197.53 81.6092C197.53 80.9183 197.009 80.3582 196.366 80.3582C195.723 80.3582 195.202 80.9183 195.202 81.6092C195.202 82.3001 195.723 82.8602 196.366 82.8602Z" fill="#FFD200"/>
<path d="M200.595 89.3492H190.704V92.0042H200.595V89.3492Z" fill="white"/>
<path d="M206.927 95.9912H197.036V98.6462H206.927V95.9912Z" fill="white"/>
<path d="M231.281 95.9912H211.55V98.6462H231.281V95.9912Z" fill="#FFD200"/>
<path d="M256.146 95.9912H236.415V98.6462H256.146V95.9912Z" fill="#FFD200"/>
<path d="M206.927 102.147H197.036V104.802H206.927V102.147Z" fill="white"/>
<path d="M224.924 89.3492H204.548V92.0042H224.924V89.3492Z" fill="#40006B"/>
<path d="M243.651 89.3492H229.187V92.0042H243.651V89.3492Z" fill="#40006B"/>
<path d="M224.925 140.082C226.641 140.082 228.032 138.587 228.032 136.743C228.032 134.899 226.641 133.404 224.925 133.404C223.209 133.404 221.817 134.899 221.817 136.743C221.817 138.587 223.209 140.082 224.925 140.082Z" fill="#A5A5A5"/>
<path d="M106.669 155.229H64.6521V158.379H106.669V155.229Z" fill="#C9C9C9"/>
<path d="M81.402 153.654C81.402 153.654 68.9818 151.494 69.8193 159.657H81.402V153.654Z" fill="#F4A28C"/>
<path d="M104.5 138.804L100.748 158.379H121.82L118.947 135.879L104.5 138.804Z" fill="#C9C9C9"/>
<path d="M149.742 75.6152H66.1514V136.626H149.742V75.6152Z" fill="#24285B"/>
<path d="M121.82 115.953H95.5222V118.608H121.82V115.953Z" fill="#40006B"/>
<path d="M149.742 131.379H66.1514V142.926H149.742V131.379Z" fill="#E6E6E6"/>
<path d="M111.259 109.536H89.1909V112.191H111.259V109.536Z" fill="#40006B"/>
<path d="M115.254 102.147H95.5222V104.802H115.254V102.147Z" fill="#FFD200"/>
<path d="M90.8994 115.953H81.0085V118.608H90.8994V115.953Z" fill="white"/>
<path d="M100.748 122.919H90.8574V125.574H100.748V122.919Z" fill="white"/>
<path d="M84.5679 109.536H74.677V112.191H84.5679V109.536Z" fill="white"/>
<path d="M73.6133 82.8602C74.2563 82.8602 74.7775 82.3001 74.7775 81.6092C74.7775 80.9183 74.2563 80.3582 73.6133 80.3582C72.9704 80.3582 72.4492 80.9183 72.4492 81.6092C72.4492 82.3001 72.9704 82.8602 73.6133 82.8602Z" fill="white"/>
<path d="M77.0723 82.8602C77.7153 82.8602 78.2365 82.3001 78.2365 81.6092C78.2365 80.9183 77.7153 80.3582 77.0723 80.3582C76.4294 80.3582 75.9082 80.9183 75.9082 81.6092C75.9082 82.3001 76.4294 82.8602 77.0723 82.8602Z" fill="#40006B"/>
<path d="M80.3387 82.8602C80.9816 82.8602 81.5028 82.3001 81.5028 81.6092C81.5028 80.9183 80.9816 80.3582 80.3387 80.3582C79.6958 80.3582 79.1746 80.9183 79.1746 81.6092C79.1746 82.3001 79.6958 82.8602 80.3387 82.8602Z" fill="#FFD200"/>
<path d="M84.5679 89.3492H74.677V92.0042H84.5679V89.3492Z" fill="white"/>
<path d="M90.8994 95.9912H81.0085V98.6462H90.8994V95.9912Z" fill="white"/>
<path d="M115.254 95.9912H95.5222V98.6462H115.254V95.9912Z" fill="#FFD200"/>
<path d="M90.8994 102.147H81.0085V104.802H90.8994V102.147Z" fill="white"/>
<path d="M108.897 89.3492H88.5208V92.0042H108.897V89.3492Z" fill="#40006B"/>
<path opacity="0.45" d="M164.247 250.683C238.947 250.683 299.504 242.25 299.504 231.846C299.504 221.443 238.947 213.009 164.247 213.009C89.5475 213.009 28.9912 221.443 28.9912 231.846C28.9912 242.25 89.5475 250.683 164.247 250.683Z" fill="#E6E6E6"/>
<path d="M143.779 95.0283C143.779 95.0283 114.626 97.1793 112.39 114.576C111.15 124.242 113.612 132.981 116.049 138.876C116.421 139.772 116.593 140.748 116.551 141.728C116.51 142.707 116.256 143.663 115.81 144.518C115.365 145.374 114.739 146.106 113.984 146.656C113.229 147.206 112.365 147.559 111.46 147.687L81.4021 152.187V159.702L123.227 158.37C127.47 158.236 131.519 156.432 134.607 153.301C137.694 150.171 139.605 145.931 139.977 141.387L143.779 95.0283Z" fill="#40006B"/>
<path d="M182.178 95.0283C182.178 95.0283 211.332 97.1793 213.568 114.576C214.807 124.242 212.345 132.981 209.908 138.876C209.537 139.772 209.365 140.748 209.406 141.728C209.448 142.707 209.701 143.663 210.147 144.518C210.593 145.374 211.218 146.106 211.973 146.656C212.729 147.206 213.593 147.559 214.498 147.687L244.555 152.187V159.702L202.722 158.325C198.48 158.189 194.431 156.384 191.344 153.254C188.257 150.124 186.346 145.886 185.972 141.342L182.178 95.0283Z" fill="#40006B"/>
<path opacity="0.46" d="M143.779 95.0283C143.779 95.0283 114.626 97.1793 112.39 114.576C111.15 124.242 113.612 132.981 116.049 138.876C116.421 139.772 116.593 140.748 116.551 141.728C116.51 142.707 116.256 143.663 115.81 144.518C115.365 145.374 114.739 146.106 113.984 146.656C113.229 147.206 112.365 147.559 111.46 147.687L81.4021 152.187V159.702L123.227 158.37C127.47 158.236 131.519 156.432 134.607 153.301C137.694 150.171 139.605 145.931 139.977 141.387L143.779 95.0283Z" fill="white"/>
<path opacity="0.46" d="M182.178 95.0283C182.178 95.0283 211.332 97.1793 213.568 114.576C214.807 124.242 212.345 132.981 209.908 138.876C209.537 139.772 209.365 140.748 209.406 141.728C209.448 142.707 209.701 143.663 210.147 144.518C210.593 145.374 211.218 146.106 211.973 146.656C212.729 147.206 213.593 147.559 214.498 147.687L244.555 152.187V159.702L202.722 158.325C198.48 158.189 194.431 156.384 191.344 153.254C188.257 150.124 186.346 145.886 185.972 141.342L182.178 95.0283Z" fill="white"/>
<path d="M273.332 165.327H53.4883V231.855H273.332V165.327Z" fill="#C9C9C9"/>
<path d="M273.332 158.379H53.4883V174.642H273.332V158.379Z" fill="#E6E6E6"/>
<path d="M160.286 95.0282L163.846 78.3512C163.846 78.3512 163.963 70.5392 168.628 72.3572C173.293 74.1752 174.691 83.2292 172.179 86.2892C169.666 89.3492 167.991 85.1732 167.991 85.1732V94.3982L160.286 95.0282Z" fill="#F4A28C"/>
<path opacity="0.1" d="M221.817 158.937C221.817 158.937 202.496 163.356 210.57 171.735C218.643 180.114 214.188 191.895 208.593 195.297C202.999 198.699 179.825 202.803 187.229 231.504H161.107L159.181 216.204L142.431 197.196L149.75 178.863L170.345 148.776L184.297 161.205L191.935 158.379L221.817 158.937Z" fill="black"/>
<path d="M155.638 94.2632C155.638 94.2632 126.577 91.4822 122.783 112.569C118.989 133.656 146.032 173.454 146.032 173.454L183.72 171.879C183.72 171.879 242.269 83.4992 155.638 94.2632Z" fill="#40006B"/>
<path d="M159.172 216.177C159.172 216.177 160.847 218.553 159.75 220.803C158.653 223.053 160.236 224.961 161.894 223.395C163.552 221.829 164.239 215.295 164.239 215.295L160.496 212.946L159.172 216.177Z" fill="#40006B"/>
<path d="M146.032 173.454C146.032 173.454 143.519 187.629 149.173 188.304C154.826 188.979 194.816 190.896 201.516 184.875C208.216 178.854 206.541 170.529 183.719 171.879L146.032 173.454Z" fill="#24285B"/>
<path d="M145.705 175.902C145.705 175.902 128.235 190.572 137.238 201.372C146.241 212.172 159.223 218.472 159.223 218.472L161.107 213.297C161.107 213.297 133.888 190.572 159.641 186.072L145.705 175.902Z" fill="#24285B"/>
<path d="M168.067 128.157H157.79C147.208 128.157 138.628 137.377 138.628 148.749C138.628 160.122 147.208 169.341 157.79 169.341H168.067C178.649 169.341 187.229 160.122 187.229 148.749C187.229 137.377 178.649 128.157 168.067 128.157Z" fill="#FFD200"/>
<path d="M167.497 148.749H157.933V189.996H167.497V148.749Z" fill="#FFD200"/>
<path opacity="0.08" d="M167.497 148.749H157.933V189.996H167.497V148.749Z" fill="black"/>
<path d="M182.178 184.875H143.779V197.196H182.178V184.875Z" fill="#FFD200"/>
<path d="M161.383 83.8143L161.442 79.8633C161.467 78.9539 161.321 78.0485 161.013 77.2011C160.705 76.3537 160.242 75.5817 159.65 74.9313C159.406 74.7273 159.202 74.4736 159.05 74.1847C158.898 73.8958 158.8 73.5775 158.763 73.248C158.726 72.9185 158.749 72.5844 158.832 72.2647C158.916 71.945 159.057 71.6462 159.248 71.3853C161.174 68.4243 162.799 70.3413 164.742 67.7223C166.685 65.1033 168.15 64.5903 170.42 67.7223C172.69 70.8543 174.473 67.2003 175.772 71.0343C177.07 74.8683 175.931 76.7853 170.906 77.1363C166.634 77.4333 167.958 82.6353 163.996 85.3713C163.74 85.5577 163.441 85.6642 163.132 85.679C162.823 85.6938 162.516 85.6163 162.245 85.455C161.974 85.2937 161.751 85.0551 161.598 84.7654C161.446 84.4758 161.372 84.1466 161.383 83.8143Z" fill="#24285B"/>
<path d="M165.772 197.187H159.675V225.654H165.772V197.187Z" fill="#FFD200"/>
<path opacity="0.08" d="M165.772 197.187H159.675V225.654H165.772V197.187Z" fill="black"/>
<path d="M159.675 225.654L147.883 237.354H178.485L165.764 225.654H159.675Z" fill="#FFD200"/>
<path d="M262.302 180.429H239.689V222.504H262.302V180.429Z" fill="#A5A5A5"/>
<path d="M234.388 174.642H229.087V231.855H234.388V174.642Z" fill="#E6E6E6"/>
<path d="M273.332 174.642H268.031V231.855H273.332V174.642Z" fill="#E6E6E6"/>
<path d="M273.341 222.504H233.869V231.846H273.341V222.504Z" fill="#E6E6E6"/>
<path d="M64.6521 174.642H53.4883V231.855H64.6521V174.642Z" fill="#E6E6E6"/>
<path opacity="0.42" d="M96.4771 215.673H64.6521V222.504H96.4771V215.673Z" fill="#A5A5A5"/>
<path d="M112.591 222.234H64.6521V231.846H112.591V222.234Z" fill="#A5A5A5"/>
<path d="M127.624 89.3492H113.16V92.0042H127.624V89.3492Z" fill="#40006B"/>
<path d="M111.058 140.082C112.774 140.082 114.165 138.587 114.165 136.743C114.165 134.899 112.774 133.404 111.058 133.404C109.342 133.404 107.951 134.899 107.951 136.743C107.951 138.587 109.342 140.082 111.058 140.082Z" fill="#A5A5A5"/>
<path d="M189.641 82.8602C190.284 82.8602 190.805 82.3001 190.805 81.6092C190.805 80.9183 190.284 80.3582 189.641 80.3582C188.998 80.3582 188.477 80.9183 188.477 81.6092C188.477 82.3001 188.998 82.8602 189.641 82.8602Z" fill="white"/>
<path d="M280.535 62.0522H248.082V86.0282H280.535V62.0522Z" fill="#FFD200"/>
<path d="M259.949 78.7472C259.782 78.748 259.619 78.6877 259.488 78.5762L254.648 74.4452C254.56 74.3693 254.489 74.2735 254.439 74.1646C254.39 74.0556 254.364 73.9363 254.363 73.8152C254.362 73.6934 254.387 73.573 254.435 73.4625C254.482 73.3521 254.552 73.2543 254.639 73.1762L259.505 68.9732C259.661 68.8461 259.857 68.7894 260.052 68.8149C260.246 68.8405 260.424 68.9464 260.547 69.1102C260.67 69.274 260.729 69.4828 260.711 69.6924C260.693 69.902 260.6 70.096 260.451 70.2332L256.314 73.8332L260.443 77.3342C260.521 77.3993 260.587 77.4804 260.635 77.5729C260.684 77.6654 260.715 77.7674 260.727 77.8729C260.739 77.9785 260.731 78.0854 260.704 78.1876C260.676 78.2898 260.631 78.3852 260.569 78.4682C260.493 78.5642 260.398 78.6395 260.29 78.688C260.182 78.7365 260.065 78.7568 259.949 78.7472Z" fill="white"/>
<path d="M268.759 78.7473C268.646 78.748 268.535 78.7208 268.433 78.6677C268.331 78.6147 268.242 78.5372 268.173 78.4413C268.111 78.3583 268.065 78.263 268.038 78.1608C268.011 78.0585 268.003 77.9516 268.015 77.846C268.026 77.7405 268.057 77.6385 268.106 77.546C268.155 77.4535 268.22 77.3724 268.299 77.3073L272.419 73.8063L268.29 70.2063C268.203 70.1441 268.129 70.0631 268.072 69.9685C268.016 69.8738 267.978 69.7676 267.962 69.6565C267.946 69.5454 267.952 69.4319 267.978 69.3232C268.005 69.2146 268.053 69.1131 268.118 69.0253C268.184 68.9375 268.265 68.8653 268.358 68.8133C268.451 68.7612 268.553 68.7305 268.657 68.7231C268.761 68.7157 268.866 68.7317 268.964 68.7701C269.063 68.8085 269.153 68.8685 269.228 68.9463L274.102 73.1493C274.189 73.2274 274.259 73.3252 274.307 73.4356C274.355 73.5461 274.379 73.6665 274.379 73.7883C274.378 73.9094 274.351 74.0287 274.302 74.1377C274.253 74.2466 274.182 74.3424 274.094 74.4183L269.228 78.5493C269.098 78.6712 268.932 78.7411 268.759 78.7473Z" fill="white"/>
<path d="M262.319 78.7472C262.209 78.7493 262.1 78.7247 262 78.6752C261.82 78.5852 261.68 78.422 261.611 78.2214C261.542 78.0207 261.549 77.7988 261.632 77.6042L265.175 69.2612C265.216 69.1643 265.274 69.077 265.347 69.0044C265.42 68.9319 265.505 68.8754 265.598 68.8382C265.691 68.801 265.79 68.7838 265.889 68.7877C265.988 68.7916 266.085 68.8164 266.175 68.8607C266.266 68.905 266.347 68.968 266.414 69.046C266.482 69.124 266.534 69.2156 266.569 69.3155C266.604 69.4154 266.62 69.5216 266.616 69.6281C266.612 69.7346 266.589 69.8393 266.548 69.9362L263.022 78.2792C262.962 78.4239 262.863 78.5459 262.737 78.6293C262.612 78.7127 262.466 78.7538 262.319 78.7472Z" fill="white"/>
<path opacity="0.58" d="M78.7722 205.485C78.7722 205.485 71.0589 203.217 69.3755 195.504C69.3755 195.504 81.335 192.912 81.67 206.169L78.7722 205.485Z" fill="#40006B"/>
<path opacity="0.73" d="M79.6769 204.702C79.6769 204.702 74.2834 195.54 79.032 186.981C79.032 186.981 88.1189 193.182 84.057 204.72L79.6769 204.702Z" fill="#40006B"/>
<path d="M81.0671 204.702C81.0671 204.702 83.9146 195.036 92.5241 193.2C92.5241 193.2 94.1321 199.5 86.9464 204.729L81.0671 204.702Z" fill="#40006B"/>
<path d="M75.4727 204.45L77.0304 215.952L86.8794 215.997L88.3366 204.513L75.4727 204.45Z" fill="#24285B"/>
<path d="M254.823 193.173C256.424 193.173 257.721 191.779 257.721 190.059C257.721 188.339 256.424 186.945 254.823 186.945C253.223 186.945 251.926 188.339 251.926 190.059C251.926 191.779 253.223 193.173 254.823 193.173Z" fill="white"/>
<path opacity="0.18" d="M259.321 197.187H243.551V218.454H259.321V197.187Z" fill="white"/>
<path d="M218.338 23.6652C217.462 24.956 216.446 25.3774 215.29 24.9292C213.649 24.2932 213.282 22.805 214.189 20.4646C215.064 18.2082 216.336 17.4034 218.005 18.0503C218.555 18.2635 218.954 18.5898 219.202 19.0291C219.469 19.4756 219.557 19.9816 219.466 20.5472L221.656 20.8328C221.739 19.9535 221.636 19.2109 221.345 18.6049C220.853 17.5777 219.996 16.8273 218.775 16.3539C217.274 15.7721 215.902 15.8249 214.659 16.5124C213.513 17.1728 212.644 18.2677 212.051 19.7968C211.484 21.2607 211.406 22.6088 211.819 23.8412C212.253 25.1569 213.197 26.0966 214.651 26.6604C216.815 27.4988 218.617 26.9585 220.058 25.0395L218.338 23.6652ZM222.115 25.6117C221.487 28.0067 222.423 29.6884 224.921 30.6569C225.789 30.993 226.56 31.1472 227.236 31.1195C227.882 31.1125 228.469 30.927 228.996 30.5629C229.514 30.1952 229.888 29.713 230.12 29.1163C230.589 27.9041 230.43 26.8343 229.642 25.9068C229.396 25.6291 228.757 25.1187 227.726 24.3759C226.826 23.7374 226.296 23.264 226.137 22.9556C226 22.6989 225.975 22.4587 226.062 22.2349C226.16 21.9832 226.348 21.8149 226.628 21.7302C227.044 21.6236 227.551 21.6859 228.148 21.9172C228.707 22.134 229.083 22.3974 229.273 22.7074C229.494 23.0504 229.544 23.5039 229.422 24.0679L231.482 24.77C231.85 23.7112 231.754 22.768 231.196 21.9402C230.707 21.236 229.913 20.6707 228.812 20.2443C228.029 19.9407 227.331 19.8043 226.719 19.835C226.119 19.8601 225.582 20.0274 225.109 20.3371C224.638 20.6374 224.295 21.0673 224.078 21.6267C223.774 22.41 223.822 23.2006 224.22 23.9985C224.492 24.5434 225.123 25.169 226.115 25.8751C226.504 26.1439 226.82 26.368 227.061 26.5474C227.306 26.7175 227.476 26.8475 227.57 26.9375C228.111 27.3941 228.29 27.8601 228.106 28.3357C227.925 28.8019 227.562 29.0741 227.017 29.1524C226.791 29.1827 226.559 29.1843 226.323 29.1571C226.1 29.1242 225.858 29.0572 225.597 28.956C224.366 28.479 223.888 27.5537 224.163 26.1803L222.115 25.6117ZM232.213 29.5255C231.585 31.9204 232.521 33.6021 235.019 34.5706C235.887 34.9067 236.658 35.0609 237.334 35.0332C237.98 35.0263 238.567 34.8408 239.094 34.4767C239.612 34.109 239.986 33.6267 240.218 33.03C240.687 31.8179 240.528 30.748 239.74 29.8206C239.494 29.5428 238.855 29.0325 237.824 28.2896C236.924 27.6512 236.394 27.1777 236.235 26.8693C236.098 26.6127 236.073 26.3724 236.16 26.1487C236.258 25.8969 236.446 25.7287 236.726 25.644C237.142 25.5373 237.649 25.5997 238.246 25.831C238.805 26.0478 239.181 26.3112 239.371 26.6211C239.592 26.9641 239.642 27.4177 239.52 27.9817L241.58 28.6837C241.948 27.625 241.852 26.6817 241.294 25.8539C240.805 25.1497 240.011 24.5845 238.91 24.158C238.127 23.8545 237.429 23.718 236.817 23.7488C236.217 23.7738 235.68 23.9411 235.207 24.2508C234.736 24.5511 234.393 24.981 234.176 25.5405C233.872 26.3237 233.92 27.1143 234.318 27.9123C234.59 28.4572 235.221 29.0827 236.213 29.7889C236.602 30.0577 236.918 30.2818 237.159 30.4612C237.404 30.6312 237.574 30.7613 237.668 30.8512C238.209 31.3078 238.388 31.7739 238.204 32.2494C238.023 32.7156 237.66 32.9879 237.115 33.0662C236.889 33.0964 236.657 33.098 236.421 33.0708C236.198 33.038 235.956 32.9709 235.695 32.8697C234.464 32.3927 233.986 31.4675 234.261 30.094L232.213 29.5255Z" fill="#24285B"/>
</g>
<defs>
<filter id="filter0_d" x="9.13184" y="0.347046" width="310.558" height="305.11" filterUnits="userSpaceOnUse" color-interpolation-filters="sRGB">
<feFlood flood-opacity="0" result="BackgroundImageFix"/>
<feColorMatrix in="SourceAlpha" type="matrix" values="0 0 0 0 0 0 0 0 0 0 0 0 0 0 0 0 0 0 127 0"/>
<feOffset dy="4"/>
<feGaussianBlur stdDeviation="11.5"/>
<feColorMatrix type="matrix" values="0 0 0 0 0 0 0 0 0 0 0 0 0 0 0 0 0 0 0.25 0"/>
<feBlend mode="normal" in2="BackgroundImageFix" result="effect1_dropShadow"/>
<feBlend mode="normal" in="SourceGraphic" in2="effect1_dropShadow" result="shape"/>
</filter>
<clipPath id="clip0">
<rect width="335" height="270" fill="white" transform="translate(0.0473633 13.9022)"/>
</clipPath>
</defs>
</svg>
