<svg width="202" height="197" viewBox="0 0 202 197" fill="none" xmlns="http://www.w3.org/2000/svg">
<path d="M0.694824 152.594L77.2957 196.54L201.428 125.121L124.365 82.8252L0.694824 152.594Z" fill="#A67593"/>
<path style="mix-blend-mode:multiply" d="M162.129 124.021C156.772 127.143 153.472 128.332 145.225 133.03C148.487 135.011 151.586 137.248 154.492 139.72L173.021 128.867C171.583 128.072 168.774 127.299 162.129 124.021Z" fill="url(#paint0_linear)"/>
<path style="mix-blend-mode:multiply" d="M129.766 157.471C125.356 155.07 115.201 149.294 104.175 143.831C93.2015 150.186 85.3343 154.497 68.4824 164.094C81.2592 171.839 93.5889 180.849 95.0193 181.689L123.18 165.41C123.329 164.347 129.476 158.474 129.766 157.471Z" fill="url(#paint1_linear)"/>
<path d="M124.365 0.203613V82.8251L0.694824 152.594V73.8679L124.365 0.203613Z" fill="#333856"/>
<path d="M46.2524 90.4415C47.7391 79.051 44.0955 69.1871 38.1141 68.4099C32.1327 67.6327 26.0786 76.2364 24.5919 87.6269C23.1051 99.0174 26.7488 108.881 32.7301 109.659C38.7115 110.436 44.7656 101.832 46.2524 90.4415Z" fill="#E6E6E6" stroke="#FBB03B" stroke-width="3" stroke-miterlimit="10"/>
<path d="M35.419 89.3294V69.8689C35.419 69.8689 29.0716 71.7718 25.8979 83.6726L35.419 89.3294Z" fill="#68E1FD"/>
<path d="M35.4193 89.3293L30.0777 108.21C30.0777 108.21 22.0019 102.471 25.8982 83.6799L35.4193 89.3293Z" fill="#FF666D"/>
<path d="M48.3451 107.556L26.0845 119.821C25.4512 120.17 26.0174 121.129 26.6507 120.787L48.9113 108.522C49.5445 108.173 48.9783 107.214 48.3451 107.556Z" fill="#F2F2F2"/>
<path d="M48.3451 112.38L26.0845 124.645C25.4512 124.994 26.0174 125.953 26.6507 125.611L48.9113 113.346C49.5445 112.997 48.9783 112.038 48.3451 112.38Z" fill="#F2F2F2"/>
<path d="M48.3451 117.568L26.0845 129.833C25.4512 130.183 26.0174 131.142 26.6507 130.8L48.9113 118.535C49.5445 118.185 48.9783 117.226 48.3451 117.568Z" fill="#F2F2F2"/>
<path d="M10.879 106.523V137.051C10.8792 137.559 10.7187 138.054 10.4203 138.465C10.122 138.876 9.70105 139.183 9.21765 139.341C8.85463 139.461 8.46819 139.493 8.09019 139.435C7.71218 139.377 7.35343 139.23 7.04348 139.007C6.73354 138.783 6.48129 138.489 6.3075 138.149C6.13372 137.809 6.04339 137.433 6.04395 137.051V106.523C6.04889 106.037 6.20095 105.564 6.48016 105.166C6.75938 104.768 7.15268 104.463 7.60845 104.293C7.97215 104.155 8.36385 104.107 8.75017 104.153C9.13649 104.198 9.50599 104.337 9.82719 104.556C10.1484 104.775 10.4118 105.068 10.5949 105.41C10.7781 105.753 10.8755 106.134 10.879 106.523Z" fill="url(#paint2_linear)" stroke="#F2F2F2" stroke-width="0.5" stroke-miterlimit="10"/>
<path d="M112.817 24.0125L61.9932 53.4039C61.8647 53.4788 61.7714 53.6016 61.7337 53.7451C61.6959 53.8887 61.7169 54.0414 61.792 54.1695C61.8671 54.2977 61.9901 54.3908 62.134 54.4284C62.2779 54.4661 62.4309 54.4451 62.5594 54.3702L113.383 24.9491C113.512 24.8742 113.605 24.7514 113.643 24.6078C113.68 24.4643 113.66 24.3116 113.584 24.1835C113.509 24.0553 113.386 23.9622 113.242 23.9245C113.098 23.8869 112.945 23.9078 112.817 23.9828V24.0125Z" fill="#F2F2F2"/>
<path d="M160.49 118.631L162.479 127.886C162.544 128.194 162.679 128.483 162.872 128.731C163.066 128.98 163.314 129.181 163.596 129.32C164.751 129.885 167.135 130.473 171.672 129.655C172.08 129.581 172.457 129.388 172.755 129.101C173.053 128.814 173.26 128.446 173.348 128.042L175.39 118.631" fill="#68E1FD"/>
<path d="M167.94 121.679C172.054 121.679 175.39 120.315 175.39 118.631C175.39 116.948 172.054 115.584 167.94 115.584C163.825 115.584 160.49 116.948 160.49 118.631C160.49 120.315 163.825 121.679 167.94 121.679Z" fill="#124577"/>
<path d="M163.604 111.778C163.254 111.589 162.957 111.315 162.74 110.983L158.545 104.508C156.601 101.535 155.893 79.9782 160.989 79.7329C165.034 79.5173 169.184 88.9502 170.674 91.7006C172.159 94.2979 173.379 97.0372 174.317 99.8772C175.539 104.122 172.768 107.831 170.153 111.198C168.856 112.774 165.288 112.707 163.604 111.778Z" fill="#66C652"/>
<path d="M166.1 116.022C166.666 116.414 167.22 116.825 167.761 117.256C168.178 107.681 166.845 98.1092 163.828 89.0097C163.749 88.8052 163.595 88.6383 163.397 88.5429C163.2 88.4474 162.973 88.4307 162.763 88.496C162.554 88.5613 162.377 88.7037 162.269 88.8944C162.161 89.0851 162.129 89.3097 162.181 89.5226C165.023 98.0611 166.349 107.029 166.1 116.022Z" fill="#124577"/>
<path d="M172.023 110.046C171.925 109.811 171.889 109.555 171.918 109.303L172.492 104.419C172.76 102.189 181.171 91.2916 183.786 93.2169C185.865 94.7481 184.069 101.074 183.659 103.021C183.347 104.895 182.848 106.733 182.169 108.507C181.045 111.087 178.169 111.793 175.509 112.387C174.205 112.662 172.499 111.183 172.023 110.046Z" fill="#49B230"/>
<path d="M179.763 99.1636C176.011 105.484 173.01 112.219 170.823 119.234C171.25 119.469 171.661 119.732 172.052 120.022C174.219 112.962 177.22 106.185 180.992 99.8326C181.439 99.0521 180.225 98.3831 179.763 99.1636Z" fill="#124577"/>
<path d="M115.276 133.446L108.854 162.503C108.822 162.646 108.819 162.794 108.844 162.938C108.87 163.082 108.923 163.22 109.002 163.344C109.081 163.467 109.183 163.574 109.304 163.658C109.424 163.742 109.56 163.802 109.703 163.834C109.846 163.865 109.994 163.869 110.139 163.843C110.284 163.818 110.422 163.764 110.546 163.685C110.669 163.607 110.777 163.505 110.861 163.385C110.945 163.265 111.005 163.129 111.037 162.986L117.458 133.929C117.523 133.641 117.469 133.338 117.31 133.089C117.151 132.839 116.899 132.663 116.609 132.599C116.32 132.535 116.017 132.588 115.766 132.747C115.516 132.906 115.34 133.157 115.276 133.446Z" fill="#333856"/>
<path d="M118.971 129.618L127.635 158.088C127.727 158.363 127.923 158.593 128.182 158.726C128.44 158.86 128.741 158.888 129.02 158.803C129.299 158.719 129.533 158.529 129.674 158.275C129.815 158.02 129.85 157.721 129.773 157.441L121.094 128.971C120.984 128.721 120.786 128.519 120.537 128.405C120.288 128.291 120.006 128.272 119.744 128.352C119.482 128.431 119.258 128.604 119.116 128.838C118.973 129.071 118.922 129.349 118.971 129.618Z" fill="#333856"/>
<path d="M118.36 134.792L120.945 164.436C120.971 164.731 121.113 165.005 121.341 165.196C121.569 165.387 121.863 165.48 122.16 165.454C122.456 165.428 122.73 165.286 122.921 165.059C123.113 164.832 123.206 164.538 123.18 164.242L120.595 134.598C120.569 134.303 120.427 134.029 120.199 133.838C119.972 133.647 119.677 133.554 119.381 133.58C119.084 133.605 118.81 133.748 118.619 133.975C118.428 134.202 118.334 134.496 118.36 134.792Z" fill="#333856"/>
<path d="M91.1826 108.359C91.4806 108.745 99.0945 123.597 99.0945 123.597L112.46 117.465L104.384 101.319L91.1826 108.359Z" fill="white"/>
<path d="M103.788 109.979C102.298 110.722 100.681 111.302 99.1319 111.949C98.6998 112.127 98.886 112.848 99.333 112.692C100.942 112.016 102.589 111.391 104.168 110.648C104.6 110.41 104.22 109.771 103.788 109.979Z" fill="#008074"/>
<path d="M102.946 105.72C99.9026 106.824 96.9317 108.118 94.0506 109.593C93.6259 109.808 93.9984 110.455 94.4231 110.232C97.2462 108.785 100.157 107.517 103.14 106.433C103.587 106.27 103.393 105.549 102.946 105.72Z" fill="#008074"/>
<path d="M102.991 107.942C101.208 108.641 99.4322 109.362 97.6641 110.105C97.232 110.291 97.4182 111.005 97.8652 110.849C99.6334 110.105 101.409 109.384 103.192 108.686C103.632 108.485 103.438 107.771 102.991 107.942Z" fill="#008074"/>
<path d="M107.014 103.207L104.034 108.284L103.43 110.722L105.486 109.407L108.586 104.092C108.152 103.66 107.609 103.354 107.014 103.207Z" fill="#42210B"/>
<path d="M105.896 104.991C105.914 104.956 105.934 104.921 105.956 104.887C105.886 104.882 105.816 104.897 105.755 104.932C105.19 105.193 104.647 105.499 104.131 105.846C103.691 106.196 103.721 106.954 103.639 107.459C103.623 107.531 103.628 107.607 103.655 107.676C103.682 107.745 103.729 107.804 103.789 107.846C103.85 107.889 103.922 107.912 103.996 107.913C104.07 107.914 104.143 107.894 104.205 107.853C104.764 106.924 105.449 105.995 105.896 104.991Z" fill="#FF666D"/>
<path d="M111.193 107.734H111.126C111.096 107.662 111.04 107.604 110.97 107.571C110.575 107.377 110.225 107.169 109.815 106.946C109.265 106.269 108.559 105.734 107.759 105.385C107.669 105.541 107.572 105.69 107.475 105.846C107.405 105.955 107.317 106.05 107.215 106.129L106.73 107.102C106.728 107.125 106.728 107.147 106.73 107.169C106.73 107.169 106.686 107.132 106.649 107.125C106.235 107.016 105.798 107.048 105.404 107.214C105.077 107.355 104.659 107.623 104.607 108.009C104.555 108.396 105.002 108.701 105.352 108.708C105.656 108.694 105.949 108.59 106.194 108.411C106.206 108.448 106.224 108.483 106.246 108.515C107.17 109.682 108.422 109.771 109.807 109.868C109.887 109.875 109.966 109.854 110.031 109.808C110.327 109.722 110.598 109.567 110.821 109.355V108.819C110.818 108.742 110.792 108.666 110.746 108.604V108.47C110.749 108.443 110.749 108.415 110.746 108.388H110.813C110.876 108.407 110.944 108.407 111.007 108.388C111.469 108.537 111.67 107.823 111.193 107.734Z" fill="#FF666D"/>
<path d="M110.791 106.582C110.289 107.058 109.895 107.636 109.638 108.278C109.381 108.919 109.266 109.609 109.301 110.299L112.691 113.941L116.788 111.919L117.004 108.307L110.791 106.582Z" fill="#E87F18"/>
<path d="M102.067 145.577C102.067 145.912 102.335 149.933 101.888 150.402C101.441 150.87 100.257 153.145 98.7965 153.241C97.3363 153.338 95.9804 153.048 95.7048 154.609C95.4291 156.17 103.997 156.727 103.997 156.727C103.997 156.727 104.898 153.152 105.285 153.256C105.673 153.36 105.658 157.203 105.658 157.203L107.245 157.545L108.832 156.49L108.191 149.636L107.155 143.816" fill="#FFB164"/>
<path d="M94.5426 149.413C94.7512 151.836 94.632 155.084 92.3076 156.556C91.056 157.359 88.4112 156.616 88.0909 158.407C87.8078 159.968 96.3678 160.548 96.3678 160.548C96.3678 160.548 97.2916 156.98 97.679 157.084C98.0664 157.188 98.0217 161.031 98.0217 161.031L99.6086 161.38L101.203 160.332L100.599 153.479L99.6011 147.651" fill="#FFB164"/>
<path d="M101.337 116.082L98.744 115.205C98.2002 114.997 97.999 114.239 97.7979 113.763C97.6087 113.314 97.312 112.918 96.9337 112.611C96.803 112.501 96.6354 112.446 96.4652 112.456C96.295 112.465 96.1348 112.539 96.0173 112.663C95.466 113.138 95.846 113.755 96.1738 114.216L96.5388 114.722L94.505 113.919C94.4184 113.858 94.3191 113.817 94.2144 113.8C93.5365 113.339 92.7244 114.409 93.3353 114.982C93.462 115.108 93.6035 115.212 93.7376 115.324C93.647 115.387 93.5733 115.472 93.5227 115.571C93.4721 115.669 93.4461 115.778 93.4471 115.889C93.4855 116.193 93.5917 116.484 93.7581 116.741C93.9244 116.998 94.1466 117.215 94.4081 117.375C94.2718 117.485 94.1784 117.639 94.1444 117.81C94.1103 117.981 94.1377 118.159 94.2219 118.312C94.47 118.806 94.8838 119.198 95.3915 119.42C95.576 119.503 95.7826 119.524 95.9801 119.479C97.2242 119.672 98.5056 119.665 99.7423 119.925C99.8524 119.947 99.9662 119.94 100.073 119.904C100.179 119.869 100.274 119.807 100.35 119.723C100.425 119.64 100.477 119.539 100.501 119.43C100.525 119.321 100.52 119.207 100.487 119.1C100.625 119.071 100.747 118.994 100.834 118.884C100.921 118.775 100.967 118.638 100.964 118.498C101.101 118.422 101.205 118.297 101.255 118.148C101.35 118.116 101.437 118.062 101.509 117.991C101.581 117.92 101.636 117.834 101.669 117.739C101.703 117.644 101.715 117.542 101.703 117.442C101.692 117.342 101.659 117.245 101.605 117.16C101.684 117.081 101.742 116.983 101.772 116.875C101.803 116.767 101.804 116.654 101.777 116.545C101.75 116.436 101.696 116.337 101.618 116.255C101.541 116.174 101.444 116.115 101.337 116.082Z" fill="#FF666D"/>
<path d="M109.674 142.5L110.933 149.361C110.933 149.361 108.958 151.39 102.298 151.145C95.6377 150.899 102.298 139.021 102.298 139.021" fill="#333856"/>
<path d="M100.093 122.371C102.929 122.99 105.79 123.468 108.675 123.805C108.739 123.811 108.801 123.83 108.857 123.861C108.914 123.892 108.963 123.933 109.003 123.984C109.336 122.992 109.619 121.982 109.852 120.951C109.986 120.364 110.88 120.616 110.754 121.196C110.225 123.533 109.438 125.804 108.407 127.968C108.154 128.51 107.349 128.035 107.602 127.5C108.034 126.6 108.414 125.678 108.75 124.742H108.683C105.703 124.395 102.757 123.899 99.8469 123.255C99.2584 123.144 99.4893 122.244 100.093 122.371Z" fill="#008074"/>
<path d="M107.759 128.934C108.528 130.183 109.511 131.288 110.664 132.197C111.134 132.576 110.471 133.231 110.001 132.859C108.799 131.884 107.778 130.707 106.984 129.38C106.963 129.283 106.973 129.182 107.013 129.091C107.053 129 107.122 128.924 107.208 128.874C107.294 128.825 107.394 128.804 107.493 128.814C107.592 128.825 107.685 128.867 107.759 128.934Z" fill="#008074"/>
<path d="M113.562 125.909C113.562 125.909 106.112 119.962 101.203 119.263C96.2934 118.564 93.7008 123.902 94.0509 127.44C94.4011 130.978 106.194 132.993 106.194 132.993" fill="#333856"/>
<path d="M109.606 127.886C108.645 126.994 96.0399 121.122 91.5997 123.805C86.8689 126.659 87.2712 133.743 86.3027 138.434C85.4683 142.485 84.7606 146.573 84.1348 150.662C84.1348 150.662 97.0903 154.572 102.939 153.063L101.724 140.002L118.517 130.852" fill="#333856"/>
<path d="M118.792 106.872C118.122 107.363 112.371 108.054 111.171 110.7C109.972 113.346 109.599 127.886 109.599 127.886C109.599 127.886 111.588 132.13 117.571 130.302C119.344 129.759 128.544 112.975 128.79 111.235C129.438 106.701 118.792 106.872 118.792 106.872Z" fill="#FFB164"/>
<path d="M130.146 136.36C130.447 135.671 130.696 134.96 130.891 134.234C132.299 128.711 133.23 107.994 123.895 108.834C113.652 109.756 117.116 135.349 106.76 134.569C96.4048 133.788 92.1285 136.479 96.3675 140.515C104.793 148.506 124.938 148.684 130.146 136.36Z" fill="#68E1FD"/>
<path d="M116.147 99.1042C115.976 99.4907 113.786 105.051 115.164 106.79C116.542 108.53 121.124 106.433 121.638 104.939C122.152 103.445 124.223 100.613 122.8 99.4015C121.377 98.1899 117.332 96.3836 116.147 99.1042Z" fill="#FF666D"/>
<path d="M113.562 122.311C113.086 123.159 112.366 123.844 111.494 124.278C110.622 124.711 109.64 124.873 108.675 124.742C105.285 124.273 97.8651 120.088 97.8651 120.088C97.8651 120.088 97.5969 116.022 100.592 115.48C100.592 115.48 107.23 117.174 107.863 117.345C108.496 117.516 111.178 110.693 111.178 110.693" fill="#FFB164"/>
<path d="M132.94 113.213C132.128 108.909 128.693 104.434 127.27 100.814C127.016 99.8281 126.684 98.8638 126.279 97.9296C124.938 95.6253 121.422 94.3913 118.904 95.1124C117.855 95.3322 116.923 95.9295 116.287 96.7904C115.651 97.6513 115.355 98.7156 115.454 99.7805L117.354 100.145C117.697 100.472 117.939 100.89 118.055 101.349C118.211 102.412 117.004 102.836 116.46 103.527C115.38 104.865 115.901 107.177 115.164 108.797C113.674 112.068 111.603 115.985 114.598 119.204C115.585 120.186 116.838 120.86 118.204 121.144C122.957 122.281 130.958 122.757 132.753 117.308C133.168 115.982 133.233 114.571 132.94 113.213Z" fill="#42210B"/>
<path d="M105.449 111.332C103.773 111.992 102.132 112.736 100.532 113.562C100.107 113.785 100.48 114.424 100.905 114.201C102.446 113.401 104.028 112.679 105.643 112.038C106.097 111.875 105.903 111.153 105.449 111.332Z" fill="#008074"/>
<path d="M108.66 42.4472V42.2539H60.0044V61.2832C61.919 61.1123 63.9752 62.2496 63.9752 64.7174V70.0992L108.66 42.4472Z" fill="white"/>
<path d="M108.66 42.4473L63.9604 70.0993V70.129L108.66 42.477V42.4473Z" fill="white"/>
<path d="M108.66 42.4768L63.9604 70.1288V70.1511L108.66 42.4991V42.4768Z" fill="#FEFFFF"/>
<path d="M108.66 42.4993L63.9604 70.1513V70.1736L108.66 42.5216V42.4993Z" fill="#FDFFFF"/>
<path d="M108.66 42.5215L63.9604 70.1735V70.1958L108.66 42.5438V42.5215Z" fill="#FCFFFF"/>
<path d="M108.66 42.5439L63.9604 70.196V70.2257L108.66 42.5737V42.5439Z" fill="#FBFFFF"/>
<path d="M108.66 42.5735L63.9604 70.2255V70.2478L108.66 42.5958V42.5735Z" fill="#FAFFFF"/>
<path d="M108.66 42.5959L63.9604 70.248V70.2703L108.66 42.6182V42.5959Z" fill="#F9FFFF"/>
<path d="M108.66 42.6182L63.9604 70.2702V70.2999L108.66 42.6479V42.6182Z" fill="#F8FFFF"/>
<path d="M108.66 42.6479L63.9604 70.3V70.3223L108.66 42.6702V42.6479Z" fill="#F7FFFF"/>
<path d="M108.66 42.6702L63.9604 70.3222V70.3445L108.66 42.6925V42.6702Z" fill="#F6FFFF"/>
<path d="M108.66 42.6924L63.9604 70.3444V70.3667L108.66 42.7221V42.6924Z" fill="#F5FFFF"/>
<path d="M108.66 42.7222L63.9604 70.3667V70.3965L108.66 42.7445V42.7222Z" fill="#F4FFFF"/>
<path d="M108.66 42.7446L63.9604 70.3966V70.4189L108.66 42.7669V42.7446Z" fill="#F3FFFF"/>
<path d="M108.66 42.7668L63.9604 70.4188V70.4411L108.66 42.7891V42.7668Z" fill="#F2FFFF"/>
<path d="M108.66 42.7891L63.9604 70.4411V70.4708L108.66 42.8188V42.7891Z" fill="#F1FFFF"/>
<path d="M108.66 42.8188L63.9604 70.4708V70.4931L108.66 42.8411V42.8188Z" fill="#F0FFFF"/>
<path d="M108.66 42.8411L63.9604 70.4931V70.5154L108.66 42.8634V42.8411Z" fill="#EFFFFF"/>
<path d="M108.66 42.8635L63.9604 70.5155V70.5453L108.66 42.8933V42.8635Z" fill="#EEFFFF"/>
<path d="M108.66 42.8931L63.9604 70.5451V70.5674L108.66 42.9154V42.8931Z" fill="#EDFFFF"/>
<path d="M108.66 42.9155L63.9604 70.5675V70.5898L108.66 42.9378V42.9155Z" fill="#ECFFFF"/>
<path d="M108.66 42.9377L63.9604 70.5897V70.612L108.66 42.96V42.9377Z" fill="#EBFFFF"/>
<path d="M108.66 42.9602L63.9604 70.6122V70.6419L108.66 42.9899V42.9602Z" fill="#EAFFFF"/>
<path d="M108.66 42.9897L63.9604 70.6417V70.664L108.66 43.012V42.9897Z" fill="#E8FFFF"/>
<path d="M108.66 43.0122L63.9604 70.6642V70.6865L108.66 43.0345V43.0122Z" fill="#E7FFFF"/>
<path d="M108.66 43.0344L63.9604 70.6864V70.7087L108.66 43.0567V43.0344Z" fill="#E6FFFF"/>
<path d="M108.66 43.0566L63.9604 70.7086V70.7384L108.66 43.0864V43.0566Z" fill="#E5FFFF"/>
<path d="M108.66 43.0864L63.9604 70.7384V70.7607L108.66 43.1087V43.0864Z" fill="#E4FFFF"/>
<path d="M108.66 43.1089L63.9604 70.7609V70.7832L108.66 43.1312V43.1089Z" fill="#E3FFFF"/>
<path d="M108.66 43.1311L63.9604 70.7831V70.8128L108.66 43.1608V43.1311Z" fill="#E2FFFF"/>
<path d="M108.66 43.1609L63.9604 70.8129V70.8352L108.66 43.1832V43.1609Z" fill="#E1FFFF"/>
<path d="M108.66 43.1831L63.9604 70.8351V70.8574L108.66 43.2054V43.1831Z" fill="#E0FFFF"/>
<path d="M108.66 43.2053L63.9604 70.8573V70.8871L108.66 43.2351V43.2053Z" fill="#DFFFFF"/>
<path d="M108.66 43.2351L63.9604 70.8871V70.9094L108.66 43.2574V43.2351Z" fill="#DEFFFF"/>
<path d="M108.66 43.2573L63.9604 70.9093V70.9316L108.66 43.2796V43.2573Z" fill="#DDFFFF"/>
<path d="M108.66 43.2798L63.9604 70.9318V70.9541L108.66 43.3021V43.2798Z" fill="#DCFFFF"/>
<path d="M108.66 43.302L63.9604 70.954V70.9837L108.66 43.3317V43.302Z" fill="#DBFFFF"/>
<path d="M108.66 43.3318L63.9604 70.9838V71.0061L108.66 43.3541V43.3318Z" fill="#DAFFFF"/>
<path d="M108.66 43.354L63.9604 71.006V71.0283L108.66 43.3763V43.354Z" fill="#D9FFFF"/>
<path d="M108.66 43.3762L63.9604 71.0282V71.058L108.66 43.406V43.3762Z" fill="#D8FFFF"/>
<path d="M108.66 43.406L63.9604 71.058V71.0803L108.66 43.4283V43.406Z" fill="#D7FFFF"/>
<path d="M108.66 43.4285L63.9604 71.0805V71.1028L108.66 43.4508V43.4285Z" fill="#D6FFFF"/>
<path d="M108.66 43.4507L63.9604 71.1027V71.125L108.66 43.473V43.4507Z" fill="#D5FFFF"/>
<path d="M108.66 43.4729L63.9604 71.1249V71.1546L108.66 43.5026V43.4729Z" fill="#D4FFFF"/>
<path d="M108.66 43.5027L63.9604 71.1547V71.675H108.66V43.5027Z" fill="#D4FFFF"/>
<path d="M108.66 40.0686L63.9604 65.9366V72.8124L108.66 46.9444V40.0686Z" fill="#F2F2F2"/>
<path d="M108.66 57.7599V57.5667H60.0044V61.2833C61.919 61.1124 63.9752 62.2497 63.9752 64.7175V85.4045L108.66 57.7599Z" fill="white"/>
<path d="M108.66 57.76L63.9604 85.412V85.4343L108.66 57.7823V57.76Z" fill="white"/>
<path d="M108.66 57.7822L63.9604 85.4342V85.4565L108.66 57.8045V57.7822Z" fill="#FEFFFF"/>
<path d="M108.66 57.8044L63.9604 85.4564V85.4862L108.66 57.8267V57.8044Z" fill="#FDFFFF"/>
<path d="M108.66 57.8269L63.9604 85.4863V85.5086L108.66 57.8566V57.8269Z" fill="#FCFFFF"/>
<path d="M108.66 57.8567L63.9604 85.5087V85.531L108.66 57.879V57.8567Z" fill="#FBFFFF"/>
<path d="M108.66 57.8789L63.9604 85.5309V85.5532L108.66 57.9012V57.8789Z" fill="#FAFFFF"/>
<path d="M108.66 57.9011L63.9604 85.5531V85.5829L108.66 57.9309V57.9011Z" fill="#F9FFFF"/>
<path d="M108.66 57.9309L63.9604 85.5829V85.6052L108.66 57.9532V57.9309Z" fill="#F8FFFF"/>
<path d="M108.66 57.9531L63.9604 85.6051V85.6274L108.66 57.9754V57.9531Z" fill="#F7FFFF"/>
<path d="M108.66 57.9756L63.9604 85.6276V85.6499L108.66 58.0053V57.9756Z" fill="#F6FFFF"/>
<path d="M108.66 58.0051L63.9604 85.6497V85.6794L108.66 58.0274V58.0051Z" fill="#F5FFFF"/>
<path d="M108.66 58.0276L63.9604 85.6796V85.7019L108.66 58.0499V58.0276Z" fill="#F4FFFF"/>
<path d="M108.66 58.0498L63.9604 85.7018V85.7241L108.66 58.0721V58.0498Z" fill="#F3FFFF"/>
<path d="M108.66 58.072L63.9604 85.724V85.7538L108.66 58.1018V58.072Z" fill="#F2FFFF"/>
<path d="M108.66 58.1018L63.9604 85.7538V85.7761L108.66 58.1241V58.1018Z" fill="#F1FFFF"/>
<path d="M108.66 58.1243L63.9604 85.7763V85.7986L108.66 58.1466V58.1243Z" fill="#F0FFFF"/>
<path d="M108.66 58.1465L63.9604 85.7985V85.8282L108.66 58.1762V58.1465Z" fill="#EFFFFF"/>
<path d="M108.66 58.1763L63.9604 85.8283V85.8506L108.66 58.1986V58.1763Z" fill="#EEFFFF"/>
<path d="M108.66 58.1985L63.9604 85.8505V85.8728L108.66 58.2208V58.1985Z" fill="#EDFFFF"/>
<path d="M108.66 58.2207L63.9604 85.8727V85.895L108.66 58.243V58.2207Z" fill="#ECFFFF"/>
<path d="M108.66 58.2432L63.9604 85.8952V85.9249L108.66 58.2729V58.2432Z" fill="#EBFFFF"/>
<path d="M108.66 58.2729L63.9604 85.925V85.9473L108.66 58.2952V58.2729Z" fill="#EAFFFF"/>
<path d="M108.66 58.2952L63.9604 85.9472V85.9695L108.66 58.3175V58.2952Z" fill="#E8FFFF"/>
<path d="M108.66 58.3174L63.9604 85.9694V85.9991L108.66 58.3471V58.3174Z" fill="#E7FFFF"/>
<path d="M108.66 58.3472L63.9604 85.9992V86.0215L108.66 58.3695V58.3472Z" fill="#E6FFFF"/>
<path d="M108.66 58.3694L63.9604 86.0214V86.0437L108.66 58.3917V58.3694Z" fill="#E5FFFF"/>
<path d="M108.66 58.3918L63.9604 86.0438V86.0661L108.66 58.4216V58.3918Z" fill="#E4FFFF"/>
<path d="M108.66 58.4216L63.9604 86.0662V86.0959L108.66 58.4439V58.4216Z" fill="#E3FFFF"/>
<path d="M108.66 58.4438L63.9604 86.0958V86.1181L108.66 58.4661V58.4438Z" fill="#E2FFFF"/>
<path d="M108.66 58.4661L63.9604 86.1181V86.1404L108.66 58.4884V58.4661Z" fill="#E1FFFF"/>
<path d="M108.66 58.4883L63.9604 86.1403V86.17L108.66 58.518V58.4883Z" fill="#E0FFFF"/>
<path d="M108.66 58.5181L63.9604 86.1701V86.1924L108.66 58.5404V58.5181Z" fill="#DFFFFF"/>
<path d="M108.66 58.5405L63.9604 86.1925V86.2148L108.66 58.5628V58.5405Z" fill="#DEFFFF"/>
<path d="M108.66 58.5627L63.9604 86.2147V86.2445L108.66 58.585V58.5627Z" fill="#DDFFFF"/>
<path d="M108.66 58.585L63.9604 86.2444V86.2667L108.66 58.6147V58.585Z" fill="#DCFFFF"/>
<path d="M108.66 58.6147L63.9604 86.2667V86.289L108.66 58.637V58.6147Z" fill="#DBFFFF"/>
<path d="M108.66 58.637L63.9604 86.289V86.3113L108.66 58.6593V58.637Z" fill="#DAFFFF"/>
<path d="M108.66 58.6594L63.9604 86.3114V86.3411L108.66 58.6892V58.6594Z" fill="#D9FFFF"/>
<path d="M108.66 58.689L63.9604 86.341V86.3633L108.66 58.7113V58.689Z" fill="#D8FFFF"/>
<path d="M108.66 58.7114L63.9604 86.3634V86.3857L108.66 58.7337V58.7114Z" fill="#D7FFFF"/>
<path d="M108.66 58.7336L63.9604 86.3856V86.4154L108.66 58.7559V58.7336Z" fill="#D6FFFF"/>
<path d="M108.66 58.7559L63.9604 86.4153V86.4376L108.66 58.7856V58.7559Z" fill="#D5FFFF"/>
<path d="M108.66 58.7856L63.9604 86.4377V86.46L108.66 58.8079V58.7856Z" fill="#D4FFFF"/>
<path d="M108.66 83.8807V58.8081L63.9604 86.4601V86.9804H110.56C109.969 86.7123 109.473 86.2737 109.134 85.7212C108.795 85.1687 108.63 84.5277 108.66 83.8807Z" fill="#D4FFFF"/>
<path d="M108.66 55.3738L63.9604 81.2492V88.125L108.66 62.2496V55.3738Z" fill="#68E1FD"/>
<path d="M108.66 71.5784H63.9604V99.4236L108.66 71.7716V71.5784Z" fill="white"/>
<path d="M108.66 71.7717L63.9604 99.4237V99.446L108.66 71.794V71.7717Z" fill="white"/>
<path d="M108.66 71.7939L63.9604 99.4459V99.4682L108.66 71.8162V71.7939Z" fill="#FEFFFF"/>
<path d="M108.66 71.8162L63.9604 99.4682V99.4905L108.66 71.8385V71.8162Z" fill="#FDFFFF"/>
<path d="M108.66 71.8386L63.9604 99.4906V99.5203L108.66 71.8684V71.8386Z" fill="#FCFFFF"/>
<path d="M108.66 71.8684L63.9604 99.5204V99.5427L108.66 71.8907V71.8684Z" fill="#FBFFFF"/>
<path d="M108.66 71.8906L63.9604 99.5426V99.5649L108.66 71.9129V71.8906Z" fill="#FAFFFF"/>
<path d="M108.66 71.9128L63.9604 99.5649V99.5872L108.66 71.9426V71.9128Z" fill="#F9FFFF"/>
<path d="M108.66 71.9426L63.9604 99.5872V99.6169L108.66 71.9649V71.9426Z" fill="#F8FFFF"/>
<path d="M108.66 71.9648L63.9604 99.6168V99.6391L108.66 71.9871V71.9648Z" fill="#F7FFFF"/>
<path d="M108.66 71.9873L63.9604 99.6393V99.6616L108.66 72.0096V71.9873Z" fill="#F6FFFF"/>
<path d="M108.66 72.0095L63.9604 99.6615V99.6913L108.66 72.0393V72.0095Z" fill="#F5FFFF"/>
<path d="M108.66 72.0393L63.9604 99.6913V99.7136L108.66 72.0616V72.0393Z" fill="#F4FFFF"/>
<path d="M108.66 72.0615L63.9604 99.7135V99.7358L108.66 72.0838V72.0615Z" fill="#F3FFFF"/>
<path d="M108.66 72.0837L63.9604 99.7358V99.7655L108.66 72.1135V72.0837Z" fill="#F2FFFF"/>
<path d="M108.66 72.1135L63.9604 99.7655V99.7878L108.66 72.1358V72.1135Z" fill="#F1FFFF"/>
<path d="M108.66 72.136L63.9604 99.788V99.8103L108.66 72.1583V72.136Z" fill="#F0FFFF"/>
<path d="M108.66 72.1582L63.9604 99.8102V99.8325L108.66 72.1879V72.1582Z" fill="#EFFFFF"/>
<path d="M108.66 72.188L63.9604 99.8326V99.8623L108.66 72.2103V72.188Z" fill="#EEFFFF"/>
<path d="M108.66 72.2102L63.9604 99.8622V99.8845L108.66 72.2325V72.2102Z" fill="#EDFFFF"/>
<path d="M108.66 72.2324L63.9604 99.8844V99.9067L108.66 72.2547V72.2324Z" fill="#ECFFFF"/>
<path d="M108.66 72.2549L63.9604 99.9069V99.9366L108.66 72.2846V72.2549Z" fill="#EBFFFF"/>
<path d="M108.66 72.2847L63.9604 99.9367V99.959L108.66 72.307V72.2847Z" fill="#EAFFFF"/>
<path d="M108.66 72.3069L63.9604 99.9589V99.9812L108.66 72.3292V72.3069Z" fill="#E8FFFF"/>
<path d="M108.66 72.3291L63.9604 99.9811V100.003L108.66 72.3588V72.3291Z" fill="#E7FFFF"/>
<path d="M108.66 72.3589L63.9604 100.003V100.033L108.66 72.3812V72.3589Z" fill="#E6FFFF"/>
<path d="M108.66 72.3811L63.9604 100.033V100.055L108.66 72.4034V72.3811Z" fill="#E5FFFF"/>
<path d="M108.66 72.4036L63.9604 100.056V100.078L108.66 72.4259V72.4036Z" fill="#E4FFFF"/>
<path d="M108.66 72.4258L63.9604 100.078V100.108L108.66 72.4555V72.4258Z" fill="#E3FFFF"/>
<path d="M108.66 72.4556L63.9604 100.108V100.13L108.66 72.4779V72.4556Z" fill="#E2FFFF"/>
<path d="M108.66 72.4778L63.9604 100.13V100.152L108.66 72.5001V72.4778Z" fill="#E1FFFF"/>
<path d="M108.66 72.5L63.9604 100.152V100.182L108.66 72.5223V72.5Z" fill="#E0FFFF"/>
<path d="M108.66 72.5225L63.9604 100.182V100.204L108.66 72.5522V72.5225Z" fill="#DFFFFF"/>
<path d="M108.66 72.5522L63.9604 100.204V100.227L108.66 72.5745V72.5522Z" fill="#DEFFFF"/>
<path d="M108.66 72.5745L63.9604 100.226V100.249L108.66 72.5968V72.5745Z" fill="#DDFFFF"/>
<path d="M108.66 72.5967L63.9604 100.249V100.278L108.66 72.6264V72.5967Z" fill="#DCFFFF"/>
<path d="M108.66 72.6265L63.9604 100.278V100.301L108.66 72.6488V72.6265Z" fill="#DBFFFF"/>
<path d="M108.66 72.6487L63.9604 100.301V100.323L108.66 72.671V72.6487Z" fill="#DAFFFF"/>
<path d="M108.66 72.6711L63.9604 100.323V100.353L108.66 72.7009V72.6711Z" fill="#D9FFFF"/>
<path d="M108.66 72.7007L63.9604 100.353V100.375L108.66 72.723V72.7007Z" fill="#D8FFFF"/>
<path d="M108.66 72.7231L63.9604 100.375V100.397L108.66 72.7454V72.7231Z" fill="#D7FFFF"/>
<path d="M108.66 72.7454L63.9604 100.397V100.42L108.66 72.7677V72.7454Z" fill="#D6FFFF"/>
<path d="M108.66 72.7676L63.9604 100.42V100.449L108.66 72.7973V72.7676Z" fill="#D5FFFF"/>
<path d="M108.66 72.7974L63.9604 100.449V100.472L108.66 72.8197V72.7974Z" fill="#D4FFFF"/>
<path d="M108.66 83.8806V72.8198L63.9604 100.472V100.992H110.814V87.0993C110.156 86.8641 109.592 86.4243 109.204 85.8447C108.817 85.2652 108.626 84.5766 108.66 83.8806Z" fill="#D4FFFF"/>
<path d="M108.66 69.3857L63.9604 95.2612V102.137L108.66 76.2616V69.3857Z" fill="#F2F2F2"/>
<path d="M103.512 45.6361V42.2539H60.0044V61.2832C61.919 61.1123 63.9752 62.2496 63.9752 64.7174V70.0992L84.7607 57.2395V47.3383C84.7607 42.7148 91.9425 42.7222 91.9425 47.3383V52.7944L103.512 45.6361Z" fill="#FFC963"/>
<path d="M84.746 57.2471L63.9604 70.0993V70.129L84.746 57.2694V57.2471Z" fill="#FFC963"/>
<path d="M103.512 45.636L91.9351 52.8017V52.824L103.512 45.6583V45.636Z" fill="#FFC963"/>
<path d="M84.746 57.2693L63.9604 70.129V70.1513L84.746 57.2916V57.2693Z" fill="#FFC963"/>
<path d="M103.512 45.6584L91.9351 52.8242V52.8465L103.512 45.6807V45.6584Z" fill="#FFC963"/>
<path d="M103.512 45.6807L91.9351 52.8464V52.8687L103.512 45.7104V45.6807Z" fill="#FFC963"/>
<path d="M84.746 57.2915L63.9604 70.1512V70.1735L84.746 57.3138V57.2915Z" fill="#FFC963"/>
<path d="M84.746 57.3137L63.9604 70.1734V70.1957L84.746 57.3435V57.3137Z" fill="#FFC963"/>
<path d="M103.512 45.7104L91.9351 52.8687V52.8985L103.512 45.7327V45.7104Z" fill="#FFC963"/>
<path d="M84.746 57.3435L63.9604 70.1957V70.2255L84.746 57.3658V57.3435Z" fill="#FFC963"/>
<path d="M103.512 45.7327L91.9351 52.8984V52.9207L103.512 45.755V45.7327Z" fill="#FFC963"/>
<path d="M84.746 57.366L63.9604 70.2256V70.2479L84.746 57.3883V57.366Z" fill="#FFC963"/>
<path d="M103.512 45.7551L91.9351 52.9209V52.9432L103.512 45.7849V45.7551Z" fill="#FFC963"/>
<path d="M84.746 57.3882L63.9604 70.2479V70.2702L84.746 57.4105V57.3882Z" fill="#FFC963"/>
<path d="M103.512 45.7847L91.9351 52.943V52.9727L103.512 45.807V45.7847Z" fill="#FFC963"/>
<path d="M84.746 57.4104L63.9604 70.2701V70.2998L84.746 57.4401V57.4104Z" fill="#FFC963"/>
<path d="M103.512 45.8071L91.9351 52.9729V52.9952L103.512 45.8294V45.8071Z" fill="#FFC963"/>
<path d="M103.512 45.8293L91.9351 52.9951V53.0174L103.512 45.8516V45.8293Z" fill="#FFC963"/>
<path d="M84.746 57.4402L63.9604 70.2999V70.3222L84.746 57.4625V57.4402Z" fill="#FFC963"/>
<path d="M103.512 45.8516L91.9351 53.0173V53.0396L103.512 45.8813V45.8516Z" fill="#FFC963"/>
<path d="M84.746 57.4624L63.9604 70.3221V70.3444L84.746 57.4847V57.4624Z" fill="#FFC963"/>
<path d="M84.746 57.4849L63.9604 70.3445V70.3668L84.746 57.5146V57.4849Z" fill="#FFC963"/>
<path d="M103.512 45.8813L91.9351 53.0397V53.0694L103.512 45.9037V45.8813Z" fill="#FFC963"/>
<path d="M84.746 57.5146L63.9604 70.3669V70.3966L84.746 57.5369V57.5146Z" fill="#FFC963"/>
<path d="M103.512 45.9038L91.9351 53.0695V53.0918L103.512 45.9261V45.9038Z" fill="#FFC963"/>
<path d="M84.746 57.5369L63.9604 70.3965V70.4188L84.746 57.5592V57.5369Z" fill="#FFC963"/>
<path d="M103.512 45.926L91.9351 53.0918V53.1141L103.512 45.9558V45.926Z" fill="#FFC963"/>
<path d="M84.746 57.5591L63.9604 70.4188V70.4411L84.746 57.5888V57.5591Z" fill="#FFC963"/>
<path d="M103.512 45.9558L91.9351 53.1141V53.1438L103.512 45.9781V45.9558Z" fill="#FFC963"/>
<path d="M84.746 57.5889L63.9604 70.4411V70.4708L84.746 57.6112V57.5889Z" fill="#FFC963"/>
<path d="M103.512 45.978L91.9351 53.1438V53.1661L103.512 46.0003V45.978Z" fill="#FFC963"/>
<path d="M84.746 57.6111L63.9604 70.4707V70.493L84.746 57.6334V57.6111Z" fill="#FFC963"/>
<path d="M103.512 46.0002L91.9351 53.166V53.1883L103.512 46.03V46.0002Z" fill="#FFC963"/>
<path d="M84.746 57.6335L63.9604 70.4932V70.5155L84.746 57.6558V57.6335Z" fill="#FFC963"/>
<path d="M103.512 46.03L91.9351 53.1883V53.2181L103.512 46.0523V46.03Z" fill="#FFC963"/>
<path d="M84.746 57.6558L63.9604 70.5154V70.5452L84.746 57.6855V57.6558Z" fill="#FFC963"/>
<path d="M103.512 46.0522L91.9351 53.218V53.2403L103.512 46.0745V46.0522Z" fill="#FFC963"/>
<path d="M84.746 57.6855L63.9604 70.5452V70.5675L84.746 57.7078V57.6855Z" fill="#FFC963"/>
<path d="M103.512 46.0747L91.9351 53.2404V53.2627L103.512 46.097V46.0747Z" fill="#FFC963"/>
<path d="M84.746 57.7078L63.9604 70.5674V70.5897L84.746 57.7301V57.7078Z" fill="#FFC963"/>
<path d="M103.512 46.0969L91.9351 53.2627V53.285L103.512 46.1267V46.0969Z" fill="#FFC963"/>
<path d="M84.746 57.73L63.9604 70.5897V70.612L84.746 57.7597V57.73Z" fill="#FFC963"/>
<path d="M103.512 46.1267L91.9351 53.285V53.3147L103.512 46.149V46.1267Z" fill="#FFC963"/>
<path d="M84.746 57.7598L63.9604 70.612V70.6417L84.746 57.7821V57.7598Z" fill="#FFC963"/>
<path d="M103.512 46.1489L91.9351 53.3147V53.337L103.512 46.1712V46.1489Z" fill="#FFC963"/>
<path d="M84.746 57.7822L63.9604 70.6419V70.6642L84.746 57.8045V57.7822Z" fill="#FFC963"/>
<path d="M103.512 46.1714L91.9351 53.3371V53.3594L103.512 46.2011V46.1714Z" fill="#FFC963"/>
<path d="M103.512 46.2009L91.9351 53.3592V53.3815L103.512 46.2232V46.2009Z" fill="#FFC963"/>
<path d="M84.746 57.8044L63.9604 70.6641V70.6864L84.746 57.8267V57.8044Z" fill="#FFC963"/>
<path d="M84.746 57.8267L63.9604 70.6863V70.7086L84.746 57.8564V57.8267Z" fill="#FFC963"/>
<path d="M103.512 46.2234L91.9351 53.3817V53.4114L103.512 46.2457V46.2234Z" fill="#FFC963"/>
<path d="M103.512 46.2456L91.9351 53.4113V53.4336L103.512 46.2679V46.2456Z" fill="#FFC963"/>
<path d="M84.746 57.8564L63.9604 70.7087V70.7384L84.746 57.8787V57.8564Z" fill="#FFC963"/>
<path d="M84.746 57.8787L63.9604 70.7383V70.7606L84.746 57.901V57.8787Z" fill="#FFC963"/>
<path d="M103.512 46.2678L91.9351 53.4336V53.4559L103.512 46.2976V46.2678Z" fill="#FFC963"/>
<path d="M84.746 57.9011L63.9604 70.7608V70.7831L84.746 57.9309V57.9011Z" fill="#FFC963"/>
<path d="M103.512 46.2976L91.9351 53.4559V53.4856L103.512 46.3199V46.2976Z" fill="#FFC963"/>
<path d="M84.746 57.9307L63.9604 70.7829V70.8126L84.746 57.953V57.9307Z" fill="#FFC963"/>
<path d="M103.512 46.3201L91.9351 53.4858V53.5081L103.512 46.3424V46.3201Z" fill="#FFC963"/>
<path d="M84.746 57.9531L63.9604 70.8128V70.8351L84.746 57.9754V57.9531Z" fill="#FFC963"/>
<path d="M103.512 46.3423L91.9351 53.508V53.5303L103.512 46.372V46.3423Z" fill="#FFC963"/>
<path d="M84.746 57.9753L63.9604 70.835V70.8573L84.746 58.0051V57.9753Z" fill="#FFC963"/>
<path d="M103.512 46.3721L91.9351 53.5304V53.5527L103.512 46.3944V46.3721Z" fill="#FFC963"/>
<path d="M84.746 58.0051L63.9604 70.8574V70.8871L84.746 58.0274V58.0051Z" fill="#FFC963"/>
<path d="M103.512 46.3943L91.9351 53.5526V53.5823L103.512 46.4166V46.3943Z" fill="#FFC963"/>
<path d="M84.746 58.0273L63.9604 70.887V70.9093L84.746 58.0496V58.0273Z" fill="#FFC963"/>
<path d="M103.512 46.4165L91.9351 53.5822V53.6045L103.512 46.4462V46.4165Z" fill="#FFC963"/>
<path d="M84.746 58.0498L63.9604 70.9095V70.9318L84.746 58.0721V58.0498Z" fill="#FFC963"/>
<path d="M103.512 46.4463L91.9351 53.6046V53.6269L103.512 46.4686V46.4463Z" fill="#FFC963"/>
<path d="M84.746 58.072L63.9604 70.9317V70.954L84.746 58.1018V58.072Z" fill="#FFC963"/>
<path d="M103.512 46.4688L91.9351 53.6271V53.6568L103.512 46.491V46.4688Z" fill="#FFC963"/>
<path d="M84.746 58.1018L63.9604 70.954V70.9838L84.746 58.1241V58.1018Z" fill="#FFC963"/>
<path d="M103.512 46.491L91.9351 53.6567V53.679L103.512 46.5133V46.491Z" fill="#FFC963"/>
<path d="M84.746 58.124L63.9604 70.9837V71.006L84.746 58.1463V58.124Z" fill="#FFC963"/>
<path d="M103.512 46.5132L91.9351 53.6789V53.7012L103.512 46.5429V46.5132Z" fill="#FFC963"/>
<path d="M84.746 58.1465L63.9604 71.0062V71.0285L84.746 58.1762V58.1465Z" fill="#FFC963"/>
<path d="M103.512 46.543L91.9351 53.7013V53.731L103.512 46.5653V46.543Z" fill="#FFC963"/>
<path d="M84.746 58.176L63.9604 71.0283V71.058L84.746 58.1983V58.176Z" fill="#FFC963"/>
<path d="M103.512 46.5652L91.9351 53.7309V53.7532L103.512 46.5875V46.5652Z" fill="#FFC963"/>
<path d="M103.512 46.5876L91.9351 53.7534V53.7757L103.512 46.6099V46.5876Z" fill="#FFC963"/>
<path d="M84.746 58.1985L63.9604 71.0582V71.0805L84.746 58.2208V58.1985Z" fill="#FFC963"/>
<path d="M84.746 58.2207L63.9604 71.0804V71.1027L84.746 58.243V58.2207Z" fill="#FFC963"/>
<path d="M103.512 46.6099L91.9351 53.7756V53.7979L103.512 46.6396V46.6099Z" fill="#FFC963"/>
<path d="M84.746 58.2429L63.9604 71.1026V71.1249L84.746 58.2727V58.2429Z" fill="#FFC963"/>
<path d="M103.512 46.6396L91.9351 53.7979V53.8277L103.512 46.6619V46.6396Z" fill="#FFC963"/>
<path d="M84.746 58.2727L63.9604 71.1249V71.1547L84.746 58.295V58.2727Z" fill="#FFC963"/>
<path d="M103.512 46.6619L91.9351 53.8276V53.8499L103.512 46.6842V46.6619Z" fill="#FFC963"/>
<path d="M103.512 58.3842V46.7139L91.9351 53.8499V64.3755C91.9351 68.999 84.7533 68.9916 84.7533 64.3755V58.295L63.9678 71.1547V71.675H108.668V61.5285C106.537 62.4205 103.512 61.3873 103.512 58.3842Z" fill="#FFC963"/>
<path d="M103.512 43.0493L91.9351 49.7468V56.6226L103.512 49.9177V43.0493Z" fill="#68E1FD"/>
<path d="M84.746 53.9094L63.9604 65.9366V72.8124L84.746 60.7853V53.9094Z" fill="#68E1FD"/>
<path d="M92.9408 57.5667H60.0044V61.2833C61.919 61.1124 63.9752 62.2497 63.9752 64.7175V85.4045L73.6602 79.3909V70.3743C73.6602 67.1185 77.2213 66.1745 79.3297 67.505L79.4191 67.3935C79.4936 67.0219 79.5755 66.6502 79.6649 66.286C80.2684 63.7958 82.4885 63.3126 84.2839 64.056C84.4776 63.6546 84.6788 63.2606 84.8948 62.8741C85.2433 62.2241 85.7917 61.703 86.4593 61.3874C86.5115 61.2685 86.5562 61.1495 86.6083 61.0306C87.6066 58.979 89.5883 58.8601 91.1156 59.7223C91.2321 59.2467 91.4575 58.8044 91.7742 58.4304C92.0909 58.0564 92.4903 57.7607 92.9408 57.5667Z" fill="#FF666D"/>
<path d="M96.2339 57.5667C96.833 57.828 97.3392 58.2637 97.6861 58.8167C98.033 59.3698 98.2046 60.0144 98.1783 60.6664V64.2418L108.66 57.7599V57.5667H96.2339Z" fill="#FF666D"/>
<path d="M73.6753 79.3984L63.9604 85.412V85.4343L73.6753 79.4207V79.3984Z" fill="#FF666D"/>
<path d="M98.1855 64.2419V64.2642L108.66 57.7823V57.76L98.1855 64.2419Z" fill="#FF666D"/>
<path d="M73.6753 79.4207L63.9604 85.4342V85.4565L73.6753 79.4504V79.4207Z" fill="#FF666D"/>
<path d="M98.1855 64.2641V64.2864L108.66 57.8045V57.7822L98.1855 64.2641Z" fill="#FF666D"/>
<path d="M73.6753 79.4504L63.9604 85.4566V85.4863L73.6753 79.4727V79.4504Z" fill="#FF666D"/>
<path d="M98.1855 64.2863V64.316L108.66 57.8267V57.8044L98.1855 64.2863Z" fill="#FF666D"/>
<path d="M73.6753 79.4727L63.9604 85.4862V85.5085L73.6753 79.495V79.4727Z" fill="#FF666D"/>
<path d="M98.1855 64.3162V64.3385L108.66 57.8566V57.8269L98.1855 64.3162Z" fill="#FF666D"/>
<path d="M73.6753 79.4949L63.9604 85.5084V85.5307L73.6753 79.5246V79.4949Z" fill="#FF666D"/>
<path d="M98.1855 64.3386V64.3609L108.66 57.879V57.8567L98.1855 64.3386Z" fill="#FF666D"/>
<path d="M73.6753 79.5247L63.9604 85.5308V85.5531L73.6753 79.547V79.5247Z" fill="#FF666D"/>
<path d="M98.1855 64.3608V64.3905L108.66 57.9012V57.8789L98.1855 64.3608Z" fill="#FF666D"/>
<path d="M73.6753 79.5469L63.9604 85.553V85.5827L73.6753 79.5692V79.5469Z" fill="#FF666D"/>
<path d="M98.1855 64.3904V64.4127L108.66 57.9309V57.9011L98.1855 64.3904Z" fill="#FF666D"/>
<path d="M98.1855 64.4128V64.4351L108.66 57.9532V57.9309L98.1855 64.4128Z" fill="#FF666D"/>
<path d="M73.6753 79.5693L63.9604 85.5829V85.6052L73.6753 79.5916V79.5693Z" fill="#FF666D"/>
<path d="M73.6753 79.5916L63.9604 85.6051V85.6274L73.6753 79.6213V79.5916Z" fill="#FF666D"/>
<path d="M98.1855 64.435V64.4573L108.66 57.9754V57.9531L98.1855 64.435Z" fill="#FF666D"/>
<path d="M98.1855 64.4575V64.4872L108.66 58.0053V57.9756L98.1855 64.4575Z" fill="#FF666D"/>
<path d="M73.6753 79.6213L63.9604 85.6275V85.6498L73.6753 79.6436V79.6213Z" fill="#FF666D"/>
<path d="M73.6753 79.6436L63.9604 85.6497V85.6794L73.6753 79.6659V79.6436Z" fill="#FF666D"/>
<path d="M98.1855 64.487V64.5093L108.66 58.0274V58.0051L98.1855 64.487Z" fill="#FF666D"/>
<path d="M73.6753 79.666L63.9604 85.6796V85.7019L73.6753 79.6883V79.666Z" fill="#FF666D"/>
<path d="M98.1855 64.5095V64.5318L108.66 58.0499V58.0276L98.1855 64.5095Z" fill="#FF666D"/>
<path d="M73.6753 79.6882L63.9604 85.7018V85.7241L73.6753 79.718V79.6882Z" fill="#FF666D"/>
<path d="M98.1855 64.5317V64.5614L108.66 58.0721V58.0498L98.1855 64.5317Z" fill="#FF666D"/>
<path d="M73.6753 79.718L63.9604 85.7242V85.7539L73.6753 79.7403V79.718Z" fill="#FF666D"/>
<path d="M98.1855 64.5613V64.5836L108.66 58.1018V58.072L98.1855 64.5613Z" fill="#FF666D"/>
<path d="M73.6753 79.7402L63.9604 85.7538V85.7761L73.6753 79.7625V79.7402Z" fill="#FF666D"/>
<path d="M98.1855 64.5837V64.606L108.66 58.1241V58.1018L98.1855 64.5837Z" fill="#FF666D"/>
<path d="M98.1855 64.6059V64.6356L108.66 58.1463V58.124L98.1855 64.6059Z" fill="#FF666D"/>
<path d="M73.6753 79.7625L63.9604 85.776V85.7983L73.6753 79.7922V79.7625Z" fill="#FF666D"/>
<path d="M73.6753 79.7922L63.9604 85.7984V85.8281L73.6753 79.8145V79.7922Z" fill="#FF666D"/>
<path d="M98.1855 64.6358V64.6581L108.66 58.1762V58.1465L98.1855 64.6358Z" fill="#FF666D"/>
<path d="M73.6753 79.8147L63.9604 85.8283V85.8506L73.6753 79.837V79.8147Z" fill="#FF666D"/>
<path d="M98.1855 64.6581V64.6804L108.66 58.1986V58.1763L98.1855 64.6581Z" fill="#FF666D"/>
<path d="M73.6753 79.8369L63.9604 85.8505V85.8728L73.6753 79.8592V79.8369Z" fill="#FF666D"/>
<path d="M98.1855 64.6804V64.7027L108.66 58.2208V58.1985L98.1855 64.6804Z" fill="#FF666D"/>
<path d="M98.1855 64.7026V64.7323L108.66 58.243V58.2207L98.1855 64.7026Z" fill="#FF666D"/>
<path d="M73.6753 79.8591L63.9604 85.8727V85.895L73.6753 79.8889V79.8591Z" fill="#FF666D"/>
<path d="M73.6753 79.8889L63.9604 85.895V85.9248L73.6753 79.9112V79.8889Z" fill="#FF666D"/>
<path d="M98.1855 64.7325V64.7548L108.66 58.2729V58.2432L98.1855 64.7325Z" fill="#FF666D"/>
<path d="M73.6753 79.9111L63.9604 85.9247V85.947L73.6753 79.9334V79.9111Z" fill="#FF666D"/>
<path d="M98.1855 64.7546V64.7769L108.66 58.295V58.2727L98.1855 64.7546Z" fill="#FF666D"/>
<path d="M98.1855 64.777V64.7993L108.66 58.3175V58.2952L98.1855 64.777Z" fill="#FF666D"/>
<path d="M73.6753 79.9336L63.9604 85.9472V85.9695L73.6753 79.9633V79.9336Z" fill="#FF666D"/>
<path d="M73.6753 79.9631L63.9604 85.9693V85.999L73.6753 79.9854V79.9631Z" fill="#FF666D"/>
<path d="M98.1855 64.7992V64.829L108.66 58.3471V58.3174L98.1855 64.7992Z" fill="#FF666D"/>
<path d="M73.6753 79.9856L63.9604 85.9992V86.0215L73.6753 80.0079V79.9856Z" fill="#FF666D"/>
<path d="M98.1855 64.829V64.8513L108.66 58.3695V58.3472L98.1855 64.829Z" fill="#FF666D"/>
<path d="M73.6753 80.0078L63.9604 86.0214V86.0437L73.6753 80.0375V80.0078Z" fill="#FF666D"/>
<path d="M98.1855 64.8513V64.8736L108.66 58.3917V58.3694L98.1855 64.8513Z" fill="#FF666D"/>
<path d="M73.6753 80.0376L63.9604 86.0437V86.066L73.6753 80.0599V80.0376Z" fill="#FF666D"/>
<path d="M98.1855 64.8735V64.9032L108.66 58.4213V58.3916L98.1855 64.8735Z" fill="#FF666D"/>
<path d="M73.6753 80.0598L63.9604 86.066V86.0957L73.6753 80.0821V80.0598Z" fill="#FF666D"/>
<path d="M98.1855 64.9033V64.9256L108.66 58.4437V58.4214L98.1855 64.9033Z" fill="#FF666D"/>
<path d="M73.6753 80.0823L63.9604 86.0958V86.1181L73.6753 80.1046V80.0823Z" fill="#FF666D"/>
<path d="M98.1855 64.9257V64.948L108.66 58.4661V58.4438L98.1855 64.9257Z" fill="#FF666D"/>
<path d="M73.6753 80.1045L63.9604 86.1181V86.1404L73.6753 80.1342V80.1045Z" fill="#FF666D"/>
<path d="M98.1855 64.9479V64.9702L108.66 58.4884V58.4661L98.1855 64.9479Z" fill="#FF666D"/>
<path d="M98.1855 64.9702V64.9999L108.66 58.518V58.4883L98.1855 64.9702Z" fill="#FF666D"/>
<path d="M73.6753 80.1343L63.9604 86.1404V86.1701L73.6753 80.1566V80.1343Z" fill="#FF666D"/>
<path d="M73.6753 80.1565L63.9604 86.1701V86.1924L73.6753 80.1788V80.1565Z" fill="#FF666D"/>
<path d="M98.1855 64.9999V65.0222L108.66 58.5404V58.5181L98.1855 64.9999Z" fill="#FF666D"/>
<path d="M73.6753 80.179L63.9604 86.1925V86.2148L73.6753 80.2087V80.179Z" fill="#FF666D"/>
<path d="M98.1855 65.0221V65.0444L108.66 58.5626V58.5403L98.1855 65.0221Z" fill="#FF666D"/>
<path d="M98.1855 65.0446V65.0743L108.66 58.585V58.5627L98.1855 65.0446Z" fill="#FF666D"/>
<path d="M73.6753 80.2085L63.9604 86.2146V86.2444L73.6753 80.2308V80.2085Z" fill="#FF666D"/>
<path d="M73.6753 80.231L63.9604 86.2445V86.2668L73.6753 80.2533V80.231Z" fill="#FF666D"/>
<path d="M98.1855 65.0743V65.0966L108.66 58.6147V58.585L98.1855 65.0743Z" fill="#FF666D"/>
<path d="M98.1855 65.0966V65.1189L108.66 58.637V58.6147L98.1855 65.0966Z" fill="#FF666D"/>
<path d="M73.6753 80.2532L63.9604 86.2667V86.289L73.6753 80.2829V80.2532Z" fill="#FF666D"/>
<path d="M98.1855 65.1188V65.1486L108.66 58.6593V58.637L98.1855 65.1188Z" fill="#FF666D"/>
<path d="M73.6753 80.283L63.9604 86.2891V86.3114L73.6753 80.3053V80.283Z" fill="#FF666D"/>
<path d="M98.1855 65.1487V65.171L108.66 58.6892V58.6594L98.1855 65.1487Z" fill="#FF666D"/>
<path d="M73.6753 80.3052L63.9604 86.3113V86.341L73.6753 80.3275V80.3052Z" fill="#FF666D"/>
<path d="M98.1855 65.1708V65.1931L108.66 58.7113V58.689L98.1855 65.1708Z" fill="#FF666D"/>
<path d="M73.6753 80.3274L63.9604 86.341V86.3633L73.6753 80.3497V80.3274Z" fill="#FF666D"/>
<path d="M73.6753 80.3499L63.9604 86.3634V86.3857L73.6753 80.3796V80.3499Z" fill="#FF666D"/>
<path d="M98.1855 65.1933V65.2156L108.66 58.7337V58.7114L98.1855 65.1933Z" fill="#FF666D"/>
<path d="M73.6753 80.3796L63.9604 86.3858V86.4155L73.6753 80.4019V80.3796Z" fill="#FF666D"/>
<path d="M98.1855 65.2155V65.2452L108.66 58.7559V58.7336L98.1855 65.2155Z" fill="#FF666D"/>
<path d="M73.6753 80.4019L63.9604 86.4154V86.4377L73.6753 80.4242V80.4019Z" fill="#FF666D"/>
<path d="M98.1855 65.2452V65.2675L108.66 58.7856V58.7559L98.1855 65.2452Z" fill="#FF666D"/>
<path d="M73.6753 80.4241L63.9604 86.4376V86.4599L73.6753 80.4538V80.4241Z" fill="#FF666D"/>
<path d="M98.1855 65.2675V65.2898L108.66 58.8079V58.7856L98.1855 65.2675Z" fill="#FF666D"/>
<path d="M108.66 83.8807V58.8081L98.1854 65.2974V79.0937C98.1854 83.7172 91.0036 83.7098 91.0036 79.0937V73.8011C90.608 74.496 90.0121 75.0561 89.2934 75.4087C88.5746 75.7613 87.7662 75.8901 86.9732 75.7784C86.7869 76.1055 86.6007 76.44 86.3921 76.7596C86.0985 77.1982 85.7087 77.5642 85.2522 77.83C85.2522 78.0604 85.2001 78.2983 85.1703 78.5287V78.6774C85.133 78.997 85.0958 79.3167 85.0511 79.6289C84.7605 81.7994 82.7043 82.4907 80.8865 82.0744V86.2445C80.8852 86.4941 80.8602 86.743 80.812 86.9879H110.612C110.01 86.7272 109.502 86.2908 109.153 85.7362C108.805 85.1816 108.633 84.5347 108.66 83.8807Z" fill="#FF666D"/>
<path d="M73.6826 86.2222V80.4465L63.9976 86.4601V86.9804H73.7869C73.7276 86.7317 73.6927 86.4777 73.6826 86.2222Z" fill="#FF666D"/>
<path d="M73.6753 75.6223L63.9604 81.2493V88.1252L73.6753 82.4981V75.6223Z" fill="#FF666D"/>
<path d="M98.1855 61.4394V68.3152L108.66 62.2496V55.3738L98.1855 61.4394Z" fill="#FF666D"/>
<path d="M18.7612 90.5706V121.047C18.7614 121.555 18.6009 122.05 18.3025 122.461C18.0042 122.872 17.5832 123.178 17.0998 123.337C16.7373 123.455 16.3516 123.487 15.9746 123.428C15.5976 123.369 15.2399 123.222 14.9309 122.998C14.622 122.775 14.3705 122.482 14.1971 122.143C14.0237 121.803 13.9334 121.428 13.9336 121.047V90.5706C13.9385 90.0848 14.0906 89.6119 14.3698 89.2139C14.649 88.8159 15.0423 88.5115 15.4981 88.3406C15.8614 88.2043 16.2523 88.1574 16.6376 88.204C17.0229 88.2505 17.3913 88.3891 17.7115 88.6079C18.0317 88.8268 18.2944 89.1194 18.4771 89.4611C18.6598 89.8027 18.7573 90.1833 18.7612 90.5706Z" fill="url(#paint3_linear)" stroke="#F2F2F2" stroke-width="0.5" stroke-miterlimit="10"/>
<path d="M63.9604 102.137C63.9604 102.137 65.4505 93.1427 69.9801 93.1427C74.5096 93.1427 75.9401 98.5616 80.2611 94.384C84.5821 90.2065 86.6084 79.7775 91.816 82.3866C97.0235 84.9957 101.613 84.7356 103.788 81.2791C105.964 77.8226 108.66 69.3857 108.66 69.3857" stroke="#39B54A" stroke-width="0.5" stroke-miterlimit="10"/>
<defs>
<linearGradient id="paint0_linear" x1="166.658" y1="125.745" x2="155.715" y2="133.298" gradientUnits="userSpaceOnUse">
<stop stop-color="#808080"/>
<stop offset="1" stop-color="white"/>
</linearGradient>
<linearGradient id="paint1_linear" x1="13662.4" y1="8022.45" x2="13028.8" y2="9368.58" gradientUnits="userSpaceOnUse">
<stop stop-color="#808080"/>
<stop offset="1" stop-color="white"/>
</linearGradient>
<linearGradient id="paint2_linear" x1="1396.46" y1="6277.26" x2="1207.79" y2="6318.89" gradientUnits="userSpaceOnUse">
<stop stop-color="white" stop-opacity="0"/>
<stop offset="1" stop-color="#D4FFFF"/>
</linearGradient>
<linearGradient id="paint3_linear" x1="1351.08" y1="5492.99" x2="1162.79" y2="5534.55" gradientUnits="userSpaceOnUse">
<stop stop-color="white" stop-opacity="0"/>
<stop offset="1" stop-color="#D4FFFF"/>
</linearGradient>
</defs>
</svg>
