<svg width="44" height="45" viewBox="0 0 44 45" fill="none" xmlns="http://www.w3.org/2000/svg">
<g clip-path="url(#clip0)">
<path d="M36.7772 22.483C34.8063 22.483 33.1938 20.833 33.1938 18.8163C33.1938 16.7997 34.8063 15.1497 36.7772 15.1497C38.748 15.1497 40.3605 16.7997 40.3605 18.8163C40.3605 20.833 38.748 22.483 36.7772 22.483ZM36.7772 16.983C35.7022 16.983 34.9855 17.7163 34.9855 18.8163C34.9855 19.9163 35.7022 20.6497 36.7772 20.6497C37.8522 20.6497 38.5688 19.9163 38.5688 18.8163C38.5688 17.7163 37.8522 16.983 36.7772 16.983Z" fill="#1D607A"/>
<path d="M43.048 31.6495C42.5105 31.6495 42.1522 31.2828 42.1522 30.7328V28.8995C42.1522 27.4328 40.898 26.1495 39.4647 26.1495H34.0897C33.5522 26.1495 33.1938 25.7828 33.1938 25.2328C33.1938 24.6828 33.5522 24.3162 34.0897 24.3162H39.4647C41.973 24.3162 43.9438 26.3328 43.9438 28.8995V30.7328C43.9438 31.2828 43.5855 31.6495 43.048 31.6495Z" fill="#1D607A"/>
<path d="M8.11043 22.483C6.1396 22.483 4.5271 20.833 4.5271 18.8163C4.5271 16.7997 6.1396 15.1497 8.11043 15.1497C10.0813 15.1497 11.6938 16.7997 11.6938 18.8163C11.6938 20.833 10.0813 22.483 8.11043 22.483ZM8.11043 16.983C7.03543 16.983 6.31877 17.7163 6.31877 18.8163C6.31877 19.9163 7.03543 20.6497 8.11043 20.6497C9.18543 20.6497 9.9021 19.9163 9.9021 18.8163C9.9021 17.7163 9.18543 16.983 8.11043 16.983Z" fill="#1D607A"/>
<path d="M1.83968 31.6495C1.30218 31.6495 0.943848 31.2828 0.943848 30.7328V28.8995C0.943848 26.3328 2.91468 24.3162 5.42301 24.3162H10.798C11.3355 24.3162 11.6938 24.6828 11.6938 25.2328C11.6938 25.7828 11.3355 26.1495 10.798 26.1495H5.42301C3.98968 26.1495 2.73551 27.4328 2.73551 28.8995V30.7328C2.73551 31.2828 2.37718 31.6495 1.83968 31.6495Z" fill="#1D607A"/>
<path d="M22.4438 23.3997C19.398 23.3997 17.0688 21.0163 17.0688 17.8997C17.0688 14.783 19.398 12.3997 22.4438 12.3997C25.4897 12.3997 27.8188 14.783 27.8188 17.8997C27.8188 21.0163 25.4897 23.3997 22.4438 23.3997ZM22.4438 14.233C20.473 14.233 18.8605 15.883 18.8605 17.8997C18.8605 19.9163 20.473 21.5663 22.4438 21.5663C24.4147 21.5663 26.0272 19.9163 26.0272 17.8997C26.0272 15.883 24.4147 14.233 22.4438 14.233Z" fill="#1D607A"/>
<path d="M31.4021 35.3163C30.8646 35.3163 30.5063 34.9497 30.5063 34.3997V30.733C30.5063 29.2663 29.2521 27.983 27.8188 27.983H17.0688C15.6354 27.983 14.3813 29.2663 14.3813 30.733V34.3997C14.3813 34.9497 14.0229 35.3163 13.4854 35.3163C12.9479 35.3163 12.5896 34.9497 12.5896 34.3997V30.733C12.5896 28.1663 14.5604 26.1497 17.0688 26.1497H27.8188C30.3271 26.1497 32.2979 28.1663 32.2979 30.733V34.3997C32.2979 34.9497 31.9396 35.3163 31.4021 35.3163Z" fill="#1D607A"/>
</g>
<defs>
<clipPath id="clip0">
<rect width="43" height="44" fill="white" transform="translate(0.943848 0.48291)"/>
</clipPath>
</defs>
</svg>
