<svg width="24" height="24" viewBox="0 0 24 24" fill="none" xmlns="http://www.w3.org/2000/svg">
<path d="M20.4926 15.0379C19.24 13.7854 17.7492 12.8582 16.1226 12.2969C17.8647 11.097 19.0093 9.08883 19.0093 6.81812C19.0093 3.15218 16.0268 0.169678 12.3608 0.169678C8.6949 0.169678 5.7124 3.15218 5.7124 6.81812C5.7124 9.08883 6.85697 11.097 8.59917 12.2969C6.97255 12.8582 5.48168 13.7854 4.22913 15.0379C2.05706 17.21 0.86084 20.0979 0.86084 23.1697H2.65771C2.65771 17.8193 7.01051 13.4666 12.3608 13.4666C17.7112 13.4666 22.064 17.8193 22.064 23.1697H23.8608C23.8608 20.0979 22.6646 17.21 20.4926 15.0379ZM12.3608 11.6697C9.6857 11.6697 7.50928 9.4933 7.50928 6.81812C7.50928 4.14293 9.6857 1.96655 12.3608 1.96655C15.036 1.96655 17.2124 4.14293 17.2124 6.81812C17.2124 9.4933 15.036 11.6697 12.3608 11.6697Z" fill="#1D607A"/>
</svg>
