<svg width="1139" height="148" viewBox="0 0 1139 148" fill="none" xmlns="http://www.w3.org/2000/svg">
<path d="M99 70.2H140V129.4C131.733 135.133 122.133 139.533 111.2 142.6C100.267 145.667 89.5333 147.2 79 147.2C64.0667 147.2 50.6667 144.133 38.8 138C26.9333 131.733 17.6 123.067 10.8 112C4.13333 100.8 0.8 88.1333 0.8 74C0.8 59.8667 4.13333 47.2667 10.8 36.2C17.6 25 27 16.3333 39 10.2C51.1333 3.93333 64.8 0.799996 80 0.799996C93.7333 0.799996 106 3.13333 116.8 7.79999C127.733 12.3333 136.8 19 144 27.8L113.8 54.4C105 44.1333 94.5333 39 82.4 39C72 39 63.7333 42.1333 57.6 48.4C51.4667 54.6667 48.4 63.2 48.4 74C48.4 84.5333 51.4 93 57.4 99.4C63.5333 105.8 71.6667 109 81.8 109C87.8 109 93.5333 107.867 99 105.6V70.2ZM160.111 3.99999H207.311V107.4H270.511V144H160.111V3.99999ZM354.995 147.2C339.929 147.2 326.395 144.067 314.395 137.8C302.395 131.533 292.995 122.867 286.195 111.8C279.395 100.6 275.995 88 275.995 74C275.995 60 279.395 47.4667 286.195 36.4C292.995 25.2 302.395 16.4667 314.395 10.2C326.395 3.93333 339.929 0.799996 354.995 0.799996C370.062 0.799996 383.595 3.93333 395.595 10.2C407.595 16.4667 416.995 25.2 423.795 36.4C430.595 47.4667 433.995 60 433.995 74C433.995 88 430.595 100.6 423.795 111.8C416.995 122.867 407.595 131.533 395.595 137.8C383.595 144.067 370.062 147.2 354.995 147.2ZM354.995 109C360.862 109 366.129 107.6 370.795 104.8C375.595 101.867 379.395 97.8 382.195 92.6C384.995 87.2667 386.395 81.0667 386.395 74C386.395 66.9333 384.995 60.8 382.195 55.6C379.395 50.2667 375.595 46.2 370.795 43.4C366.129 40.4667 360.862 39 354.995 39C349.129 39 343.795 40.4667 338.995 43.4C334.329 46.2 330.595 50.2667 327.795 55.6C324.995 60.8 323.595 66.9333 323.595 74C323.595 81.0667 324.995 87.2667 327.795 92.6C330.595 97.8 334.329 101.867 338.995 104.8C343.795 107.6 349.129 109 354.995 109ZM563.127 70.8C571.393 73.8667 577.793 78.3333 582.327 84.2C586.86 90.0667 589.127 97.1333 589.127 105.4C589.127 117.667 584.06 127.2 573.927 134C563.793 140.667 549.127 144 529.927 144H451.127V3.99999H525.927C544.593 3.99999 558.66 7.33332 568.127 14C577.727 20.6667 582.527 29.5333 582.527 40.6C582.527 47.1333 580.86 53 577.527 58.2C574.327 63.4 569.527 67.6 563.127 70.8ZM497.527 37V57.8H519.527C529.793 57.8 534.927 54.3333 534.927 47.4C534.927 40.4667 529.793 37 519.527 37H497.527ZM525.927 111C536.327 111 541.527 107.333 541.527 100C541.527 92.6667 536.327 89 525.927 89H497.527V111H525.927ZM701.214 119.6H648.014L638.614 144H590.614L651.814 3.99999H698.214L759.414 144H710.614L701.214 119.6ZM688.214 85.6L674.614 50.4L661.014 85.6H688.214ZM766.947 3.99999H814.147V107.4H877.347V144H766.947V3.99999ZM950.345 3.99999H997.545V144H950.345V3.99999ZM1050.67 40.6H1009.67V3.99999H1138.87V40.6H1097.87V144H1050.67V40.6Z" fill="black" fill-opacity="0.03"/>
</svg>
