<svg width="35" height="35" viewBox="0 0 35 35" fill="none" xmlns="http://www.w3.org/2000/svg">
<g clip-path="url(#clip0)">
<path d="M8.86079 0.661865C8.19014 0.661865 7.64648 1.20552 7.64648 1.87617V4.30472H10.075V1.87617C10.075 1.20552 9.53138 0.661865 8.86079 0.661865Z" fill="#E0522B"/>
<path d="M25.8608 0.661865C25.1901 0.661865 24.6465 1.20552 24.6465 1.87617V4.30472H27.075V1.87617C27.0751 1.20552 26.5314 0.661865 25.8608 0.661865Z" fill="#E0522B"/>
<path d="M30.718 4.30469H27.0751V9.16185C27.0751 9.83251 26.5315 10.3762 25.8608 10.3762C25.1902 10.3762 24.6465 9.83251 24.6465 9.16185V4.30469H10.0751V9.16185C10.0751 9.83251 9.53144 10.3762 8.86079 10.3762C8.19013 10.3762 7.64648 9.83251 7.64648 9.16185V4.30469H4.00369C1.9918 4.30469 0.36084 5.93565 0.36084 7.94754V31.019C0.36084 33.0309 1.9918 34.6618 4.00369 34.6618H30.718C32.7299 34.6618 34.3608 33.0309 34.3608 31.019V7.94754C34.3608 5.93565 32.7299 4.30469 30.718 4.30469ZM31.9322 31.019C31.9322 31.6896 31.3886 32.2333 30.7179 32.2333H4.00369C3.33304 32.2333 2.78939 31.6896 2.78939 31.019V15.2333H31.9322V31.019Z" fill="#E0522B"/>
<path d="M25.5059 18.0181C25.0318 17.5436 24.2628 17.5434 23.7883 18.0175L14.9326 26.8733L10.9339 22.8747C10.4594 22.4005 9.6904 22.4008 9.21626 22.8753C8.74212 23.3498 8.7424 24.1188 9.2169 24.5929L14.0741 29.4501C14.5483 29.9242 15.3169 29.9242 15.791 29.4501L25.5054 19.7358C25.9798 19.2616 25.9801 18.4926 25.5059 18.0181Z" fill="#E0522B"/>
</g>
<defs>
<clipPath id="clip0">
<rect width="34" height="34" fill="white" transform="translate(0.36084 0.661865)"/>
</clipPath>
</defs>
</svg>
