<svg width="44" height="45" viewBox="0 0 44 45" fill="none" xmlns="http://www.w3.org/2000/svg">
<g clip-path="url(#clip0)">
<path d="M36.7772 22.5382C34.8063 22.5382 33.1938 20.8882 33.1938 18.8715C33.1938 16.8548 34.8063 15.2048 36.7772 15.2048C38.748 15.2048 40.3605 16.8548 40.3605 18.8715C40.3605 20.8882 38.748 22.5382 36.7772 22.5382ZM36.7772 17.0382C35.7022 17.0382 34.9855 17.7715 34.9855 18.8715C34.9855 19.9715 35.7022 20.7048 36.7772 20.7048C37.8522 20.7048 38.5688 19.9715 38.5688 18.8715C38.5688 17.7715 37.8522 17.0382 36.7772 17.0382Z" fill="#E0522B"/>
<path d="M43.048 31.7047C42.5105 31.7047 42.1522 31.338 42.1522 30.788V28.9547C42.1522 27.488 40.898 26.2047 39.4647 26.2047H34.0897C33.5522 26.2047 33.1938 25.838 33.1938 25.288C33.1938 24.738 33.5522 24.3713 34.0897 24.3713H39.4647C41.973 24.3713 43.9438 26.388 43.9438 28.9547V30.788C43.9438 31.338 43.5855 31.7047 43.048 31.7047Z" fill="#E0522B"/>
<path d="M8.11068 22.5382C6.13984 22.5382 4.52734 20.8882 4.52734 18.8715C4.52734 16.8548 6.13984 15.2048 8.11068 15.2048C10.0815 15.2048 11.694 16.8548 11.694 18.8715C11.694 20.8882 10.0815 22.5382 8.11068 22.5382ZM8.11068 17.0382C7.03568 17.0382 6.31901 17.7715 6.31901 18.8715C6.31901 19.9715 7.03568 20.7048 8.11068 20.7048C9.18568 20.7048 9.90234 19.9715 9.90234 18.8715C9.90234 17.7715 9.18568 17.0382 8.11068 17.0382Z" fill="#E0522B"/>
<path d="M1.83968 31.7047C1.30218 31.7047 0.943848 31.338 0.943848 30.788V28.9547C0.943848 26.388 2.91468 24.3713 5.42301 24.3713H10.798C11.3355 24.3713 11.6938 24.738 11.6938 25.288C11.6938 25.838 11.3355 26.2047 10.798 26.2047H5.42301C3.98968 26.2047 2.73551 27.488 2.73551 28.9547V30.788C2.73551 31.338 2.37718 31.7047 1.83968 31.7047Z" fill="#E0522B"/>
<path d="M22.4438 23.4548C19.398 23.4548 17.0688 21.0715 17.0688 17.9548C17.0688 14.8382 19.398 12.4548 22.4438 12.4548C25.4897 12.4548 27.8188 14.8382 27.8188 17.9548C27.8188 21.0715 25.4897 23.4548 22.4438 23.4548ZM22.4438 14.2882C20.473 14.2882 18.8605 15.9382 18.8605 17.9548C18.8605 19.9715 20.473 21.6215 22.4438 21.6215C24.4147 21.6215 26.0272 19.9715 26.0272 17.9548C26.0272 15.9382 24.4147 14.2882 22.4438 14.2882Z" fill="#E0522B"/>
<path d="M31.4023 35.3715C30.8648 35.3715 30.5065 35.0048 30.5065 34.4548V30.7882C30.5065 29.3215 29.2523 28.0382 27.819 28.0382H17.069C15.6357 28.0382 14.3815 29.3215 14.3815 30.7882V34.4548C14.3815 35.0048 14.0232 35.3715 13.4857 35.3715C12.9482 35.3715 12.5898 35.0048 12.5898 34.4548V30.7882C12.5898 28.2215 14.5607 26.2048 17.069 26.2048H27.819C30.3273 26.2048 32.2982 28.2215 32.2982 30.7882V34.4548C32.2982 35.0048 31.9398 35.3715 31.4023 35.3715Z" fill="#E0522B"/>
</g>
<defs>
<clipPath id="clip0">
<rect width="43" height="44" fill="white" transform="translate(0.943848 0.538086)"/>
</clipPath>
</defs>
</svg>
