<svg width="24" height="24" viewBox="0 0 24 24" fill="none" xmlns="http://www.w3.org/2000/svg">
<g clip-path="url(#clip0)">
<path d="M20.4926 15.0931C19.24 13.8406 17.7492 12.9134 16.1226 12.3521C17.8647 11.1521 19.0093 9.144 19.0093 6.87329C19.0093 3.20735 16.0268 0.224854 12.3608 0.224854C8.6949 0.224854 5.7124 3.20735 5.7124 6.87329C5.7124 9.144 6.85697 11.1521 8.59917 12.3521C6.97255 12.9134 5.48168 13.8406 4.22913 15.0931C2.05706 17.2652 0.86084 20.1531 0.86084 23.2249H2.65771C2.65771 17.8745 7.01051 13.5217 12.3608 13.5217C17.7112 13.5217 22.064 17.8745 22.064 23.2249H23.8608C23.8608 20.1531 22.6646 17.2652 20.4926 15.0931ZM12.3608 11.7249C9.6857 11.7249 7.50928 9.54848 7.50928 6.87329C7.50928 4.1981 9.6857 2.02173 12.3608 2.02173C15.036 2.02173 17.2124 4.1981 17.2124 6.87329C17.2124 9.54848 15.036 11.7249 12.3608 11.7249Z" fill="#E0522B"/>
</g>
<defs>
<clipPath id="clip0">
<rect width="23" height="23" fill="white" transform="translate(0.86084 0.224854)"/>
</clipPath>
</defs>
</svg>
