<svg width="35" height="35" viewBox="0 0 35 35" fill="none" xmlns="http://www.w3.org/2000/svg">
<g clip-path="url(#clip0)">
<path d="M8.86079 0.272705C8.19014 0.272705 7.64648 0.816358 7.64648 1.48701V3.91556H10.075V1.48701C10.075 0.816358 9.53138 0.272705 8.86079 0.272705Z" fill="#2F6BF0"/>
<path d="M25.8608 0.272705C25.1901 0.272705 24.6465 0.816358 24.6465 1.48701V3.91556H27.075V1.48701C27.0751 0.816358 26.5314 0.272705 25.8608 0.272705Z" fill="#2F6BF0"/>
<path d="M30.718 3.91553H27.0751V8.77269C27.0751 9.44335 26.5315 9.987 25.8608 9.987C25.1902 9.987 24.6465 9.44335 24.6465 8.77269V3.91553H10.0751V8.77269C10.0751 9.44335 9.53144 9.987 8.86079 9.987C8.19013 9.987 7.64648 9.44335 7.64648 8.77269V3.91553H4.00369C1.9918 3.91553 0.36084 5.54649 0.36084 7.55838V30.6298C0.36084 32.6417 1.9918 34.2727 4.00369 34.2727H30.718C32.7299 34.2727 34.3608 32.6417 34.3608 30.6298V7.55838C34.3608 5.54649 32.7299 3.91553 30.718 3.91553ZM31.9322 30.6298C31.9322 31.3005 31.3886 31.8441 30.7179 31.8441H4.00369C3.33304 31.8441 2.78939 31.3005 2.78939 30.6298V14.8441H31.9322V30.6298Z" fill="#2F6BF0"/>
<path d="M25.5059 17.629C25.0318 17.1545 24.2628 17.1543 23.7883 17.6283L14.9326 26.4842L10.9339 22.4855C10.4594 22.0114 9.6904 22.0117 9.21626 22.4861C8.74212 22.9606 8.7424 23.7296 9.2169 24.2038L14.0741 29.0609C14.5483 29.535 15.3169 29.535 15.791 29.0609L25.5054 19.3466C25.9798 18.8725 25.9801 18.1035 25.5059 17.629Z" fill="#2F6BF0"/>
</g>
<defs>
<clipPath id="clip0">
<rect width="34" height="34" fill="white" transform="translate(0.36084 0.272705)"/>
</clipPath>
</defs>
</svg>
