<svg width="24" height="24" viewBox="0 0 24 24" fill="none" xmlns="http://www.w3.org/2000/svg">
<g clip-path="url(#clip0)">
<path d="M20.4926 15.7039C19.24 14.4514 17.7492 13.5242 16.1226 12.9629C17.8647 11.763 19.0093 9.75484 19.0093 7.48413C19.0093 3.81819 16.0268 0.835693 12.3608 0.835693C8.6949 0.835693 5.7124 3.81819 5.7124 7.48413C5.7124 9.75484 6.85697 11.763 8.59917 12.9629C6.97255 13.5242 5.48168 14.4514 4.22913 15.7039C2.05706 17.876 0.86084 20.7639 0.86084 23.8357H2.65771C2.65771 18.4854 7.01051 14.1326 12.3608 14.1326C17.7112 14.1326 22.064 18.4854 22.064 23.8357H23.8608C23.8608 20.7639 22.6646 17.876 20.4926 15.7039ZM12.3608 12.3357C9.6857 12.3357 7.50928 10.1593 7.50928 7.48413C7.50928 4.80894 9.6857 2.63257 12.3608 2.63257C15.036 2.63257 17.2124 4.80894 17.2124 7.48413C17.2124 10.1593 15.036 12.3357 12.3608 12.3357Z" fill="#2F6BF0"/>
</g>
<defs>
<clipPath id="clip0">
<rect width="23" height="23" fill="white" transform="translate(0.86084 0.835693)"/>
</clipPath>
</defs>
</svg>
