<svg width="44" height="45" viewBox="0 0 44 45" fill="none" xmlns="http://www.w3.org/2000/svg">
<g clip-path="url(#clip0)">
<path d="M36.7772 22.149C34.8063 22.149 33.1938 20.499 33.1938 18.4823C33.1938 16.4657 34.8063 14.8157 36.7772 14.8157C38.748 14.8157 40.3605 16.4657 40.3605 18.4823C40.3605 20.499 38.748 22.149 36.7772 22.149ZM36.7772 16.649C35.7022 16.649 34.9855 17.3823 34.9855 18.4823C34.9855 19.5823 35.7022 20.3157 36.7772 20.3157C37.8522 20.3157 38.5688 19.5823 38.5688 18.4823C38.5688 17.3823 37.8522 16.649 36.7772 16.649Z" fill="#2F6BF0"/>
<path d="M43.048 31.3155C42.5105 31.3155 42.1522 30.9488 42.1522 30.3988V28.5655C42.1522 27.0988 40.898 25.8155 39.4647 25.8155H34.0897C33.5522 25.8155 33.1938 25.4488 33.1938 24.8988C33.1938 24.3488 33.5522 23.9822 34.0897 23.9822H39.4647C41.973 23.9822 43.9438 25.9988 43.9438 28.5655V30.3988C43.9438 30.9488 43.5855 31.3155 43.048 31.3155Z" fill="#2F6BF0"/>
<path d="M8.11068 22.149C6.13984 22.149 4.52734 20.499 4.52734 18.4823C4.52734 16.4657 6.13984 14.8157 8.11068 14.8157C10.0815 14.8157 11.694 16.4657 11.694 18.4823C11.694 20.499 10.0815 22.149 8.11068 22.149ZM8.11068 16.649C7.03568 16.649 6.31901 17.3823 6.31901 18.4823C6.31901 19.5823 7.03568 20.3157 8.11068 20.3157C9.18568 20.3157 9.90234 19.5823 9.90234 18.4823C9.90234 17.3823 9.18568 16.649 8.11068 16.649Z" fill="#2F6BF0"/>
<path d="M1.83968 31.3155C1.30218 31.3155 0.943848 30.9488 0.943848 30.3988V28.5655C0.943848 25.9988 2.91468 23.9822 5.42301 23.9822H10.798C11.3355 23.9822 11.6938 24.3488 11.6938 24.8988C11.6938 25.4488 11.3355 25.8155 10.798 25.8155H5.42301C3.98968 25.8155 2.73551 27.0988 2.73551 28.5655V30.3988C2.73551 30.9488 2.37718 31.3155 1.83968 31.3155Z" fill="#2F6BF0"/>
<path d="M22.4438 23.0657C19.398 23.0657 17.0688 20.6823 17.0688 17.5657C17.0688 14.449 19.398 12.0657 22.4438 12.0657C25.4897 12.0657 27.8188 14.449 27.8188 17.5657C27.8188 20.6823 25.4897 23.0657 22.4438 23.0657ZM22.4438 13.899C20.473 13.899 18.8605 15.549 18.8605 17.5657C18.8605 19.5823 20.473 21.2323 22.4438 21.2323C24.4147 21.2323 26.0272 19.5823 26.0272 17.5657C26.0272 15.549 24.4147 13.899 22.4438 13.899Z" fill="#2F6BF0"/>
<path d="M31.4023 34.9823C30.8648 34.9823 30.5065 34.6157 30.5065 34.0657V30.399C30.5065 28.9323 29.2523 27.649 27.819 27.649H17.069C15.6357 27.649 14.3815 28.9323 14.3815 30.399V34.0657C14.3815 34.6157 14.0232 34.9823 13.4857 34.9823C12.9482 34.9823 12.5898 34.6157 12.5898 34.0657V30.399C12.5898 27.8323 14.5607 25.8157 17.069 25.8157H27.819C30.3273 25.8157 32.2982 27.8323 32.2982 30.399V34.0657C32.2982 34.6157 31.9398 34.9823 31.4023 34.9823Z" fill="#2F6BF0"/>
</g>
<defs>
<clipPath id="clip0">
<rect width="43" height="44" fill="white" transform="translate(0.943848 0.148926)"/>
</clipPath>
</defs>
</svg>
