<svg width="114" height="85" viewBox="0 0 114 85" fill="none" xmlns="http://www.w3.org/2000/svg">
<path d="M52.0439 37.264C52.0439 37.264 42.5249 33.5637 39.2987 36.108C36.0725 38.6523 26.3939 66.1583 28.1837 70.7653C29.9735 75.3723 43.3172 73.0518 43.3172 73.0518C43.3172 73.0518 80.789 75.2675 84.5966 73.8452C90.2596 71.7258 77.6854 38.5333 75.8101 36.771C73.9348 35.0087 65.2651 38.0488 65.2651 38.0488" fill="#430099"/>
<path d="M44.196 65.45C44.1674 65.4498 44.1395 65.4409 44.1162 65.4245C39.653 62.3956 33.9246 63.172 33.8562 63.1805C33.8187 63.1853 33.7809 63.1752 33.751 63.1523C33.7211 63.1295 33.7015 63.0958 33.6966 63.0586C33.6916 63.0219 33.7014 62.9847 33.7238 62.955C33.7462 62.9253 33.7794 62.9056 33.8163 62.9C33.8761 62.9 39.7101 62.0981 44.2644 65.1893C44.28 65.1998 44.2934 65.2133 44.3037 65.229C44.3141 65.2447 44.3212 65.2623 44.3246 65.2808C44.328 65.2992 44.3278 65.3182 44.3238 65.3365C44.3198 65.3549 44.3122 65.3722 44.3014 65.3876C44.2898 65.4053 44.2742 65.4201 44.2559 65.4309C44.2377 65.4417 44.2171 65.4482 44.196 65.45Z" fill="#231F20"/>
<path d="M71.8199 65.4499C71.7886 65.4511 71.7579 65.4421 71.7323 65.4242C71.7068 65.4063 71.6879 65.3806 71.6785 65.351C71.6691 65.3213 71.6697 65.2895 71.6804 65.2603C71.691 65.231 71.711 65.2061 71.7372 65.1893C76.2972 62.0981 82.1283 62.8914 82.1882 62.8999C82.225 62.9056 82.2582 62.9253 82.2806 62.955C82.303 62.9846 82.3128 63.0219 82.3079 63.0586C82.3022 63.096 82.282 63.1297 82.2517 63.1525C82.2213 63.1753 82.1831 63.1853 82.1454 63.1804C82.0884 63.1804 76.3599 62.3956 71.8997 65.4244C71.8762 65.4406 71.8484 65.4494 71.8199 65.4499Z" fill="#231F20"/>
<path d="M41.3022 61.3587C41.2835 61.3576 41.2651 61.3528 41.2483 61.3447C41.2314 61.3366 41.2163 61.3252 41.2039 61.3112C41.1914 61.2973 41.1819 61.281 41.1757 61.2634C41.1696 61.2458 41.1671 61.2271 41.1682 61.2085L42.1686 44.3445C42.1697 44.3259 42.1745 44.3077 42.1826 44.2909C42.1908 44.2741 42.2023 44.2591 42.2163 44.2467C42.2303 44.2344 42.2467 44.2249 42.2644 44.2188C42.2822 44.2127 42.3009 44.2102 42.3196 44.2113C42.3385 44.212 42.357 44.2165 42.3741 44.2245C42.3911 44.2326 42.4064 44.2439 42.4189 44.258C42.4314 44.272 42.441 44.2884 42.4469 44.3062C42.4529 44.324 42.4552 44.3428 42.4536 44.3615L41.4532 61.2255C41.4503 61.2628 41.4329 61.2976 41.4048 61.3224C41.3766 61.3472 41.3398 61.3602 41.3022 61.3587Z" fill="#231F20"/>
<path d="M71.8202 61.3586C71.7824 61.3586 71.7462 61.3437 71.7195 61.3171C71.6927 61.2906 71.6777 61.2545 71.6777 61.217V45.067C71.6777 45.0294 71.6927 44.9934 71.7195 44.9668C71.7462 44.9402 71.7824 44.9253 71.8202 44.9253C71.858 44.9253 71.8943 44.9402 71.921 44.9668C71.9477 44.9934 71.9627 45.0294 71.9627 45.067V61.217C71.9627 61.2545 71.9477 61.2906 71.921 61.3171C71.8943 61.3437 71.858 61.3586 71.8202 61.3586Z" fill="#231F20"/>
<path d="M48.75 36.1958C48.75 36.1958 52.0161 53.1703 58.155 61.217C58.155 61.217 66.4713 46.4043 68.0901 37.1761C68.0901 37.1761 61.7802 38.3803 59.446 38.403C57.1119 38.4256 48.75 36.1958 48.75 36.1958Z" fill="#231F20"/>
<path d="M58.1409 61.3586C58.1187 61.3591 58.0967 61.3541 58.0768 61.3443C58.057 61.3344 58.0398 61.3199 58.0269 61.3019C51.945 53.3204 48.6361 36.3941 48.6019 36.2241C48.5976 36.2005 48.5993 36.1763 48.6068 36.1536C48.6142 36.1308 48.6273 36.1103 48.6447 36.0938C48.6621 36.077 48.6836 36.0651 48.7071 36.0591C48.7306 36.0532 48.7553 36.0534 48.7786 36.0598C48.8613 36.0824 57.0436 38.2613 59.392 38.2613H59.4291C61.7262 38.2386 67.9791 37.0514 68.0503 37.0373C68.0729 37.0331 68.0962 37.0346 68.118 37.0415C68.1399 37.0484 68.1597 37.0606 68.1757 37.0769C68.1924 37.0927 68.2048 37.1124 68.2118 37.1342C68.2187 37.156 68.2201 37.1792 68.2156 37.2016C66.6111 46.3476 58.3461 61.1376 58.2634 61.2849C58.2523 61.3058 58.236 61.3236 58.2161 61.3365C58.1961 61.3494 58.1732 61.357 58.1494 61.3586H58.1409ZM48.9354 36.3913C49.3429 38.4001 52.5492 53.4621 58.1295 60.9563C59.0956 59.2053 66.3318 45.8971 67.9078 37.3546C66.7906 37.5643 61.5552 38.5219 59.4405 38.5446H59.4034C57.2146 38.5333 50.2948 36.7483 48.9354 36.3913Z" fill="#231F20"/>
<path d="M56.1911 42.4744L57.5106 44.7495L54.1875 54.5302L58.149 61.2169L61.7628 54.2185L59.1465 44.792L60.5231 42.4744L58.34 40.321L56.1911 42.4744Z" fill="#D1D3D4"/>
<path d="M58.1408 61.3586C58.1154 61.3589 58.0904 61.3526 58.0684 61.3401C58.0463 61.3277 58.028 61.3096 58.0154 61.2878L54.0567 54.6011C54.0477 54.5831 54.043 54.5632 54.043 54.543C54.043 54.5229 54.0477 54.503 54.0567 54.4849L57.357 44.7666L56.0688 42.5481C56.0534 42.5212 56.0473 42.49 56.0514 42.4593C56.0555 42.4286 56.0696 42.4001 56.0916 42.3781L58.2377 40.2248C58.2493 40.2091 58.265 40.1969 58.2831 40.1894C58.3011 40.1819 58.3209 40.1795 58.3403 40.1823C58.3589 40.182 58.3775 40.1857 58.3947 40.193C58.4118 40.2003 58.4273 40.2112 58.44 40.2248L60.6231 42.3781C60.6462 42.4 60.661 42.4291 60.6652 42.4605C60.6693 42.492 60.6625 42.5239 60.6459 42.5509L59.3007 44.8176L61.9028 54.1874C61.9141 54.2205 61.9141 54.2564 61.9028 54.2894L58.2861 61.2878C58.2742 61.31 58.2566 61.3288 58.2351 61.3423C58.2136 61.3557 58.1889 61.3633 58.1636 61.3643L58.1408 61.3586ZM54.3446 54.5133L58.1408 60.9166L61.6121 54.1988L59.01 44.8233C59.0024 44.8058 58.9985 44.787 58.9985 44.768C58.9985 44.749 59.0024 44.7302 59.01 44.7128L60.3296 42.4914L58.3346 40.5081L56.3652 42.4914L57.6306 44.6731C57.6384 44.6915 57.6424 44.7112 57.6424 44.7312C57.6424 44.7511 57.6384 44.7709 57.6306 44.7893L54.3446 54.5133Z" fill="#231F20"/>
<path d="M51.5655 35.5781L64.0827 35.6178L63.8633 40.3693H55.0226L50.7305 38.3265L51.5655 35.5781Z" fill="#231F20"/>
<path d="M63.8636 40.5166H55.0286C55.0088 40.5205 54.9885 40.5205 54.9687 40.5166L50.6738 38.4738C50.6434 38.4586 50.6193 38.4332 50.6057 38.4022C50.5922 38.3711 50.5901 38.3363 50.5997 38.3038L51.4347 35.5583C51.443 35.5286 51.4608 35.5025 51.4856 35.4841C51.5104 35.4656 51.5406 35.4558 51.5715 35.4563L64.0916 35.496C64.1305 35.4971 64.1673 35.5134 64.1942 35.5413C64.2069 35.555 64.2168 35.571 64.2231 35.5886C64.2295 35.6061 64.2323 35.6247 64.2312 35.6433L64.0118 40.3948C64.0069 40.4298 63.9889 40.4618 63.9615 40.4843C63.9341 40.5069 63.8991 40.5184 63.8636 40.5166ZM55.0571 40.2333H63.7268L63.9348 35.7651L51.6798 35.7255L50.9018 38.25L55.0571 40.2333Z" fill="#231F20"/>
<path d="M67.34 23.5166C68.0097 22.0461 68.195 20.0713 68.4486 18.4959C68.5626 17.7848 68.9303 16.8498 68.8305 16.1329C68.7593 15.6314 68.4144 15.2263 68.3831 14.6596C68.3574 14.1553 68.3603 13.6169 68.0781 13.1976C67.796 12.7783 67.0977 12.5998 66.7928 13.0021C67.1973 11.7431 67.4368 10.4375 67.5053 9.11758C66.4272 9.60897 65.2365 9.80463 64.0568 9.68425C64.5348 9.30111 64.9385 8.83447 65.2481 8.30725C64.2164 9.08925 62.7714 8.82858 61.4832 8.66425C58.5449 8.29025 55.4412 8.66425 52.8762 10.1461C52.0526 10.6221 51.2232 11.3191 51.1292 12.2654C50.803 12.2023 50.4658 12.2262 50.1519 12.3347C49.838 12.4432 49.5587 12.6324 49.3422 12.8831C48.9141 13.3914 48.6263 14.0016 48.5072 14.6539C47.6522 18.3996 49.0772 21.6183 49.442 25.3129C52.2236 25.4829 55.0308 25.7181 57.8381 25.6756C60.0696 25.6303 66.1487 26.1176 67.34 23.5166Z" fill="white"/>
<path d="M60.1362 25.8229C59.7087 25.8229 59.304 25.8229 58.9306 25.8229C58.5145 25.8229 58.1469 25.8229 57.8505 25.8229C55.5705 25.8598 53.2648 25.7068 51.0361 25.5623L49.443 25.4603C49.409 25.4584 49.3769 25.4445 49.3523 25.4211C49.3277 25.3978 49.3124 25.3664 49.309 25.3328C49.1893 24.1399 48.9556 22.9839 48.739 21.8648C48.2517 19.4593 47.7928 17.1869 48.3856 14.6284C48.5025 13.9529 48.7975 13.3204 49.2406 12.7953C49.4576 12.5439 49.7321 12.3481 50.0411 12.2243C50.3501 12.1005 50.6846 12.0524 51.0162 12.0841C51.1558 11.3163 51.76 10.6193 52.8117 10.0129C55.1943 8.63594 58.2837 8.10328 61.5099 8.51128L61.7949 8.54811C63.009 8.70678 64.2658 8.87394 65.175 8.18544C65.2001 8.16446 65.2319 8.15295 65.2648 8.15295C65.2976 8.15295 65.3294 8.16446 65.3545 8.18544C65.3795 8.20724 65.3959 8.237 65.4011 8.26959C65.4063 8.30218 65.3999 8.33555 65.383 8.36394C65.1206 8.80743 64.7931 9.20948 64.4112 9.55678C65.455 9.61415 66.4974 9.41973 67.4493 8.99011C67.4716 8.97981 67.4962 8.97542 67.5207 8.97737C67.5452 8.97931 67.5688 8.98753 67.5892 9.00122C67.6095 9.01491 67.626 9.03361 67.6369 9.05549C67.6479 9.07737 67.6529 9.1017 67.6516 9.12611C67.589 10.326 67.3863 11.5145 67.0474 12.6678C67.1348 12.6445 67.225 12.634 67.3153 12.6366C67.4904 12.6438 67.6614 12.691 67.8151 12.7745C67.9688 12.8581 68.1011 12.9757 68.2017 13.1183C68.435 13.545 68.5464 14.0271 68.5237 14.5123V14.6511C68.5519 14.9229 68.6281 15.1877 68.7489 15.4331C68.8517 15.6492 68.9255 15.8779 68.9683 16.1131C68.9986 16.6797 68.9252 17.2471 68.7517 17.7876C68.6862 18.0483 68.6235 18.2948 68.5864 18.5186C68.5408 18.8019 68.4952 19.1164 68.4496 19.4281C68.2501 20.8023 68.0221 22.3606 67.4664 23.5733C66.543 25.5963 62.9007 25.8229 60.1362 25.8229ZM58.1155 25.5198H58.9335C61.4814 25.5538 66.2266 25.6161 67.2184 23.4373C67.7571 22.2586 67.9822 20.7229 68.1789 19.3686C68.2245 19.0541 68.2701 18.7481 68.3185 18.4534C68.3556 18.2183 68.4183 17.9661 68.4838 17.6998C68.6426 17.199 68.7111 16.6744 68.6862 16.1499C68.647 15.939 68.58 15.7342 68.4867 15.5408C68.3516 15.2652 68.2676 14.9677 68.2387 14.6624V14.5236C68.2578 14.0893 68.1594 13.6578 67.9537 13.2741C67.8788 13.1691 67.7809 13.0825 67.6673 13.0206C67.5538 12.9588 67.4276 12.9234 67.2982 12.9171C67.2235 12.9107 67.1483 12.9225 67.0792 12.9517C67.0102 12.9808 66.9493 13.0263 66.9021 13.0843C66.8821 13.1114 66.8531 13.1305 66.8202 13.1383C66.7873 13.1461 66.7527 13.142 66.7225 13.1268C66.693 13.1107 66.6699 13.0851 66.6569 13.0542C66.644 13.0233 66.642 12.9889 66.6513 12.9568C67.0293 11.7832 67.2618 10.5682 67.3438 9.33861C66.299 9.77273 65.1613 9.93932 64.035 9.82311C64.0069 9.82046 63.9803 9.80924 63.9589 9.79098C63.9374 9.77271 63.9222 9.74831 63.9153 9.72111C63.9068 9.69443 63.9066 9.66581 63.9147 9.63901C63.9229 9.61221 63.939 9.58848 63.9609 9.57094C64.2705 9.32242 64.548 9.03694 64.7874 8.72094C63.8611 9.10911 62.7439 8.96178 61.7407 8.82861L61.4557 8.79461C58.2922 8.39228 55.2684 8.91078 52.9399 10.2566C51.8997 10.8573 51.3354 11.5344 51.2613 12.2683C51.2595 12.2886 51.2532 12.3083 51.2428 12.3259C51.2325 12.3435 51.2183 12.3587 51.2014 12.3703C51.1845 12.3817 51.1654 12.3894 51.1452 12.3928C51.125 12.3963 51.1044 12.3953 51.0846 12.3901C50.7837 12.3318 50.4727 12.3535 50.1829 12.453C49.8932 12.5525 49.635 12.7263 49.4344 12.9568C49.0227 13.4442 48.7466 14.0303 48.6336 14.6568C48.0636 17.1586 48.5082 19.3998 48.9898 21.7741C49.2093 22.8621 49.4344 23.9869 49.5598 25.1514L51.0333 25.2449C53.2591 25.3894 55.5591 25.5283 57.8248 25.5056L58.1155 25.5198Z" fill="#231F20"/>
<path d="M52.043 39.0065C52.043 39.0065 54.36 40.1851 58.3386 40.3211C62.3172 40.4571 62.9841 39.3833 62.9841 39.3833L62.8872 37.2668L62.6706 32.3481L62.454 27.7666L53.3739 27.455L52.9407 31.1666L52.8068 32.3793L52.043 39.0065Z" fill="white"/>
<path d="M59.0144 40.4741C58.7978 40.4741 58.5726 40.4741 58.3332 40.4741C54.3689 40.3381 52.0034 39.1566 51.9806 39.1453C51.9543 39.1329 51.9326 39.1125 51.9188 39.087C51.9049 39.0615 51.8996 39.0323 51.9036 39.0036L53.2318 27.4351C53.2332 27.4172 53.2382 27.3998 53.2464 27.3838C53.2546 27.3679 53.266 27.3537 53.2798 27.3421C53.2935 27.3305 53.3095 27.3218 53.3267 27.3163C53.3439 27.3109 53.362 27.3089 53.38 27.3104L62.46 27.6221C62.4959 27.6235 62.5299 27.6383 62.5552 27.6635C62.5806 27.6887 62.5954 27.7225 62.5968 27.7581L63.1212 39.3748C63.1225 39.4039 63.1145 39.4326 63.0984 39.4569C63.0728 39.5051 62.4144 40.4741 59.0144 40.4741ZM52.1972 38.9243C52.656 39.1311 54.8734 40.0576 58.3446 40.1794C61.7646 40.2956 62.6795 39.5051 62.8334 39.3294L62.3204 27.8828L53.4997 27.5768L52.1972 38.9243Z" fill="#231F20"/>
<path d="M52.8086 32.3906C53.4555 33.524 54.5613 34.4108 55.7013 35.0936C57.6165 36.227 60.5007 37.5473 62.8834 37.2696L62.6668 32.351C60.9209 32.5071 59.1626 32.4577 57.4284 32.2036C55.9008 32.0195 54.3276 31.8126 52.9425 31.178L52.8086 32.3906Z" fill="#231F20"/>
<path d="M62.2038 37.4482C59.7585 37.4482 57.0738 36.0825 55.626 35.2155C54.2551 34.3938 53.2633 33.4673 52.6819 32.4615C52.6678 32.4355 52.6618 32.4059 52.6648 32.3765L52.7988 31.1638C52.8015 31.1416 52.8093 31.1203 52.8217 31.1017C52.834 31.083 52.8506 31.0674 52.87 31.0562C52.8903 31.0457 52.9128 31.0403 52.9356 31.0403C52.9584 31.0403 52.9809 31.0457 53.0011 31.0562C54.4062 31.6993 56.0193 31.9062 57.4443 32.0705C59.1671 32.323 60.914 32.3715 62.6484 32.215C62.6677 32.213 62.6872 32.215 62.7058 32.2207C62.7243 32.2263 62.7416 32.2357 62.7564 32.2481C62.7713 32.2605 62.7836 32.2757 62.7924 32.2929C62.8012 32.3101 62.8065 32.3289 62.808 32.3482L63.0246 37.2697C63.0262 37.3051 63.0141 37.3398 62.9908 37.3667C62.9675 37.3936 62.9347 37.4106 62.8992 37.4142C62.6683 37.4398 62.4361 37.4512 62.2038 37.4482ZM52.9527 32.3482C53.5227 33.2973 54.4603 34.1757 55.7742 34.9605C57.3075 35.8757 60.2316 37.3575 62.7339 37.1308L62.5287 32.4955C60.818 32.6348 59.097 32.5807 57.3987 32.334C56.0164 32.164 54.4546 31.9742 53.0524 31.3763L52.9527 32.3482Z" fill="#231F20"/>
<path d="M65.1169 17.4278C65.5672 17.4731 65.4475 18.7283 65.4504 19.3885V22.7375C65.4504 24.0493 65.496 25.3696 65.4504 26.6786C65.4338 27.1475 65.3698 27.6136 65.2594 28.0698C64.8814 29.6181 63.9778 30.9893 62.7012 31.9525C61.4246 32.9156 59.8529 33.4116 58.2513 33.3568L57.439 33.3256C55.5951 33.2599 53.8528 32.4692 52.5949 31.1273C51.337 29.7853 50.6663 28.0019 50.7301 26.1686C50.7558 25.4065 50.7301 24.6358 50.7301 23.8708C50.7301 22.899 50.2143 20.5275 51.3685 20.0883C51.7505 19.9835 52.1438 19.9255 52.5399 19.9155C53.1036 19.8502 53.6482 19.6723 54.141 19.3923C54.6337 19.1123 55.0644 18.7361 55.407 18.2863L55.2217 19.3545C57.2038 19.5318 59.2005 19.2596 61.0614 18.5583C61.9734 18.2126 62.9167 17.7083 63.2901 16.8016L63.2559 18.785C63.729 18.717 64.0567 18.3005 64.3759 17.935C64.6951 17.5695 64.9545 17.4108 65.1169 17.4278Z" fill="white"/>
<path d="M58.5028 33.5013H58.2577L57.4454 33.4701C56.5128 33.439 55.5956 33.2254 54.7461 32.8414C53.8967 32.4575 53.1317 31.9108 52.4951 31.2326C51.8584 30.5544 51.3625 29.758 51.0358 28.8891C50.7092 28.0201 50.558 27.0957 50.5912 26.1686C50.6083 25.6614 50.5912 25.1429 50.5912 24.6414C50.5912 24.3836 50.5912 24.1286 50.5912 23.8736C50.5912 23.6781 50.5684 23.4231 50.5427 23.1284C50.443 21.9526 50.3062 20.3461 51.3236 19.9608C51.6127 19.8659 51.9142 19.8134 52.2185 19.8049L52.5263 19.7766C53.0698 19.7114 53.5945 19.5384 54.0694 19.2678C54.5443 18.9972 54.9596 18.6345 55.2908 18.2013C55.3101 18.1765 55.3371 18.1587 55.3677 18.1508C55.3982 18.1429 55.4305 18.1453 55.4595 18.1576C55.4885 18.1699 55.5126 18.1915 55.528 18.2189C55.5433 18.2462 55.5491 18.2779 55.5445 18.3089L55.3877 19.2269C57.3002 19.3717 59.2212 19.095 61.0136 18.4166C62.185 17.9746 62.869 17.4419 63.1625 16.7393C63.1741 16.7082 63.1968 16.6824 63.2262 16.6668C63.2555 16.6511 63.2897 16.6467 63.3221 16.6543C63.3548 16.6609 63.3841 16.6787 63.4049 16.7046C63.4258 16.7305 63.4368 16.7628 63.4361 16.7959L63.4048 18.5838C63.7153 18.4304 63.9841 18.2049 64.1885 17.9264L64.2712 17.8329C64.6303 17.4306 64.8982 17.2663 65.1262 17.2663C65.6335 17.3201 65.6135 18.2183 65.5936 19.0116C65.5936 19.1419 65.5936 19.2638 65.5936 19.3686V22.7176C65.5936 23.1539 65.5936 23.5903 65.5936 24.0294C65.5936 24.8936 65.6164 25.7861 65.5936 26.6644C65.5328 28.4954 64.7575 30.231 63.4318 31.5035C62.1061 32.776 60.3341 33.4854 58.4914 33.4814L58.5028 33.5013ZM55.1825 18.7679C54.4815 19.4833 53.5551 19.9383 52.5577 20.0571L52.2413 20.0854C51.9634 20.0903 51.6878 20.1361 51.4234 20.2214C50.6083 20.5303 50.7365 22.0178 50.8277 23.1001C50.8534 23.4033 50.8762 23.6668 50.8762 23.8708C50.8762 24.1258 50.8762 24.3779 50.8762 24.6358C50.8762 25.1401 50.8762 25.6614 50.8762 26.1743C50.8446 27.064 50.9897 27.9513 51.3032 28.7852C51.6168 29.6192 52.0926 30.3836 52.7035 31.0346C53.3144 31.6856 54.0484 32.2105 54.8636 32.5793C55.6787 32.9481 56.5589 33.1536 57.454 33.1839L58.2691 33.2151C59.1644 33.2476 60.0573 33.1042 60.8967 32.7928C61.736 32.4815 62.5053 32.0085 63.1604 31.401C63.8155 30.7934 64.3435 30.0633 64.7141 29.2524C65.0846 28.4416 65.2906 27.5659 65.32 26.6758C65.3485 25.8031 65.3371 24.9134 65.32 24.0521C65.32 23.6129 65.32 23.1766 65.32 22.7374V19.3884C65.32 19.2808 65.32 19.1561 65.32 19.0258C65.32 18.5611 65.3542 17.5949 65.1091 17.5694C65.0521 17.5694 64.8782 17.5949 64.4906 18.0284L64.4108 18.1333C64.1116 18.4733 63.7753 18.8586 63.2908 18.9266C63.2702 18.9302 63.249 18.9293 63.2289 18.9239C63.2087 18.9186 63.1899 18.9088 63.1739 18.8954C63.1585 18.8814 63.1462 18.8644 63.1378 18.8453C63.1295 18.8263 63.1253 18.8057 63.1255 18.7849L63.1511 17.3683C62.7521 17.9066 62.0938 18.3401 61.1248 18.7056C59.2434 19.4122 57.2257 19.6873 55.2224 19.5103C55.2028 19.5086 55.1838 19.5029 55.1666 19.4935C55.1493 19.4842 55.1342 19.4714 55.1222 19.456C55.1101 19.4405 55.1014 19.4228 55.0966 19.4039C55.0918 19.3849 55.091 19.3652 55.0942 19.3459L55.1825 18.7679Z" fill="#231F20"/>
<path d="M58.1742 21.8647C58.1742 21.8647 60.4542 26.8826 59.4481 26.9647C58.4421 27.0469 57 26.3131 57 26.3131" fill="white"/>
<path d="M59.281 27.1235C58.2635 27.1235 57.001 26.469 56.944 26.4407C56.9272 26.432 56.9124 26.4201 56.9003 26.4057C56.8882 26.3913 56.8791 26.3747 56.8735 26.3568C56.868 26.3388 56.866 26.32 56.8678 26.3013C56.8697 26.2827 56.8752 26.2645 56.8841 26.248C56.9017 26.2151 56.9316 26.1905 56.9673 26.1793C57.0031 26.1682 57.0418 26.1715 57.0751 26.1885C57.0893 26.1885 58.5001 26.9167 59.4434 26.8317C59.4601 26.8313 59.4764 26.8263 59.4905 26.8173C59.5046 26.8083 59.5159 26.7956 59.5232 26.7807C59.8282 26.2593 58.7822 23.5252 58.0526 21.9243C58.0398 21.8906 58.0404 21.8533 58.0543 21.82C58.0681 21.7867 58.0943 21.7599 58.1274 21.745C58.1604 21.7302 58.1979 21.7285 58.2322 21.7402C58.2665 21.752 58.2951 21.7763 58.312 21.8082C58.5115 22.2445 60.2471 26.1063 59.7683 26.9082C59.7388 26.9627 59.6958 27.009 59.6435 27.0426C59.5912 27.0763 59.5312 27.0963 59.4691 27.1008C59.4007 27.1207 59.3351 27.1235 59.281 27.1235Z" fill="#231F20"/>
<path d="M55.5237 24.2816C55.7882 24.2816 56.0025 23.8719 56.0025 23.3665C56.0025 22.861 55.7882 22.4513 55.5237 22.4513C55.2593 22.4513 55.0449 22.861 55.0449 23.3665C55.0449 23.8719 55.2593 24.2816 55.5237 24.2816Z" fill="#231F20"/>
<path d="M61.5569 24.2816C61.8214 24.2816 62.0357 23.8719 62.0357 23.3665C62.0357 22.861 61.8214 22.4513 61.5569 22.4513C61.2925 22.4513 61.0781 22.861 61.0781 23.3665C61.0781 23.8719 61.2925 24.2816 61.5569 24.2816Z" fill="#231F20"/>
<path d="M64.0821 35.6178C63.9111 35.6178 58.2852 40.3211 58.2852 40.3211L61.7622 44.353L65.4672 37.3065L64.0821 35.6178Z" fill="white"/>
<path d="M61.7624 44.4832C61.7418 44.4825 61.7216 44.4776 61.703 44.4689C61.6844 44.4601 61.6677 44.4476 61.6541 44.4322L58.1771 40.4032C58.1525 40.374 58.1403 40.3364 58.1429 40.2984C58.1447 40.2798 58.1501 40.2617 58.1589 40.2451C58.1677 40.2286 58.1797 40.2139 58.1942 40.2021C63.8572 35.4647 64.0168 35.4647 64.0823 35.4647C64.1035 35.4649 64.1243 35.4695 64.1435 35.4783C64.1626 35.4871 64.1797 35.4998 64.1935 35.5157L65.59 37.2157C65.6075 37.2374 65.6182 37.2638 65.6207 37.2915C65.6233 37.3192 65.6175 37.3471 65.6042 37.3716L61.8992 44.4181C61.888 44.4383 61.872 44.4555 61.8527 44.4683C61.8333 44.4812 61.8112 44.4892 61.7881 44.4917L61.7624 44.4832ZM58.4878 40.3267L61.7339 44.0894L65.3078 37.3121L64.051 35.7906C63.4838 36.1901 60.5255 38.6352 58.4878 40.3381V40.3267Z" fill="#231F20"/>
<path d="M51.5662 35.5781C51.7514 35.5781 58.3406 40.3211 58.3406 40.3211L54.3221 44.353L50.3008 36.6576L51.5662 35.5781Z" fill="white"/>
<path d="M54.3208 44.4833H54.298C54.2759 44.4801 54.2548 44.4718 54.2365 44.459C54.2181 44.4462 54.2031 44.4293 54.1926 44.4096L50.1741 36.7143C50.1593 36.6859 50.1547 36.6534 50.1609 36.622C50.1671 36.5906 50.1838 36.5622 50.2083 36.5415L51.4708 35.462C51.497 35.4397 51.5304 35.4276 51.5649 35.428C51.6219 35.428 51.7957 35.428 58.422 40.1993C58.4392 40.2106 58.4535 40.2257 58.4639 40.2434C58.4743 40.2611 58.4804 40.2809 58.4818 40.3013C58.4835 40.3215 58.4808 40.3418 58.4739 40.3609C58.4671 40.3799 58.4561 40.3973 58.4419 40.4118L54.4348 44.4521C54.4191 44.465 54.4008 44.4744 54.3812 44.4798C54.3615 44.4851 54.341 44.4864 54.3208 44.4833ZM50.479 36.6917L54.355 44.115L58.1199 40.3381C55.686 38.5871 52.1349 36.0712 51.5877 35.7453L50.479 36.6917Z" fill="#231F20"/>
<path d="M58.2759 31.3196H58.0707C55.3547 31.1298 54.7818 28.05 54.7761 28.0188C54.7721 27.999 54.7726 27.9785 54.7775 27.9589C54.7825 27.9393 54.7917 27.921 54.8046 27.9055C54.818 27.8898 54.8346 27.8771 54.8533 27.8683C54.8719 27.8595 54.8923 27.8548 54.9129 27.8545L62.1548 27.6108C62.1787 27.6092 62.2025 27.6138 62.224 27.6243C62.2455 27.6347 62.2639 27.6506 62.2773 27.6703C62.2886 27.6907 62.2944 27.7136 62.2944 27.7369C62.2944 27.7601 62.2886 27.783 62.2773 27.8035C62.2346 27.9451 60.8523 31.3196 58.2759 31.3196ZM55.0925 28.1236C55.2492 28.7356 55.9475 30.8833 58.0907 31.0306C60.2339 31.1779 61.5876 28.6393 61.9382 27.897L55.0925 28.1236Z" fill="#231F20"/>
<path d="M49.3698 18.3741H50.7293V27.4408H49.3727C48.6833 27.4408 48.0222 27.1686 47.5347 26.684C47.0473 26.1994 46.7735 25.5421 46.7735 24.8568V20.9666C46.7723 20.6268 46.8386 20.2901 46.9686 19.9758C47.0985 19.6615 47.2895 19.3758 47.5307 19.135C47.7719 18.8942 48.0584 18.703 48.374 18.5725C48.6896 18.4419 49.028 18.3745 49.3698 18.3741Z" fill="white"/>
<path d="M50.7301 27.5824H49.3706C48.6434 27.5809 47.9465 27.2928 47.4326 26.7814C46.9187 26.2699 46.6297 25.5768 46.6289 24.8539V20.9665C46.6297 20.2436 46.9187 19.5505 47.4326 19.039C47.9465 18.5276 48.6434 18.2395 49.3706 18.238H50.7301C50.7676 18.2388 50.8034 18.2539 50.83 18.2803C50.8566 18.3067 50.8718 18.3424 50.8726 18.3797V27.4464C50.8704 27.4827 50.8545 27.5169 50.8281 27.5421C50.8017 27.5674 50.7667 27.5817 50.7301 27.5824ZM49.3706 18.5157C48.718 18.5172 48.0927 18.7762 47.6321 19.2357C47.1715 19.6952 46.9131 20.3178 46.9139 20.9665V24.8539C46.9147 25.5017 47.1736 26.1227 47.6341 26.581C48.0946 27.0394 48.719 27.2975 49.3706 27.299H50.5876V18.5157H49.3706Z" fill="#231F20"/>
<path d="M66.8383 27.2028H65.4817V18.1361H66.8383C67.1796 18.1361 67.5176 18.2029 67.833 18.3328C68.1483 18.4626 68.4349 18.653 68.6762 18.8929C68.9176 19.1329 69.109 19.4177 69.2396 19.7312C69.3703 20.0447 69.4375 20.3808 69.4375 20.7201V24.6159C69.4379 24.9555 69.3709 25.2918 69.2405 25.6056C69.11 25.9195 68.9186 26.2047 68.6772 26.4449C68.4358 26.6852 68.1492 26.8758 67.8336 27.0058C67.5181 27.1358 67.1799 27.2028 66.8383 27.2028Z" fill="white"/>
<path d="M66.835 27.3416H65.4784C65.4406 27.3416 65.4044 27.3267 65.3777 27.3001C65.351 27.2735 65.3359 27.2375 65.3359 27.1999V18.1332C65.3359 18.0957 65.351 18.0596 65.3777 18.0331C65.4044 18.0065 65.4406 17.9916 65.4784 17.9916H66.835C67.5624 17.9916 68.2601 18.2787 68.7747 18.7897C69.2893 19.3008 69.5788 19.9941 69.5796 20.7172V24.6159C69.5781 25.3388 69.2883 26.0317 68.7739 26.5426C68.2594 27.0535 67.5622 27.3408 66.835 27.3416ZM65.6209 27.0582H66.835C67.4866 27.0575 68.1114 26.8 68.5724 26.3422C69.0334 25.8845 69.2931 25.2637 69.2946 24.6159V20.7201C69.2931 20.0723 69.0334 19.4515 68.5724 18.9937C68.1114 18.536 67.4866 18.2785 66.835 18.2777H65.6209V27.0582Z" fill="#231F20"/>
<path d="M66.9155 20.6408C66.8399 20.6408 66.7675 20.6109 66.714 20.5578C66.6606 20.5046 66.6305 20.4326 66.6305 20.3574C66.6305 15.6258 63.6523 11.7781 59.9957 11.7781H56.2907C52.6342 11.7781 49.6559 15.6258 49.6559 20.3574C49.6559 20.4326 49.6259 20.5046 49.5725 20.5578C49.519 20.6109 49.4465 20.6408 49.3709 20.6408C49.2954 20.6408 49.2229 20.6109 49.1694 20.5578C49.116 20.5046 49.0859 20.4326 49.0859 20.3574C49.0859 15.3141 52.3178 11.2114 56.2907 11.2114H59.9957C63.9686 11.2114 67.2005 15.3141 67.2005 20.3574C67.2005 20.4326 67.1705 20.5046 67.1171 20.5578C67.0636 20.6109 66.9911 20.6408 66.9155 20.6408Z" fill="#231F20"/>
<path d="M52.3835 30.192C51.0126 30.192 49.904 30.1211 49.713 29.9086C49.22 29.342 49.0661 26.7523 49.049 26.4576C49.0474 26.4202 49.0604 26.3837 49.0854 26.3557C49.1104 26.3277 49.1454 26.3104 49.1829 26.3075C49.2019 26.3059 49.2211 26.3083 49.2392 26.3144C49.2573 26.3205 49.2739 26.3302 49.2881 26.3429C49.3022 26.3557 49.3136 26.3712 49.3215 26.3885C49.3294 26.4058 49.3336 26.4245 49.334 26.4435C49.3767 27.217 49.5648 29.3165 49.9268 29.7216C50.2346 30.005 54.4127 29.9313 58.2772 29.6735C58.3147 29.6726 58.3511 29.6858 58.3791 29.7105C58.4071 29.7352 58.4247 29.7696 58.4283 29.8066C58.4295 29.8252 58.4269 29.8439 58.4208 29.8615C58.4147 29.8792 58.4051 29.8954 58.3927 29.9094C58.3802 29.9233 58.3652 29.9347 58.3483 29.9428C58.3314 29.951 58.3131 29.9557 58.2943 29.9568C57.465 30.0106 54.5865 30.192 52.3835 30.192Z" fill="#231F20"/>
<path d="M57.8868 29.2966H54.8117C54.4669 29.2966 54.1875 29.5744 54.1875 29.9171C54.1875 30.2598 54.4669 30.5376 54.8117 30.5376H57.8868C58.2315 30.5376 58.5109 30.2598 58.5109 29.9171C58.5109 29.5744 58.2315 29.2966 57.8868 29.2966Z" fill="#231F20"/>
<path d="M57.8867 30.6792H54.8116C54.6082 30.6792 54.4132 30.5989 54.2695 30.456C54.1257 30.3131 54.0449 30.1192 54.0449 29.9171C54.0449 29.7149 54.1257 29.5211 54.2695 29.3781C54.4132 29.2352 54.6082 29.1549 54.8116 29.1549H57.8867C58.09 29.1549 58.285 29.2352 58.4288 29.3781C58.5726 29.5211 58.6534 29.7149 58.6534 29.9171C58.6534 30.1192 58.5726 30.3131 58.4288 30.456C58.285 30.5989 58.09 30.6792 57.8867 30.6792ZM54.8116 29.4382C54.6838 29.4382 54.5613 29.4887 54.471 29.5785C54.3807 29.6683 54.3299 29.7901 54.3299 29.9171C54.3299 30.0441 54.3807 30.1659 54.471 30.2557C54.5613 30.3455 54.6838 30.3959 54.8116 30.3959H57.8867C58.0145 30.3959 58.137 30.3455 58.2273 30.2557C58.3176 30.1659 58.3684 30.0441 58.3684 29.9171C58.3684 29.7901 58.3176 29.6683 58.2273 29.5785C58.137 29.4887 58.0145 29.4382 57.8867 29.4382H54.8116Z" fill="#231F20"/>
<path d="M56.4294 24.5649H53.3429C52.8528 24.5642 52.3831 24.3701 52.0368 24.0253C51.6906 23.6806 51.4961 23.2133 51.4961 22.7261V21.1196C51.4961 21.082 51.5111 21.046 51.5378 21.0194C51.5646 20.9928 51.6008 20.9779 51.6386 20.9779H58.1394C58.1772 20.9779 58.2135 20.9928 58.2402 21.0194C58.2669 21.046 58.2819 21.082 58.2819 21.1196V22.7261C58.2812 23.214 58.0857 23.6817 57.7383 24.0265C57.391 24.3713 56.9203 24.5649 56.4294 24.5649ZM51.7811 21.2499V22.7147C51.7811 23.1268 51.9455 23.522 52.2384 23.8136C52.5312 24.1053 52.9284 24.2695 53.3429 24.2702H56.4294C56.8442 24.2695 57.2417 24.1054 57.535 23.8138C57.8282 23.5223 57.9933 23.1271 57.9941 22.7147V21.2499H51.7811Z" fill="#231F20"/>
<path d="M64.0062 24.5649H60.9082C60.4179 24.5642 59.9479 24.3702 59.6012 24.0255C59.2545 23.6808 59.0593 23.2135 59.0586 22.7261V21.1196C59.0586 21.082 59.0736 21.046 59.1003 21.0194C59.1271 20.9928 59.1633 20.9779 59.2011 20.9779H65.7105C65.7483 20.9779 65.7845 20.9928 65.8113 21.0194C65.838 21.046 65.853 21.082 65.853 21.1196V22.7261C65.853 23.2133 65.6585 23.6806 65.3123 24.0253C64.966 24.3701 64.4963 24.5642 64.0062 24.5649ZM59.3436 21.2499V22.7147C59.3443 23.1271 59.5094 23.5223 59.8027 23.8138C60.096 24.1054 60.4935 24.2695 60.9082 24.2702H64.0062C64.4207 24.2695 64.8179 24.1053 65.1107 23.8136C65.4035 23.522 65.568 23.1268 65.568 22.7147V21.2499H59.3436Z" fill="#231F20"/>
<path d="M59.2009 22.0063C59.1735 22.0072 59.1465 21.9992 59.124 21.9837C59.0333 21.905 58.9273 21.8458 58.8125 21.8097C58.6978 21.7736 58.5768 21.7615 58.4571 21.774C58.424 21.7848 58.3937 21.8025 58.3681 21.826C58.3425 21.8494 58.3223 21.8781 58.3089 21.91C58.2966 21.9452 58.2708 21.9741 58.2372 21.9905C58.2036 22.007 58.1649 22.0096 58.1294 21.9978C58.1117 21.9924 58.0953 21.9835 58.0811 21.9716C58.067 21.9598 58.0553 21.9453 58.0468 21.929C58.0383 21.9126 58.0332 21.8948 58.0317 21.8764C58.0302 21.8581 58.0324 21.8397 58.0382 21.8222C58.0644 21.7494 58.1067 21.6834 58.1619 21.629C58.2172 21.5746 58.2839 21.5331 58.3574 21.5077C58.6024 21.4227 58.9273 21.5077 59.2807 21.7485C59.3055 21.7657 59.3241 21.7902 59.3339 21.8186C59.3438 21.8469 59.3443 21.8777 59.3354 21.9064C59.3265 21.935 59.3087 21.9602 59.2846 21.9781C59.2604 21.9961 59.2311 22.006 59.2009 22.0063Z" fill="#231F20"/>
<path d="M51.6395 22.0064H50.7304C50.6926 22.0064 50.6564 21.9914 50.6296 21.9649C50.6029 21.9383 50.5879 21.9023 50.5879 21.8647C50.5879 21.8271 50.6029 21.7911 50.6296 21.7645C50.6564 21.7379 50.6926 21.723 50.7304 21.723H51.6395C51.6771 21.7237 51.7129 21.7389 51.7395 21.7653C51.7661 21.7917 51.7813 21.8273 51.782 21.8647C51.782 21.9023 51.767 21.9383 51.7403 21.9649C51.7136 21.9914 51.6773 22.0064 51.6395 22.0064Z" fill="#231F20"/>
<path d="M75.4604 74.9332H38.855L35.5547 51.1501H78.7635L75.4604 74.9332Z" fill="#231F20"/>
<path d="M75.459 75.0832H38.8536C38.8193 75.0835 38.7862 75.0712 38.7604 75.0488C38.7347 75.0263 38.7181 74.9952 38.7139 74.9614L35.4108 51.1699C35.4072 51.1301 35.4195 51.0904 35.445 51.0594C35.4586 51.044 35.4752 51.0316 35.4938 51.0228C35.5124 51.014 35.5327 51.0091 35.5533 51.0084H78.7621C78.7824 51.0088 78.8023 51.0136 78.8205 51.0224C78.8387 51.0312 78.8548 51.0438 78.8676 51.0594C78.8814 51.074 78.8917 51.0915 78.8977 51.1107C78.9036 51.1299 78.905 51.1501 78.9018 51.1699L75.6015 74.9529C75.5986 74.9885 75.5823 75.0217 75.5559 75.0458C75.5295 75.07 75.4949 75.0834 75.459 75.0832ZM38.979 74.7999H75.3364L78.5968 51.2833H35.7157L38.979 74.7999Z" fill="#231F20"/>
<path d="M75.7931 74.9331H38.4439C37.9528 74.9331 37.5547 75.3289 37.5547 75.8171V75.8199C37.5547 76.3082 37.9528 76.7039 38.4439 76.7039H75.7931C76.2842 76.7039 76.6823 76.3082 76.6823 75.8199V75.8171C76.6823 75.3289 76.2842 74.9331 75.7931 74.9331Z" fill="#231F20"/>
<path d="M75.8105 76.8456H38.4756C38.3353 76.8529 38.195 76.8318 38.0633 76.7835C37.9315 76.7352 37.8111 76.6607 37.7092 76.5646C37.6073 76.4685 37.5262 76.3528 37.4707 76.2246C37.4153 76.0963 37.3867 75.9581 37.3867 75.8185C37.3867 75.6789 37.4153 75.5408 37.4707 75.4125C37.5262 75.2842 37.6073 75.1685 37.7092 75.0724C37.8111 74.9764 37.9315 74.9019 38.0633 74.8536C38.195 74.8053 38.3353 74.7841 38.4756 74.7915H75.8105C76.0752 74.8053 76.3244 74.9195 76.5067 75.1106C76.6891 75.3017 76.7908 75.5551 76.7908 75.8185C76.7908 76.082 76.6891 76.3354 76.5067 76.5265C76.3244 76.7176 76.0752 76.8318 75.8105 76.8456ZM38.447 75.0833C38.3449 75.077 38.2426 75.0916 38.1463 75.1261C38.0501 75.1607 37.962 75.2145 37.8874 75.2841C37.8129 75.3538 37.7535 75.4379 37.7129 75.5313C37.6723 75.6247 37.6513 75.7253 37.6513 75.827C37.6513 75.9288 37.6723 76.0294 37.7129 76.1228C37.7535 76.2161 37.8129 76.3003 37.8874 76.3699C37.962 76.4396 38.0501 76.4934 38.1463 76.5279C38.2426 76.5625 38.3449 76.5771 38.447 76.5708H75.8105C76.001 76.5591 76.1798 76.4757 76.3104 76.3375C76.4411 76.1993 76.5139 76.0167 76.5139 75.827C76.5139 75.6374 76.4411 75.4548 76.3104 75.3166C76.1798 75.1784 76.001 75.095 75.8105 75.0833H38.447Z" fill="#231F20"/>
<path d="M74.1263 75.0834H38.4472C38.4094 75.0834 38.3732 75.0685 38.3464 75.0419C38.3197 75.0153 38.3047 74.9793 38.3047 74.9417C38.3047 74.9041 38.3197 74.8681 38.3464 74.8415C38.3732 74.815 38.4094 74.8 38.4472 74.8H74.1263C74.1641 74.8 74.2004 74.815 74.2271 74.8415C74.2538 74.8681 74.2688 74.9041 74.2688 74.9417C74.2688 74.9793 74.2538 75.0153 74.2271 75.0419C74.2004 75.0685 74.1641 75.0834 74.1263 75.0834Z" fill="white"/>
<path d="M48.2309 23.5166H47.1308C47.093 23.5166 47.0567 23.5017 47.03 23.4751C47.0033 23.4486 46.9883 23.4125 46.9883 23.3749C46.9883 23.3374 47.0033 23.3013 47.03 23.2748C47.0567 23.2482 47.093 23.2333 47.1308 23.2333H48.2309C48.2687 23.2333 48.3049 23.2482 48.3316 23.2748C48.3584 23.3013 48.3734 23.3374 48.3734 23.3749C48.3734 23.4125 48.3584 23.4486 48.3316 23.4751C48.3049 23.5017 48.2687 23.5166 48.2309 23.5166Z" fill="#D1D3D4"/>
<path d="M48.2309 24.5649H47.1308C47.093 24.5649 47.0567 24.55 47.03 24.5235C47.0033 24.4969 46.9883 24.4609 46.9883 24.4233C46.9883 24.3857 47.0033 24.3497 47.03 24.3231C47.0567 24.2965 47.093 24.2816 47.1308 24.2816H48.2309C48.2687 24.2816 48.3049 24.2965 48.3316 24.3231C48.3584 24.3497 48.3734 24.3857 48.3734 24.4233C48.3734 24.4609 48.3584 24.4969 48.3316 24.5235C48.3049 24.55 48.2687 24.5649 48.2309 24.5649Z" fill="#D1D3D4"/>
<path d="M57.001 62.6563C56.9343 62.5668 56.8434 62.498 56.7388 62.458C56.639 62.4185 56.5327 62.3974 56.4253 62.3957C56.302 62.395 56.1799 62.4191 56.0662 62.4665C55.9611 62.513 55.8666 62.5802 55.7882 62.6639C55.7099 62.7477 55.6493 62.8463 55.6102 62.9538C55.5673 63.0709 55.546 63.1947 55.5475 63.3193C55.5459 63.4474 55.5661 63.5748 55.6074 63.6961C55.6465 63.8008 55.7055 63.897 55.7812 63.9795C55.8572 64.0608 55.9494 64.1254 56.052 64.1693C56.1638 64.216 56.2841 64.2392 56.4054 64.2373C56.5309 64.2394 56.6551 64.2112 56.7673 64.1551C56.8677 64.1068 56.9548 64.0348 57.021 63.9455L57.3829 64.1976C57.2735 64.3365 57.133 64.4481 56.9725 64.5235C56.7935 64.6038 56.5988 64.6435 56.4025 64.6396C56.2155 64.641 56.0299 64.6073 55.8553 64.5405C55.6945 64.4767 55.5489 64.3802 55.4278 64.2571C55.3053 64.138 55.2083 63.9953 55.1428 63.8378C55.0751 63.6664 55.0412 63.4836 55.0431 63.2995C55.0409 63.112 55.0767 62.926 55.1485 62.7527C55.214 62.596 55.311 62.4543 55.4335 62.3362C55.5599 62.2205 55.7081 62.1309 55.8696 62.0727C56.0443 62.0112 56.2285 61.9805 56.4139 61.982C56.499 61.9815 56.5839 61.9891 56.6676 62.0047C56.7544 62.0192 56.8394 62.043 56.9212 62.0755C57.0023 62.1066 57.0797 62.1465 57.1521 62.1945C57.2214 62.2413 57.283 62.2987 57.3345 62.3645L57.001 62.6563Z" fill="white"/>
<path d="M58.9559 62.5912C58.9015 62.525 58.8322 62.4726 58.7535 62.4382C58.6721 62.3976 58.5824 62.3762 58.4913 62.3758C58.4375 62.3754 58.3838 62.3821 58.3317 62.3957C58.2809 62.4066 58.2326 62.4268 58.1892 62.4552C58.1466 62.4829 58.1106 62.5197 58.0838 62.5628C58.0551 62.6107 58.0412 62.6659 58.0439 62.7215C58.0422 62.7718 58.054 62.8217 58.0781 62.866C58.1044 62.9069 58.1382 62.9425 58.1778 62.9708C58.2249 63.0015 58.2756 63.0263 58.3289 63.0445L58.5255 63.1097C58.6082 63.1352 58.6908 63.1635 58.7792 63.1975C58.8642 63.2308 58.9446 63.2746 59.0186 63.3278C59.0923 63.3836 59.1534 63.454 59.1981 63.5347C59.2467 63.6313 59.2702 63.7384 59.2665 63.8463C59.2699 63.9685 59.2445 64.0898 59.1924 64.2005C59.1446 64.2968 59.0766 64.3819 58.9929 64.4498C58.9082 64.5171 58.8115 64.5681 58.7079 64.6C58.5924 64.6344 58.4723 64.6516 58.3517 64.651C58.1869 64.6506 58.0236 64.6198 57.87 64.5603C57.7182 64.5011 57.5845 64.4035 57.4824 64.277L57.8045 63.9767C57.8694 64.0635 57.9544 64.1335 58.0524 64.1807C58.1483 64.2274 58.2534 64.2526 58.3602 64.2543C58.4141 64.2546 58.4677 64.2479 58.5198 64.2345C58.5727 64.2232 58.6227 64.2012 58.6668 64.17C58.7109 64.1389 58.7482 64.0991 58.7763 64.0532C58.8067 64.0007 58.8215 63.9408 58.8191 63.8803C58.8204 63.8219 58.8034 63.7645 58.7706 63.716C58.7381 63.6692 58.6952 63.6304 58.6452 63.6027C58.5877 63.566 58.5254 63.5374 58.46 63.5177L58.2348 63.444C58.1569 63.4176 58.08 63.3892 58.004 63.359C57.9289 63.3258 57.8596 63.2808 57.7988 63.2258C57.7363 63.1693 57.6859 63.1009 57.6506 63.0247C57.6101 62.9308 57.5907 62.8293 57.5936 62.7272C57.5901 62.6116 57.6177 62.4972 57.6734 62.3957C57.7273 62.3058 57.7991 62.2277 57.8843 62.1662C57.9718 62.1067 58.0679 62.0608 58.1693 62.0302C58.2801 62.0019 58.394 61.9877 58.5084 61.9877C58.6424 61.9887 58.7753 62.0116 58.9017 62.0557C59.0297 62.0977 59.1473 62.1663 59.2466 62.2568L58.9559 62.5912Z" fill="white"/>
<path d="M57.1563 66.5607C56.513 66.559 55.8845 66.3678 55.3504 66.0112C54.8163 65.6547 54.4005 65.1488 54.1555 64.5574C53.9104 63.966 53.8472 63.3157 53.9737 62.6886C54.1003 62.0615 54.4109 61.4857 54.8665 61.0341C55.322 60.5824 55.9019 60.2751 56.533 60.1509C57.1642 60.0267 57.8181 60.0913 58.4123 60.3365C59.0066 60.5816 59.5144 60.9963 59.8716 61.5283C60.2289 62.0602 60.4196 62.6854 60.4196 63.325C60.4192 63.7505 60.3345 64.1718 60.1702 64.5648C60.006 64.9577 59.7655 65.3147 59.4624 65.6152C59.1594 65.9156 58.7997 66.1538 58.404 66.3161C58.0083 66.4783 57.5843 66.5614 57.1563 66.5607ZM57.1563 60.3727C56.5693 60.3744 55.996 60.5489 55.5088 60.8744C55.0215 61.1998 54.6422 61.6615 54.4188 62.2011C54.1953 62.7407 54.1377 63.334 54.2533 63.9062C54.3688 64.4783 54.6523 65.0036 55.068 65.4156C55.4836 65.8277 56.0128 66.108 56.5886 66.2212C57.1645 66.3345 57.7611 66.2755 58.3033 66.0518C58.8454 65.8281 59.3087 65.4497 59.6347 64.9644C59.9606 64.479 60.1346 63.9086 60.1346 63.325C60.133 62.541 59.8185 61.7896 59.2601 61.2361C58.7016 60.6825 57.9449 60.3719 57.1563 60.3727Z" fill="white"/>
</svg>
