<svg width="54" height="54" viewBox="0 0 54 54" fill="none" xmlns="http://www.w3.org/2000/svg">
<g clip-path="url(#clip0)">
<path d="M52.9174 52.2857H47.8871V21.5333C47.8871 21.1037 47.5388 20.7554 47.1091 20.7554H38.8117C38.382 20.7554 38.0338 21.1037 38.0338 21.5333V52.2857H32.1219V30.6605C32.1219 30.2309 31.7737 29.8825 31.344 29.8825H23.0466C22.6169 29.8825 22.2687 30.2309 22.2687 30.6605V52.2857H16.3568V34.8092C16.3568 34.3796 16.0086 34.0312 15.5789 34.0312H7.28149C6.8518 34.0312 6.50357 34.3796 6.50357 34.8092V52.2856H1.47323C1.04354 52.2856 0.695312 52.6339 0.695312 53.0635C0.695312 53.4931 1.04354 53.8414 1.47323 53.8414H52.9174C53.3471 53.8414 53.6953 53.4931 53.6953 53.0635C53.6952 52.6339 53.3471 52.2857 52.9174 52.2857ZM14.801 52.2857H8.05931V35.5871H14.801V52.2857ZM30.5662 52.2857H23.8245V31.4384H30.5662V52.2857ZM46.3313 52.2857H39.5897V22.3112H46.3313V52.2857Z" fill="white" fill-opacity="0.55"/>
<path d="M51.2119 1.45158C50.6876 0.988758 49.9898 0.773135 49.2963 0.860295L42.6583 1.69008C41.3406 1.85477 40.3773 3.09168 40.5422 4.41078C40.7087 5.74375 41.9282 6.69371 43.263 6.52705L43.8046 6.45946C35.6574 15.9059 25.9717 20.7879 19.1275 23.2414C10.5936 26.3008 3.95127 26.5625 3.88657 26.5647C2.5447 26.6066 1.48594 27.7325 1.52652 29.0746C1.56668 30.4 2.63631 31.4382 3.96183 31.4382C3.98646 31.4382 4.0112 31.4379 4.03657 31.4371C4.3319 31.4282 11.3731 31.1795 20.6497 27.874C25.8646 26.0157 30.7716 23.5489 35.2343 20.542C35.5906 20.3021 35.6848 19.8185 35.4447 19.4623C35.2047 19.1059 34.7213 19.0118 34.3649 19.2518C30.0102 22.1861 25.22 24.5939 20.1274 26.4086C11.0788 29.6328 4.27455 29.8733 3.98998 29.8819L3.96183 29.8824C3.48276 29.8824 3.09602 29.5069 3.08153 29.0275C3.06683 28.542 3.44984 28.1348 3.93553 28.1196C4.00344 28.1174 10.8353 27.8667 19.6525 24.7058C27.0393 22.0578 37.6532 16.6509 46.2691 5.93039C46.698 5.39666 46.2445 4.58624 45.5664 4.67122L43.0704 4.98322C42.6377 5.03674 42.2175 4.75321 42.1076 4.33066C41.9756 3.82219 42.3308 3.29881 42.8515 3.2336L49.4897 2.40382C50.008 2.33829 50.4804 2.75722 50.4804 3.27863V9.91657C50.4804 10.4027 50.085 10.7982 49.5988 10.7982C49.1125 10.7982 48.7171 10.4028 48.7171 9.91657V7.90422C48.7171 7.58633 48.5115 7.28903 48.2142 7.17672C47.9071 7.06067 47.5442 7.15808 47.3365 7.41232C44.4312 10.9723 41.123 14.1937 37.5038 16.987C37.1637 17.2495 37.1007 17.738 37.3632 18.0782C37.6257 18.4183 38.1144 18.4811 38.4544 18.2187C41.6069 15.7856 44.5292 13.0361 47.1639 10.0264C47.2214 11.3196 48.2916 12.3542 49.5989 12.3542C50.9428 12.3542 52.0362 11.2607 52.0362 9.91677V3.27883C52.0361 2.5801 51.7357 1.91398 51.2119 1.45158Z" fill="white" fill-opacity="0.55"/>
</g>
<defs>
<clipPath id="clip0">
<rect width="53" height="53" fill="white" transform="translate(0.695312 0.841309)"/>
</clipPath>
</defs>
</svg>
