<svg width="64" height="112" viewBox="0 0 64 112" fill="none" xmlns="http://www.w3.org/2000/svg">
<path d="M7.51494 62.8166C16.3713 65.2463 18.4699 64.5648 20.0487 66.9406C20.7413 67.9574 21.0672 69.1795 20.9728 70.4062C20.8392 71.5424 20.3312 72.6018 19.5289 73.4173C16.4946 76.3553 8.13874 72.7589 3.35628 68.8274C2.31277 67.9726 -0.49433 65.6699 0.0755606 64.0372C0.306597 63.3672 1.02666 63.0361 1.53879 62.805C3.81451 61.7731 6.17878 62.4508 7.51494 62.8166Z" fill="url(#paint0_linear)"/>
<path d="M34.879 3.24219H32.9922V15.6219H34.879V3.24219Z" fill="url(#paint1_linear)"/>
<path d="M40.4507 14.3242H27.4241C26.4628 14.3242 25.6836 15.1035 25.6836 16.0647V20.7201C25.6836 21.6813 26.4628 22.4606 27.4241 22.4606H40.4507C41.4119 22.4606 42.1912 21.6813 42.1912 20.7201V16.0647C42.1912 15.1035 41.4119 14.3242 40.4507 14.3242Z" fill="url(#paint2_linear)"/>
<path d="M28.6265 18.2188H39.2234C42.4077 18.2147 45.5615 18.8384 48.5046 20.0542C51.4476 21.2699 54.1221 23.0539 56.3752 25.3041C58.6282 27.5543 60.4156 30.2265 61.6351 33.168C62.8546 36.1095 63.4823 39.2626 63.4823 42.4468V49.5204C63.4823 53.1315 62.0478 56.5947 59.4943 59.1482C56.9409 61.7016 53.4777 63.1362 49.8665 63.1362H18.0181C14.407 63.1362 10.9438 61.7016 8.3903 59.1482C5.83685 56.5947 4.40234 53.1315 4.40234 49.5204V42.4468C4.40234 36.0211 6.95493 29.8586 11.4986 25.315C16.0422 20.7714 22.2047 18.2188 28.6304 18.2188H28.6265Z" fill="url(#paint3_linear)"/>
<path d="M54.1773 48.2234C53.3935 48.6073 52.5319 48.8063 51.6591 48.8048H16.2334C15.3593 48.8063 14.4965 48.6074 13.7113 48.2234C12.8141 47.8156 12.0697 47.1335 11.5852 46.2753C11.1008 45.4172 10.9014 44.4274 11.0158 43.4486V43.3061C11.9246 36.7216 17.8853 31.658 25.1976 31.2807C28.2781 31.1189 31.5358 31.0342 34.9204 31.0535C37.5735 31.0535 40.138 31.1497 42.6217 31.2768C49.9609 31.6619 55.9679 36.6946 56.8689 43.3061L56.8882 43.4486C57.0002 44.429 56.798 45.4196 56.3108 46.2777C55.8236 47.1358 55.0766 47.8171 54.1773 48.2234Z" fill="url(#paint4_linear)"/>
<path style="mix-blend-mode:screen" d="M24.5909 47.3576C28.2828 47.3576 31.2756 44.3648 31.2756 40.6729C31.2756 36.9811 28.2828 33.9883 24.5909 33.9883C20.8991 33.9883 17.9062 36.9811 17.9062 40.6729C17.9062 44.3648 20.8991 47.3576 24.5909 47.3576Z" fill="url(#paint5_radial)"/>
<path d="M24.5908 45.4707C27.2406 45.4707 29.3887 43.3226 29.3887 40.6729C29.3887 38.0231 27.2406 35.875 24.5908 35.875C21.941 35.875 19.793 38.0231 19.793 40.6729C19.793 43.3226 21.941 45.4707 24.5908 45.4707Z" fill="#EEFDFF"/>
<path d="M24.5941 44.7039C26.8186 44.7039 28.6219 42.9006 28.6219 40.6762C28.6219 38.4517 26.8186 36.6484 24.5941 36.6484C22.3697 36.6484 20.5664 38.4517 20.5664 40.6762C20.5664 42.9006 22.3697 44.7039 24.5941 44.7039Z" fill="url(#paint6_linear)"/>
<path d="M27.1756 39.6308C27.1756 39.9262 27.088 40.2151 26.9238 40.4608C26.7596 40.7065 26.5263 40.898 26.2533 41.0111C25.9803 41.1241 25.6799 41.1537 25.3901 41.0961C25.1002 41.0384 24.834 40.8961 24.6251 40.6872C24.4161 40.4783 24.2739 40.212 24.2162 39.9222C24.1586 39.6324 24.1881 39.332 24.3012 39.059C24.4143 38.786 24.6058 38.5527 24.8515 38.3885C25.0972 38.2243 25.386 38.1367 25.6815 38.1367C26.0778 38.1367 26.4578 38.2941 26.738 38.5743C27.0182 38.8545 27.1756 39.2345 27.1756 39.6308Z" fill="#EEFDFF"/>
<path d="M23.9953 44.3617C24.3249 44.3617 24.5921 44.0944 24.5921 43.7648C24.5921 43.4352 24.3249 43.168 23.9953 43.168C23.6657 43.168 23.3984 43.4352 23.3984 43.7648C23.3984 44.0944 23.6657 44.3617 23.9953 44.3617Z" fill="#EEFDFF"/>
<path d="M22.5225 42.8668C22.5233 42.9266 22.5062 42.9852 22.4735 43.0351C22.4408 43.0851 22.394 43.1242 22.3389 43.1474C22.2839 43.1706 22.2232 43.1769 22.1646 43.1654C22.106 43.154 22.0521 43.1253 22.0098 43.083C21.9676 43.0408 21.9389 42.9869 21.9275 42.9283C21.916 42.8697 21.9223 42.809 21.9455 42.754C21.9687 42.6989 22.0078 42.6521 22.0578 42.6194C22.1077 42.5866 22.1663 42.5696 22.2261 42.5703C22.3044 42.5713 22.3792 42.6029 22.4346 42.6583C22.49 42.7137 22.5215 42.7885 22.5225 42.8668Z" fill="#EEFDFF"/>
<path style="mix-blend-mode:screen" d="M42.6456 47.3576C46.3374 47.3576 49.3303 44.3648 49.3303 40.6729C49.3303 36.9811 46.3374 33.9883 42.6456 33.9883C38.9538 33.9883 35.9609 36.9811 35.9609 40.6729C35.9609 44.3648 38.9538 47.3576 42.6456 47.3576Z" fill="url(#paint7_radial)"/>
<path d="M42.6494 45.4707C45.2992 45.4707 47.4473 43.3226 47.4473 40.6729C47.4473 38.0231 45.2992 35.875 42.6494 35.875C39.9996 35.875 37.8516 38.0231 37.8516 40.6729C37.8516 43.3226 39.9996 45.4707 42.6494 45.4707Z" fill="#EEFDFF"/>
<path d="M42.6488 44.7039C44.8733 44.7039 46.6766 42.9006 46.6766 40.6762C46.6766 38.4517 44.8733 36.6484 42.6488 36.6484C40.4244 36.6484 38.6211 38.4517 38.6211 40.6762C38.6211 42.9006 40.4244 44.7039 42.6488 44.7039Z" fill="url(#paint8_linear)"/>
<path d="M45.2303 39.6308C45.2303 39.9262 45.1426 40.2151 44.9785 40.4608C44.8143 40.7065 44.581 40.898 44.308 41.0111C44.035 41.1241 43.7346 41.1537 43.4448 41.0961C43.1549 41.0384 42.8887 40.8961 42.6798 40.6872C42.4708 40.4783 42.3285 40.212 42.2709 39.9222C42.2132 39.6324 42.2428 39.332 42.3559 39.059C42.469 38.786 42.6605 38.5527 42.9062 38.3885C43.1519 38.2243 43.4407 38.1367 43.7362 38.1367C44.1325 38.1367 44.5125 38.2941 44.7927 38.5743C45.0729 38.8545 45.2303 39.2345 45.2303 39.6308Z" fill="#EEFDFF"/>
<path d="M42.05 44.3656C42.3796 44.3656 42.6468 44.0983 42.6468 43.7687C42.6468 43.4391 42.3796 43.1719 42.05 43.1719C41.7203 43.1719 41.4531 43.4391 41.4531 43.7687C41.4531 44.0983 41.7203 44.3656 42.05 44.3656Z" fill="#EEFDFF"/>
<path d="M40.5761 42.8687C40.5766 42.908 40.5693 42.947 40.5547 42.9834C40.54 43.0198 40.5182 43.0529 40.4906 43.0809C40.4631 43.1088 40.4302 43.131 40.394 43.1462C40.3577 43.1613 40.3189 43.1691 40.2796 43.1691C40.2376 43.1739 40.195 43.1697 40.1547 43.1569C40.1144 43.1441 40.0772 43.1229 40.0456 43.0947C40.0141 43.0665 39.9888 43.032 39.9715 42.9934C39.9543 42.9548 39.9453 42.913 39.9453 42.8707C39.9453 42.8284 39.9543 42.7865 39.9715 42.7479C39.9888 42.7093 40.0141 42.6748 40.0456 42.6466C40.0772 42.6184 40.1144 42.5972 40.1547 42.5844C40.195 42.5716 40.2376 42.5675 40.2796 42.5722C40.3582 42.5722 40.4337 42.6035 40.4893 42.6591C40.5449 42.7147 40.5761 42.7901 40.5761 42.8687Z" fill="#EEFDFF"/>
<path d="M36.352 2.41819C36.352 2.89646 36.2102 3.36399 35.9445 3.76166C35.6787 4.15932 35.3011 4.46927 34.8592 4.6523C34.4173 4.83532 33.9311 4.88321 33.462 4.7899C32.993 4.6966 32.5621 4.46629 32.2239 4.1281C31.8857 3.78991 31.6554 3.35903 31.5621 2.88995C31.4688 2.42087 31.5167 1.93465 31.6997 1.49279C31.8827 1.05092 32.1927 0.673252 32.5903 0.407538C32.988 0.141825 33.4555 0 33.9338 0C34.5752 0 35.1902 0.254773 35.6437 0.70827C36.0972 1.16177 36.352 1.77684 36.352 2.41819Z" fill="url(#paint9_linear)"/>
<path d="M35.6154 1.47369C35.6154 1.61992 35.572 1.76286 35.4908 1.88444C35.4095 2.00602 35.2941 2.10078 35.159 2.15673C35.0239 2.21269 34.8752 2.22733 34.7318 2.1988C34.5884 2.17028 34.4567 2.09986 34.3533 1.99647C34.2499 1.89307 34.1795 1.76134 34.1509 1.61793C34.1224 1.47451 34.137 1.32586 34.193 1.19077C34.249 1.05568 34.3437 0.94021 34.4653 0.858972C34.5869 0.777735 34.7298 0.734375 34.876 0.734375C35.0721 0.734375 35.2602 0.812267 35.3988 0.950916C35.5375 1.08957 35.6154 1.27761 35.6154 1.47369Z" fill="white"/>
<path d="M54.7447 25.963C54.7755 27.0912 53.8552 28.4389 52.8194 28.5544C51.8298 28.6623 51.0404 27.6534 50.2241 26.6099C49.4078 25.5664 47.6673 22.9479 48.3642 22.2009C49.2691 21.2152 54.6677 23.3138 54.7447 25.963Z" fill="white"/>
<path d="M45.7105 21.6632C46.1741 21.6632 46.55 21.2874 46.55 20.8238C46.55 20.3602 46.1741 19.9844 45.7105 19.9844C45.2469 19.9844 44.8711 20.3602 44.8711 20.8238C44.8711 21.2874 45.2469 21.6632 45.7105 21.6632Z" fill="white"/>
<path d="M54.6167 41.6164C54.3472 41.8051 52.4681 37.9776 47.4238 34.6584C45.6525 33.5032 43.9004 32.6599 44.0044 32.4173C44.1084 32.1747 46.0799 32.6291 47.6586 33.3607C52.6914 35.6942 54.9478 41.3892 54.6167 41.6164Z" fill="white"/>
<path d="M41.7129 16.7316C41.6513 16.7316 41.6128 16.489 41.3279 16.1078C41.2361 15.99 41.1371 15.8781 41.0314 15.7728C40.5269 15.2837 38.8096 15.2953 38.6748 15.2953C35.9986 15.2953 34.2812 15.1913 34.2812 15.2029C34.2812 15.2144 35.5365 15.2029 36.4568 15.1836C39.0483 15.1451 40.5924 15.045 41.2547 15.534C41.4227 15.6608 41.5629 15.8207 41.6667 16.0038C41.8438 16.3619 41.7822 16.7239 41.7129 16.7316Z" fill="white"/>
<path d="M41.1378 51.676C41.1008 51.9879 40.9571 52.2774 40.7312 52.4956C40.5053 52.7138 40.2109 52.8473 39.8979 52.8735L31.0415 53.7284C30.7301 53.7614 30.4167 53.6865 30.1538 53.5162C29.891 53.3459 29.6946 53.0904 29.5975 52.7926C29.5139 52.515 29.4496 52.232 29.405 51.9455C29.3997 51.9055 29.4024 51.8647 29.4129 51.8257C29.4235 51.7867 29.4418 51.7502 29.4666 51.7183C29.491 51.6866 29.5218 51.6603 29.5569 51.641C29.5921 51.6218 29.6308 51.6101 29.6707 51.6067L40.8375 50.5285C40.8768 50.525 40.9165 50.5294 40.9541 50.5413C40.9918 50.5532 41.0267 50.5724 41.057 50.5978C41.1164 50.6513 41.1523 50.726 41.1571 50.8057C41.172 51.0959 41.1656 51.3868 41.1378 51.676Z" fill="#EEFDFF"/>
<path d="M41.1385 51.6797C40.9993 53.0279 40.401 54.2874 39.4439 55.247C38.4867 56.2066 37.2287 56.8081 35.8809 56.9507C34.533 57.0933 33.1771 56.7683 32.0403 56.0302C30.9035 55.2921 30.0549 54.1858 29.6367 52.8965C29.7511 53.1679 29.9501 53.3951 30.204 53.5443C30.458 53.6934 30.7533 53.7566 31.046 53.7244L39.9025 52.8734C40.2139 52.8458 40.5065 52.7123 40.7315 52.495C40.9564 52.2778 41.1001 51.99 41.1385 51.6797Z" fill="url(#paint10_linear)"/>
<path d="M55.103 71.5646C55.103 71.6455 55.103 71.7225 55.103 71.7995C55.0826 72.324 54.9866 72.8427 54.8181 73.3398C52.3807 80.783 50.9213 84.7106 48.8727 87.8874C48.5185 88.4342 48.145 88.9617 47.7484 89.4777C47.2247 90.1669 46.6509 90.8408 46.0156 91.5339C44.5986 93.0741 42.4576 93.7673 41.7799 94.0098C39.2578 94.8993 37.0321 94.7376 35.5496 94.7492H35.2916C33.8053 94.7492 31.5796 94.8993 29.0575 94.0098C28.3682 93.7673 26.2273 93.0703 24.8218 91.5339C20.9327 87.2982 19.431 83.7788 16.0193 73.3398C15.8604 72.868 15.7645 72.3773 15.7344 71.8804C15.7344 71.6801 15.7344 71.4953 15.7344 71.2758C15.8375 69.9538 16.3549 68.698 17.213 67.6871C17.9866 66.7477 18.9602 65.993 20.0627 65.478C21.1653 64.963 22.3689 64.7008 23.5858 64.7105L35.4303 64.6605L47.0591 64.6143C48.3032 64.5952 49.536 64.8531 50.6682 65.3692C51.8004 65.8853 52.8036 66.6468 53.6051 67.5985C54.3404 68.4565 54.8382 69.4919 55.0491 70.602C55.0722 70.7483 55.0953 70.9023 55.1107 71.0486C55.1261 71.195 55.103 71.3952 55.103 71.5646Z" fill="url(#paint11_linear)"/>
<path d="M35.4029 64.6722L23.5584 64.7223C22.3418 64.7142 21.1387 64.9772 20.0364 65.492C18.9341 66.0069 17.9603 66.7607 17.1857 67.6988C16.3291 68.7122 15.8119 69.9687 15.707 71.2915C15.8083 69.93 16.3488 68.6382 17.2473 67.6103C18.0485 66.6582 19.0516 65.8964 20.1839 65.3802C21.3161 64.8641 22.5491 64.6064 23.7933 64.626L35.4029 64.6722Z" fill="url(#paint12_linear)"/>
<path d="M47.1784 82.1211C47.0051 72.9335 45.7613 71.116 47.5942 68.9289C48.3725 67.9815 49.4489 67.3259 50.6478 67.069C51.7754 66.8775 52.9348 67.0657 53.9439 67.6043C57.6212 69.6875 56.5276 78.7171 54.1056 84.416C53.5781 85.6598 52.1611 88.9944 50.436 88.9136C49.7275 88.8828 49.2076 88.2859 48.8418 87.8585C47.2207 85.964 47.2053 83.5073 47.1784 82.1211Z" fill="url(#paint13_linear)"/>
<path d="M48.8691 87.898C48.5149 88.4448 48.1414 88.9723 47.7448 89.4883C47.6177 89.3574 47.5022 89.2265 47.4021 89.1033C45.781 87.2049 45.7617 84.7521 45.7386 83.3659C45.5653 74.1783 44.3177 72.3608 46.1545 70.1775C46.5581 69.6909 47.0395 69.2746 47.5792 68.9453C45.7694 71.1248 47.0055 72.9576 47.1941 82.1183C47.2172 83.5045 47.2403 85.9689 48.8537 87.8557C48.861 87.8689 48.8662 87.8832 48.8691 87.898Z" fill="url(#paint14_linear)"/>
<path d="M54.0524 74.4698C53.9646 73.3958 53.7606 72.3346 53.444 71.3046C52.9626 69.4062 52.3542 68.4782 52.747 68.1124C53.005 67.8737 53.5171 68.0354 53.6249 68.0701C55.3616 68.6246 55.9007 71.8822 55.8237 73.923C55.7813 75.1706 55.4732 76.5645 55.0189 76.6184C54.9505 76.6274 54.8809 76.6221 54.8147 76.6028C54.7484 76.5836 54.6868 76.5509 54.6338 76.5068C54.1255 76.0678 54.0909 75.2207 54.0524 74.4698Z" fill="white"/>
<path d="M55.2474 77.9557C55.2474 78.0273 55.2261 78.0973 55.1863 78.1568C55.1466 78.2164 55.09 78.2627 55.0239 78.2901C54.9578 78.3175 54.885 78.3247 54.8148 78.3107C54.7446 78.2968 54.6801 78.2623 54.6294 78.2117C54.5788 78.161 54.5444 78.0966 54.5304 78.0263C54.5164 77.9561 54.5236 77.8834 54.551 77.8172C54.5784 77.7511 54.6248 77.6945 54.6843 77.6548C54.7438 77.615 54.8138 77.5938 54.8854 77.5938C54.9331 77.5933 54.9804 77.6023 55.0245 77.6203C55.0687 77.6383 55.1088 77.6649 55.1425 77.6986C55.1762 77.7324 55.2028 77.7725 55.2208 77.8166C55.2389 77.8608 55.2479 77.9081 55.2474 77.9557Z" fill="white"/>
<path style="mix-blend-mode:soft-light" d="M34.8793 111.362C45.3147 111.362 53.7743 107.899 53.7743 103.627C53.7743 99.3541 45.3147 95.8906 34.8793 95.8906C24.4439 95.8906 15.9844 99.3541 15.9844 103.627C15.9844 107.899 24.4439 111.362 34.8793 111.362Z" fill="url(#paint15_radial)"/>
<defs>
<linearGradient id="paint0_linear" x1="11.9424" y1="69.302" x2="30.7261" y2="101.848" gradientUnits="userSpaceOnUse">
<stop offset="0.04" stop-color="#8755FF"/>
<stop offset="0.1" stop-color="#816AFF"/>
<stop offset="0.25" stop-color="#7497FF"/>
<stop offset="0.41" stop-color="#69BDFF"/>
<stop offset="0.56" stop-color="#60DAFF"/>
<stop offset="0.71" stop-color="#5AEEFF"/>
<stop offset="0.86" stop-color="#56FBFF"/>
<stop offset="1" stop-color="#55FFFF"/>
</linearGradient>
<linearGradient id="paint1_linear" x1="30.0927" y1="9.99231" x2="35.7492" y2="9.16828" gradientUnits="userSpaceOnUse">
<stop offset="0.04" stop-color="#833FFF"/>
<stop offset="1" stop-color="#3FACFF"/>
</linearGradient>
<linearGradient id="paint2_linear" x1="28.6486" y1="24.3628" x2="38.691" y2="13.0227" gradientUnits="userSpaceOnUse">
<stop offset="0.04" stop-color="#7C55F1"/>
<stop offset="1" stop-color="#AC7FFF"/>
</linearGradient>
<linearGradient id="paint3_linear" x1="14.0982" y1="63.6406" x2="53.8943" y2="23.8445" gradientUnits="userSpaceOnUse">
<stop offset="0.04" stop-color="#7C55F1"/>
<stop offset="1" stop-color="#2AE2FF"/>
</linearGradient>
<linearGradient id="paint4_linear" x1="33.8307" y1="48.7509" x2="34.185" y2="32.8325" gradientUnits="userSpaceOnUse">
<stop stop-color="#030D14"/>
<stop offset="1" stop-color="#0B2F45"/>
</linearGradient>
<radialGradient id="paint5_radial" cx="0" cy="0" r="1" gradientUnits="userSpaceOnUse" gradientTransform="translate(24.5909 40.6729) scale(6.61535)">
<stop offset="0.13" stop-color="#3280FC"/>
<stop offset="1"/>
</radialGradient>
<linearGradient id="paint6_linear" x1="1740.65" y1="888.757" x2="1909.26" y2="888.757" gradientUnits="userSpaceOnUse">
<stop stop-color="#030D14"/>
<stop offset="1" stop-color="#0B2F45"/>
</linearGradient>
<radialGradient id="paint7_radial" cx="0" cy="0" r="1" gradientUnits="userSpaceOnUse" gradientTransform="translate(3657.58 1448.2) scale(229.685)">
<stop offset="0.13" stop-color="#3280FC"/>
<stop offset="1"/>
</radialGradient>
<linearGradient id="paint8_linear" x1="2136.51" y1="888.757" x2="2305.11" y2="888.757" gradientUnits="userSpaceOnUse">
<stop stop-color="#030D14"/>
<stop offset="1" stop-color="#0B2F45"/>
</linearGradient>
<linearGradient id="paint9_linear" x1="28.8472" y1="3.1575" x2="36.3366" y2="2.06778" gradientUnits="userSpaceOnUse">
<stop offset="0.04" stop-color="#7C55F1"/>
<stop offset="1" stop-color="#559DFF"/>
</linearGradient>
<linearGradient id="paint10_linear" x1="33.6914" y1="54.9335" x2="45.2163" y2="43.4124" gradientUnits="userSpaceOnUse">
<stop offset="0.07" stop-color="#0D68AB"/>
<stop offset="1" stop-color="#6A80FF"/>
</linearGradient>
<linearGradient id="paint11_linear" x1="22.808" y1="89.8974" x2="53.3356" y2="54.2484" gradientUnits="userSpaceOnUse">
<stop offset="0.04" stop-color="#7C55F1"/>
<stop offset="0.15" stop-color="#696CF5"/>
<stop offset="0.3" stop-color="#5287FB"/>
<stop offset="0.44" stop-color="#4497FE"/>
<stop offset="0.54" stop-color="#3F9DFF"/>
<stop offset="0.79" stop-color="#60C8FF"/>
<stop offset="1" stop-color="#7FF1FF"/>
</linearGradient>
<linearGradient id="paint12_linear" x1="21.1903" y1="72.127" x2="39.55" y2="50.6907" gradientUnits="userSpaceOnUse">
<stop offset="0.04" stop-color="#06CFF1"/>
<stop offset="1" stop-color="#DEFA8E"/>
</linearGradient>
<linearGradient id="paint13_linear" x1="60.4992" y1="84.8395" x2="37.6037" y2="68.1156" gradientUnits="userSpaceOnUse">
<stop offset="0.04" stop-color="#7C55F1"/>
<stop offset="0.18" stop-color="#6D6FF3"/>
<stop offset="0.57" stop-color="#49AEFA"/>
<stop offset="0.85" stop-color="#33D6FE"/>
<stop offset="1" stop-color="#2AE5FF"/>
</linearGradient>
<linearGradient id="paint14_linear" x1="40.4941" y1="82.9538" x2="56.6936" y2="74.5133" gradientUnits="userSpaceOnUse">
<stop offset="0.04" stop-color="#755FFF"/>
<stop offset="1" stop-color="#55FFFF"/>
</linearGradient>
<radialGradient id="paint15_radial" cx="0" cy="0" r="1" gradientUnits="userSpaceOnUse" gradientTransform="translate(34.6713 103.198) scale(18.8583 7.65537)">
<stop stop-color="#BCD7D6"/>
<stop offset="1" stop-color="white"/>
</radialGradient>
</defs>
</svg>
