<svg width="25" height="25" viewBox="0 0 25 25" fill="none" xmlns="http://www.w3.org/2000/svg">
<g clip-path="url(#clip0)">
<path d="M21.5315 3.84854C19.172 1.38564 15.9072 -0.00430155 12.4964 0.00197429C5.60355 -0.00670729 0.00869147 5.57403 9.89546e-06 12.4669C-0.00427859 15.8752 1.38551 19.137 3.84657 21.4949C3.85374 21.502 3.85641 21.5127 3.86352 21.519C3.9358 21.5886 4.01435 21.6475 4.08757 21.7145C4.28839 21.893 4.48922 22.0777 4.70077 22.25C4.8141 22.3393 4.93193 22.4285 5.04798 22.5106C5.24792 22.6597 5.44785 22.8087 5.65668 22.9462C5.79862 23.0355 5.945 23.1247 6.09045 23.214C6.28322 23.33 6.47516 23.4469 6.6742 23.5531C6.84292 23.6424 7.01514 23.7191 7.18652 23.8004C7.37396 23.8896 7.55873 23.9789 7.75061 24.0592C7.9425 24.1395 8.13532 24.202 8.32987 24.2716C8.52442 24.3412 8.69225 24.4055 8.8788 24.4626C9.08946 24.526 9.30545 24.5751 9.51967 24.6277C9.69816 24.6714 9.87132 24.7214 10.0552 24.7572C10.3015 24.8063 10.5515 24.8375 10.8014 24.8714C10.9558 24.8929 11.1067 24.9232 11.2628 24.9384C11.6717 24.9785 12.084 25.0009 12.4999 25.0009C12.9158 25.0009 13.3282 24.9785 13.737 24.9384C13.8932 24.9232 14.044 24.8929 14.1984 24.8714C14.4483 24.8375 14.6982 24.8063 14.9446 24.7572C15.1231 24.7214 15.3016 24.6679 15.4801 24.6277C15.6944 24.5751 15.9103 24.526 16.121 24.4626C16.3076 24.4055 16.4878 24.3359 16.6699 24.2716C16.852 24.2074 17.0591 24.1377 17.2492 24.0592C17.4393 23.9806 17.6259 23.8887 17.8133 23.8004C17.9847 23.7191 18.1569 23.6424 18.3256 23.5531C18.5247 23.4469 18.7165 23.33 18.9094 23.214C19.0549 23.1247 19.2012 23.0435 19.3431 22.9462C19.552 22.8088 19.7519 22.6597 19.9518 22.5106C20.0679 22.4214 20.1857 22.341 20.299 22.25C20.5106 22.0804 20.7114 21.9001 20.9122 21.7145C20.9854 21.6475 21.064 21.5887 21.1363 21.519C21.1434 21.5128 21.1461 21.502 21.1532 21.4949C26.1307 16.7264 26.3 8.82585 21.5315 3.84854ZM19.5254 20.5604C19.3629 20.7032 19.1951 20.8389 19.0256 20.9701C18.9256 21.0468 18.8256 21.1227 18.723 21.1959C18.5614 21.3128 18.3972 21.4235 18.2303 21.5297C18.1089 21.6074 17.9848 21.6823 17.8598 21.7555C17.7027 21.8448 17.543 21.934 17.3814 22.0233C17.2386 22.0965 17.0931 22.1652 16.9468 22.2331C16.8004 22.3009 16.6388 22.3732 16.4808 22.4366C16.3228 22.5 16.1551 22.5597 15.9899 22.6151C15.8391 22.6668 15.6882 22.7204 15.5356 22.7659C15.3571 22.8194 15.1705 22.8632 14.9858 22.9078C14.8412 22.9417 14.6984 22.9801 14.552 23.0087C14.3405 23.0498 14.1245 23.0783 13.9076 23.1078C13.7844 23.1238 13.6621 23.1462 13.538 23.1587C13.1953 23.1917 12.8481 23.2113 12.4973 23.2113C12.1465 23.2113 11.7993 23.1917 11.4565 23.1587C11.3325 23.1462 11.2102 23.1238 11.087 23.1078C10.8701 23.0783 10.6541 23.0498 10.4426 23.0087C10.2962 22.9802 10.1534 22.9418 10.0088 22.9078C9.82405 22.8632 9.64016 22.8186 9.459 22.7659C9.30639 22.7204 9.15551 22.6668 9.00468 22.6151C8.83958 22.558 8.67442 22.4999 8.51376 22.4366C8.35309 22.3732 8.20138 22.3036 8.04783 22.2331C7.89428 22.1626 7.75595 22.0965 7.61317 22.0233C7.45162 21.9394 7.29185 21.851 7.13475 21.7555C7.0098 21.6824 6.8857 21.6074 6.76431 21.5297C6.59743 21.4235 6.43316 21.3128 6.27161 21.1959C6.16895 21.1227 6.069 21.0468 5.96901 20.9701C5.79941 20.8389 5.63163 20.7023 5.46919 20.5604C5.42991 20.5309 5.3942 20.4934 5.35586 20.4595C5.39576 17.4232 7.34635 14.7421 10.223 13.7697C11.6614 14.4539 13.3314 14.4539 14.7698 13.7697C17.6464 14.7421 19.597 17.4231 19.6369 20.4595C19.5994 20.4934 19.5637 20.5274 19.5254 20.5604ZM9.38395 7.15841C10.3504 5.43967 12.5271 4.82982 14.2458 5.79624C15.9646 6.76267 16.5744 8.93939 15.608 10.6581C15.2874 11.2284 14.8162 11.6996 14.2458 12.0203C14.2414 12.0203 14.236 12.0203 14.2307 12.0256C13.994 12.1574 13.7438 12.2633 13.4845 12.3416C13.4381 12.355 13.3952 12.3728 13.3461 12.3845C13.2569 12.4077 13.1632 12.4237 13.0712 12.4398C12.8981 12.4701 12.723 12.4876 12.5473 12.4925H12.4455C12.2698 12.4876 12.0947 12.4701 11.9216 12.4398C11.8323 12.4237 11.7377 12.4077 11.6467 12.3845C11.5994 12.3728 11.5574 12.355 11.5084 12.3416C11.249 12.2633 10.9989 12.1574 10.7622 12.0256L10.7461 12.0203C9.02738 11.0539 8.41753 8.87716 9.38395 7.15841ZM21.2203 18.6896C20.6476 16.018 18.8883 13.7531 16.4415 12.5372C18.4417 10.3584 18.2968 6.97061 16.118 4.97045C13.9392 2.97029 10.5515 3.11515 8.55131 5.29397C6.67096 7.3423 6.67096 10.4889 8.55131 12.5372C6.10451 13.7532 4.34529 16.018 3.77252 18.6896C0.349888 13.8685 1.48351 7.18571 6.30456 3.76308C11.1256 0.340451 17.8084 1.47408 21.2311 6.29512C22.5177 8.10743 23.2083 10.2753 23.2072 12.4978C23.2072 14.7185 22.5125 16.8835 21.2203 18.6896Z" fill="white"/>
</g>
<defs>
<clipPath id="clip0">
<rect width="25" height="25" fill="white"/>
</clipPath>
</defs>
</svg>
