<svg width="35" height="35" viewBox="0 0 35 35" fill="none" xmlns="http://www.w3.org/2000/svg">
<g clip-path="url(#clip0)">
<path d="M8.85542 0.169556C8.18477 0.169556 7.64111 0.713209 7.64111 1.38386V3.81241H10.0697V1.38386C10.0697 0.713209 9.52601 0.169556 8.85542 0.169556Z" fill="#44238C"/>
<path d="M25.8554 0.169556C25.1848 0.169556 24.6411 0.713209 24.6411 1.38386V3.81241H27.0697V1.38386C27.0697 0.713209 26.5261 0.169556 25.8554 0.169556Z" fill="#44238C"/>
<path d="M30.7126 3.81238H27.0698V8.66954C27.0698 9.3402 26.5261 9.88385 25.8555 9.88385C25.1848 9.88385 24.6411 9.3402 24.6411 8.66954V3.81238H10.0697V8.66954C10.0697 9.3402 9.52607 9.88385 8.85542 9.88385C8.18476 9.88385 7.64111 9.3402 7.64111 8.66954V3.81238H3.99832C1.98643 3.81238 0.355469 5.44334 0.355469 7.45523V30.5267C0.355469 32.5386 1.98643 34.1695 3.99832 34.1695H30.7126C32.7245 34.1695 34.3555 32.5386 34.3555 30.5267V7.45523C34.3555 5.44334 32.7245 3.81238 30.7126 3.81238ZM31.9269 30.5267C31.9269 31.1973 31.3832 31.741 30.7125 31.741H3.99832C3.32767 31.741 2.78401 31.1973 2.78401 30.5267V14.7409H31.9269V30.5267Z" fill="#44238C"/>
<path d="M25.5006 17.526C25.0264 17.0515 24.2574 17.0512 23.7829 17.5253L14.9272 26.3812L10.9285 22.3825C10.454 21.9083 9.68503 21.9086 9.21089 22.3831C8.73675 22.8576 8.73703 23.6266 9.21153 24.1007L14.0687 28.9579C14.5429 29.432 15.3115 29.432 15.7857 28.9579L25.5 19.2436C25.9744 18.7694 25.9747 18.0005 25.5006 17.526Z" fill="#44238C"/>
</g>
<defs>
<clipPath id="clip0">
<rect width="34" height="34" fill="white" transform="translate(0.355469 0.169556)"/>
</clipPath>
</defs>
</svg>
