<svg width="24" height="24" viewBox="0 0 24 24" fill="none" xmlns="http://www.w3.org/2000/svg">
<path d="M20.4872 15.6009C19.2347 14.3484 17.7438 13.4212 16.1172 12.8599C17.8593 11.66 19.0039 9.65181 19.0039 7.3811C19.0039 3.71516 16.0214 0.732666 12.3555 0.732666C8.68953 0.732666 5.70703 3.71516 5.70703 7.3811C5.70703 9.65181 6.8516 11.66 8.5938 12.8599C6.96718 13.4212 5.47631 14.3484 4.22376 15.6009C2.05169 17.773 0.855469 20.6609 0.855469 23.7327H2.65234C2.65234 18.3823 7.00514 14.0295 12.3555 14.0295C17.7058 14.0295 22.0586 18.3823 22.0586 23.7327H23.8555C23.8555 20.6609 22.6592 17.773 20.4872 15.6009ZM12.3555 12.2327C9.68033 12.2327 7.50391 10.0563 7.50391 7.3811C7.50391 4.70592 9.68033 2.52954 12.3555 2.52954C15.0306 2.52954 17.207 4.70592 17.207 7.3811C17.207 10.0563 15.0306 12.2327 12.3555 12.2327Z" fill="#44238C"/>
</svg>
