<svg width="44" height="45" viewBox="0 0 44 45" fill="none" xmlns="http://www.w3.org/2000/svg">
<g clip-path="url(#clip0)">
<path d="M36.7718 22.0461C34.801 22.0461 33.1885 20.3961 33.1885 18.3794C33.1885 16.3628 34.801 14.7128 36.7718 14.7128C38.7426 14.7128 40.3551 16.3628 40.3551 18.3794C40.3551 20.3961 38.7426 22.0461 36.7718 22.0461ZM36.7718 16.5461C35.6968 16.5461 34.9801 17.2794 34.9801 18.3794C34.9801 19.4794 35.6968 20.2128 36.7718 20.2128C37.8468 20.2128 38.5635 19.4794 38.5635 18.3794C38.5635 17.2794 37.8468 16.5461 36.7718 16.5461Z" fill="#44238C"/>
<path d="M43.0426 31.2126C42.5051 31.2126 42.1468 30.8459 42.1468 30.2959V28.4626C42.1468 26.9959 40.8926 25.7126 39.4593 25.7126H34.0843C33.5468 25.7126 33.1885 25.3459 33.1885 24.7959C33.1885 24.2459 33.5468 23.8793 34.0843 23.8793H39.4593C41.9676 23.8793 43.9385 25.8959 43.9385 28.4626V30.2959C43.9385 30.8459 43.5801 31.2126 43.0426 31.2126Z" fill="#44238C"/>
<path d="M8.10531 22.0461C6.13447 22.0461 4.52197 20.3961 4.52197 18.3794C4.52197 16.3628 6.13447 14.7128 8.10531 14.7128C10.0761 14.7128 11.6886 16.3628 11.6886 18.3794C11.6886 20.3961 10.0761 22.0461 8.10531 22.0461ZM8.10531 16.5461C7.03031 16.5461 6.31364 17.2794 6.31364 18.3794C6.31364 19.4794 7.03031 20.2128 8.10531 20.2128C9.18031 20.2128 9.89697 19.4794 9.89697 18.3794C9.89697 17.2794 9.18031 16.5461 8.10531 16.5461Z" fill="#44238C"/>
<path d="M1.83431 31.2126C1.29681 31.2126 0.938477 30.8459 0.938477 30.2959V28.4626C0.938477 25.8959 2.90931 23.8793 5.41764 23.8793H10.7926C11.3301 23.8793 11.6885 24.2459 11.6885 24.7959C11.6885 25.3459 11.3301 25.7126 10.7926 25.7126H5.41764C3.98431 25.7126 2.73014 26.9959 2.73014 28.4626V30.2959C2.73014 30.8459 2.37181 31.2126 1.83431 31.2126Z" fill="#44238C"/>
<path d="M22.4385 22.9628C19.3926 22.9628 17.0635 20.5794 17.0635 17.4628C17.0635 14.3461 19.3926 11.9628 22.4385 11.9628C25.4843 11.9628 27.8135 14.3461 27.8135 17.4628C27.8135 20.5794 25.4843 22.9628 22.4385 22.9628ZM22.4385 13.7961C20.4676 13.7961 18.8551 15.4461 18.8551 17.4628C18.8551 19.4794 20.4676 21.1294 22.4385 21.1294C24.4093 21.1294 26.0218 19.4794 26.0218 17.4628C26.0218 15.4461 24.4093 13.7961 22.4385 13.7961Z" fill="#44238C"/>
<path d="M31.397 34.8794C30.8595 34.8794 30.5011 34.5128 30.5011 33.9628V30.2961C30.5011 28.8294 29.247 27.5461 27.8136 27.5461H17.0636C15.6303 27.5461 14.3761 28.8294 14.3761 30.2961V33.9628C14.3761 34.5128 14.0178 34.8794 13.4803 34.8794C12.9428 34.8794 12.5845 34.5128 12.5845 33.9628V30.2961C12.5845 27.7294 14.5553 25.7128 17.0636 25.7128H27.8136C30.322 25.7128 32.2928 27.7294 32.2928 30.2961V33.9628C32.2928 34.5128 31.9345 34.8794 31.397 34.8794Z" fill="#44238C"/>
</g>
<defs>
<clipPath id="clip0">
<rect width="43" height="44" fill="white" transform="translate(0.938477 0.0460205)"/>
</clipPath>
</defs>
</svg>
