<svg width="35" height="35" viewBox="0 0 35 35" fill="none" xmlns="http://www.w3.org/2000/svg">
<g clip-path="url(#clip0)">
<path d="M8.85542 0.219238C8.18477 0.219238 7.64111 0.762892 7.64111 1.43355V3.86209H10.0697V1.43355C10.0697 0.762892 9.52601 0.219238 8.85542 0.219238Z" fill="#DE7E0D"/>
<path d="M25.8554 0.219238C25.1848 0.219238 24.6411 0.762892 24.6411 1.43355V3.86209H27.0697V1.43355C27.0697 0.762892 26.5261 0.219238 25.8554 0.219238Z" fill="#DE7E0D"/>
<path d="M30.7126 3.86206H27.0698V8.71922C27.0698 9.38988 26.5261 9.93353 25.8555 9.93353C25.1848 9.93353 24.6411 9.38988 24.6411 8.71922V3.86206H10.0697V8.71922C10.0697 9.38988 9.52607 9.93353 8.85542 9.93353C8.18476 9.93353 7.64111 9.38988 7.64111 8.71922V3.86206H3.99832C1.98643 3.86206 0.355469 5.49302 0.355469 7.50491V30.5763C0.355469 32.5882 1.98643 34.2192 3.99832 34.2192H30.7126C32.7245 34.2192 34.3555 32.5882 34.3555 30.5763V7.50491C34.3555 5.49302 32.7245 3.86206 30.7126 3.86206ZM31.9269 30.5763C31.9269 31.247 31.3832 31.7907 30.7125 31.7907H3.99832C3.32767 31.7907 2.78401 31.247 2.78401 30.5763V14.7906H31.9269V30.5763Z" fill="#DE7E0D"/>
<path d="M25.5006 17.5755C25.0264 17.101 24.2574 17.1008 23.7829 17.5749L14.9272 26.4307L10.9285 22.432C10.454 21.9579 9.68503 21.9582 9.21089 22.4327C8.73675 22.9072 8.73703 23.6762 9.21153 24.1503L14.0687 29.0075C14.5429 29.4815 15.3115 29.4815 15.7857 29.0075L25.5 19.2931C25.9744 18.819 25.9747 18.05 25.5006 17.5755Z" fill="#DE7E0D"/>
</g>
<defs>
<clipPath id="clip0">
<rect width="34" height="34" fill="white" transform="translate(0.355469 0.219238)"/>
</clipPath>
</defs>
</svg>
