<svg width="44" height="45" viewBox="0 0 44 45" fill="none" xmlns="http://www.w3.org/2000/svg">
<g clip-path="url(#clip0)">
<path d="M36.7718 22.0958C34.801 22.0958 33.1885 20.4458 33.1885 18.4291C33.1885 16.4125 34.801 14.7625 36.7718 14.7625C38.7426 14.7625 40.3551 16.4125 40.3551 18.4291C40.3551 20.4458 38.7426 22.0958 36.7718 22.0958ZM36.7718 16.5958C35.6968 16.5958 34.9801 17.3291 34.9801 18.4291C34.9801 19.5291 35.6968 20.2625 36.7718 20.2625C37.8468 20.2625 38.5635 19.5291 38.5635 18.4291C38.5635 17.3291 37.8468 16.5958 36.7718 16.5958Z" fill="#DE7E0D"/>
<path d="M43.0426 31.2623C42.5051 31.2623 42.1468 30.8956 42.1468 30.3456V28.5123C42.1468 27.0456 40.8926 25.7623 39.4593 25.7623H34.0843C33.5468 25.7623 33.1885 25.3956 33.1885 24.8456C33.1885 24.2956 33.5468 23.929 34.0843 23.929H39.4593C41.9676 23.929 43.9385 25.9456 43.9385 28.5123V30.3456C43.9385 30.8956 43.5801 31.2623 43.0426 31.2623Z" fill="#DE7E0D"/>
<path d="M8.10531 22.0958C6.13447 22.0958 4.52197 20.4458 4.52197 18.4291C4.52197 16.4125 6.13447 14.7625 8.10531 14.7625C10.0761 14.7625 11.6886 16.4125 11.6886 18.4291C11.6886 20.4458 10.0761 22.0958 8.10531 22.0958ZM8.10531 16.5958C7.03031 16.5958 6.31364 17.3291 6.31364 18.4291C6.31364 19.5291 7.03031 20.2625 8.10531 20.2625C9.18031 20.2625 9.89697 19.5291 9.89697 18.4291C9.89697 17.3291 9.18031 16.5958 8.10531 16.5958Z" fill="#DE7E0D"/>
<path d="M1.83431 31.2623C1.29681 31.2623 0.938477 30.8956 0.938477 30.3456V28.5123C0.938477 25.9456 2.90931 23.929 5.41764 23.929H10.7926C11.3301 23.929 11.6885 24.2956 11.6885 24.8456C11.6885 25.3956 11.3301 25.7623 10.7926 25.7623H5.41764C3.98431 25.7623 2.73014 27.0456 2.73014 28.5123V30.3456C2.73014 30.8956 2.37181 31.2623 1.83431 31.2623Z" fill="#DE7E0D"/>
<path d="M22.4385 23.0124C19.3926 23.0124 17.0635 20.6291 17.0635 17.5125C17.0635 14.3958 19.3926 12.0125 22.4385 12.0125C25.4843 12.0125 27.8135 14.3958 27.8135 17.5125C27.8135 20.6291 25.4843 23.0124 22.4385 23.0124ZM22.4385 13.8458C20.4676 13.8458 18.8551 15.4958 18.8551 17.5125C18.8551 19.5291 20.4676 21.1791 22.4385 21.1791C24.4093 21.1791 26.0218 19.5291 26.0218 17.5125C26.0218 15.4958 24.4093 13.8458 22.4385 13.8458Z" fill="#DE7E0D"/>
<path d="M31.397 34.9291C30.8595 34.9291 30.5011 34.5625 30.5011 34.0125V30.3458C30.5011 28.8791 29.247 27.5958 27.8136 27.5958H17.0636C15.6303 27.5958 14.3761 28.8791 14.3761 30.3458V34.0125C14.3761 34.5625 14.0178 34.9291 13.4803 34.9291C12.9428 34.9291 12.5845 34.5625 12.5845 34.0125V30.3458C12.5845 27.7791 14.5553 25.7625 17.0636 25.7625H27.8136C30.322 25.7625 32.2928 27.7791 32.2928 30.3458V34.0125C32.2928 34.5625 31.9345 34.9291 31.397 34.9291Z" fill="#DE7E0D"/>
</g>
<defs>
<clipPath id="clip0">
<rect width="43" height="44" fill="white" transform="translate(0.938477 0.0957031)"/>
</clipPath>
</defs>
</svg>
