<svg width="24" height="24" viewBox="0 0 24 24" fill="none" xmlns="http://www.w3.org/2000/svg">
<g clip-path="url(#clip0)">
<path d="M20.4872 15.6507C19.2347 14.3982 17.7438 13.471 16.1172 12.9097C17.8593 11.7098 19.0039 9.70162 19.0039 7.43091C19.0039 3.76497 16.0214 0.782471 12.3555 0.782471C8.68953 0.782471 5.70703 3.76497 5.70703 7.43091C5.70703 9.70162 6.8516 11.7098 8.5938 12.9097C6.96718 13.471 5.47631 14.3982 4.22376 15.6507C2.05169 17.8228 0.855469 20.7107 0.855469 23.7825H2.65234C2.65234 18.4321 7.00514 14.0793 12.3555 14.0793C17.7058 14.0793 22.0586 18.4321 22.0586 23.7825H23.8555C23.8555 20.7107 22.6592 17.8228 20.4872 15.6507ZM12.3555 12.2825C9.68033 12.2825 7.50391 10.1061 7.50391 7.43091C7.50391 4.75572 9.68033 2.57935 12.3555 2.57935C15.0306 2.57935 17.207 4.75572 17.207 7.43091C17.207 10.1061 15.0306 12.2825 12.3555 12.2825Z" fill="#DE7E0D"/>
</g>
<defs>
<clipPath id="clip0">
<rect width="23" height="23" fill="white" transform="translate(0.855469 0.782471)"/>
</clipPath>
</defs>
</svg>
