<svg width="116" height="88" viewBox="0 0 116 88" fill="none" xmlns="http://www.w3.org/2000/svg">
<path d="M53.94 29.2512C53.94 29.2512 54.1575 25.8778 53.94 24.945C53.7225 24.0122 52.4146 21.7536 51.9796 21.9178C51.5446 22.0821 51.4895 22.745 51.9796 23.625C51.9796 23.625 49.2014 21.34 48.14 21.381C47.0786 21.4221 46.4812 22.8008 46.6436 23.4608C46.806 24.1208 49.2536 25.2648 49.4218 25.8074C49.59 26.3501 50.0192 30.1634 50.0192 30.1634" fill="white"/>
<path d="M50.0242 30.3248C49.9888 30.3244 49.9546 30.3112 49.928 30.2875C49.9014 30.2638 49.8841 30.2312 49.8792 30.1957C49.8792 30.1576 49.4442 26.4029 49.2992 25.8632C49.2354 25.649 48.5887 25.2178 48.0696 24.8717C47.3243 24.3701 46.6196 23.8978 46.521 23.496C46.4834 23.2204 46.5016 22.94 46.5743 22.6717C46.6471 22.4035 46.773 22.153 46.9444 21.9354C47.0792 21.7358 47.2565 21.5692 47.4632 21.4478C47.67 21.3265 47.901 21.2536 48.1392 21.2344C48.9831 21.2021 50.7492 22.484 51.6047 23.1381C51.4808 22.8358 51.4604 22.5002 51.5467 22.1848C51.5772 22.0929 51.6277 22.0091 51.6945 21.9395C51.7612 21.87 51.8425 21.8165 51.9324 21.7829C51.9804 21.7672 52.0312 21.7622 52.0813 21.7682C52.1313 21.7743 52.1795 21.7913 52.2224 21.8181C52.8227 22.1408 53.8928 24.1002 54.0813 24.9128C54.3017 25.8573 54.0813 29.1221 54.0813 29.26C54.0806 29.2794 54.076 29.2984 54.0678 29.316C54.0596 29.3335 54.048 29.3492 54.0336 29.3621C54.0192 29.375 54.0024 29.3848 53.9842 29.391C53.966 29.3971 53.9468 29.3994 53.9276 29.3978C53.8897 29.3948 53.8544 29.3768 53.8294 29.3477C53.8045 29.3187 53.7918 29.2808 53.7942 29.2424C53.7942 29.2072 54.0059 25.8808 53.7942 24.9802C53.5593 23.9682 52.3152 22.0146 52.0223 22.0469C51.9726 22.067 51.9279 22.0979 51.8913 22.1375C51.8547 22.177 51.8272 22.2242 51.8106 22.2757C51.7062 22.569 51.8106 23.0266 52.1006 23.5458C52.1173 23.5751 52.1232 23.6094 52.1174 23.6426C52.1115 23.6759 52.0943 23.706 52.0687 23.7277C52.0427 23.7496 52.0098 23.7617 51.9759 23.7617C51.942 23.7617 51.9092 23.7496 51.8831 23.7277C51.1233 23.1 48.9831 21.4837 48.1421 21.516C47.9449 21.5331 47.754 21.5946 47.5833 21.6961C47.4127 21.7977 47.2667 21.9366 47.1561 22.1026C46.8646 22.4734 46.7301 22.9459 46.782 23.4168C46.8545 23.7101 47.6056 24.2117 48.2117 24.6165C48.9889 25.1386 49.4703 25.476 49.5573 25.7722C49.7197 26.3354 50.1373 29.9962 50.1605 30.1517C50.1646 30.1905 50.1536 30.2294 50.1298 30.2601C50.1059 30.2908 50.0712 30.3108 50.0329 30.316L50.0242 30.3248Z" fill="#231F20"/>
<path d="M61.0859 74.4187L101.863 64.8061V58.168L61.0859 62.4037V74.4187Z" fill="white"/>
<path d="M61.0844 74.5682C61.0508 74.5682 61.0181 74.5568 60.9916 74.5359C60.9742 74.5217 60.96 74.5038 60.95 74.4836C60.94 74.4633 60.9344 74.4412 60.9336 74.4186V62.3919C60.9334 62.3539 60.9473 62.3171 60.9725 62.2889C60.9977 62.2607 61.0325 62.243 61.0699 62.2394L101.844 58.0066C101.865 58.0038 101.886 58.0058 101.906 58.0124C101.926 58.019 101.945 58.03 101.96 58.0447C101.975 58.0588 101.988 58.076 101.996 58.0952C102.005 58.1144 102.009 58.1352 102.009 58.1562V64.7943C102.009 64.8288 101.998 64.8624 101.977 64.8896C101.956 64.9168 101.926 64.9359 101.893 64.9439L61.1192 74.5652L61.0844 74.5682ZM61.2352 62.5415V74.2308L101.71 64.6887V58.3351L61.2352 62.5415Z" fill="#231F20"/>
<path d="M16.3613 51.433V58.693L61.0851 74.4186V60.0071L16.3613 51.433Z" fill="white"/>
<path d="M61.0846 74.5682H61.0353L16.3115 58.8367C16.2825 58.8259 16.2574 58.8063 16.2398 58.7806C16.2222 58.7549 16.2128 58.7243 16.2129 58.693V51.433C16.2132 51.4109 16.2179 51.389 16.2269 51.3688C16.2359 51.3487 16.2489 51.3306 16.2651 51.3157C16.2822 51.3013 16.3023 51.291 16.3239 51.2854C16.3454 51.2798 16.3679 51.2791 16.3898 51.2834L61.1136 59.8575C61.1479 59.8643 61.1788 59.883 61.201 59.9103C61.2232 59.9375 61.2354 59.9718 61.2354 60.0071V74.4186C61.2345 74.4427 61.2283 74.4662 61.2173 74.4875C61.2063 74.5088 61.1907 74.5274 61.1716 74.5418C61.1459 74.5593 61.1156 74.5685 61.0846 74.5682ZM16.5116 58.5874L60.9338 74.2133V60.1333L16.5116 51.6266V58.5874Z" fill="#231F20"/>
<path d="M91.1872 57.2C91.1872 57.2 95.2704 33.0146 91.8397 29.5914C88.409 26.1682 72.7287 25.5288 69.2197 26.4498C65.7107 27.3709 63.0195 51.8496 63.0195 51.8496L91.1872 57.2Z" fill="#231F20"/>
<path d="M91.1877 57.3378H91.1616L62.9881 51.9845C62.9522 51.9773 62.9203 51.9568 62.8988 51.9268C62.8773 51.8969 62.8678 51.8599 62.8721 51.8231C62.9823 50.8199 65.6097 27.2389 69.1796 26.3031C72.4537 25.4437 88.3718 25.9189 91.9417 29.4829C95.384 32.9178 91.498 56.229 91.3298 57.2175C91.3268 57.237 91.3198 57.2557 91.3093 57.2724C91.2989 57.289 91.2851 57.3033 91.2689 57.3143C91.245 57.3307 91.2166 57.3389 91.1877 57.3378ZM63.1737 51.7234L91.0601 57.021C91.3936 54.997 94.9316 32.8797 91.73 29.6882C90.28 28.2391 86.1997 27.0893 80.536 26.529C76.0207 26.0831 71.0588 26.1066 69.2434 26.5818C68.2806 26.8341 66.7523 29.2834 64.9311 39.5119C63.9335 45.1733 63.2781 50.7877 63.1737 51.7234Z" fill="#231F20"/>
<path d="M103.315 56.98V59.4587L61.3458 68.2998L14.4238 52.0491V50.072L103.315 56.98Z" fill="white"/>
<path d="M61.3463 68.4463C61.331 68.4492 61.3152 68.4492 61.2999 68.4463L14.3779 52.1957C14.3496 52.1856 14.3249 52.1669 14.3073 52.1423C14.2897 52.1177 14.2799 52.0882 14.2793 52.0578V50.0719C14.2792 50.0517 14.2833 50.0316 14.2913 50.013C14.2993 49.9944 14.3111 49.9776 14.3258 49.9639C14.3405 49.9501 14.3579 49.9395 14.3768 49.9329C14.3958 49.9262 14.4159 49.9237 14.4359 49.9253L103.327 56.8333C103.363 56.8362 103.397 56.853 103.422 56.8802C103.447 56.9074 103.46 56.943 103.46 56.9799V59.4586C103.46 59.4924 103.449 59.5252 103.427 59.5514C103.406 59.5776 103.377 59.5956 103.344 59.6023L61.3782 68.4405L61.3463 68.4463ZM14.5693 51.9434L61.3579 68.1472L103.17 59.3471V57.1266L14.5693 50.2303V51.9434Z" fill="#231F20"/>
<path d="M84.6389 30.6269C86.0106 35.684 82.78 59.4616 82.78 59.4616L63.8865 51.9904C63.8865 51.9904 67.7667 47.2736 63.1267 37.3882C61.2301 33.3461 63.1818 31.2282 64.5042 30.0901C65.6149 29.1338 83.2643 25.5698 84.6389 30.6269Z" fill="#430099"/>
<path d="M44.9927 44.6365L103.315 56.9799L61.3458 65.161L14.4238 50.0719L44.9927 44.6365Z" fill="white"/>
<path d="M61.3463 65.3106H61.3028L14.3779 50.2157C14.3468 50.2046 14.3202 50.1835 14.3021 50.1556C14.284 50.1277 14.2754 50.0945 14.2777 50.0612C14.28 50.0279 14.2931 49.9963 14.3148 49.9712C14.3366 49.9462 14.3659 49.929 14.3982 49.9224L44.9671 44.4898C44.9852 44.4855 45.0041 44.4855 45.0222 44.4898L103.347 56.8333C103.381 56.8407 103.411 56.8596 103.433 56.8868C103.454 56.9141 103.466 56.948 103.466 56.9829C103.465 57.0176 103.452 57.0509 103.43 57.0775C103.408 57.1041 103.378 57.1224 103.344 57.1296L61.3753 65.3077L61.3463 65.3106ZM15.0507 50.113L61.355 65.0027L102.555 56.9741L44.9903 44.792L15.0507 50.113Z" fill="#231F20"/>
<path d="M63.9137 53.2371C63.9137 53.2371 49.7066 48.6934 49.4601 48.6934C49.2136 48.6934 31.2539 51.8115 31.2539 51.8115L46.1686 56.9712L63.9137 53.2371Z" fill="white"/>
<path d="M46.1674 57.1325C46.1511 57.1355 46.1344 57.1355 46.1181 57.1325L31.2034 51.9698C31.1721 51.9594 31.1452 51.9388 31.1268 51.9112C31.1084 51.8836 31.0996 51.8505 31.1019 51.8173C31.1046 51.7836 31.1184 51.7517 31.141 51.7268C31.1635 51.7018 31.1937 51.6852 31.2266 51.6794C33.0652 51.3597 49.2066 48.5583 49.4589 48.5583C49.7112 48.5583 60.6181 52.0343 63.9589 53.1021C63.9908 53.1109 64.0186 53.1306 64.0377 53.1579C64.0568 53.1852 64.0658 53.2184 64.0633 53.2517C64.062 53.2852 64.0495 53.3174 64.028 53.3429C64.0064 53.3685 63.977 53.3859 63.9444 53.3925L46.1964 57.1295L46.1674 57.1325ZM31.8559 51.8525L46.1761 56.8098L63.3209 53.193C59.1101 51.8495 49.804 48.8928 49.4444 48.837C49.1515 48.8752 38.1315 50.7789 31.8559 51.8672V51.8525Z" fill="#231F20"/>
<path d="M44.1603 55.1467C44.1412 55.1511 44.1214 55.1511 44.1023 55.1467L36.194 51.5475C36.1655 51.5343 36.142 51.5121 36.127 51.4842C36.112 51.4563 36.1063 51.4242 36.1109 51.3928C36.1155 51.3614 36.13 51.3323 36.1523 51.3099C36.1747 51.2876 36.2035 51.2732 36.2346 51.2689L45.4827 49.9518C45.5073 49.9445 45.5335 49.9445 45.5581 49.9518L53.7854 53.4894C53.8146 53.5015 53.839 53.523 53.8547 53.5506C53.8705 53.5782 53.8767 53.6103 53.8724 53.6419C53.8682 53.6739 53.8538 53.7036 53.8312 53.7264C53.8087 53.7492 53.7793 53.7638 53.7477 53.7681L44.1777 55.1467H44.1603ZM36.7711 51.4625L44.1835 54.8329L53.1938 53.5393L45.4827 50.2217L36.7711 51.4625Z" fill="#D1D3D4"/>
<path d="M46.168 56.98L63.9943 54.8563L63.9131 53.2371L46.168 55.6395V56.98Z" fill="white"/>
<path d="M46.1684 57.1325C46.1312 57.1319 46.0954 57.1185 46.0669 57.0944C46.0512 57.0799 46.0386 57.0622 46.0301 57.0425C46.0216 57.0228 46.0174 57.0015 46.0176 56.98V55.6395C46.0173 55.6027 46.0305 55.567 46.0546 55.5394C46.0787 55.5118 46.112 55.4942 46.1481 55.4899L63.8932 53.0933C63.9136 53.09 63.9345 53.0911 63.9544 53.0966C63.9744 53.102 63.993 53.1118 64.0089 53.1251C64.0248 53.1384 64.0378 53.1551 64.0468 53.1739C64.0559 53.1927 64.0608 53.2132 64.0614 53.2341L64.1455 54.8533C64.1472 54.8919 64.1344 54.9297 64.1096 54.9591C64.0849 54.9885 64.05 55.0073 64.0121 55.0117L46.1858 57.1384L46.1684 57.1325ZM46.3163 55.7715V56.8099L63.8381 54.7213L63.7714 53.4072L46.3163 55.7715Z" fill="#231F20"/>
<path d="M46.1673 56.98L42.9019 32.9824L27.877 32.2109L31.2526 51.8203L46.1673 56.98Z" fill="white"/>
<path d="M46.167 57.1325C46.1507 57.1355 46.134 57.1355 46.1177 57.1325L31.203 51.9698C31.1774 51.9614 31.1546 51.946 31.1372 51.9253C31.1198 51.9046 31.1084 51.8794 31.1044 51.8525L27.7288 32.2373C27.725 32.215 27.7261 32.1921 27.7321 32.1702C27.7381 32.1484 27.7489 32.1282 27.7636 32.1111C27.7784 32.0943 27.7968 32.0811 27.8174 32.0724C27.838 32.0638 27.8602 32.06 27.8825 32.0613L42.919 32.8298C42.954 32.8321 42.9872 32.8464 43.0131 32.8705C43.0389 32.8945 43.0559 32.9267 43.0611 32.9618L46.3265 56.9594C46.3297 56.9852 46.3263 57.0115 46.3167 57.0356C46.307 57.0597 46.2914 57.081 46.2714 57.0973C46.2572 57.1099 46.2406 57.1195 46.2227 57.1255C46.2048 57.1316 46.1858 57.1339 46.167 57.1325ZM31.377 51.7058L45.9785 56.757L42.7624 33.1261L28.0507 32.3722L31.377 51.7058Z" fill="#231F20"/>
<path d="M53.9159 52.6738H53.8666L48.9366 50.9138C48.8981 50.9107 48.8625 50.8923 48.8375 50.8626C48.8124 50.8329 48.8001 50.7943 48.8032 50.7554C48.8063 50.7165 48.8245 50.6805 48.8539 50.6552C48.8832 50.6299 48.9213 50.6174 48.9598 50.6205L51.7786 50.1746C51.8024 50.1687 51.8273 50.1687 51.8511 50.1746L56.8855 52.0344C56.9165 52.0454 56.9429 52.0669 56.9603 52.0951C56.9777 52.1234 56.985 52.1568 56.9812 52.1898C56.9772 52.2229 56.9621 52.2535 56.9383 52.2765C56.9145 52.2995 56.8835 52.3135 56.8507 52.316L53.9507 52.6474L53.9159 52.6738ZM49.5659 50.8376L53.9391 52.3776L56.204 52.1224L51.7844 50.4885L49.5659 50.8376Z" fill="#D1D3D4"/>
<path d="M84.9706 34.0531L86.0117 42.5334C86.6381 47.6696 87.0673 52.5947 85.1098 53.8326C83.1523 55.0704 66.2598 55.1144 66.2598 55.1144C66.5753 53.6704 66.6498 52.1833 66.4802 50.7144C66.4802 50.7144 80.4002 48.7022 80.2465 47.2971C80.0928 45.892 75.6819 36.3147 75.6065 34.0824C75.5311 31.8501 82.2881 32.4368 84.9706 34.0531Z" fill="#430099"/>
<path d="M64.5036 30.0902C64.5036 30.0902 55.1801 37.7696 55.2468 36.3176C55.2816 35.552 55.0786 27.9752 55.0786 27.9752L49.2583 28.2334C49.2583 28.2334 46.9586 40.659 48.9683 43.7184C51.5145 47.5904 55.1917 46.3379 60.0927 43.4486C66.3683 39.7467 67.9227 38.1686 67.9227 38.1686L64.5036 30.0902Z" fill="#430099"/>
<path d="M66.4673 50.7144C66.4673 50.7144 63.5673 50.8376 63.1816 50.2832C62.7959 49.7288 62.1695 49.0395 61.7983 48.972C61.4271 48.9046 56.8857 49.4326 57.1583 49.9107C57.4309 50.3888 59.3942 49.9782 59.3942 49.9782C59.3942 49.9782 57.689 50.4182 57.7673 50.9931C57.8456 51.568 58.24 51.5064 58.8925 51.2864C59.545 51.0664 61.1197 50.6822 61.1197 50.6822C61.1197 50.6822 58.7098 51.8115 58.6721 52.3952C58.6344 52.979 59.7973 52.6886 61.4358 51.8086C61.4358 51.8086 59.5276 53.023 60.1192 53.3809C60.7108 53.7387 62.0999 52.9995 62.0999 52.9995C62.0999 52.9995 62.7553 54.0702 63.6398 54.3371C64.5243 54.6041 66.3658 54.5806 66.3658 54.5806C66.3658 54.5806 67.2387 52.6035 66.4673 50.7144Z" fill="white"/>
<path d="M66.2493 54.7213C65.8346 54.7213 64.3643 54.7037 63.5842 54.469C62.8041 54.2343 62.2386 53.4775 62.0356 53.1813C61.6586 53.3661 60.5856 53.8383 60.0288 53.501C59.9738 53.4699 59.9278 53.4249 59.8952 53.3704C59.8627 53.3159 59.8448 53.2537 59.8432 53.1901C59.8868 52.9371 60.0197 52.7088 60.2173 52.5477C59.5909 52.8029 58.979 52.9583 58.6832 52.7706C58.6225 52.7292 58.5741 52.6718 58.5435 52.6045C58.5128 52.5373 58.5009 52.4628 58.5092 52.3893C58.5324 52.0226 59.1994 51.5474 59.8635 51.1631C59.5097 51.257 59.1588 51.3567 58.9268 51.433C58.5034 51.5738 58.1293 51.6765 57.8741 51.5151C57.795 51.458 57.7299 51.3834 57.6836 51.297C57.6374 51.2106 57.6113 51.1146 57.6073 51.0165C57.5667 50.7231 57.8219 50.4855 58.1496 50.2949C57.6421 50.3154 57.1607 50.2538 57.0128 49.9839C56.9911 49.9435 56.9815 49.8976 56.9851 49.8518C56.9887 49.806 57.0054 49.7622 57.0331 49.7258C57.413 49.1919 61.4759 48.7607 61.8268 48.8253C62.2995 48.9103 62.9868 49.7581 63.3029 50.1951C63.5349 50.5325 65.2894 50.6146 66.461 50.5647C66.4918 50.5631 66.5224 50.5713 66.5484 50.5881C66.5744 50.605 66.5945 50.6296 66.606 50.6586C67.3919 52.5858 66.5277 54.5511 66.49 54.6333C66.4784 54.6593 66.4596 54.6814 66.436 54.697C66.4123 54.7126 66.3848 54.721 66.3566 54.7213H66.2493ZM62.0878 52.8351C62.1135 52.8354 62.1387 52.8422 62.161 52.855C62.1833 52.8679 62.202 52.8863 62.2154 52.9085C62.2154 52.9085 62.8534 53.9351 63.6654 54.1786C64.402 54.4015 65.8578 54.4191 66.2493 54.4191C66.4001 54.029 66.9482 52.4245 66.3624 50.8698C65.6838 50.8933 63.4392 50.9285 63.0535 50.3711C62.6011 49.7199 62.0356 49.1714 61.7659 49.1215C61.3164 49.0394 57.7059 49.541 57.2999 49.8754C57.5087 50.0602 58.4947 50.0074 59.3473 49.8314C59.3659 49.8271 59.3853 49.8265 59.4042 49.8298C59.423 49.8331 59.4411 49.8401 59.4572 49.8505C59.4734 49.8608 59.4874 49.8743 59.4984 49.8902C59.5094 49.906 59.5172 49.9239 59.5213 49.9429C59.5261 49.9619 59.5271 49.9818 59.5243 50.0012C59.5215 50.0207 59.5149 50.0394 59.5049 50.0563C59.495 50.0732 59.4818 50.0879 59.4662 50.0997C59.4506 50.1114 59.4328 50.1199 59.414 50.1247C58.7789 50.289 57.8567 50.6733 57.8973 50.9725C57.8958 51.0279 57.9065 51.0829 57.9286 51.1336C57.9507 51.1843 57.9835 51.2295 58.0249 51.2658C58.1728 51.3597 58.5179 51.2658 58.8282 51.1543C59.4807 50.9373 61.0003 50.5677 61.067 50.5471C61.086 50.5408 61.1061 50.5383 61.1261 50.5398C61.1461 50.5413 61.1656 50.5467 61.1835 50.5559C61.2014 50.565 61.2174 50.5776 61.2305 50.593C61.2436 50.6083 61.2535 50.6261 61.2598 50.6454C61.2661 50.6647 61.2686 50.685 61.2671 50.7052C61.2656 50.7254 61.2602 50.7452 61.2512 50.7633C61.2422 50.7814 61.2297 50.7975 61.2145 50.8108C61.1993 50.824 61.1817 50.8341 61.1627 50.8405C60.0433 51.3655 58.8224 52.1194 58.8021 52.4274C58.8021 52.5037 58.8253 52.5213 58.8398 52.533C59.0022 52.6386 59.7098 52.577 61.3454 51.6794C61.3791 51.6652 61.4168 51.6638 61.4514 51.6755C61.486 51.6873 61.5153 51.7113 61.5337 51.7432C61.5521 51.7751 61.5585 51.8127 61.5516 51.849C61.5447 51.8852 61.525 51.9178 61.4962 51.9405C60.8408 52.3599 60.1332 52.9613 60.1361 53.2018C60.1361 53.2165 60.1361 53.2341 60.1767 53.2575C60.603 53.5157 61.647 53.0669 62.0124 52.8703C62.0338 52.8518 62.0599 52.8396 62.0878 52.8351Z" fill="#231F20"/>
<path d="M68.6389 50.5295C68.6043 50.5264 68.5719 50.5112 68.5474 50.4864C68.5228 50.4616 68.5076 50.4288 68.5045 50.3939C68.5014 50.3589 68.5105 50.324 68.5303 50.2951C68.5501 50.2663 68.5793 50.2454 68.6128 50.2362L79.975 48.2356C79.2345 46.246 78.6052 44.2159 78.09 42.1548C76.9474 37.529 76.7734 34.0148 77.5709 31.7063C77.5768 31.6873 77.5864 31.6698 77.5992 31.6547C77.6119 31.6396 77.6276 31.6273 77.6453 31.6185C77.6629 31.6097 77.6821 31.6046 77.7017 31.6036C77.7213 31.6026 77.741 31.6056 77.7594 31.6124C77.797 31.6257 77.8279 31.6536 77.8453 31.6899C77.8627 31.7261 77.8652 31.7679 77.8522 31.806C75.9962 37.1887 80.2766 48.1887 80.3201 48.2972C80.33 48.3172 80.3352 48.3393 80.3352 48.3618C80.3352 48.3842 80.33 48.4063 80.3201 48.4263C80.3092 48.4459 80.2942 48.4629 80.2762 48.476C80.2582 48.4892 80.2375 48.4982 80.2157 48.5026L68.6737 50.5354L68.6389 50.5295Z" fill="#231F20"/>
<path d="M61.3471 68.4494C61.3078 68.4494 61.2702 68.4336 61.2425 68.4056C61.2147 68.3775 61.1992 68.3394 61.1992 68.2998V65.1611C61.1927 65.1384 61.1916 65.1145 61.1959 65.0913C61.2002 65.0681 61.2097 65.0462 61.2238 65.0274C61.2378 65.0085 61.256 64.9932 61.2769 64.9827C61.2978 64.9722 61.3208 64.9667 61.3442 64.9667C61.3675 64.9667 61.3905 64.9722 61.4114 64.9827C61.4323 64.9932 61.4505 65.0085 61.4645 65.0274C61.4786 65.0462 61.4881 65.0681 61.4924 65.0913C61.4967 65.1145 61.4956 65.1384 61.4892 65.1611V68.2998C61.4892 68.3384 61.4744 68.3756 61.4479 68.4035C61.4214 68.4314 61.3853 68.4479 61.3471 68.4494Z" fill="#231F20"/>
<path d="M65.3923 45.8392C65.354 45.8392 65.3173 45.8243 65.2897 45.7975C65.2621 45.7707 65.2459 45.7341 65.2444 45.6955C65.1429 43.5718 64.5774 41.9144 64.0844 40.4507C63.7445 39.5872 63.5061 38.6864 63.3739 37.7667C63.3536 37.5584 63.3333 37.359 63.3159 37.18C63.1535 35.5432 63.0259 34.2467 63.9858 31.3427C63.9984 31.3048 64.0252 31.2734 64.0604 31.2553C64.0957 31.2372 64.1366 31.2338 64.1743 31.2459C64.1928 31.2522 64.2099 31.2621 64.2246 31.2751C64.2393 31.2881 64.2513 31.3039 64.26 31.3217C64.2686 31.3394 64.2737 31.3587 64.2749 31.3784C64.2761 31.3981 64.2734 31.4179 64.2671 31.4366C63.3304 34.2848 63.4493 35.4875 63.6146 37.1507C63.632 37.3443 63.6523 37.5438 63.6697 37.752C63.8008 38.6476 64.0343 39.5246 64.3657 40.3656C64.8732 41.8499 65.4474 43.5278 65.5489 45.6955C65.5505 45.7355 65.5364 45.7745 65.5099 45.8041C65.4833 45.8337 65.4463 45.8516 65.4068 45.8539L65.3923 45.8392Z" fill="#231F20"/>
<path d="M73.836 61.0544C76.469 61.0544 78.6036 60.4043 78.6036 59.6024C78.6036 58.8005 76.469 58.1504 73.836 58.1504C71.2029 58.1504 69.0684 58.8005 69.0684 59.6024C69.0684 60.4043 71.2029 61.0544 73.836 61.0544Z" fill="white"/>
<path d="M73.8362 61.2069C71.4524 61.2069 68.9062 60.6437 68.9062 59.6023C68.9062 58.561 71.4408 58.0007 73.8362 58.0007C76.2316 58.0007 78.7662 58.561 78.7662 59.6023C78.7662 60.6437 76.2229 61.2069 73.8362 61.2069ZM73.8362 58.3029C71.116 58.3029 69.2165 58.9863 69.2165 59.6023C69.2165 60.2183 71.116 60.9047 73.8362 60.9047C76.5564 60.9047 78.4559 60.2183 78.4559 59.6023C78.4559 58.9863 76.5593 58.3029 73.8362 58.3029Z" fill="#231F20"/>
<path d="M70.2435 55.6541L70.1275 55.6747C69.7864 55.728 69.4767 55.9066 69.2575 56.1763C69.1328 56.3689 69.064 56.5931 69.0589 56.8233C69.0538 57.0535 69.1125 57.2805 69.2285 57.4787C69.7331 58.4027 70.9685 58.652 71.9168 58.7488C72.0509 58.7698 72.1879 58.7587 72.317 58.7165C72.3811 58.6939 72.4368 58.6519 72.4767 58.5964C72.5166 58.5408 72.5388 58.4743 72.5403 58.4056C72.5333 58.3503 72.5127 58.2976 72.4802 58.2525C72.4478 58.2073 72.4046 58.1712 72.3547 58.1475C72.255 58.1001 72.1481 58.0704 72.0386 58.0595C71.4398 57.9982 70.8533 57.8469 70.2986 57.6107C69.9825 57.4493 69.5417 57.0797 69.7708 56.6837C69.8508 56.5547 69.9669 56.4526 70.1043 56.3904C70.6466 56.1293 71.1628 56.3259 71.6993 56.4872C71.7382 56.5018 71.7797 56.5078 71.8211 56.5048C71.9255 56.5048 71.9835 56.3669 71.9748 56.2613C71.9574 56.0237 71.7254 55.8683 71.505 55.7832C71.103 55.6287 70.6679 55.5842 70.2435 55.6541Z" fill="white"/>
<path d="M72.0672 58.9072C72.0093 58.9102 71.9512 58.9102 71.8932 58.9072C70.4258 58.7664 69.5065 58.3205 69.0889 57.5608C68.9581 57.3375 68.8922 57.0814 68.8989 56.822C68.9056 56.5625 68.9845 56.3102 69.1266 56.0941C69.3727 55.7945 69.7179 55.5954 70.0981 55.5339L70.2199 55.5133C70.6647 55.4454 71.1192 55.495 71.5394 55.6571C71.8845 55.792 72.0846 56.0061 72.1049 56.2643C72.117 56.3568 72.0937 56.4505 72.0398 56.5262C71.9859 56.602 71.9055 56.6541 71.8149 56.672C71.7522 56.6761 71.6892 56.6681 71.6293 56.6485L71.4901 56.6045C71.0261 56.4637 70.5882 56.3288 70.1445 56.5429C70.0338 56.5883 69.9396 56.6672 69.8748 56.7688C69.8541 56.8031 69.8406 56.8414 69.8351 56.8813C69.8296 56.9212 69.8323 56.9618 69.8429 57.0005C69.9453 57.2169 70.1214 57.3888 70.3388 57.4845C70.8126 57.6939 71.3153 57.8284 71.8294 57.8835L72.0498 57.9187C72.176 57.9313 72.2989 57.9671 72.4123 58.0243C72.4957 58.0614 72.5658 58.1236 72.6131 58.2024C72.6603 58.2812 72.6824 58.3728 72.6764 58.4647C72.6704 58.5567 72.6365 58.6445 72.5794 58.7164C72.5223 58.7882 72.4448 58.8405 72.3572 58.8661C72.2638 58.8975 72.1656 58.9114 72.0672 58.9072ZM70.2663 55.8037L70.1561 55.8213C69.8488 55.8674 69.5685 56.0248 69.3673 56.2643C69.259 56.4337 69.1999 56.6305 69.1969 56.8323C69.1938 57.034 69.2468 57.2326 69.3499 57.4053C69.7182 58.0771 70.5592 58.4672 71.9222 58.5963C72.0326 58.6146 72.1456 58.6076 72.2528 58.5757C72.2872 58.5722 72.3193 58.5565 72.3435 58.5315C72.3677 58.5065 72.3825 58.4737 72.3852 58.4388C72.388 58.404 72.3786 58.3692 72.3586 58.3406C72.3387 58.3121 72.3095 58.2914 72.276 58.2824C72.1908 58.2424 72.0997 58.2167 72.0063 58.2061L71.7888 58.1709C71.2434 58.1128 70.7102 57.9694 70.2083 57.7456C69.9183 57.6114 69.6879 57.373 69.5616 57.0768C69.539 56.9986 69.5327 56.9164 69.5432 56.8356C69.5537 56.7548 69.5807 56.6771 69.6225 56.6075C69.7162 56.4524 69.855 56.3305 70.0198 56.2584C70.5679 55.9944 71.0841 56.1528 71.5829 56.3053L71.7221 56.3493C71.7414 56.3516 71.7609 56.3516 71.7801 56.3493C71.79 56.3383 71.7974 56.3252 71.8019 56.3111C71.8064 56.2969 71.8079 56.282 71.8062 56.2672C71.7917 56.0795 71.5394 55.9739 71.4321 55.9181C71.0624 55.7768 70.6631 55.7334 70.2721 55.792L70.2663 55.8037Z" fill="#231F20"/>
<path d="M70.6875 54.6655C70.6875 54.6655 71.5807 59.1711 71.6532 59.441C71.7257 59.7109 74.0979 60.409 75.516 59.7343L76.9863 55.129L70.6875 54.6655Z" fill="white"/>
<path d="M74.0249 60.1714C73.2715 60.1738 72.5246 60.0315 71.8238 59.7519C71.6324 59.661 71.5338 59.5759 71.5106 59.4791C71.4381 59.2063 70.5768 54.8767 70.542 54.6949C70.5374 54.6716 70.5382 54.6477 70.5443 54.6248C70.5503 54.6019 70.5614 54.5807 70.5768 54.5629C70.5919 54.5456 70.6108 54.5322 70.6319 54.5235C70.653 54.5149 70.6758 54.5113 70.6986 54.513L76.9974 54.9765C77.0199 54.978 77.0418 54.9847 77.0614 54.9961C77.081 55.0075 77.0977 55.0233 77.1103 55.0423C77.1229 55.0613 77.1311 55.083 77.1341 55.1056C77.1371 55.1283 77.135 55.1513 77.1279 55.173L75.6605 59.7783C75.6536 59.7982 75.6429 59.8165 75.6289 59.8321C75.615 59.8477 75.5981 59.8603 75.5793 59.8693C75.089 60.0831 74.5585 60.1862 74.0249 60.1714ZM70.8726 54.8298C71.1916 56.4285 71.7426 59.2005 71.7977 59.3999C71.9514 59.5818 74.0423 60.2213 75.3937 59.6229L76.7857 55.2639L70.8726 54.8298Z" fill="#231F20"/>
<path d="M77.0017 54.9267C77.0326 54.1643 75.6449 53.4876 73.9022 53.4153C72.1595 53.3429 70.7217 53.9023 70.6908 54.6647C70.6598 55.4271 72.0475 56.1038 73.7902 56.1761C75.5329 56.2485 76.9707 55.6891 77.0017 54.9267Z" fill="#231F20"/>
<path d="M74.0952 56.32H73.782C72.9992 56.3027 72.2275 56.1293 71.5113 55.8096C70.8704 55.4957 70.5282 55.0851 70.5456 54.6539C70.563 54.2227 70.9371 53.8443 71.6012 53.5861C73.1005 53.0902 74.7263 53.1579 76.1803 53.7768C76.8212 54.0877 77.1634 54.4984 77.146 54.9296C77.1141 55.7333 75.7975 56.32 74.0952 56.32ZM73.5964 53.5451C72.9529 53.5324 72.3125 53.6367 71.7056 53.8531C71.1633 54.0643 70.8356 54.3576 70.8356 54.6627C70.8356 54.9677 71.1256 55.2845 71.6389 55.5427C72.3206 55.8456 73.0549 56.0091 73.7994 56.0237C75.6003 56.1 76.8357 55.5104 76.8618 54.9149H77.0039H76.8618C76.8618 54.6216 76.5718 54.2901 76.0585 54.0349C75.3768 53.7313 74.6426 53.5668 73.898 53.5509L73.5964 53.5451Z" fill="#231F20"/>
<path d="M70.1254 13.989C70.1254 13.989 67.0601 14.0976 66.1611 15.5965C65.2621 17.0954 65.3839 19.313 64.2268 20.7533C63.0697 22.1936 61.6516 25.2794 62.3853 26.8605C63.119 28.4416 70.7489 28.861 74.7451 27.0277C78.7413 25.1944 78.9414 21.9178 78.6398 19.8352C78.3382 17.7525 76.8766 12.097 70.1254 13.989Z" fill="white"/>
<path d="M67.9985 28.3795C67.7781 28.3795 67.5577 28.3795 67.3373 28.3795C65.1768 28.3179 62.6973 27.9043 62.2536 26.9334C61.5054 25.323 62.8771 22.2078 64.1125 20.6707C64.7302 19.8992 64.9825 18.8784 65.2174 17.887C65.373 17.0679 65.6487 16.277 66.0352 15.5403C66.9371 14.0326 69.8226 13.8712 70.0952 13.8595C72.3978 13.2171 74.3147 13.3872 75.7937 14.3611C77.9832 15.8072 78.6096 18.6672 78.7778 19.8318C79.1171 22.1784 78.7024 25.3846 74.7961 27.1651C73.1112 27.9366 70.6085 28.3795 67.9985 28.3795ZM72.6385 13.7539C71.7962 13.7657 70.9593 13.892 70.1503 14.1294H70.1184C70.0865 14.1294 67.1198 14.2526 66.2701 15.6664C65.8977 16.3811 65.6337 17.1485 65.4871 17.9427C65.2406 18.9635 64.9825 20.0195 64.3271 20.8379C63.1149 22.3515 61.836 25.3464 62.5088 26.7926C63.1555 28.1859 70.594 28.7579 74.6743 26.8864C78.4153 25.1704 78.8126 22.1139 78.4878 19.8464C78.3254 18.723 77.7222 15.9627 75.6313 14.5811C74.7396 14.0148 73.7027 13.7271 72.6501 13.7539H72.6385Z" fill="#231F20"/>
<path d="M75.5826 31.3016C75.5826 31.3016 73.0915 37.4616 71.018 37.2915C68.9445 37.1214 69.0199 32.5366 69.0199 32.5366L75.5826 31.3016Z" fill="#231F20"/>
<path d="M71.1025 37.441H71.0068C68.826 37.2621 68.8608 32.7301 68.8637 32.5394C68.8632 32.5058 68.8747 32.4731 68.8959 32.4473C68.9172 32.4215 68.9469 32.4042 68.9797 32.3986L75.5569 31.1607C75.5819 31.1552 75.608 31.157 75.6321 31.1658C75.6562 31.1746 75.6774 31.1902 75.6932 31.2106C75.7101 31.231 75.7213 31.2558 75.7254 31.2821C75.7294 31.3085 75.7263 31.3355 75.7164 31.3602C75.6149 31.6095 73.2311 37.441 71.1025 37.441ZM69.1508 32.6597C69.1508 33.3695 69.2958 37.0039 71.03 37.1477C72.5699 37.2767 74.5738 33.3343 75.3452 31.4951L69.1508 32.6597Z" fill="#231F20"/>
<path d="M69.5643 28.2509L69.0191 32.5365C69.0191 32.5365 69.718 34.2965 72.5658 34.0237C74.3232 33.8477 75.5963 31.3016 75.5963 31.3016L76.1589 22.8976C76.1589 22.8976 72.2091 20.6976 69.9326 16.8901C69.9326 16.8901 68.0592 20.0171 66.6904 19.712C66.6904 19.712 66.2467 23.9331 66.7426 26.0803C67.2385 28.2275 69.5643 28.2509 69.5643 28.2509Z" fill="white"/>
<path d="M71.9421 34.1997C69.5351 34.1997 68.9 32.6626 68.871 32.5922C68.8654 32.5681 68.8654 32.543 68.871 32.5189L69.4075 28.3858C68.8536 28.333 67.044 28.0074 66.609 26.1125C66.1131 23.9653 66.5365 19.8674 66.5568 19.6944C66.5588 19.6741 66.5649 19.6544 66.5749 19.6367C66.5849 19.619 66.5985 19.6037 66.6148 19.5917C66.6316 19.5801 66.6505 19.572 66.6705 19.568C66.6904 19.5639 66.7109 19.564 66.7308 19.5682C67.7748 19.8029 69.3118 17.6586 69.8164 16.8138C69.8303 16.7933 69.8489 16.7764 69.8706 16.7648C69.8923 16.7532 69.9165 16.7471 69.9411 16.7471C69.9657 16.7471 69.99 16.7532 70.0117 16.7648C70.0334 16.7764 70.052 16.7933 70.0658 16.8138C72.3017 20.5421 76.1848 22.748 76.2225 22.7685C76.2463 22.7824 76.2659 22.8025 76.2792 22.8268C76.2925 22.8511 76.299 22.8786 76.298 22.9064L75.7354 31.3104C75.7331 31.3299 75.7272 31.3488 75.718 31.3661C75.6658 31.4746 74.3897 33.9885 72.5743 34.1674C72.3643 34.1895 72.1533 34.2003 71.9421 34.1997ZM69.1552 32.516C69.2654 32.7565 70.0252 34.1264 72.5366 33.877C74.1026 33.7216 75.3004 31.5304 75.4367 31.2605L75.9934 22.9797C75.4279 22.6453 72.0407 20.545 69.9324 17.1688C69.4974 17.8405 68.0445 19.9466 66.8207 19.8762C66.7482 20.6448 66.4524 24.1736 66.8816 26.0362C67.3456 28.0426 69.4742 28.0896 69.5641 28.0896C69.5848 28.0898 69.6051 28.0944 69.6238 28.1032C69.6425 28.112 69.6592 28.1248 69.6726 28.1406C69.6861 28.1564 69.696 28.175 69.7018 28.195C69.7076 28.215 69.7091 28.2361 69.7062 28.2568L69.1552 32.516Z" fill="#231F20"/>
<path d="M69.2715 30.5067C69.7553 30.5645 70.2457 30.5023 70.7005 30.3254C71.1552 30.1486 71.5605 29.8625 71.8815 29.4918C73.0154 28.2099 72.7515 27.9781 72.7515 27.9781C71.7207 28.3038 70.632 28.3979 69.5615 28.2539L69.2715 30.5067Z" fill="#231F20"/>
<path d="M69.6209 30.6768C69.4956 30.678 69.3704 30.6682 69.2468 30.6475C69.2104 30.641 69.1778 30.6207 69.1557 30.5907C69.1336 30.5607 69.1237 30.5233 69.1279 30.4861L69.4179 28.2333C69.42 28.2141 69.426 28.1955 69.4354 28.1787C69.4448 28.1618 69.4574 28.1471 69.4726 28.1353C69.4878 28.1235 69.5051 28.115 69.5236 28.1101C69.5421 28.1053 69.5614 28.1043 69.5803 28.1072C70.6304 28.2477 71.6981 28.1557 72.7094 27.8373C72.7345 27.8287 72.7613 27.8268 72.7873 27.832C72.8132 27.8371 72.8374 27.8491 72.8573 27.8666C72.8979 27.9048 72.982 28.0192 72.8834 28.3008C72.6595 28.777 72.3575 29.2114 71.9902 29.5856C71.6948 29.9275 71.3306 30.2017 70.922 30.3899C70.5134 30.5781 70.0699 30.6759 69.6209 30.6768ZM69.4353 30.3835C69.8741 30.4127 70.3137 30.3389 70.7196 30.1679C71.1256 29.997 71.487 29.7334 71.7756 29.3979C72.3846 28.7085 72.5673 28.3477 72.6224 28.1805C71.669 28.448 70.6739 28.5287 69.6905 28.4181L69.4353 30.3835Z" fill="#231F20"/>
<path d="M70.5097 21.4514C70.5097 21.4514 69.138 23.7101 69.4976 24.0914C69.8572 24.4727 70.8171 24.1706 70.8171 24.1706" fill="white"/>
<path d="M70.1049 24.4112C69.8485 24.4309 69.5948 24.3488 69.3972 24.1824C68.9999 23.7747 69.9569 22.0851 70.3862 21.3752C70.4065 21.3422 70.4391 21.3186 70.4766 21.3098C70.5141 21.301 70.5536 21.3077 70.5863 21.3283C70.6189 21.3489 70.6422 21.3818 70.6509 21.4198C70.6596 21.4577 70.653 21.4976 70.6327 21.5307C69.9337 22.6805 69.4523 23.8216 69.6031 23.9741C69.8467 24.2235 70.5341 24.0885 70.7777 24.0152C70.8142 24.0042 70.8535 24.0082 70.8872 24.0263C70.9208 24.0444 70.9461 24.0752 70.9575 24.112C70.9684 24.1494 70.9646 24.1896 70.9467 24.2241C70.9288 24.2586 70.8984 24.2847 70.8618 24.2968C70.6154 24.3676 70.361 24.4061 70.1049 24.4112Z" fill="#231F20"/>
<path d="M72.3204 21.7419C72.5174 21.7171 72.6491 21.4689 72.6144 21.1875C72.5797 20.9062 72.3918 20.6983 72.1947 20.7232C71.9977 20.748 71.866 20.9962 71.9007 21.2776C71.9354 21.5589 72.1233 21.7668 72.3204 21.7419Z" fill="#231F20"/>
<path d="M69.2086 21.4454C69.2574 21.1662 69.1384 20.9116 68.9428 20.8766C68.7473 20.8417 68.5492 21.0397 68.5004 21.3188C68.4516 21.598 68.5707 21.8527 68.7662 21.8876C68.9618 21.9226 69.1599 21.7246 69.2086 21.4454Z" fill="#231F20"/>
<path d="M70.3907 26.1066C70.0161 26.1232 69.6452 26.0255 69.3261 25.8263C69.0071 25.627 68.7546 25.3353 68.6014 24.989C68.5928 24.9669 68.5899 24.9429 68.593 24.9193C68.596 24.8957 68.6049 24.8733 68.6188 24.8541C68.6322 24.8348 68.65 24.819 68.6707 24.8083C68.6914 24.7975 68.7145 24.7921 68.7377 24.7925C72.0293 24.7925 72.0467 24.8101 72.1018 24.8717C72.116 24.8868 72.1268 24.9048 72.1333 24.9246C72.1398 24.9444 72.1419 24.9654 72.1395 24.9861C72.1382 25.0117 72.1291 25.0364 72.1134 25.0565C72.0844 25.0976 71.4029 26.0421 70.5822 26.1008L70.3907 26.1066ZM68.9756 25.0858C69.1449 25.3464 69.3838 25.5531 69.6646 25.6819C69.9454 25.8106 70.2565 25.8562 70.5619 25.8133C71.0288 25.781 71.4667 25.3704 71.7016 25.1093C71.1593 25.0976 69.9094 25.0917 68.9756 25.0917V25.0858Z" fill="#231F20"/>
<path d="M76.6384 21.4749C76.6384 21.4749 77.7723 16.5528 75.6669 14.6432C73.5615 12.7336 70.125 13.9891 70.125 13.9891C70.125 13.9891 73.9878 13.7456 74.7853 15.5115C75.5828 17.2773 74.9419 22.308 74.9419 22.308L76.6384 21.4749Z" fill="white"/>
<path d="M74.9409 22.4546C74.9094 22.4553 74.8787 22.445 74.8539 22.4253C74.8331 22.4095 74.8168 22.3885 74.8066 22.3643C74.7964 22.34 74.7927 22.3136 74.7959 22.2874C74.7959 22.2376 75.4223 17.2744 74.6538 15.5701C73.9056 13.9186 70.1704 14.1328 70.1327 14.1328C70.0981 14.1356 70.0636 14.1256 70.0358 14.1045C70.0081 14.0834 69.9889 14.0528 69.9819 14.0184C69.9743 13.9838 69.9796 13.9477 69.9967 13.9168C70.0138 13.886 70.0416 13.8626 70.0747 13.8512C70.2168 13.7984 73.6214 12.584 75.7645 14.5317C77.9076 16.4794 76.8259 21.3018 76.7766 21.5072C76.7721 21.5284 76.763 21.5484 76.75 21.5656C76.7369 21.5829 76.7203 21.597 76.7012 21.6069L75.0018 22.44C74.9828 22.4493 74.962 22.4543 74.9409 22.4546ZM71.2898 13.8482C72.5281 13.9216 74.3696 14.2413 74.9177 15.4498C75.6224 17.0133 75.2367 20.9792 75.1149 22.0586L76.5098 21.3722C76.6345 20.7856 77.4552 16.4618 75.5702 14.7517C74.2855 13.5842 72.4527 13.6458 71.2898 13.8482Z" fill="#231F20"/>
<path d="M78.145 23.4637C78.4417 21.9158 77.7496 20.478 76.599 20.2524C75.4485 20.0268 74.2753 21.0987 73.9786 22.6467C73.6819 24.1946 74.3741 25.6324 75.5246 25.858C76.6751 26.0836 77.8483 25.0117 78.145 23.4637Z" fill="white"/>
<path d="M75.6899 25.8133C75.58 25.8138 75.4703 25.8039 75.3622 25.784C74.1297 25.5464 73.3786 24.024 73.686 22.3989C73.8145 21.6544 74.1765 20.9715 74.7184 20.4512C74.9444 20.2195 75.2216 20.0455 75.5272 19.9435C75.8327 19.8415 76.1579 19.8145 76.4758 19.8646C77.7054 20.1022 78.4565 21.6246 78.1491 23.2496C77.8649 24.7339 76.8006 25.8133 75.6899 25.8133ZM76.1423 20.1374C75.6813 20.1528 75.2427 20.3422 74.9127 20.6683C74.4183 21.1464 74.0889 21.7727 73.9731 22.4547C73.6831 23.9213 74.3414 25.2883 75.4231 25.4936C76.5048 25.6989 77.5952 24.6752 77.8736 23.2056C78.1491 21.7389 77.5024 20.372 76.4236 20.1667C76.3296 20.1432 76.2333 20.1304 76.1365 20.1286L76.1423 20.1374Z" fill="#231F20"/>
<path d="M71.8188 27.3005C71.7804 27.3005 71.7435 27.2851 71.7163 27.2576C71.6891 27.2301 71.6738 27.1928 71.6738 27.1539C71.6738 27.115 71.6891 27.0776 71.7163 27.0501C71.7435 27.0226 71.7804 27.0072 71.8188 27.0072C72.8483 26.9515 74.5999 26.7285 74.9015 26.3619C75.2495 25.9336 75.4815 24.5637 75.5337 24.0738C75.536 24.0546 75.542 24.036 75.5514 24.0191C75.5608 24.0021 75.5734 23.9873 75.5885 23.9753C75.6035 23.9633 75.6208 23.9544 75.6393 23.9492C75.6577 23.944 75.677 23.9425 75.6961 23.9448C75.7151 23.9471 75.7335 23.9532 75.7503 23.9627C75.767 23.9722 75.7817 23.9849 75.7935 24.0002C75.8054 24.0154 75.8141 24.0329 75.8193 24.0516C75.8245 24.0703 75.826 24.0898 75.8237 24.109C75.8237 24.1853 75.6004 25.9659 75.1219 26.5467C74.6434 27.1275 72.1146 27.28 71.8275 27.3005H71.8188Z" fill="#231F20"/>
<path d="M72.8045 26.6289L71.2218 26.7735C71.0001 26.7938 70.8365 26.9913 70.8564 27.2148C70.8764 27.4383 71.0723 27.603 71.294 27.5828L72.8768 27.4382C73.0985 27.4179 73.2621 27.2204 73.2421 26.9969C73.2222 26.7734 73.0263 26.6087 72.8045 26.6289Z" fill="white"/>
<path d="M71.2527 27.7376C71.1165 27.7367 70.9855 27.6846 70.8853 27.5913C70.785 27.498 70.7227 27.3703 70.7104 27.2331C70.7 27.0894 70.7458 26.9473 70.8381 26.8376C70.9303 26.7278 71.0616 26.6591 71.2034 26.6464L72.7897 26.4998C72.9343 26.4871 73.078 26.5324 73.1899 26.6259C73.2725 26.6955 73.3329 26.788 73.3639 26.8921C73.3948 26.9962 73.3948 27.1071 73.3639 27.2112C73.333 27.3152 73.2726 27.4078 73.1901 27.4774C73.1076 27.5471 73.0067 27.5906 72.8999 27.6027L71.3136 27.7464L71.2527 27.7376ZM72.8419 26.7814H72.8158L71.2295 26.9251C71.1952 26.9287 71.1619 26.9392 71.1316 26.956C71.1013 26.9728 71.0745 26.9954 71.053 27.0227C71.0314 27.05 71.0154 27.0814 71.0059 27.115C70.9963 27.1485 70.9935 27.1837 70.9976 27.2184C71.0005 27.2526 71.0103 27.2857 71.0262 27.316C71.0422 27.3462 71.064 27.3729 71.0903 27.3944C71.1153 27.4172 71.1447 27.4345 71.1767 27.4451C71.2087 27.4557 71.2425 27.4594 71.2759 27.456L72.8622 27.3094C72.897 27.3065 72.9308 27.2965 72.9617 27.28C72.9925 27.2635 73.0197 27.2409 73.0417 27.2135C73.0636 27.1861 73.0799 27.1544 73.0894 27.1205C73.0989 27.0866 73.1016 27.051 73.0971 27.016C73.089 26.9477 73.0559 26.8849 73.0043 26.84C72.9585 26.8022 72.9011 26.7815 72.8419 26.7814Z" fill="#231F20"/>
<path d="M35.0138 15.4176C30.3303 15.4176 26.5312 18.2717 26.5312 21.7888C26.5312 23.8627 27.8508 25.7048 29.8924 26.8664L31.789 29.5827V27.6819C32.8345 28.002 33.9213 28.1632 35.0138 28.16C39.6973 28.16 43.4992 25.3088 43.4992 21.7888C43.4992 18.2688 39.6973 15.4176 35.0138 15.4176Z" fill="white"/>
<path d="M31.7904 29.7293C31.7671 29.7296 31.7441 29.7242 31.7234 29.7135C31.7026 29.7027 31.6848 29.687 31.6715 29.6677L29.7923 26.9866C27.6289 25.7341 26.3906 23.845 26.3906 21.7887C26.3906 18.1866 30.2592 15.2709 35.0152 15.2709C39.7712 15.2709 43.6398 18.2042 43.6398 21.7887C43.6398 25.3733 39.7712 28.3066 35.0152 28.3066C33.9734 28.3057 32.9368 28.1576 31.9354 27.8666V29.5709C31.9356 29.6022 31.9259 29.6328 31.9076 29.6582C31.8893 29.6835 31.8635 29.7023 31.8339 29.7117C31.8208 29.7205 31.806 29.7265 31.7904 29.7293ZM35.0152 15.5642C30.4187 15.5642 26.6806 18.3567 26.6806 21.7887C26.6806 23.7599 27.8754 25.5493 29.9634 26.7402C29.9829 26.7497 29.9998 26.7637 30.0127 26.7813L31.6454 29.1279V27.6818C31.6456 27.6591 31.651 27.6367 31.661 27.6164C31.6711 27.596 31.6856 27.5783 31.7034 27.5645C31.7222 27.5513 31.7436 27.5424 31.7661 27.5384C31.7887 27.5343 31.8118 27.5352 31.8339 27.541C32.868 27.8584 33.9433 28.0176 35.0239 28.0133C39.6204 28.0133 43.3585 25.2207 43.3585 21.7887C43.3585 18.3567 39.6117 15.5642 35.0152 15.5642Z" fill="#D1D3D4"/>
<path d="M30.9418 22.5133C31.3422 22.5133 31.6668 22.185 31.6668 21.78C31.6668 21.375 31.3422 21.0466 30.9418 21.0466C30.5414 21.0466 30.2168 21.375 30.2168 21.78C30.2168 22.185 30.5414 22.5133 30.9418 22.5133Z" fill="#D1D3D4"/>
<path d="M35.0141 22.5133C35.4145 22.5133 35.7391 22.185 35.7391 21.78C35.7391 21.375 35.4145 21.0466 35.0141 21.0466C34.6137 21.0466 34.2891 21.375 34.2891 21.78C34.2891 22.185 34.6137 22.5133 35.0141 22.5133Z" fill="#D1D3D4"/>
<path d="M39.0824 22.5133C39.4828 22.5133 39.8074 22.185 39.8074 21.78C39.8074 21.375 39.4828 21.0466 39.0824 21.0466C38.682 21.0466 38.3574 21.375 38.3574 21.78C38.3574 22.185 38.682 22.5133 39.0824 22.5133Z" fill="#D1D3D4"/>
<path d="M86.9988 39.5765H86.9843C86.945 39.5721 86.909 39.5525 86.8836 39.5219C86.8583 39.4914 86.8455 39.4521 86.848 39.4122C87.428 32.604 89.7334 30.1722 89.8291 30.0725C89.8578 30.0491 89.894 30.0371 89.9308 30.0389C89.9676 30.0406 90.0026 30.0559 90.029 30.0819C90.0554 30.1079 90.0715 30.1428 90.0742 30.18C90.0769 30.2171 90.0661 30.2541 90.0437 30.2837C90.0205 30.3072 87.7238 32.7565 87.1438 39.4386C87.1409 39.4757 87.1244 39.5104 87.0976 39.5359C87.0708 39.5614 87.0355 39.5759 86.9988 39.5765Z" fill="white"/>
</svg>
