<svg width="311" height="232" viewBox="0 0 311 232" fill="none" xmlns="http://www.w3.org/2000/svg">
<path d="M311 203.882H0V204.037H311V203.882Z" fill="#EBEBEB"/>
<path d="M147.414 176.112H27.312C26.3711 176.111 25.4694 175.735 24.8046 175.069C24.1399 174.402 23.7666 173.499 23.7666 172.557V3.55536C23.7748 2.61894 24.1517 1.72356 24.8156 1.06371C25.4794 0.403871 26.3765 0.0328541 27.312 0.03125H147.414C148.356 0.03125 149.259 0.40582 149.925 1.07256C150.591 1.7393 150.966 2.64359 150.966 3.58649V172.557C150.966 173.5 150.591 174.404 149.925 175.071C149.259 175.738 148.356 176.112 147.414 176.112ZM27.312 0.155777C26.4124 0.157427 25.5502 0.516323 24.9146 1.15369C24.2791 1.79106 23.9221 2.65481 23.9221 3.55536V172.557C23.9221 173.458 24.2791 174.321 24.9146 174.959C25.5502 175.596 26.4124 175.955 27.312 175.957H147.414C148.314 175.955 149.177 175.596 149.814 174.959C150.45 174.322 150.808 173.458 150.81 172.557V3.55536C150.808 2.65424 150.45 1.7905 149.814 1.15331C149.177 0.516121 148.314 0.157423 147.414 0.155777H27.312Z" fill="#EBEBEB"/>
<path d="M281.959 176.112H161.85C160.909 176.111 160.007 175.736 159.341 175.069C158.675 174.403 158.3 173.5 158.299 172.557V3.55536C158.309 2.61837 158.687 1.723 159.352 1.06333C160.017 0.403653 160.914 0.0328367 161.85 0.03125H281.959C282.893 0.0344905 283.789 0.406231 284.451 1.0659C285.114 1.72557 285.49 2.62001 285.498 3.55536V172.557C285.498 173.498 285.125 174.4 284.462 175.067C283.799 175.733 282.898 176.109 281.959 176.112ZM161.85 0.155777C160.95 0.157423 160.087 0.516121 159.451 1.15331C158.814 1.7905 158.456 2.65424 158.454 3.55536V172.557C158.456 173.458 158.814 174.322 159.451 174.959C160.087 175.596 160.95 175.955 161.85 175.957H281.959C282.859 175.955 283.722 175.596 284.358 174.959C284.995 174.322 285.353 173.458 285.355 172.557V3.55536C285.353 2.65424 284.995 1.7905 284.358 1.15331C283.722 0.516121 282.859 0.157423 281.959 0.155777H161.85Z" fill="#EBEBEB"/>
<path d="M124.674 209.81H108.502V209.965H124.674V209.81Z" fill="#EBEBEB"/>
<path d="M66.2801 208.122H32.6299V208.278H66.2801V208.122Z" fill="#EBEBEB"/>
<path d="M107.88 215.594H91.5088V215.749H107.88V215.594Z" fill="#EBEBEB"/>
<path d="M184.771 214.548H160.619V214.704H184.771V214.548Z" fill="#EBEBEB"/>
<path d="M196.956 214.548H190.307V214.704H196.956V214.548Z" fill="#EBEBEB"/>
<path d="M279.845 211.914H245.908V212.07H279.845V211.914Z" fill="#EBEBEB"/>
<path d="M237.019 198.353H265.413V120.231H237.019V198.353Z" fill="#F0F0F0"/>
<path d="M113.036 203.876L259.959 203.876V198.353L113.036 198.353V203.876Z" fill="#F0F0F0"/>
<path d="M237.019 120.231H107.587V198.353H237.019V120.231Z" fill="#F5F5F5"/>
<path d="M237.516 125.517H107.587V154.114H237.516V125.517Z" fill="#F0F0F0"/>
<path d="M237.516 159.326H107.587V187.924H237.516V159.326Z" fill="#F0F0F0"/>
<path d="M237.019 154.108H241.933V125.511H237.019V154.108Z" fill="#E6E6E6"/>
<path d="M237.019 187.924H241.933V159.326H237.019V187.924Z" fill="#E6E6E6"/>
<path d="M103.806 120.231L237.02 120.231V115.425L103.806 115.425V120.231Z" fill="#F0F0F0"/>
<path d="M269.382 115.424H237.02V120.231H269.382V115.424Z" fill="#E6E6E6"/>
<path d="M195.974 23.2745V94.1055H261.75V23.2745H195.974Z" fill="white"/>
<path d="M67.1699 203.882H83.0247L78.6147 201.279H71.5799L67.1699 203.882Z" fill="#F0F0F0"/>
<path d="M136.765 88.0527H170.253L165.843 115.424H141.175L136.765 88.0527Z" fill="#F0F0F0"/>
<path d="M150.219 96.9634C159.35 93.6572 166.342 88.6886 158.517 78.633C150.692 68.5774 138.569 68.6273 130.396 73.0791C119.984 78.7451 122.074 95.1515 122.074 95.1515C122.074 95.1515 141.088 100.276 150.219 96.9634Z" fill="#E0E0E0"/>
<path d="M159.095 87.8232C152.11 83.06 147.159 77.5497 155.264 71.7343C163.369 65.9189 173.364 68.9013 179.373 74.2995C187.029 81.1859 182.607 93.2712 182.607 93.2712C182.607 93.2712 166.074 92.5614 159.095 87.8232Z" fill="#E6E6E6"/>
<path d="M146.792 75.737C154.965 75.2451 161.82 73.1095 157.951 64.2494C154.082 55.3893 144.267 52.905 136.61 54.4242C126.826 56.3606 124.519 68.6141 124.519 68.6141C124.519 68.6141 138.626 76.2351 146.792 75.737Z" fill="#F0F0F0"/>
<path d="M157.055 70.5134C150.257 68.3217 144.926 65.0405 150.108 58.3845C155.289 51.7285 164.103 51.7659 170.261 54.7047C178.11 58.4405 177.414 69.3117 177.414 69.3117C177.414 69.3117 163.854 72.6989 157.055 70.5134Z" fill="#EBEBEB"/>
<path d="M144.304 59.1813C151.09 61.4228 157.329 61.9084 157.049 53.4779C156.769 45.0475 149.641 39.8796 142.936 38.597C134.383 37.003 128.562 46.1869 128.562 46.1869C128.562 46.1869 137.531 56.9211 144.304 59.1813Z" fill="#F5F5F5"/>
<path d="M161.527 55.5393C156.669 55.8756 152.471 55.1409 154.063 49.6181C155.655 44.0953 161.253 41.8974 165.881 42.2025C171.79 42.5948 174.085 49.6741 174.085 49.6741C174.085 49.6741 166.378 55.2094 161.527 55.5393Z" fill="#FAFAFA"/>
<path d="M155.5 232C222.105 232 276.1 228.844 276.1 224.952C276.1 221.059 222.105 217.903 155.5 217.903C88.8947 217.903 34.9004 221.059 34.9004 224.952C34.9004 228.844 88.8947 232 155.5 232Z" fill="#F5F5F5"/>
<path d="M260.78 122.117H49.4551V129.707H260.78V122.117Z" fill="#9D3CFE"/>
<path opacity="0.3" d="M106.014 122.117H49.4551V129.707H106.014V122.117Z" fill="white"/>
<path d="M106.915 129.708H101.995L104.57 224.834H106.915H109.26L111.841 129.708H106.915Z" fill="#9D3CFE"/>
<path opacity="0.3" d="M104.57 224.834H106.915V131.756L102.076 132.64L104.57 224.834Z" fill="white"/>
<path d="M60.2843 129.708H55.3643L57.9393 224.834H60.2843H62.6292L65.2043 129.708H60.2843Z" fill="#9D3CFE"/>
<path opacity="0.3" d="M57.9399 224.834H60.2848V131.756L55.4395 132.64L57.9399 224.834Z" fill="white"/>
<path d="M249.95 129.708H245.03L247.605 224.834H249.95H252.295L254.877 129.708H249.95Z" fill="#9D3CFE"/>
<path opacity="0.3" d="M247.606 224.834H249.951V131.756L245.111 132.64L247.606 224.834Z" fill="white"/>
<path d="M203.318 129.708H198.398L200.974 224.834H203.318H205.663L208.238 129.708H203.318Z" fill="#9D3CFE"/>
<path opacity="0.3" d="M200.975 224.834H203.32V131.756L198.48 132.64L200.975 224.834Z" fill="white"/>
<path d="M149.765 81.4903H99.5199C99.1122 81.4742 98.7064 81.5548 98.3357 81.7256C97.965 81.8964 97.6399 82.1525 97.387 82.4731C97.1341 82.7937 96.9605 83.1696 96.8804 83.5701C96.8003 83.9707 96.816 84.3845 96.9262 84.7778L103.619 116.75C103.834 117.654 104.338 118.464 105.054 119.056C105.77 119.648 106.659 119.99 107.587 120.031H157.87C158.277 120.047 158.682 119.967 159.052 119.796C159.422 119.626 159.747 119.37 159.999 119.05C160.252 118.731 160.426 118.356 160.507 117.956C160.587 117.556 160.572 117.143 160.463 116.75L153.765 84.7778C153.549 83.8674 153.041 83.0529 152.318 82.4591C151.596 81.8653 150.699 81.525 149.765 81.4903Z" fill="#263238"/>
<path d="M108.022 118.207C107.396 118.165 106.798 117.925 106.316 117.523C105.833 117.12 105.49 116.575 105.335 115.966L98.6427 83.9934C98.5854 83.7818 98.5764 83.56 98.6162 83.3445C98.656 83.129 98.7437 82.9251 98.8728 82.7481C99.0067 82.5965 99.1729 82.477 99.3592 82.3983C99.5454 82.3196 99.747 82.2838 99.9489 82.2936H150.231C150.858 82.3359 151.455 82.5755 151.938 82.9781C152.421 83.3806 152.764 83.9256 152.918 84.535L159.611 116.507C159.668 116.719 159.677 116.941 159.638 117.156C159.598 117.372 159.51 117.576 159.381 117.753C159.248 117.905 159.082 118.026 158.895 118.104C158.709 118.183 158.507 118.218 158.305 118.207H108.022Z" fill="white"/>
<path opacity="0.4" d="M145.958 115.648L139.614 85.3318C139.578 85.1524 139.582 84.9672 139.626 84.7896C139.67 84.612 139.753 84.4462 139.868 84.3041C139.983 84.1621 140.128 84.0472 140.293 83.9676C140.458 83.888 140.638 83.8457 140.82 83.8438H148.981C149.264 83.8459 149.538 83.9446 149.757 84.1234C149.976 84.3023 150.128 84.5506 150.188 84.8275L156.532 115.119C156.568 115.298 156.564 115.483 156.52 115.661C156.476 115.839 156.393 116.004 156.278 116.146C156.163 116.288 156.018 116.403 155.853 116.483C155.688 116.563 155.508 116.605 155.325 116.607H147.165C146.885 116.606 146.614 116.511 146.395 116.337C146.176 116.163 146.022 115.92 145.958 115.648Z" fill="#9D3CFE"/>
<path d="M102.829 86.4964L102.556 85.1826H112.632L112.906 86.4964H102.829Z" fill="#9D3CFE"/>
<path d="M107.482 89.7594L107.208 88.4395H124.867L125.146 89.7594H107.482Z" fill="#EBEBEB"/>
<path d="M108.415 93.0159L108.135 91.7021H127.933L128.207 93.0159H108.415Z" fill="#EBEBEB"/>
<path d="M109.341 96.2718L109.067 94.958H125.003L125.283 96.2718H109.341Z" fill="#EBEBEB"/>
<path d="M105.896 101.565L105.616 100.251H111.992L112.265 101.565H105.896Z" fill="#9D3CFE"/>
<path d="M110.542 104.821L110.269 103.507H118.031L118.311 104.821H110.542Z" fill="#EBEBEB"/>
<path d="M120.171 104.821L119.891 103.507H127.659L127.933 104.821H120.171Z" fill="#EBEBEB"/>
<path d="M111.475 108.084L111.201 106.764H137.45L137.723 108.084H111.475Z" fill="#EBEBEB"/>
<path d="M112.402 111.34L112.128 110.026H132.144L132.418 111.34H112.402Z" fill="#EBEBEB"/>
<path d="M173.239 119.839H107.083C105.279 119.839 104.11 120.866 104.489 122.124H177.207C176.834 120.866 175.043 119.839 173.239 119.839Z" fill="#263238"/>
<path opacity="0.1" d="M85.345 73.4092L78.9944 43.1118C78.9597 42.9327 78.9648 42.7483 79.0092 42.5714C79.0537 42.3946 79.1363 42.2296 79.2514 42.0883C79.3665 41.9469 79.5112 41.8326 79.6753 41.7534C79.8394 41.6742 80.0189 41.632 80.201 41.6299H131.578C131.86 41.6318 132.133 41.7295 132.353 41.9071C132.572 42.0847 132.724 42.3317 132.785 42.6074L139.136 72.8799C139.171 73.0594 139.167 73.2446 139.123 73.4222C139.079 73.5998 138.996 73.7656 138.881 73.9076C138.766 74.0497 138.621 74.1646 138.456 74.2442C138.292 74.3238 138.112 74.3661 137.929 74.368H86.5516C86.2721 74.3671 86.0011 74.272 85.7822 74.0981C85.5633 73.9241 85.4093 73.6815 85.345 73.4092Z" fill="#9D3CFE"/>
<path d="M103.606 42.6262H92.8207L92.5781 41.4619H103.364L103.606 42.6262Z" fill="#9D3CFE"/>
<path opacity="0.4" d="M101.852 44.4755H97.5229L97.2803 43.3174H101.609L101.852 44.4755Z" fill="#9D3CFE"/>
<path opacity="0.4" d="M109.055 44.4755H102.387L102.145 43.3174H108.812L109.055 44.4755Z" fill="#9D3CFE"/>
<path opacity="0.4" d="M111.96 46.3303H97.9086L97.666 45.166H111.723L111.96 46.3303Z" fill="#9D3CFE"/>
<path opacity="0.4" d="M110.175 48.1796H98.2943L98.0518 47.0215H109.932L110.175 48.1796Z" fill="#9D3CFE"/>
<path opacity="0.4" d="M118.055 67.8672H110.491L110.734 69.0253H118.297L118.055 67.8672Z" fill="#9D3CFE"/>
<path d="M108.626 65.3212H97.5482L97.3057 64.1631H108.383L108.626 65.3212Z" fill="#9D3CFE"/>
<path opacity="0.4" d="M113.08 69.7168H102.779L103.022 70.8811H113.322L113.08 69.7168Z" fill="#9D3CFE"/>
<path opacity="0.4" d="M109.957 67.8672H102.394L102.636 69.0253H110.2L109.957 67.8672Z" fill="#9D3CFE"/>
<path opacity="0.4" d="M117.135 66.0117H102.008L102.25 67.1761H117.377L117.135 66.0117Z" fill="#9D3CFE"/>
<path d="M103.227 33.9837H91.0238L90.7812 32.8193H102.985L103.227 33.9837Z" fill="#9D3CFE"/>
<path opacity="0.4" d="M109.254 38.3799H95.7939L96.0365 39.538H109.49L109.254 38.3799Z" fill="#9D3CFE"/>
<path opacity="0.4" d="M106.561 36.5244H95.4082L95.6508 37.6887H106.803L106.561 36.5244Z" fill="#9D3CFE"/>
<path opacity="0.4" d="M107.301 34.6748H95.0225L95.265 35.8329H107.543L107.301 34.6748Z" fill="#9D3CFE"/>
<path d="M103.091 51.1933H94.6068L94.3643 50.0352H102.848L103.091 51.1933Z" fill="#9D3CFE"/>
<path opacity="0.4" d="M116.413 55.5889H99.8369L100.079 56.7532H116.65L116.413 55.5889Z" fill="#9D3CFE"/>
<path opacity="0.4" d="M106.318 53.7402H99.4512L99.6938 54.8983H106.561L106.318 53.7402Z" fill="#9D3CFE"/>
<path opacity="0.4" d="M113.77 53.7402H106.903L107.146 54.8983H114.013L113.77 53.7402Z" fill="#9D3CFE"/>
<path opacity="0.4" d="M114.192 51.8848H99.0654L99.308 53.0491H114.429L114.192 51.8848Z" fill="#9D3CFE"/>
<path opacity="0.4" d="M114.162 61.1494H100.994L101.237 62.3075H114.404L114.162 61.1494Z" fill="#9D3CFE"/>
<path opacity="0.4" d="M104.44 59.2939H100.608L100.851 60.4583H104.676L104.44 59.2939Z" fill="#9D3CFE"/>
<path opacity="0.4" d="M110.429 59.2939H104.962L105.204 60.4583H110.672L110.429 59.2939Z" fill="#9D3CFE"/>
<path opacity="0.4" d="M115.35 57.4443H100.223L100.465 58.6024H115.592L115.35 57.4443Z" fill="#9D3CFE"/>
<path opacity="0.4" d="M127.261 57.1331H121.843L121.601 55.9688H127.024L127.261 57.1331Z" fill="#9D3CFE"/>
<path opacity="0.4" d="M136.28 57.1331H127.933L127.69 55.9688H136.038L136.28 57.1331Z" fill="#9D3CFE"/>
<path opacity="0.4" d="M139.825 58.9823H122.229L121.986 57.8242H139.583L139.825 58.9823Z" fill="#9D3CFE"/>
<path opacity="0.4" d="M137.487 60.8382H122.615L122.372 59.6738H137.244L137.487 60.8382Z" fill="#9D3CFE"/>
<path opacity="0.4" d="M144.148 49.7617H127.298L127.54 50.926H144.39L144.148 49.7617Z" fill="#9D3CFE"/>
<path opacity="0.4" d="M140.877 47.9121H126.913L127.156 49.0702H141.113L140.877 47.9121Z" fill="#9D3CFE"/>
<path d="M138.351 46.0566H122.976L123.218 47.221H138.594L138.351 46.0566Z" fill="#9D3CFE"/>
<path opacity="0.4" d="M144.907 68.2471H124.157L124.4 69.4052H145.15L144.907 68.2471Z" fill="#9D3CFE"/>
<path opacity="0.4" d="M132.368 66.3916H123.771L124.014 67.5559H132.61L132.368 66.3916Z" fill="#9D3CFE"/>
<path opacity="0.4" d="M141.698 66.3916H133.102L133.344 67.5559H141.94L141.698 66.3916Z" fill="#9D3CFE"/>
<path opacity="0.4" d="M142.32 64.543H123.387L123.629 65.7011H142.563L142.32 64.543Z" fill="#9D3CFE"/>
<path opacity="0.4" d="M141.796 73.8008H125.313L125.556 74.9651H142.039L141.796 73.8008Z" fill="#9D3CFE"/>
<path opacity="0.4" d="M129.724 71.9521H124.929L125.171 73.1103H129.967L129.724 71.9521Z" fill="#9D3CFE"/>
<path opacity="0.4" d="M137.226 71.9521H130.384L130.626 73.1103H137.468L137.226 71.9521Z" fill="#9D3CFE"/>
<path opacity="0.4" d="M143.483 70.0967H124.543L124.786 71.261H143.719L143.483 70.0967Z" fill="#9D3CFE"/>
<path opacity="0.4" d="M93.0517 75.2393H80.1514L80.3939 76.3974H93.2942L93.0517 75.2393Z" fill="#9D3CFE"/>
<path opacity="0.4" d="M89.2377 73.3838H79.7646L80.0072 74.5481H89.4741L89.2377 73.3838Z" fill="#9D3CFE"/>
<path opacity="0.4" d="M99.3711 73.3838H89.9043L90.1469 74.5481H99.6199L99.3711 73.3838Z" fill="#9D3CFE"/>
<path opacity="0.4" d="M98.3198 71.5352H79.3799L79.6225 72.6933H98.5561L98.3198 71.5352Z" fill="#9D3CFE"/>
<path d="M243.171 110.026H235.185L236.118 122.118H242.238L243.171 110.026Z" fill="#9D3CFE"/>
<path opacity="0.4" d="M243.171 110.026H235.185L236.118 122.118H242.238L243.171 110.026Z" fill="white"/>
<path d="M69.1227 101.627H80.6048L76.6862 122.118H65.2041L69.1227 101.627Z" fill="#263238"/>
<path d="M83.7458 96.1348H67.5303L72.0709 122.117H88.2864L83.7458 96.1348Z" fill="#9D3CFE"/>
<path d="M66.5723 96.1348H67.5301L72.0707 122.117H71.1129L66.5723 96.1348Z" fill="#9D3CFE"/>
<path opacity="0.3" d="M66.5723 96.1348H67.5301L72.0707 122.117H71.1129L66.5723 96.1348Z" fill="black"/>
<path d="M74.4043 119.341L70.834 98.9121H81.4204L84.9845 119.341H74.4043Z" fill="white"/>
<path opacity="0.6" d="M84.4801 119.341L80.916 98.9121H81.4198L84.9839 119.341H84.4801Z" fill="#9D3CFE"/>
<path d="M164.065 62.9165C164.295 63.4146 164.221 63.9438 163.891 64.0933C163.561 64.2427 163.114 63.9625 162.883 63.4706C162.653 62.9788 162.734 62.4433 163.058 62.2939C163.381 62.1444 163.835 62.3935 164.065 62.9165Z" fill="#263238"/>
<path d="M164.265 63.9004C164.265 63.9004 164.464 67.3 163.854 69.2675C165.098 69.6847 166.442 68.6449 166.442 68.6449L164.265 63.9004Z" fill="#FF5652"/>
<path d="M164.128 58.8009C164.075 58.8446 164.01 58.8707 163.941 58.8756C163.536 58.8863 163.14 58.9929 162.784 59.1866C162.429 59.3803 162.124 59.6557 161.895 59.9901C161.874 60.0284 161.847 60.0622 161.813 60.0895C161.779 60.1167 161.74 60.1369 161.698 60.1489C161.657 60.1608 161.613 60.1642 161.57 60.1589C161.527 60.1535 161.485 60.1396 161.448 60.1179C161.41 60.0961 161.377 60.0671 161.351 60.0324C161.325 59.9977 161.306 59.9581 161.296 59.916C161.285 59.8739 161.283 59.8301 161.29 59.7872C161.297 59.7443 161.312 59.7032 161.335 59.6663C161.617 59.2381 161.997 58.884 162.444 58.6337C162.891 58.3834 163.392 58.2442 163.904 58.228C163.972 58.2243 164.039 58.2421 164.097 58.279C164.154 58.3158 164.198 58.3698 164.223 58.4333C164.248 58.4968 164.252 58.5665 164.235 58.6325C164.218 58.6985 164.18 58.7574 164.128 58.8009Z" fill="#263238"/>
<path d="M182.384 62.1445C184.306 68.8067 186.452 73.9746 189.071 76.9259C189.071 76.9259 189.121 82.1623 180.207 84.6528C170.405 87.3924 174.161 81.0913 174.161 81.0913C179.137 78.3206 178.665 74.1365 174.92 72.5425L182.384 62.1445Z" fill="#FF8B7B"/>
<path d="M191.148 75.6494C190.974 73.2149 190.743 70.438 189.244 70.3633C187.59 70.2886 178.011 74.5723 175.965 77.5921C173.918 80.6118 177.918 83.5693 177.918 83.5693L191.148 75.6494Z" fill="#263238"/>
<path d="M171.542 113.35L163.27 113.076L163.419 120.012C163.419 120.012 170.634 119.265 170.951 117.366L171.542 113.35Z" fill="#FF8B7B"/>
<path d="M158.897 116.483L158.026 120.032L163.419 120.019L163.27 113.083L158.897 116.483Z" fill="#FF8B7B"/>
<path d="M204.744 84.5286L204.57 86.3093C204.514 86.8822 204.439 87.4425 204.364 88.0091C204.221 89.1361 204.041 90.2631 203.848 91.3838C203.475 93.6315 202.99 95.8668 202.43 98.1145C201.861 100.405 201.172 102.664 200.365 104.883C199.936 106.022 199.488 107.161 198.953 108.319C198.414 109.534 197.79 110.71 197.087 111.837C196.919 112.13 196.707 112.46 196.502 112.734C196.297 113.008 196.098 113.357 195.88 113.643C195.663 113.929 195.432 114.266 195.146 114.558L194.742 115.019C194.597 115.189 194.444 115.351 194.282 115.505C193.035 116.727 191.574 117.708 189.971 118.4C187.513 119.456 184.904 120.117 182.24 120.361C181.027 120.504 179.826 120.56 178.651 120.592C177.475 120.623 176.3 120.592 175.143 120.529C173.986 120.467 172.841 120.367 171.703 120.23C170.565 120.094 169.458 119.913 168.251 119.67L168.45 113.164C172.422 112.468 176.347 111.533 180.206 110.362C181.064 110.082 181.907 109.758 182.731 109.39C183.433 109.094 184.104 108.729 184.734 108.301C185.1 108.08 185.411 107.777 185.642 107.417L185.822 107.13C185.906 107.008 185.983 106.881 186.053 106.75C186.141 106.608 186.222 106.46 186.295 106.308C186.376 106.146 186.463 105.997 186.544 105.816C187.275 104.22 187.876 102.566 188.342 100.873C188.852 99.0422 189.331 97.137 189.716 95.1632C190.102 93.1894 190.475 91.197 190.817 89.1859L191.29 86.1599L191.719 83.2148L204.744 84.5286Z" fill="#9D3CFE"/>
<path opacity="0.2" d="M204.744 84.5286L204.57 86.3093C204.514 86.8822 204.439 87.4425 204.364 88.0091C204.221 89.1361 204.041 90.2631 203.848 91.3838C203.475 93.6315 202.99 95.8668 202.43 98.1145C201.861 100.405 201.172 102.664 200.365 104.883C199.936 106.022 199.488 107.161 198.953 108.319C198.414 109.534 197.79 110.71 197.087 111.837C196.919 112.13 196.707 112.46 196.502 112.734C196.297 113.008 196.098 113.357 195.88 113.643C195.663 113.929 195.432 114.266 195.146 114.558L194.742 115.019C194.597 115.189 194.444 115.351 194.282 115.505C193.035 116.727 191.574 117.708 189.971 118.4C187.513 119.456 184.904 120.117 182.24 120.361C181.027 120.504 179.826 120.56 178.651 120.592C177.475 120.623 176.3 120.592 175.143 120.529C173.986 120.467 172.841 120.367 171.703 120.23C170.565 120.094 169.458 119.913 168.251 119.67L168.45 113.164C172.422 112.468 176.347 111.533 180.206 110.362C181.064 110.082 181.907 109.758 182.731 109.39C183.433 109.094 184.104 108.729 184.734 108.301C185.1 108.08 185.411 107.777 185.642 107.417L185.822 107.13C185.906 107.008 185.983 106.881 186.053 106.75C186.141 106.608 186.222 106.46 186.295 106.308C186.376 106.146 186.463 105.997 186.544 105.816C187.275 104.22 187.876 102.566 188.342 100.873C188.852 99.0422 189.331 97.137 189.716 95.1632C190.102 93.1894 190.475 91.197 190.817 89.1859L191.29 86.1599L191.719 83.2148L204.744 84.5286Z" fill="black"/>
<path d="M168.016 92.803C171.1 106.114 172.836 119.702 173.197 133.361H209.615C209.814 128.86 209.055 103.475 205.392 85.1384C205.066 83.4775 204.413 81.8985 203.469 80.494C202.526 79.0895 201.312 77.888 199.898 76.9599C198.484 76.0318 196.899 75.3959 195.236 75.0896C193.573 74.7833 191.866 74.8128 190.215 75.1762L190.041 75.2198C185.494 76.2534 178.969 77.9221 175.113 79.3852L174.957 79.4475C172.378 80.4513 170.252 82.3598 168.975 84.8171C167.697 87.2744 167.357 90.1128 168.016 92.803Z" fill="#9D3CFE"/>
<path opacity="0.2" d="M170.385 104.447C170.671 106.197 170.963 108.052 171.231 109.995C174.21 106.882 175.156 97.3428 175.156 97.3428L170.385 104.447Z" fill="black"/>
<path d="M140.131 113.805L131.865 113.033L131.591 119.963C132.957 120.341 134.4 120.337 135.764 119.951C137.128 119.566 138.361 118.814 139.328 117.778L140.131 113.805Z" fill="#FF8B7B"/>
<path d="M127.934 115.075L125.284 119.838L131.616 119.963L131.89 113.026L127.934 115.075Z" fill="#FF8B7B"/>
<path d="M181.681 89.6092C181.109 90.6988 180.599 91.6639 180.027 92.6601C179.455 93.6563 178.907 94.6276 178.316 95.5927C177.147 97.5353 175.934 99.4406 174.653 101.327C172.08 105.191 169.23 108.861 166.125 112.31C164.462 114.167 162.655 115.889 160.72 117.46C160.477 117.665 160.191 117.864 159.924 118.082C159.656 118.3 159.42 118.475 159.022 118.705C158.624 118.935 158.288 119.166 157.927 119.365C157.566 119.564 157.193 119.745 156.826 119.907C155.454 120.503 154.018 120.939 152.547 121.208C149.973 121.642 147.35 121.701 144.759 121.382C143.546 121.243 142.342 121.035 141.152 120.76C140.559 120.623 139.974 120.467 139.398 120.293C138.776 120.118 138.272 119.925 137.606 119.67L138.633 113.244C142.539 112.715 146.762 112.036 149.673 110.716C150.319 110.451 150.928 110.101 151.483 109.677C151.707 109.523 151.915 109.348 152.105 109.154C152.149 109.098 152.342 108.93 152.485 108.793C152.628 108.656 152.796 108.525 152.951 108.363C154.283 107.042 155.529 105.639 156.683 104.16C159.187 100.926 161.527 97.5681 163.693 94.0984C164.813 92.3363 165.901 90.5431 166.99 88.7437L168.594 86.0415L170.143 83.3828L181.681 89.6092Z" fill="#9D3CFE"/>
<path d="M171.685 219.572H164.88L161.453 203.788H168.264L171.685 219.572Z" fill="#FF8B7B"/>
<path d="M164.501 218.115H172.152C172.285 218.12 172.412 218.167 172.517 218.25C172.621 218.333 172.696 218.447 172.73 218.576L174.074 224.64C174.106 224.788 174.104 224.94 174.068 225.087C174.033 225.233 173.965 225.37 173.869 225.486C173.773 225.603 173.652 225.696 173.515 225.758C173.378 225.821 173.229 225.852 173.078 225.848C170.41 225.805 169.11 225.649 165.745 225.649C163.674 225.649 161.018 225.861 158.163 225.861C155.308 225.861 154.928 223.034 156.098 222.779C161.347 221.627 161.696 220.045 163.394 218.532C163.698 218.261 164.093 218.112 164.501 218.115Z" fill="#263238"/>
<g opacity="0.2">
<path opacity="0.2" d="M168.27 203.794H161.453L163.356 212.53L170.037 211.926L168.27 203.794Z" fill="black"/>
</g>
<path d="M180.201 54.1377C182.689 60.4388 184.418 64.0065 182.776 68.5829C180.288 75.463 171.462 76.1603 167.17 70.7185C163.313 65.8184 159.942 56.3356 164.812 51.1242C165.879 49.9688 167.223 49.1058 168.717 48.6172C170.211 48.1286 171.804 48.0307 173.347 48.3327C174.889 48.6347 176.328 49.3267 177.528 50.3427C178.728 51.3588 179.648 52.6652 180.201 54.1377Z" fill="#FF8B7B"/>
<path d="M168.246 63.5769C167.226 64.9467 166.442 65.9865 166.442 65.9865C166.442 65.9865 164.346 60.775 165.148 58.3841C164.128 56.3606 162.069 59.343 161.292 55.4017C160.514 51.4604 163.88 47.2265 165.148 46.3486C165.279 46.8079 165.338 47.2847 165.323 47.762C168.751 44.9767 173.109 43.599 177.514 43.9079C177.146 44.456 176.911 45.083 176.83 45.7384C176.83 45.7384 184.213 46.9837 185.892 51.1678C185.298 50.884 184.671 50.6749 184.026 50.5452C185.38 52.4877 185.916 54.885 185.519 57.2198C184.983 60.6247 184.705 64.0652 184.685 67.512C184.754 69.2802 179.908 72.6611 176.954 69.0499C173.999 65.4386 168.246 63.5769 168.246 63.5769Z" fill="#263238"/>
<path d="M171.324 62.2196C171.709 63.6873 171.6 65.2412 171.013 66.6403C170.223 68.5082 168.6 68.0599 167.797 66.4286C167.07 64.9654 166.603 62.2507 167.891 60.9494C169.178 59.6481 170.839 60.4576 171.324 62.2196Z" fill="#FF8B7B"/>
<path d="M184.113 133.337C184.113 133.337 152.49 144.818 151.563 160.004C149.847 187.979 161.273 210.126 161.273 210.126L171.747 209.006C171.747 209.006 169.881 200.002 168.494 174.661C166.746 142.813 220.742 175.408 209.621 133.337H184.113Z" fill="#9D3CFE"/>
<path opacity="0.5" d="M184.113 133.337C184.113 133.337 152.49 144.818 151.563 160.004C149.847 187.979 161.273 210.126 161.273 210.126L171.747 209.006C171.747 209.006 169.881 200.002 168.494 174.661C166.746 142.813 220.742 175.408 209.621 133.337H184.113Z" fill="white"/>
<path d="M158.374 206.266C158.324 206.266 160.041 210.924 160.041 210.924L173.103 209.641L172.45 205.407L158.374 206.266Z" fill="#9D3CFE"/>
<path d="M142.271 220.344H135.46L133.47 204.561H140.281L142.271 220.344Z" fill="#FF8B7B"/>
<path d="M135.41 218.108H142.874C143.009 218.107 143.14 218.152 143.245 218.236C143.351 218.32 143.424 218.437 143.453 218.569L144.809 224.627C144.848 224.776 144.853 224.931 144.822 225.082C144.791 225.232 144.726 225.373 144.631 225.494C144.536 225.615 144.415 225.712 144.276 225.778C144.138 225.843 143.985 225.876 143.832 225.873C141.151 225.829 137.27 225.68 133.88 225.686C129.937 225.686 129.184 225.904 124.55 225.91C121.751 225.91 120.974 223.09 122.143 222.797C127.467 221.626 129.172 221.496 133.768 218.65C134.253 218.318 134.823 218.13 135.41 218.108Z" fill="#263238"/>
<path opacity="0.2" d="M133.476 204.566L134.558 213.165L141.313 212.704L140.286 204.566H133.476Z" fill="black"/>
<path d="M173.197 133.337C173.197 133.337 121.384 137.938 121.944 163.989C122.522 191.086 132.636 209.361 132.636 209.361H142.75C142.75 209.361 140.834 195.302 141.176 168.628C141.276 160.639 157.41 157.999 173.159 157.066C186.769 156.256 199.507 148.492 204.794 135.896L205.883 133.337H173.197Z" fill="#9D3CFE"/>
<path opacity="0.5" d="M173.197 133.337C173.197 133.337 121.384 137.938 121.944 163.989C122.522 191.086 132.636 209.361 132.636 209.361H142.75C142.75 209.361 140.834 195.302 141.176 168.628C141.276 160.639 157.41 157.999 173.159 157.066C186.769 156.256 199.507 148.492 204.794 135.896L205.883 133.337H173.197Z" fill="white"/>
<path d="M130.266 206.64C130.223 206.64 132.002 211.322 132.002 211.322L144.218 210.444L143.503 206.21L130.266 206.64Z" fill="#9D3CFE"/>
<path d="M186.8 104.06L180.226 129.42C178.544 135.917 177.696 142.602 177.7 149.313V161.1C177.7 164.076 179.89 166.492 182.595 166.492H216.295C219.001 166.492 221.19 164.076 221.19 161.1V149.313C221.188 142.602 222.039 135.917 223.722 129.42L229.525 107.005C230.421 103.562 228.07 100.156 224.817 100.156H191.502C190.397 100.191 189.334 100.594 188.482 101.301C187.631 102.008 187.039 102.979 186.8 104.06Z" fill="#263238"/>
<path d="M144.883 154.214L145.984 160.503C146.569 163.809 149.473 166.493 152.478 166.493H189.941C192.945 166.493 194.917 163.809 194.332 160.503L193.231 154.214C192.565 150.447 189.263 147.396 185.842 147.396H149.902C146.457 147.396 144.224 150.447 144.883 154.214Z" fill="#263238"/>
<path d="M193.549 172.806H173.925L172.009 166.486H195.464L193.549 172.806Z" fill="#9D3CFE"/>
<path d="M187.241 172.806H180.231V219.759H187.241V172.806Z" fill="#9D3CFE"/>
<path opacity="0.7" d="M187.241 219.759H180.231V173.933L187.241 174.649V219.759Z" fill="white"/>
<path opacity="0.7" d="M185.531 219.758H183.857V174.3L185.531 174.474V219.758Z" fill="white"/>
<path d="M199.856 227.018H167.611C167.423 227.017 167.24 226.956 167.089 226.844C166.937 226.733 166.825 226.577 166.767 226.397C166.709 226.218 166.709 226.026 166.767 225.846C166.825 225.667 166.937 225.511 167.089 225.399L172.202 221.664C174.659 219.862 177.626 218.889 180.673 218.887H186.8C189.844 218.89 192.809 219.862 195.265 221.664L200.384 225.399C200.536 225.511 200.649 225.668 200.707 225.848C200.764 226.028 200.764 226.221 200.705 226.4C200.646 226.58 200.533 226.736 200.38 226.847C200.228 226.958 200.044 227.018 199.856 227.018Z" fill="#9D3CFE"/>
</svg>
