<svg width="136" height="147" viewBox="0 0 136 147" fill="none" xmlns="http://www.w3.org/2000/svg">
<path d="M39.1627 123.376C34.7016 126.295 29.6715 134.083 27.1564 137.245C24.6413 140.408 24.6457 144.951 23.5901 146.168C22.5346 147.384 18.8858 143.653 19.6807 140.894C20.4756 138.136 21.8526 137.571 21.5485 136.272C21.2444 134.974 20.493 134.161 21.3053 132.458C22.1176 130.756 24.4676 132.38 26.8219 130.756C29.1763 129.131 31.5263 122.155 34.4453 114.857C37.3644 107.56 43.5326 107.716 44.2624 106.582C44.9921 105.449 49.1275 90.6796 53.3497 91.4137C57.5719 92.1478 65.1996 99.6061 62.7714 103.681C60.3432 107.755 57.498 107.66 54.0838 110.01C50.6695 112.36 51.0822 112.85 48.8104 115.283C46.5385 117.716 44.9009 118.124 43.6977 118.445C43.6977 118.445 41.9949 120.313 40.9393 121.69C39.8838 123.067 39.1627 123.376 39.1627 123.376Z" fill="white"/>
<path d="M31.0345 127.79C32.4376 125.158 36.6511 118.833 41.0253 114.971C45.3995 111.11 59.2911 105.311 59.2911 105.311L61.9929 104.772C62.2683 104.417 62.5222 104.046 62.7531 103.66C65.1856 99.6073 57.5622 92.1446 53.3444 91.4149C49.1265 90.6851 44.9869 105.445 44.2571 106.583C43.5273 107.722 37.3635 107.557 34.4401 114.858C31.5167 122.16 29.1666 129.137 26.8166 130.757C24.4666 132.377 22.1123 130.757 21.3 132.46C20.4877 134.162 21.2174 134.975 21.5432 136.274C21.869 137.572 20.4877 138.141 19.6754 140.895C18.8631 143.649 22.5163 147.385 23.5848 146.169C23.9845 145.551 24.2576 144.86 24.3884 144.136C23.7201 142.333 23.5271 140.388 23.8281 138.489C24.3667 134.115 29.6271 130.427 31.0345 127.79Z" fill="#FF1F00"/>
<path opacity="0.5" d="M31.0345 127.79C32.4376 125.158 36.6511 118.833 41.0253 114.971C45.3995 111.11 59.2911 105.311 59.2911 105.311L61.9929 104.772C62.2683 104.417 62.5222 104.046 62.7531 103.66C65.1856 99.6073 57.5622 92.1446 53.3444 91.4149C49.1265 90.6851 44.9869 105.445 44.2571 106.583C43.5273 107.722 37.3635 107.557 34.4401 114.858C31.5167 122.16 29.1666 129.137 26.8166 130.757C24.4666 132.377 22.1123 130.757 21.3 132.46C20.4877 134.162 21.2174 134.975 21.5432 136.274C21.869 137.572 20.4877 138.141 19.6754 140.895C18.8631 143.649 22.5163 147.385 23.5848 146.169C23.9845 145.551 24.2576 144.86 24.3884 144.136C23.7201 142.333 23.5271 140.388 23.8281 138.489C24.3667 134.115 29.6271 130.427 31.0345 127.79Z" fill="white"/>
<path d="M39.1627 123.376C34.7016 126.295 29.6715 134.083 27.1564 137.245C24.6413 140.408 24.6457 144.951 23.5901 146.168C22.5346 147.384 18.8858 143.653 19.6807 140.894C20.4756 138.136 21.8526 137.571 21.5485 136.272C21.2444 134.974 20.493 134.161 21.3053 132.458C22.1176 130.756 24.4676 132.38 26.8219 130.756C29.1763 129.131 31.5263 122.155 34.4453 114.857C37.3644 107.56 43.5326 107.716 44.2624 106.582C44.9921 105.449 49.1275 90.6796 53.3497 91.4137C57.5719 92.1478 65.1996 99.6061 62.7714 103.681C60.3432 107.755 57.498 107.66 54.0838 110.01C50.6695 112.36 51.0822 112.85 48.8104 115.283C46.5385 117.716 44.9009 118.124 43.6977 118.445C43.6977 118.445 41.9949 120.313 40.9393 121.69C39.8838 123.067 39.1627 123.376 39.1627 123.376Z" stroke="#263238" stroke-miterlimit="10" stroke-linecap="round"/>
<path d="M38.5454 123.811C37.5568 123.75 36.5858 123.521 35.6741 123.134C33.8931 122.387 33.1938 120.454 32.9332 118.742C30.6917 124.498 28.7631 129.428 26.8518 130.757C24.4974 132.382 22.1474 130.757 21.3351 132.46C20.5228 134.163 21.2526 134.975 21.5784 136.274C21.9042 137.573 20.5228 138.142 19.7105 140.896C18.8983 143.65 22.5514 147.385 23.62 146.169C24.6886 144.953 24.6755 140.409 27.1863 137.247C29.5797 134.228 34.245 127.004 38.5454 123.811Z" fill="#FF1F00"/>
<path opacity="0.2" d="M23.5895 146.169C23.651 146.096 23.7062 146.017 23.7546 145.934L23.7937 145.869C23.8414 145.782 23.8892 145.687 23.937 145.578C23.937 145.578 23.937 145.539 23.9587 145.522C23.9978 145.426 24.0369 145.326 24.0717 145.222C24.0852 145.189 24.0968 145.156 24.1064 145.122C24.1499 145 24.1889 144.874 24.228 144.744L24.2671 144.605C24.2932 144.505 24.3236 144.401 24.354 144.292L24.3931 144.136C23.7248 142.333 23.5318 140.388 23.8328 138.489C24.3584 134.097 29.6274 130.41 31.0348 127.773C32.0841 125.896 33.2521 124.088 34.5316 122.36C33.5716 121.422 33.1285 120.015 32.9331 118.729L32.5508 119.702L32.49 119.867L32.1077 120.84L31.7472 121.752L31.6864 121.904C31.5691 122.2 31.4518 122.491 31.3345 122.773L31.2737 122.925C31.1564 123.216 31.0392 123.503 30.9219 123.794L30.5744 124.611L30.5092 124.763C30.3963 125.023 30.2833 125.275 30.1704 125.523L30.1183 125.644L29.8012 126.331L29.7664 126.405C29.6535 126.639 29.5449 126.865 29.4363 127.082C29.4146 127.13 29.3885 127.173 29.3668 127.212C29.2582 127.43 29.1496 127.647 29.041 127.842L29.0019 127.916L28.6935 128.459L28.6457 128.542C28.5371 128.724 28.4329 128.894 28.3243 129.059L28.2591 129.154C28.1505 129.319 28.0419 129.471 27.9377 129.615L27.9073 129.649C27.8074 129.784 27.7031 129.91 27.6032 130.027L27.5467 130.092C27.4425 130.214 27.3339 130.318 27.2296 130.418L27.1688 130.475C27.0656 130.568 26.9568 130.655 26.843 130.735C26.1981 131.177 25.4498 131.443 24.6711 131.509C24.2367 131.552 23.8632 131.552 23.4939 131.556C23.1541 131.551 22.8143 131.571 22.4775 131.617C22.2281 131.638 21.9888 131.726 21.7843 131.87C21.5797 132.014 21.4172 132.21 21.3133 132.438C21.094 132.866 20.9681 133.335 20.9441 133.815C20.9395 133.97 20.9483 134.126 20.9702 134.28C20.979 134.353 20.992 134.426 21.0093 134.497C21.1309 135.075 21.3959 135.605 21.5566 136.235C21.5931 136.384 21.6091 136.537 21.6044 136.691C21.5696 137.273 21.17 137.764 20.7356 138.524C20.2894 139.252 19.9418 140.037 19.7018 140.856C19.5169 141.575 19.5579 142.334 19.8191 143.028C20.0115 143.57 20.2775 144.083 20.6096 144.553C20.7182 144.709 20.8312 144.857 20.9485 144.987C21.8867 146.152 23.0639 146.777 23.5895 146.169Z" fill="black"/>
<path d="M38.5454 123.811C37.5568 123.75 36.5858 123.521 35.6741 123.134C33.8931 122.387 33.1938 120.454 32.9332 118.742C30.6917 124.498 28.7631 129.428 26.8518 130.757C24.4974 132.382 22.1474 130.757 21.3351 132.46C20.5228 134.163 21.2526 134.975 21.5784 136.274C21.9042 137.573 20.5228 138.142 19.7105 140.896C18.8983 143.65 22.5514 147.385 23.62 146.169C24.6886 144.953 24.6755 140.409 27.1863 137.247C29.5797 134.228 34.245 127.004 38.5454 123.811Z" stroke="#263238" stroke-miterlimit="10" stroke-linecap="round"/>
<path d="M19.5889 79.9727C19.5889 79.9727 23.5635 85.3243 27.7813 85.2635C31.9992 85.2026 34.4578 81.467 36.6254 81.7232C38.2277 81.9657 39.7982 82.3853 41.308 82.9742C41.308 82.9742 56.3724 62.7885 59.8388 59.3699C63.3051 55.9513 65.3076 52.0375 60.5468 50.8299C55.786 49.6224 45.843 51.7639 40.8562 56.1468C35.8695 60.5297 20.0667 77.9702 20.0667 77.9702L19.5889 79.9727Z" fill="#FF1F00"/>
<path opacity="0.5" d="M19.5889 79.9727C19.5889 79.9727 23.5635 85.3243 27.7813 85.2635C31.9992 85.2026 34.4578 81.467 36.6254 81.7232C38.2277 81.9657 39.7982 82.3853 41.308 82.9742C41.308 82.9742 56.3724 62.7885 59.8388 59.3699C63.3051 55.9513 65.3076 52.0375 60.5468 50.8299C55.786 49.6224 45.843 51.7639 40.8562 56.1468C35.8695 60.5297 20.0667 77.9702 20.0667 77.9702L19.5889 79.9727Z" fill="black" stroke="#263238" stroke-miterlimit="10" stroke-linecap="round"/>
<path d="M19.5889 79.9727C19.5889 79.9727 23.5635 85.3243 27.7813 85.2635C31.9992 85.2026 34.4578 81.467 36.6254 81.7232C38.2277 81.9657 39.7982 82.3853 41.308 82.9742C41.308 82.9742 56.3724 62.7885 59.8388 59.3699C63.3051 55.9513 65.3076 52.0375 60.5468 50.8299C55.786 49.6224 45.843 51.7639 40.8562 56.1468C35.8695 60.5297 20.0667 77.9702 20.0667 77.9702L19.5889 79.9727Z" stroke="#263238" stroke-miterlimit="10" stroke-linecap="round"/>
<path d="M76.4929 32.8426C76.4929 32.8426 77.7092 29.9236 80.1417 28.6248C81.7636 27.816 83.5426 27.3713 85.3543 27.3216L91.6789 23.4122C91.6789 23.4122 93.4642 17.2439 99.5499 14.7245C105.636 12.2051 131.512 2.80071 131.755 2.63999C131.998 2.47926 135 1.01539 135 1.25865C135.003 1.67648 134.92 2.09052 134.757 2.47492C134.513 3.12649 128.51 7.01856 128.51 7.01856C128.51 7.01856 131.429 5.23325 131.512 6.1498C131.594 7.06634 131.512 7.28354 130.456 7.93511C129.401 8.58668 127.455 9.79861 127.051 10.0419C126.647 10.2851 125.105 11.7446 123.884 11.9097C122.663 12.0748 119.588 12.3137 119.345 12.5569C119.101 12.8002 111.148 20.5061 108.555 22.6998C105.961 24.8934 101.739 26.9176 101.739 26.9176C101.739 26.9176 96.0618 32.999 91.7484 36.1656C87.435 39.3323 84.529 40.1402 84.529 40.1402L84.2032 40.4617C84.2032 40.4617 84.4464 43.3025 84.4464 43.6283C84.4464 43.9541 86.8008 51.9815 85.7496 56.4426C84.6984 60.9037 82.6655 62.7716 82.6655 62.7716C82.6655 62.7716 82.344 68.045 81.0452 69.991C79.7464 71.937 76.1758 74.2914 73.6607 76.1592C71.1457 78.0271 70.8242 82.1624 70.6591 82.6489C70.4941 83.1354 68.4872 91.4104 67.4143 93.4346C66.3414 95.4589 63.0705 96.6013 62.5275 96.762C62.2321 96.8489 59.2088 101.436 56.2985 101.21C54.4159 101.077 52.6451 100.268 51.3126 98.9312C49.9801 97.5947 49.176 95.8214 49.0486 93.9385C49.0024 93.1368 49.0315 92.3326 49.1355 91.5364C49.7827 86.5844 51.7418 84.5298 51.7418 84.5298C51.7418 84.5298 55.8988 68.2882 55.4905 63.9878C55.0822 59.6874 55.004 57.0117 56.2203 54.5791C57.4365 52.1466 61.4111 48.4152 67.5794 45.7351C73.7476 43.0549 74.473 41.274 74.473 38.1942C74.5356 36.236 75.246 34.3538 76.4929 32.8426Z" fill="white"/>
<path d="M85.5234 48.7829L85.4756 48.7612C85.4756 48.7612 85.1238 54.0303 84.2463 57.5444C83.3689 61.0586 79.681 63.3391 79.681 63.3391L77.748 68.6082C77.748 68.6082 73.3563 72.6436 70.5459 72.6436C67.7354 72.6436 67.3706 70.3631 67.3706 70.3631C64.7252 68.113 58.987 66.5622 55.2643 67.4397C54.6822 72.0398 53.062 78.9986 52.2236 82.4476C53.7918 83.286 56.3068 84.0765 59.9947 83.7117C63.8048 83.2959 67.5262 82.286 71.0237 80.7188C71.3929 79.2419 72.1097 77.2871 73.63 76.1621L74.477 75.5409C71.9316 76.6008 68.6998 80.0541 66.3237 80.3712C63.687 80.7231 62.8095 80.1975 62.9876 79.142C63.1657 78.0864 66.8189 78.7554 68.0786 78.2732C69.3383 77.791 68.2567 77.5738 65.62 77.222C62.9833 76.8701 63.5132 75.8146 63.5132 75.8146C63.5132 75.8146 67.7919 76.1708 68.6042 75.8146C69.4165 75.4584 75.1199 74.077 77.7262 71.7748C80.3325 69.4726 80.5584 64.5858 80.5584 64.5858L82.5826 63.5737C82.6261 63.0915 82.6434 62.7918 82.6434 62.7918C82.6434 62.7918 84.672 60.9283 85.7276 56.4628C86.2358 54.2996 85.9534 51.3284 85.5234 48.7829Z" fill="#FF1F00"/>
<path d="M106.965 20.8576C101.891 23.0556 100.883 22.3779 100.883 22.3779C101.323 22.6949 101.736 23.048 102.117 23.4335C102.851 24.1459 101.895 26.4351 99.1891 28.468C96.4829 30.5009 87.6867 35.9176 86.1663 35.9176C84.646 35.9176 84.646 30.8484 84.646 30.8484C84.0059 33.9926 83.8769 37.2195 84.2637 40.4048L84.5113 40.1616C84.5113 40.1616 87.4304 39.3493 91.7308 36.187C96.0311 33.0246 101.722 26.9389 101.722 26.9389C101.722 26.9389 105.939 24.9104 108.537 22.7211C109.962 21.5178 112.998 18.6509 115.487 16.2705C112.755 17.993 109.907 19.5257 106.965 20.8576Z" fill="#FF1F00"/>
<path opacity="0.5" d="M106.965 20.8576C101.891 23.0556 100.883 22.3779 100.883 22.3779C101.323 22.6949 101.736 23.048 102.117 23.4335C102.851 24.1459 101.895 26.4351 99.1891 28.468C96.4829 30.5009 87.6867 35.9176 86.1663 35.9176C84.646 35.9176 84.646 30.8484 84.646 30.8484C84.0059 33.9926 83.8769 37.2195 84.2637 40.4048L84.5113 40.1616C84.5113 40.1616 87.4304 39.3493 91.7308 36.187C96.0311 33.0246 101.722 26.9389 101.722 26.9389C101.722 26.9389 105.939 24.9104 108.537 22.7211C109.962 21.5178 112.998 18.6509 115.487 16.2705C112.755 17.993 109.907 19.5257 106.965 20.8576Z" fill="white"/>
<path opacity="0.5" d="M85.5234 48.7829L85.4756 48.7612C85.4756 48.7612 85.1238 54.0303 84.2463 57.5444C83.3689 61.0586 79.681 63.3391 79.681 63.3391L77.748 68.6082C77.748 68.6082 73.3563 72.6436 70.5459 72.6436C67.7354 72.6436 67.3706 70.3631 67.3706 70.3631C64.7252 68.113 58.987 66.5622 55.2643 67.4397C54.6822 72.0398 53.062 78.9986 52.2236 82.4476C53.7918 83.286 56.3068 84.0765 59.9947 83.7117C63.8048 83.2959 67.5262 82.286 71.0237 80.7188C71.3929 79.2419 72.1097 77.2871 73.63 76.1621L74.477 75.5409C71.9316 76.6008 68.6998 80.0541 66.3237 80.3712C63.687 80.7231 62.8095 80.1975 62.9876 79.142C63.1657 78.0864 66.8189 78.7554 68.0786 78.2732C69.3383 77.791 68.2567 77.5738 65.62 77.222C62.9833 76.8701 63.5132 75.8146 63.5132 75.8146C63.5132 75.8146 67.7919 76.1708 68.6042 75.8146C69.4165 75.4584 75.1199 74.077 77.7262 71.7748C80.3325 69.4726 80.5584 64.5858 80.5584 64.5858L82.5826 63.5737C82.6261 63.0915 82.6434 62.7918 82.6434 62.7918C82.6434 62.7918 84.672 60.9283 85.7276 56.4628C86.2358 54.2996 85.9534 51.3284 85.5234 48.7829Z" fill="white"/>
<path d="M76.4929 32.8426C76.4929 32.8426 77.7092 29.9236 80.1417 28.6248C81.7636 27.816 83.5426 27.3713 85.3543 27.3216L91.6789 23.4122C91.6789 23.4122 93.4642 17.2439 99.5499 14.7245C105.636 12.2051 131.512 2.80071 131.755 2.63999C131.998 2.47926 135 1.01539 135 1.25865C135.003 1.67648 134.92 2.09052 134.757 2.47492C134.513 3.12649 128.51 7.01856 128.51 7.01856C128.51 7.01856 131.429 5.23325 131.512 6.1498C131.594 7.06634 131.512 7.28354 130.456 7.93511C129.401 8.58668 127.455 9.79861 127.051 10.0419C126.647 10.2851 125.105 11.7446 123.884 11.9097C122.663 12.0748 119.588 12.3137 119.345 12.5569C119.101 12.8002 111.148 20.5061 108.555 22.6998C105.961 24.8934 101.739 26.9176 101.739 26.9176C101.739 26.9176 96.0618 32.999 91.7484 36.1656C87.435 39.3323 84.529 40.1402 84.529 40.1402L84.2032 40.4617C84.2032 40.4617 84.4464 43.3025 84.4464 43.6283C84.4464 43.9541 86.8008 51.9815 85.7496 56.4426C84.6984 60.9037 82.6655 62.7716 82.6655 62.7716C82.6655 62.7716 82.344 68.045 81.0452 69.991C79.7464 71.937 76.1758 74.2914 73.6607 76.1592C71.1457 78.0271 70.8242 82.1624 70.6591 82.6489C70.4941 83.1354 68.4872 91.4104 67.4143 93.4346C66.3414 95.4589 63.0705 96.6013 62.5275 96.762C62.2321 96.8489 59.2088 101.436 56.2985 101.21C54.4159 101.077 52.6451 100.268 51.3126 98.9312C49.9801 97.5947 49.176 95.8214 49.0486 93.9385C49.0024 93.1368 49.0315 92.3326 49.1355 91.5364C49.7827 86.5844 51.7418 84.5298 51.7418 84.5298C51.7418 84.5298 55.8988 68.2882 55.4905 63.9878C55.0822 59.6874 55.004 57.0117 56.2203 54.5791C57.4365 52.1466 61.4111 48.4152 67.5794 45.7351C73.7476 43.0549 74.473 41.274 74.473 38.1942C74.5356 36.236 75.246 34.3538 76.4929 32.8426V32.8426Z" stroke="#263238" stroke-miterlimit="10" stroke-linecap="round"/>
<path d="M82.5713 60.8523C83.4295 57.2046 82.2321 53.8022 79.8969 53.2527C77.5616 52.7033 74.9728 55.2149 74.1145 58.8626C73.2563 62.5103 74.4536 65.9127 76.7889 66.4622C79.1242 67.0116 81.713 64.5 82.5713 60.8523Z" fill="#FF1F00"/>
<path d="M67.806 76.1635C63.423 77.1365 61.7246 75.0254 61.7246 75.0254C61.7246 75.0254 62.2111 78.2702 66.8373 78.7567" stroke="#263238" stroke-linecap="round" stroke-linejoin="round"/>
<path d="M78.1047 56.6118C78.1047 56.6118 80.6198 62.6932 78.5912 67.3193C76.5627 71.9455 73.6393 73.7091 68.127 74.6213" stroke="#263238" stroke-miterlimit="10" stroke-linecap="round"/>
<path d="M72.8308 76.2412C72.8308 76.2412 69.5034 79.2428 66.9058 80.2158C64.3082 81.1888 62.284 82.896 60.0947 79.9726" stroke="#263238" stroke-miterlimit="10" stroke-linecap="round"/>
<path d="M98.9502 23.5118C98.9502 23.5118 100.979 22.1348 102.113 23.4336C103.246 24.7324 101.709 26.9087 101.709 26.9087" stroke="#263238" stroke-linecap="round" stroke-linejoin="round"/>
<path d="M84.8371 29.5151C84.3976 31.6867 84.0772 33.8808 83.8771 36.0873C83.7644 37.5547 83.8728 39.0307 84.1986 40.4659" stroke="#263238" stroke-linecap="round" stroke-linejoin="round"/>
<path d="M65.7334 59.0099L70.5898 56.4297" stroke="#263238" stroke-miterlimit="10" stroke-linecap="round"/>
<path d="M131.725 2.66661C131.507 2.80995 110.957 10.29 102.187 13.6999C102.977 13.7347 107.121 14.0822 108.22 17.6745C108.703 19.2063 108.927 20.8081 108.88 22.4136C111.765 19.9073 119.101 12.7964 119.336 12.5618C119.571 12.3273 122.659 12.0753 123.875 11.9146C125.092 11.7539 126.634 10.29 127.042 10.0468C127.45 9.80352 129.392 8.58724 130.447 7.94001C131.503 7.29278 131.586 7.04519 131.503 6.1547C131.42 5.26422 128.501 7.02347 128.501 7.02347C128.501 7.02347 134.505 3.11402 134.748 2.47982C134.912 2.09542 134.994 1.68139 134.991 1.26355C134.969 1.04202 131.968 2.50154 131.725 2.66661Z" fill="#FF1F00" stroke="#263238" stroke-linecap="round" stroke-linejoin="round"/>
<path d="M128.481 7.04492L125.64 8.50445" stroke="#263238" stroke-linecap="round" stroke-linejoin="round"/>
<path d="M71.2154 80.0728C70.3075 80.4246 69.1608 80.8981 68.0661 81.4237C65.0265 82.8868 61.7481 83.7903 58.3881 84.0908C55.747 84.3123 53.5013 83.1308 52.272 82.2968C51.9375 83.6694 51.7203 84.5339 51.7203 84.5339C51.7203 84.5339 49.7612 86.5885 49.114 91.5405C49.01 92.3367 48.9809 93.1409 49.0271 93.9426C49.1545 95.8255 49.9587 97.5988 51.2911 98.9352C52.6236 100.272 54.3945 101.081 56.277 101.214C59.1873 101.44 62.2106 96.8703 62.506 96.7661C63.0707 96.6054 66.3416 95.4629 67.3928 93.4387C68.444 91.4145 70.4769 83.1395 70.6377 82.653C70.7159 82.4184 70.8462 81.3368 71.2154 80.0728Z" fill="#263238" stroke="#263238" stroke-miterlimit="10" stroke-linecap="round"/>
<path d="M53.8184 86.9277C53.8184 86.9277 57.2934 85.429 60.8032 86.6757" stroke="white" stroke-width="0.75" stroke-linecap="round" stroke-linejoin="round"/>
<path d="M61.1511 82.6615C56.6726 83.1654 54.0794 81.5278 52.7632 80.2334C52.4635 81.5365 52.2028 82.5964 52.0117 83.3566C54.3072 84.7855 57.0178 85.3977 59.7046 85.0941C64.535 84.499 68.9179 82.5226 70.8596 81.5408C70.877 81.4395 70.8987 81.3352 70.9247 81.2281C70.9899 80.911 71.0768 80.5678 71.181 80.203C71.181 80.1812 71.181 80.1595 71.2027 80.1335C71.2375 80.0205 71.2722 79.9032 71.3113 79.7859C71.3132 79.7686 71.3132 79.7511 71.3113 79.7338C71.4455 79.3323 71.6036 78.9392 71.7848 78.5566C68.6398 80.7937 64.9835 82.2051 61.1511 82.6615Z" fill="#FF1F00" stroke="#263238" stroke-miterlimit="10" stroke-linecap="round"/>
<path d="M47.5455 54.1624C47.5455 54.1624 46.7593 54.562 49.5958 52.6985C52.4323 50.835 51.5766 53.5325 53.5052 48.7456C55.4339 43.9587 57.5623 40.3925 61.0504 39.0937C64.5385 37.7949 74.8421 39.6627 74.8421 39.6627L77.2746 41.3655L73.8864 47.9333C73.0707 47.5318 72.1785 47.3093 71.2698 47.2808C70.361 47.2524 69.4566 47.4186 68.6174 47.7683C65.8591 48.9845 64.3952 50.4441 64.7079 51.7429C65.0207 53.0417 67.627 56.6123 67.627 56.6123C67.627 56.6123 55.3427 51.7863 53.3966 52.8375C51.4506 53.8887 45.5213 56.0433 45.1955 56.2083C44.8697 56.3734 47.5455 54.1624 47.5455 54.1624Z" fill="#FF1F00" stroke="#263238" stroke-miterlimit="10" stroke-linecap="round"/>
<path d="M55.1084 50.3611C55.5211 49.7573 55.9772 49.0579 56.4419 48.2543C58.553 44.6881 62.7709 43.146 62.7709 43.146" stroke="#263238" stroke-miterlimit="10" stroke-linecap="round"/>
<path d="M63.0794 47.042C61.9406 47.3212 60.8684 47.823 59.9246 48.5186C58.9807 49.2142 58.1839 50.0898 57.5801 51.0948" stroke="#263238" stroke-miterlimit="10" stroke-linecap="round"/>
<path d="M60.8249 58.6411C60.8249 58.6411 55.8773 57.9114 52.1373 61.0737C48.3973 64.236 48.8186 67.6285 48.8186 67.6285C48.8186 67.6285 45.1655 69.2488 44.4357 71.1036C44.0092 72.1994 43.7175 73.3429 43.5669 74.5091C43.5669 74.5091 41.6209 76.377 39.9963 78.2405C38.3717 80.104 36.9947 80.4124 36.6689 82.8666C36.3431 85.3209 36.5082 91.3024 38.2935 97.223C40.0788 103.144 41.2951 105.741 41.7686 106.779C42.2421 107.818 46.4729 113.187 47.2027 113.352C47.9325 113.517 48.6622 113.673 49.2313 113.352C49.8003 113.03 54.0095 112.048 53.8574 110.837C53.826 110.189 53.5988 109.567 53.2059 109.051L53.0452 108.808C53.0452 108.808 53.7749 107.427 53.2884 106.779C52.8019 106.132 52.3936 106.05 51.5031 105.237C50.6126 104.425 50.1261 104.182 49.0705 104.182C48.015 104.182 46.8986 104.264 46.8986 104.264C46.8986 104.264 45.274 103.613 45.274 98.9084C45.274 94.204 46.7336 90.1469 47.446 88.0488C47.8761 86.849 48.1221 85.591 48.1757 84.3175C48.1757 84.3175 48.7448 85.1298 52.7194 83.2619C56.694 81.3941 57.5888 76.125 57.5888 76.125L51.7333 77.0546C54.5999 76.8033 57.4294 76.2321 60.169 75.3518C64.7127 73.8923 66.6587 73.649 68.4223 66.7511" fill="white"/>
<path d="M53.1106 73.6781C52.2766 72.5617 57.0201 69.3343 58.2755 68.0963C59.5308 66.8583 54.227 70.19 52.9717 70.468C51.7163 70.746 50.5999 69.9077 51.2993 66.0026C51.8038 63.5489 52.9955 61.2891 54.7352 59.4868C53.7913 59.8786 52.9125 60.4118 52.1289 61.068C48.3976 64.2303 48.8059 67.6402 48.8059 67.6402C48.8059 67.6402 45.1528 69.2604 44.423 71.1152C43.9965 72.211 43.7048 73.3546 43.5542 74.5208C43.5542 74.5208 41.6082 76.3886 39.9836 78.2521C38.359 80.1156 36.982 80.4241 36.6562 82.8783C36.3304 85.3326 36.4955 91.314 38.2808 97.2347C40.0661 103.155 41.2824 105.753 41.7559 106.791C42.2294 107.829 46.4602 113.198 47.19 113.363C47.9198 113.528 48.6495 113.685 49.2186 113.363C49.7876 113.042 53.9968 112.06 53.8448 110.848C53.8086 110.554 53.7491 110.264 53.6667 109.979C52.1116 110.175 49.2664 111.17 48.5019 111.17C47.6678 111.17 46.8295 109.914 45.5741 108.516C44.3187 107.117 42.364 103.494 42.0991 99.0287C41.8341 94.5632 43.7714 90.3758 43.7714 88.282C43.7714 86.1883 41.2607 91.0751 41.8167 88.9814C42.3727 86.8877 44.6098 83.8166 46.2822 82.9782C47.9545 82.1399 49.9136 81.5839 50.626 80.1895C51.3384 78.7951 48.1153 79.7551 49.2316 78.6518C50.348 77.5484 57.6065 76.115 59.9782 74.7423C62.35 73.3697 53.949 74.7945 53.1106 73.6781Z" fill="#FF1F00"/>
<path opacity="0.5" d="M53.1106 73.6781C52.2766 72.5617 57.0201 69.3343 58.2755 68.0963C59.5308 66.8583 54.227 70.19 52.9717 70.468C51.7163 70.746 50.5999 69.9077 51.2993 66.0026C51.8038 63.5489 52.9955 61.2891 54.7352 59.4868C53.7913 59.8786 52.9125 60.4118 52.1289 61.068C48.3976 64.2303 48.8059 67.6402 48.8059 67.6402C48.8059 67.6402 45.1528 69.2604 44.423 71.1152C43.9965 72.211 43.7048 73.3546 43.5542 74.5208C43.5542 74.5208 41.6082 76.3886 39.9836 78.2521C38.359 80.1156 36.982 80.4241 36.6562 82.8783C36.3304 85.3326 36.4955 91.314 38.2808 97.2347C40.0661 103.155 41.2824 105.753 41.7559 106.791C42.2294 107.829 46.4602 113.198 47.19 113.363C47.9198 113.528 48.6495 113.685 49.2186 113.363C49.7876 113.042 53.9968 112.06 53.8448 110.848C53.8086 110.554 53.7491 110.264 53.6667 109.979C52.1116 110.175 49.2664 111.17 48.5019 111.17C47.6678 111.17 46.8295 109.914 45.5741 108.516C44.3187 107.117 42.364 103.494 42.0991 99.0287C41.8341 94.5632 43.7714 90.3758 43.7714 88.282C43.7714 86.1883 41.2607 91.0751 41.8167 88.9814C42.3727 86.8877 44.6098 83.8166 46.2822 82.9782C47.9545 82.1399 49.9136 81.5839 50.626 80.1895C51.3384 78.7951 48.1153 79.7551 49.2316 78.6518C50.348 77.5484 57.6065 76.115 59.9782 74.7423C62.35 73.3697 53.949 74.7945 53.1106 73.6781Z" fill="white"/>
<path d="M60.8249 58.6411C60.8249 58.6411 55.8773 57.9114 52.1373 61.0737C48.3973 64.236 48.8186 67.6285 48.8186 67.6285C48.8186 67.6285 45.1655 69.2488 44.4357 71.1036C44.0092 72.1994 43.7175 73.3429 43.5669 74.5091C43.5669 74.5091 41.6209 76.377 39.9963 78.2405C38.3717 80.104 36.9947 80.4124 36.6689 82.8666C36.3431 85.3209 36.5082 91.3024 38.2935 97.223C40.0788 103.144 41.2951 105.741 41.7686 106.779C42.2421 107.818 46.4729 113.187 47.2027 113.352C47.9325 113.517 48.6622 113.673 49.2313 113.352C49.8003 113.03 54.0095 112.048 53.8574 110.837C53.826 110.189 53.5988 109.567 53.2059 109.051L53.0452 108.808C53.0452 108.808 53.7749 107.427 53.2884 106.779C52.8019 106.132 52.3936 106.05 51.5031 105.237C50.6126 104.425 50.1261 104.182 49.0705 104.182C48.015 104.182 46.8986 104.264 46.8986 104.264C46.8986 104.264 45.274 103.613 45.274 98.9084C45.274 94.204 46.7336 90.1469 47.446 88.0488C47.8761 86.849 48.1221 85.591 48.1757 84.3175C48.1757 84.3175 48.7448 85.1298 52.7194 83.2619C56.694 81.3941 57.5888 76.125 57.5888 76.125L51.7333 77.0546C54.5999 76.8033 57.4294 76.2321 60.169 75.3518C64.7127 73.8923 66.6587 73.649 68.4223 66.7511" stroke="#263238" stroke-miterlimit="10" stroke-linecap="round"/>
<path d="M48.1669 84.3555L47.7021 80.6328" stroke="#263238" stroke-linecap="round" stroke-linejoin="round"/>
<path d="M71.1239 55.5571C73.4783 54.8273 74.0473 51.9083 75.4243 48.8241C76.5129 46.5346 77.7401 44.3137 79.0992 42.1737C76.7251 42.2064 74.3637 41.8211 72.123 41.0357C68.4699 39.7325 64.1695 40.6317 63.3615 41.5222C62.5536 42.4126 62.6318 41.2789 62.7925 44.0372C62.9532 46.7956 64.0088 50.7702 64.9644 52.1515C65.92 53.5328 66.5065 54.3234 66.5065 54.3234" fill="white"/>
<path d="M78.0569 42.165C76.027 42.0836 74.0203 41.7031 72.1015 41.0357C68.4484 39.7325 64.148 40.6317 63.34 41.5222C62.5321 42.4126 62.6103 41.2789 62.771 44.0372C62.9317 46.7956 63.9873 50.7702 64.9429 52.1515L65.2904 52.638L78.2567 42.265L78.0569 42.165Z" fill="#FF1F00"/>
<path opacity="0.5" d="M78.0569 42.165C76.027 42.0836 74.0203 41.7031 72.1015 41.0357C68.4484 39.7325 64.148 40.6317 63.34 41.5222C62.5321 42.4126 62.6103 41.2789 62.771 44.0372C62.9317 46.7956 63.9873 50.7702 64.9429 52.1515L65.2904 52.638L78.2567 42.265L78.0569 42.165Z" fill="white"/>
<path d="M71.1239 55.5571C73.4783 54.8273 74.0473 51.9083 75.4243 48.8241C76.5129 46.5346 77.7401 44.3137 79.0992 42.1737C76.7251 42.2064 74.3637 41.8211 72.123 41.0357C68.4699 39.7325 64.1695 40.6317 63.3615 41.5222C62.5536 42.4126 62.6318 41.2789 62.7925 44.0372C62.9532 46.7956 64.0088 50.7702 64.9644 52.1515C65.92 53.5328 66.5065 54.3234 66.5065 54.3234" stroke="#263238" stroke-miterlimit="10" stroke-linecap="round"/>
<path d="M70.5592 50.7702C71.9994 50.7813 73.4348 50.6046 74.8292 50.2446C75.016 49.7798 75.2115 49.3063 75.4243 48.8241C76.5129 46.5346 77.7401 44.3137 79.0992 42.1737C76.7251 42.2064 74.3637 41.8211 72.123 41.0357C68.4699 39.7325 64.1695 40.6317 63.3615 41.5222C62.5536 42.4126 62.6318 41.2789 62.7925 44.0372C62.9117 45.6227 63.1867 47.1926 63.6135 48.7242C64.9253 49.8189 67.0755 50.7354 70.5592 50.7702Z" stroke="#263238" stroke-miterlimit="10" stroke-linecap="round"/>
<path d="M71.32 54.2716L69.3652 45.6665" stroke="#263238" stroke-linecap="round" stroke-linejoin="round"/>
<path d="M73.5874 25.9974C73.8214 25.038 73.9926 24.0643 74.1 23.0827C74.2651 21.5406 70.5598 18.8083 66.7459 19.1341C62.932 19.4599 64.3134 23.1913 63.8268 24.4075C63.3403 25.6238 59.6872 24.325 58.7142 26.5143C57.7412 28.7036 59.4439 29.3552 59.4439 29.9894C59.4439 30.6236 56.4423 32.3437 56.8376 36.1576C57.2329 39.9715 63.8138 43.6985 65.2733 44.0243C66.7329 44.35 68.5182 42.9687 68.5182 41.8523C68.5182 40.736 70.9507 40.3103 71.6023 39.246C72.2539 38.1818 70.5468 34.5417 70.6249 33.7294C70.7031 32.9171 73.2312 29.6766 72.4103 28.8643C71.5893 28.052 73.5874 25.9974 73.5874 25.9974Z" fill="#263238" stroke="#263238" stroke-miterlimit="10" stroke-linecap="round"/>
<path d="M69.7033 26.9082C69.7033 26.9082 70.9631 26.7692 70.9631 23.9761C70.9631 21.183 66.9146 21.8824 66.3543 22.9988C65.7939 24.1151 66.2153 26.2089 64.8209 26.7692C63.4265 27.3296 61.1895 27.3252 61.1895 28.4416V29.9793" stroke="white" stroke-width="0.75" stroke-linecap="round" stroke-linejoin="round"/>
<path d="M66.0679 29.1412C66.0679 29.1412 60.9031 28.8632 58.249 33.6067" stroke="white" stroke-width="0.75" stroke-linecap="round" stroke-linejoin="round"/>
<path d="M66.7755 30.3965C66.7755 30.3965 63.3004 30.5355 61.4717 32.9072" stroke="white" stroke-width="0.75" stroke-linecap="round" stroke-linejoin="round"/>
<path d="M72.7271 26.509C72.9573 26.2093 75.9589 29.3282 76.0762 29.68C76.1947 30.1088 76.2889 30.5438 76.3585 30.9832C76.3721 31.0653 76.4023 31.1438 76.4471 31.214C76.4918 31.2842 76.5504 31.3445 76.6191 31.3915L78.7172 32.8293C78.8526 32.9241 78.9454 33.0683 78.9754 33.2308C79.0055 33.3933 78.9705 33.5611 78.8779 33.6981L78.1482 34.7493C78.0847 34.8387 78.0463 34.9435 78.0372 35.0527C78.028 35.162 78.0483 35.2717 78.096 35.3704C78.6825 36.6301 80.7588 41.1043 80.6198 41.4518C80.4566 41.8784 80.1365 42.2266 79.725 42.4248C79.321 42.5855 71.8583 45.1006 70.9635 45.1831C70.2772 45.244 68.6265 42.4248 67.8967 41.113C67.8109 40.9684 67.6711 40.8639 67.5082 40.8224C67.3453 40.7808 67.1726 40.8057 67.028 40.8914C66.7152 41.072 66.3623 41.1718 66.0013 41.1816C65.6403 41.1915 65.2825 41.1112 64.9603 40.9479C63.3357 40.2138 61.4852 38.8368 62.2802 37.2948C63.0751 35.7527 64.3913 35.6745 64.9603 36.0785C65.3382 36.3478 66.0072 36.9125 66.4111 37.2513C66.5086 37.3359 66.63 37.3881 66.7584 37.4005C66.8869 37.413 67.016 37.3851 67.1279 37.3208L67.471 37.121C67.5529 37.0764 67.6237 37.014 67.6781 36.9383C67.7326 36.8627 67.7693 36.7757 67.7856 36.6839C67.8018 36.5921 67.7972 36.4979 67.7721 36.4081C67.747 36.3183 67.702 36.2354 67.6404 36.1654C67.5105 36.0004 67.4078 35.8156 67.3364 35.618C67.3364 35.618 69.6864 33.5895 68.8784 32.4557C68.0705 31.322 65.8769 29.6149 66.1201 28.7244C66.3634 27.8339 69.5952 26.6958 70.9852 26.6958C71.5021 26.6784 72.5577 26.7349 72.7271 26.509Z" fill="white"/>
<path d="M68.8571 32.4427C69.6651 33.5764 67.315 35.605 67.315 35.605C67.3865 35.8025 67.4891 35.9873 67.6191 36.1523C67.6807 36.2223 67.7257 36.3053 67.7508 36.3951C67.7759 36.4848 67.7805 36.5791 67.7642 36.6709C67.748 36.7627 67.7112 36.8496 67.6568 36.9253C67.6024 37.0009 67.5316 37.0634 67.4497 37.108L67.1065 37.3078C66.9947 37.3721 66.8655 37.3999 66.7371 37.3875C66.6086 37.375 66.4873 37.3229 66.3898 37.2383C65.9858 36.8995 65.3169 36.3348 64.939 36.0655C64.3699 35.6615 63.0711 35.7397 62.2588 37.2817C61.4465 38.8238 63.3144 40.2008 64.939 40.9349C65.2611 41.0981 65.6189 41.1785 65.98 41.1686C66.341 41.1587 66.6939 41.059 67.0066 40.8784C67.1512 40.7926 67.324 40.7678 67.4869 40.8093C67.6498 40.8509 67.7895 40.9554 67.8754 41.0999C68.6052 42.4031 70.2558 45.2309 70.9421 45.1701C71.837 45.0876 79.2997 42.5638 79.7036 42.4118C80.1152 42.2135 80.4353 41.8654 80.5985 41.4388C80.5985 41.4388 77.3753 42.9634 75.6204 41.3823C73.8655 39.8011 71.5807 37.5206 70.877 36.4651C70.1733 35.4095 71.6372 33.0769 70.1733 30.8442C68.7094 28.6115 66.0771 28.7027 66.0771 28.7027C65.8555 29.5975 68.0448 31.3003 68.8571 32.4427Z" fill="#FF1F00"/>
<path opacity="0.5" d="M68.8571 32.4427C69.6651 33.5764 67.315 35.605 67.315 35.605C67.3865 35.8025 67.4891 35.9873 67.6191 36.1523C67.6807 36.2223 67.7257 36.3053 67.7508 36.3951C67.7759 36.4848 67.7805 36.5791 67.7642 36.6709C67.748 36.7627 67.7112 36.8496 67.6568 36.9253C67.6024 37.0009 67.5316 37.0634 67.4497 37.108L67.1065 37.3078C66.9947 37.3721 66.8655 37.3999 66.7371 37.3875C66.6086 37.375 66.4873 37.3229 66.3898 37.2383C65.9858 36.8995 65.3169 36.3348 64.939 36.0655C64.3699 35.6615 63.0711 35.7397 62.2588 37.2817C61.4465 38.8238 63.3144 40.2008 64.939 40.9349C65.2611 41.0981 65.6189 41.1785 65.98 41.1686C66.341 41.1587 66.6939 41.059 67.0066 40.8784C67.1512 40.7926 67.324 40.7678 67.4869 40.8093C67.6498 40.8509 67.7895 40.9554 67.8754 41.0999C68.6052 42.4031 70.2558 45.2309 70.9421 45.1701C71.837 45.0876 79.2997 42.5638 79.7036 42.4118C80.1152 42.2135 80.4353 41.8654 80.5985 41.4388C80.5985 41.4388 77.3753 42.9634 75.6204 41.3823C73.8655 39.8011 71.5807 37.5206 70.877 36.4651C70.1733 35.4095 71.6372 33.0769 70.1733 30.8442C68.7094 28.6115 66.0771 28.7027 66.0771 28.7027C65.8555 29.5975 68.0448 31.3003 68.8571 32.4427Z" fill="white"/>
<path d="M72.7271 26.509C72.9573 26.2093 75.9589 29.3282 76.0762 29.68C76.1947 30.1088 76.2889 30.5438 76.3585 30.9832C76.3721 31.0653 76.4023 31.1438 76.4471 31.214C76.4918 31.2842 76.5504 31.3445 76.6191 31.3915L78.7172 32.8293C78.8526 32.9241 78.9454 33.0683 78.9754 33.2308C79.0055 33.3933 78.9705 33.5611 78.8779 33.6981L78.1482 34.7493C78.0847 34.8387 78.0463 34.9435 78.0372 35.0527C78.028 35.162 78.0483 35.2717 78.096 35.3704C78.6825 36.6301 80.7588 41.1043 80.6198 41.4518C80.4566 41.8784 80.1365 42.2266 79.725 42.4248C79.321 42.5855 71.8583 45.1006 70.9635 45.1831C70.2772 45.244 68.6265 42.4248 67.8967 41.113C67.8109 40.9684 67.6711 40.8639 67.5082 40.8224C67.3453 40.7808 67.1726 40.8057 67.028 40.8914C66.7152 41.072 66.3623 41.1718 66.0013 41.1816C65.6403 41.1915 65.2825 41.1112 64.9603 40.9479C63.3357 40.2138 61.4852 38.8368 62.2802 37.2948C63.0751 35.7527 64.3913 35.6745 64.9603 36.0785C65.3382 36.3478 66.0072 36.9125 66.4111 37.2513C66.5086 37.3359 66.63 37.3881 66.7584 37.4005C66.8869 37.413 67.016 37.3851 67.1279 37.3208L67.471 37.121C67.5529 37.0764 67.6237 37.014 67.6781 36.9383C67.7326 36.8627 67.7693 36.7757 67.7856 36.6839C67.8018 36.5921 67.7972 36.4979 67.7721 36.4081C67.747 36.3183 67.702 36.2354 67.6404 36.1654V36.1654C67.5105 36.0004 67.4078 35.8156 67.3364 35.618C67.3364 35.618 69.6864 33.5895 68.8784 32.4557C68.0705 31.322 65.8769 29.6149 66.1201 28.7244C66.3634 27.8339 69.5952 26.6958 70.9852 26.6958C71.5021 26.6784 72.5577 26.7349 72.7271 26.509Z" stroke="#263238" stroke-miterlimit="10" stroke-linecap="round"/>
<path d="M75.003 30.8532C75.003 30.8532 73.2654 30.8532 72.7746 31.1008C72.2837 31.3484 71.6582 33.0815 71.6582 33.0815L73.2698 32.0911L75.1246 31.7219L75.6198 30.3623L75.003 30.8532Z" fill="#263238"/>
<path d="M75.1252 32.5864L73.6396 33.3292H75.1252" fill="white"/>
<path d="M75.1252 32.5864L73.6396 33.3292H75.1252" stroke="#263238" stroke-miterlimit="10" stroke-linecap="round"/>
<path d="M73.5612 112.101C70.7515 112.965 68.0551 114.162 65.5295 115.667C61.7243 118.017 55.3867 121.753 52.5501 121.926C49.7136 122.1 48.8188 121.197 47.116 120.549C45.4132 119.902 44.5097 122.009 44.5097 123.225C44.5097 124.441 44.5097 125.01 43.6974 126.148C42.8851 127.287 40.7871 131.483 40.7871 131.483C40.7871 131.483 39.649 136.026 40.7871 136.187C41.9251 136.348 42.6506 134.81 45.0049 132.864C47.3593 130.918 51.0863 126.696 54.4136 126.374C57.741 126.053 72.5882 124.507 78.7391 121.596C84.8899 118.686 84.499 119.485 86.2843 118.121C88.0696 116.757 87.418 114.146 86.5276 112.361C86.0539 111.352 85.3608 110.462 84.499 109.755" fill="white"/>
<path d="M82.4053 119.953C81.6755 119.823 81.1021 119.632 81.1021 119.363C81.1021 118.659 83.2089 118.659 84.2644 117.256C85.32 115.853 84.0863 114.445 82.6833 112.864C82.1446 112.26 81.48 111.396 80.7633 110.553L73.5786 112.1C70.7688 112.964 68.0725 114.161 65.5469 115.666C61.7243 118.016 55.3867 121.752 52.5501 121.925C49.7136 122.099 48.8188 121.196 47.116 120.548C45.4132 119.901 44.5097 122.008 44.5097 123.224C44.5097 124.44 44.5097 125.009 43.6974 126.148C42.8851 127.286 40.7871 131.482 40.7871 131.482C40.7871 131.482 39.649 136.025 40.7871 136.186C41.9251 136.347 42.6506 134.809 45.0049 132.863C47.3593 130.917 51.0863 126.695 54.4136 126.373C57.741 126.052 72.5882 124.506 78.7391 121.595C80.3724 120.822 81.5321 120.314 82.4053 119.953Z" fill="#FF1F00"/>
<path opacity="0.5" d="M82.4053 119.953C81.6755 119.823 81.1021 119.632 81.1021 119.363C81.1021 118.659 83.2089 118.659 84.2644 117.256C85.32 115.853 84.0863 114.445 82.6833 112.864C82.1446 112.26 81.48 111.396 80.7633 110.553L73.5786 112.1C70.7688 112.964 68.0725 114.161 65.5469 115.666C61.7243 118.016 55.3867 121.752 52.5501 121.925C49.7136 122.099 48.8188 121.196 47.116 120.548C45.4132 119.901 44.5097 122.008 44.5097 123.224C44.5097 124.44 44.5097 125.009 43.6974 126.148C42.8851 127.286 40.7871 131.482 40.7871 131.482C40.7871 131.482 39.649 136.025 40.7871 136.186C41.9251 136.347 42.6506 134.809 45.0049 132.863C47.3593 130.917 51.0863 126.695 54.4136 126.373C57.741 126.052 72.5882 124.506 78.7391 121.595C80.3724 120.822 81.5321 120.314 82.4053 119.953Z" fill="white"/>
<path d="M73.5612 112.101C70.7515 112.965 68.0551 114.162 65.5295 115.667C61.7243 118.017 55.3867 121.753 52.5501 121.926C49.7136 122.1 48.8188 121.197 47.116 120.549C45.4132 119.902 44.5097 122.009 44.5097 123.225C44.5097 124.441 44.5097 125.01 43.6974 126.148C42.8851 127.287 40.7871 131.483 40.7871 131.483C40.7871 131.483 39.649 136.026 40.7871 136.187C41.9251 136.348 42.6506 134.81 45.0049 132.864C47.3593 130.918 51.0863 126.696 54.4136 126.374C57.741 126.053 72.5882 124.507 78.7391 121.596C84.8899 118.686 84.499 119.485 86.2843 118.121C88.0696 116.757 87.418 114.146 86.5276 112.361C86.0539 111.352 85.3608 110.462 84.499 109.755" stroke="#263238" stroke-miterlimit="10" stroke-linecap="round"/>
<path d="M86.8794 113.239C86.8794 113.239 84.9464 105.685 72.0191 94.7601C63.3315 87.4103 59.4438 85.8379 54.4962 90.2164C49.5485 94.595 50.5216 97.4402 52.3242 100.207C54.1269 102.974 61.4072 108.239 67.4103 110.919C73.4135 113.599 79.4992 117.326 82.9048 117" fill="white"/>
<path d="M77.2225 107.769C75.4633 107.595 78.6256 111.11 74.9377 110.228C71.2498 109.346 58.4311 98.4647 55.7944 94.9505C53.6225 92.0575 55.5034 89.6467 56.2288 88.8691C55.6141 89.2541 55.0329 89.69 54.4913 90.1723C49.5437 94.5552 50.5167 97.3917 52.3194 100.163C54.122 102.934 61.4023 108.195 67.4055 110.875C73.4086 113.555 79.4943 117.282 82.8999 116.956L84.5201 115.436C84.2291 114.611 83.482 113.764 82.6783 112.856C81.2709 111.283 78.9774 107.947 77.2225 107.769Z" fill="#FF1F00"/>
<path opacity="0.5" d="M77.2225 107.769C75.4633 107.595 78.6256 111.11 74.9377 110.228C71.2498 109.346 58.4311 98.4647 55.7944 94.9505C53.6225 92.0575 55.5034 89.6467 56.2288 88.8691C55.6141 89.2541 55.0329 89.69 54.4913 90.1723C49.5437 94.5552 50.5167 97.3917 52.3194 100.163C54.122 102.934 61.4023 108.195 67.4055 110.875C73.4086 113.555 79.4943 117.282 82.8999 116.956L84.5201 115.436C84.2291 114.611 83.482 113.764 82.6783 112.856C81.2709 111.283 78.9774 107.947 77.2225 107.769Z" fill="white"/>
<path d="M86.8794 113.239C86.8794 113.239 84.9464 105.685 72.0191 94.7601C63.3315 87.4103 59.4438 85.8379 54.4962 90.2164C49.5485 94.595 50.5216 97.4402 52.3242 100.207C54.1269 102.974 61.4072 108.239 67.4103 110.919C73.4135 113.599 79.4992 117.326 82.9048 117" stroke="#263238" stroke-miterlimit="10" stroke-linecap="round"/>
<path d="M66.989 120.375C66.168 118.564 66.3679 116.527 66.7631 114.954C66.3505 115.18 65.9378 115.415 65.5295 115.666C61.7243 118.016 55.3867 121.752 52.5501 121.926C49.7136 122.1 48.8188 121.196 47.116 120.549C45.4132 119.902 44.5097 122.008 44.5097 123.225C44.5097 124.441 44.5097 125.01 43.6974 126.148C42.8851 127.286 40.7871 131.482 40.7871 131.482C40.7871 131.482 39.649 136.026 40.7871 136.187C41.9251 136.347 42.6506 134.81 45.0049 132.864C47.3593 130.918 51.0863 126.695 54.4136 126.374C59.9799 125.845 65.5154 125.032 70.9984 123.937C69.2441 123.326 67.8029 122.045 66.989 120.375Z" fill="#FF1F00"/>
<path opacity="0.2" d="M66.989 120.375C66.168 118.564 66.3679 116.527 66.7631 114.954C66.3505 115.18 65.9378 115.415 65.5295 115.666C61.7243 118.016 55.3867 121.752 52.5501 121.926C49.7136 122.1 48.8188 121.196 47.116 120.549C45.4132 119.902 44.5097 122.008 44.5097 123.225C44.5097 124.441 44.5097 125.01 43.6974 126.148C42.8851 127.286 40.7871 131.482 40.7871 131.482C40.7871 131.482 39.649 136.026 40.7871 136.187C41.9251 136.347 42.6506 134.81 45.0049 132.864C47.3593 130.918 51.0863 126.695 54.4136 126.374C59.9799 125.845 65.5154 125.032 70.9984 123.937C69.2441 123.326 67.8029 122.045 66.989 120.375Z" fill="black"/>
<path d="M66.989 120.375C66.168 118.564 66.3679 116.527 66.7631 114.954C66.3505 115.18 65.9378 115.415 65.5295 115.666C61.7243 118.016 55.3867 121.752 52.5501 121.926C49.7136 122.1 48.8188 121.196 47.116 120.549C45.4132 119.902 44.5097 122.008 44.5097 123.225C44.5097 124.441 44.5097 125.01 43.6974 126.148C42.8851 127.286 40.7871 131.482 40.7871 131.482C40.7871 131.482 39.649 136.026 40.7871 136.187C41.9251 136.347 42.6506 134.81 45.0049 132.864C47.3593 130.918 51.0863 126.695 54.4136 126.374C59.9799 125.845 65.5154 125.032 70.9984 123.937C69.2441 123.326 67.8029 122.045 66.989 120.375V120.375Z" stroke="#263238" stroke-linecap="round" stroke-linejoin="round"/>
<path d="M52.9111 99.0898C52.9111 99.0898 70.6557 110.445 75.8596 112.339C81.0635 114.232 79.8819 110.679 79.8819 110.679" stroke="#263238" stroke-linecap="round" stroke-linejoin="round"/>
<path d="M68.7607 121.327C68.7607 121.327 73.7301 121.801 77.0401 118.721" stroke="#263238" stroke-linecap="round" stroke-linejoin="round"/>
<path d="M67.6708 57.7406C67.6708 57.7406 61.3809 53.627 54.1006 54.4957C46.8204 55.3645 38.1762 62.8098 32.5726 69.1779C26.9691 75.5459 2.05726 110.279 2.05726 110.279L1.28406 104.602C0.92216 101.927 1.62918 99.2177 3.25181 97.0609L7.20904 91.7918C7.20904 91.7918 7.60432 85.3108 11.1185 81.9835C13.4518 79.801 15.987 77.8448 18.6898 76.141C19.5976 75.5155 28.6806 66.4152 35.0877 59.9081C41.4949 53.4011 49.2703 48.7402 56.316 50.7123C63.3617 52.6844 66.1852 54.1873 67.8271 55.6382C69.4691 57.089 69.5256 56.9413 69.5256 56.9413L67.6708 57.7406Z" fill="#FF1F00" stroke="#263238" stroke-miterlimit="10" stroke-linecap="round"/>
<path d="M24.9658 73.18L26.4297 71.5337" stroke="#263238" stroke-miterlimit="10" stroke-linecap="round"/>
<path d="M7.20898 91.7932L24.3628 73.7446" stroke="#263238" stroke-miterlimit="10" stroke-linecap="round"/>
<path d="M48.9306 53.5322C48.4702 53.7147 48.0097 53.9188 47.5449 54.1577" stroke="#263238" stroke-miterlimit="10" stroke-linecap="round"/>
<path d="M68.4609 57.563C68.4609 57.563 59.5865 50.4261 50.3037 53.0715" stroke="#263238" stroke-miterlimit="10" stroke-linecap="round"/>
<path d="M53.0368 108.855C53.0368 108.855 53.7666 107.474 53.2801 106.827C52.7936 106.179 52.3852 106.097 51.4948 105.284C50.6043 104.472 50.1178 104.229 49.0622 104.229C48.0067 104.229 46.8903 104.311 46.8903 104.311C46.8903 104.311 45.2657 103.66 45.2657 98.9555C45.3085 96.0513 45.7858 93.1698 46.6818 90.4069C45.26 91.2485 43.667 91.7592 42.0209 91.9012C41.0334 92.0083 40.0349 91.8633 39.1187 91.4797C38.2026 91.0961 37.3987 90.4863 36.7822 89.7075C37.046 92.2627 37.5433 94.7883 38.2678 97.2528C40.0531 103.173 41.2694 105.771 41.7429 106.809C42.2164 107.847 46.4472 113.216 47.177 113.381C47.9068 113.546 48.6365 113.703 49.2056 113.381C49.7746 113.06 53.9838 112.078 53.8317 110.866C53.8003 110.219 53.5731 109.596 53.1802 109.081L53.0368 108.855Z" fill="#FF1F00"/>
<path opacity="0.2" d="M53.8478 110.884C53.8478 110.753 53.8087 110.636 53.787 110.527C53.787 110.493 53.787 110.458 53.787 110.423C53.787 110.388 53.7522 110.267 53.7349 110.197C53.7175 110.128 53.7001 110.08 53.6871 110.028C52.132 110.223 49.2868 111.218 48.5223 111.218C47.6883 111.218 46.8499 109.963 45.5945 108.564C44.3392 107.165 42.3844 103.543 42.1195 99.0772C41.9501 96.4014 42.5843 93.8298 43.1186 91.7404C42.771 91.8099 42.4149 91.8621 42.0326 91.9012C41.0451 92.0083 40.0466 91.8633 39.1305 91.4797C38.2143 91.0961 37.4104 90.4863 36.7939 89.7075C36.7939 89.8205 36.82 89.9377 36.833 90.0507C36.8548 90.2505 36.8808 90.4503 36.9069 90.6588C36.9069 90.7935 36.946 90.9368 36.9634 91.0932C36.9807 91.2496 37.0198 91.4668 37.0459 91.6579C37.072 91.849 37.0937 91.9489 37.1154 92.0923C37.1371 92.2356 37.1805 92.4745 37.2153 92.6657L37.2935 93.1001L37.3977 93.6908L37.489 94.1252C37.5324 94.3294 37.5802 94.5379 37.628 94.7464C37.6584 94.8854 37.6888 95.0244 37.7235 95.159C37.78 95.3936 37.8408 95.6282 37.9016 95.8584C37.9277 95.9757 37.9581 96.093 37.9885 96.2059C38.0841 96.5577 38.184 96.9096 38.2882 97.2571C40.0735 103.178 41.2898 105.775 41.7633 106.814C41.8029 106.897 41.8478 106.979 41.8979 107.057C41.9848 107.204 42.0978 107.383 42.2368 107.587C42.467 107.926 42.7624 108.33 43.1055 108.773L43.3097 109.038C44.7518 110.936 46.7326 113.277 47.2191 113.381C47.9489 113.542 48.6787 113.703 49.2477 113.381C49.4586 113.282 49.6764 113.198 49.8993 113.129L50.2337 113.021C51.6238 112.569 53.9694 111.796 53.8478 110.884Z" fill="black"/>
<path d="M52.5706 107.41L51.5498 108.257C51.5498 108.257 52.3056 108.205 53.1961 109.099" stroke="#263238" stroke-linecap="round" stroke-linejoin="round"/>
<path d="M53.0368 108.855C53.0368 108.855 53.7666 107.474 53.2801 106.827C52.7936 106.179 52.3852 106.097 51.4948 105.284C50.6043 104.472 50.1178 104.229 49.0622 104.229C48.0067 104.229 46.8903 104.311 46.8903 104.311C46.8903 104.311 45.2657 103.66 45.2657 98.9555C45.3085 96.0513 45.7858 93.1698 46.6818 90.4069C45.26 91.2485 43.667 91.7592 42.0209 91.9012C41.0334 92.0083 40.0349 91.8633 39.1187 91.4797C38.2026 91.0961 37.3987 90.4863 36.7822 89.7075C37.046 92.2627 37.5433 94.7883 38.2678 97.2528C40.0531 103.173 41.2694 105.771 41.7429 106.809C42.2164 107.847 46.4472 113.216 47.177 113.381C47.9068 113.546 48.6365 113.703 49.2056 113.381C49.7746 113.06 53.9838 112.078 53.8317 110.866C53.8003 110.219 53.5731 109.596 53.1802 109.081L53.0368 108.855Z" stroke="#263238" stroke-linecap="round" stroke-linejoin="round"/>
</svg>
