<svg width="13" height="13" viewBox="0 0 13 13" fill="none" xmlns="http://www.w3.org/2000/svg">
<g clip-path="url(#clip0)">
<path d="M10.8333 6.49967C10.2375 6.49967 9.75 6.01217 9.75 5.41634C9.75 4.82051 10.2375 4.33301 10.8333 4.33301C11.4292 4.33301 11.9167 4.82051 11.9167 5.41634C11.9167 6.01217 11.4292 6.49967 10.8333 6.49967ZM10.8333 4.87467C10.5083 4.87467 10.2917 5.09134 10.2917 5.41634C10.2917 5.74134 10.5083 5.95801 10.8333 5.95801C11.1583 5.95801 11.375 5.74134 11.375 5.41634C11.375 5.09134 11.1583 4.87467 10.8333 4.87467Z" fill="black"/>
<path d="M12.7292 9.20866C12.5667 9.20866 12.4583 9.10032 12.4583 8.93782V8.39616C12.4583 7.96282 12.0792 7.58366 11.6458 7.58366H10.0208C9.85833 7.58366 9.75 7.47532 9.75 7.31283C9.75 7.15033 9.85833 7.04199 10.0208 7.04199H11.6458C12.4042 7.04199 13 7.63782 13 8.39616V8.93782C13 9.10032 12.8917 9.20866 12.7292 9.20866Z" fill="black"/>
<path d="M2.16634 6.49967C1.57051 6.49967 1.08301 6.01217 1.08301 5.41634C1.08301 4.82051 1.57051 4.33301 2.16634 4.33301C2.76217 4.33301 3.24967 4.82051 3.24967 5.41634C3.24967 6.01217 2.76217 6.49967 2.16634 6.49967ZM2.16634 4.87467C1.84134 4.87467 1.62467 5.09134 1.62467 5.41634C1.62467 5.74134 1.84134 5.95801 2.16634 5.95801C2.49134 5.95801 2.70801 5.74134 2.70801 5.41634C2.70801 5.09134 2.49134 4.87467 2.16634 4.87467Z" fill="black"/>
<path d="M0.270833 9.20866C0.108333 9.20866 0 9.10032 0 8.93782V8.39616C0 7.63782 0.595833 7.04199 1.35417 7.04199H2.97917C3.14167 7.04199 3.25 7.15033 3.25 7.31283C3.25 7.47532 3.14167 7.58366 2.97917 7.58366H1.35417C0.920833 7.58366 0.541667 7.96282 0.541667 8.39616V8.93782C0.541667 9.10032 0.433333 9.20866 0.270833 9.20866Z" fill="black"/>
<path d="M6.5 6.77051C5.57917 6.77051 4.875 6.06634 4.875 5.14551C4.875 4.22467 5.57917 3.52051 6.5 3.52051C7.42083 3.52051 8.125 4.22467 8.125 5.14551C8.125 6.06634 7.42083 6.77051 6.5 6.77051ZM6.5 4.06217C5.90417 4.06217 5.41667 4.54967 5.41667 5.14551C5.41667 5.74134 5.90417 6.22884 6.5 6.22884C7.09583 6.22884 7.58333 5.74134 7.58333 5.14551C7.58333 4.54967 7.09583 4.06217 6.5 4.06217Z" fill="black"/>
<path d="M9.20801 10.2913C9.04551 10.2913 8.93717 10.183 8.93717 10.0205V8.93717C8.93717 8.50384 8.55801 8.12467 8.12467 8.12467H4.87467C4.44134 8.12467 4.06217 8.50384 4.06217 8.93717V10.0205C4.06217 10.183 3.95384 10.2913 3.79134 10.2913C3.62884 10.2913 3.52051 10.183 3.52051 10.0205V8.93717C3.52051 8.17884 4.11634 7.58301 4.87467 7.58301H8.12467C8.88301 7.58301 9.47884 8.17884 9.47884 8.93717V10.0205C9.47884 10.183 9.37051 10.2913 9.20801 10.2913Z" fill="black"/>
</g>
<defs>
<clipPath id="clip0">
<rect width="13" height="13" fill="white"/>
</clipPath>
</defs>
</svg>
