<svg width="301" height="138" viewBox="0 0 301 138" fill="none" xmlns="http://www.w3.org/2000/svg">
<path d="M0 0H301V106C301 106 248.325 137 151.002 137C53.6783 137 0 106 0 106V0Z" fill="#7E7E7E"/>
<path fill-rule="evenodd" clip-rule="evenodd" d="M0 106.437C6.60347 109.276 77.3112 138.904 147.49 137C252.84 134.141 301 105.5 301 105.5L301 67.6358H296.1V73.6981H273.763V97.165H262.048V89.3427H248.068V73.6981H213.43V92.1587H208.041V97.2041H204.507V65.3869H200.602V57.5646H193.905V64.2723H186.642V91.1223H183.244V97.2823H179.339V78.2546H152.004V93.8992H143.061V100.607H138.024V104.518H133.006V100.079L129.921 96.989V90.0076H116.253V106.219H111.216V102.308H105.632V57.5646H101.238V45.2445H96.2204V39.0845H89.5233V34H79.3701V43.0152H73.7859V52.5193H70.4471V85.4316H64.2967V79.3693H56.4866V88.3258H47.544V62.5905L44.1857 59.2269V47.4934H25.7538V55.8829H16.2646V72.6617H11.7933V69.2981H6.20911L2.85077 72.6617L0 74V106.437Z" fill="#3C3C3B"/>
</svg>
