<svg width="11" height="11" viewBox="0 0 11 11" fill="none" xmlns="http://www.w3.org/2000/svg">
<path d="M10.1203 7.09C10.1203 6.57122 9.75067 6.13719 9.26092 6.03737V4.87706C9.26092 4.77135 9.2091 4.67239 9.12222 4.61217C9.03533 4.55195 8.92443 4.53816 8.82549 4.5753L8.2104 4.80596C7.80648 4.38604 7.31551 4.06977 6.77749 3.87561C7.30619 3.48385 7.64956 2.85555 7.64956 2.14848C7.64956 0.963788 6.68577 0 5.50108 0C4.31638 0 3.35259 0.963788 3.35259 2.14848C3.35259 2.85555 3.69596 3.48385 4.22466 3.87561C3.68662 4.06979 3.19567 4.38607 2.79175 4.80596L2.17666 4.5753C2.0777 4.53816 1.9668 4.55195 1.87994 4.61217C1.79305 4.67239 1.74123 4.77135 1.74123 4.87706V6.03737C1.25148 6.13719 0.881836 6.5712 0.881836 7.09C0.881836 7.60879 1.25148 8.04281 1.74123 8.14262V9.38888C1.74123 9.52322 1.82457 9.64347 1.95034 9.69063L5.38792 10.9797C5.46041 11.0067 5.54173 11.0067 5.61422 10.9797L9.05179 9.69063C9.17756 9.64347 9.2609 9.52322 9.2609 9.38888V8.14262C9.75067 8.04281 10.1203 7.60877 10.1203 7.09ZM3.99714 2.14848C3.99714 1.31921 4.6718 0.644545 5.50108 0.644545C6.33035 0.644545 7.00501 1.31921 7.00501 2.14848C7.00501 2.97776 6.33035 3.65242 5.50108 3.65242C4.6718 3.65242 3.99714 2.97776 3.99714 2.14848ZM5.50108 4.29697C6.25612 4.29697 6.97728 4.56985 7.53997 5.05738L5.50108 5.82196L3.46219 5.05738C4.0249 4.56985 4.74606 4.29697 5.50108 4.29697ZM1.52638 7.09C1.52638 6.85306 1.71914 6.6603 1.95608 6.6603H2.17093V7.51969H1.95608C1.71914 7.51969 1.52638 7.32693 1.52638 7.09ZM2.38577 8.15343C2.63064 8.10352 2.81547 7.8865 2.81547 7.62712V6.55288C2.81547 6.29349 2.63064 6.07647 2.38577 6.02656V5.3421L5.1788 6.38948V10.2129L2.38577 9.16556V8.15343ZM5.82335 10.2129V6.38948L8.61638 5.3421V6.02656C8.37151 6.07647 8.18668 6.29349 8.18668 6.55288V7.62712C8.18668 7.8865 8.37151 8.10352 8.61638 8.15343V9.16554L5.82335 10.2129ZM9.04607 7.51969H8.83123V6.6603H9.04607C9.28301 6.6603 9.47577 6.85306 9.47577 7.09C9.47577 7.32693 9.28303 7.51969 9.04607 7.51969Z" fill="black"/>
</svg>
