<svg width="149" height="147" viewBox="0 0 149 147" fill="none" xmlns="http://www.w3.org/2000/svg">
<path d="M52.1627 123.376C47.7016 126.295 42.6715 134.083 40.1564 137.245C37.6413 140.408 37.6457 144.951 36.5901 146.168C35.5346 147.384 31.8858 143.653 32.6807 140.894C33.4756 138.136 34.8526 137.571 34.5485 136.272C34.2444 134.974 33.493 134.161 34.3053 132.458C35.1176 130.756 37.4676 132.38 39.8219 130.756C42.1763 129.131 44.5263 122.155 47.4453 114.857C50.3644 107.56 56.5326 107.716 57.2624 106.582C57.9921 105.449 62.1275 90.6796 66.3497 91.4137C70.5719 92.1478 78.1996 99.6061 75.7714 103.681C73.3432 107.755 70.498 107.66 67.0838 110.01C63.6695 112.36 64.0822 112.85 61.8104 115.283C59.5385 117.716 57.9009 118.124 56.6977 118.445C56.6977 118.445 54.9949 120.313 53.9393 121.69C52.8838 123.067 52.1627 123.376 52.1627 123.376Z" fill="white"/>
<path d="M44.0345 127.79C45.4376 125.158 49.6511 118.833 54.0253 114.971C58.3995 111.11 72.2911 105.311 72.2911 105.311L74.9929 104.772C75.2683 104.417 75.5222 104.046 75.7531 103.66C78.1856 99.6073 70.5622 92.1446 66.3444 91.4149C62.1265 90.6851 57.9869 105.445 57.2571 106.583C56.5273 107.722 50.3635 107.557 47.4401 114.858C44.5167 122.16 42.1666 129.137 39.8166 130.757C37.4666 132.377 35.1123 130.757 34.3 132.46C33.4877 134.162 34.2174 134.975 34.5432 136.274C34.869 137.572 33.4877 138.141 32.6754 140.895C31.8631 143.649 35.5163 147.385 36.5848 146.169C36.9845 145.551 37.2576 144.86 37.3884 144.136C36.7201 142.333 36.5271 140.388 36.8281 138.489C37.3667 134.115 42.6271 130.427 44.0345 127.79Z" fill="#FF1F00"/>
<path opacity="0.5" d="M44.0345 127.79C45.4376 125.158 49.6511 118.833 54.0253 114.971C58.3995 111.11 72.2911 105.311 72.2911 105.311L74.9929 104.772C75.2683 104.417 75.5222 104.046 75.7531 103.66C78.1856 99.6073 70.5622 92.1446 66.3444 91.4149C62.1265 90.6851 57.9869 105.445 57.2571 106.583C56.5273 107.722 50.3635 107.557 47.4401 114.858C44.5167 122.16 42.1666 129.137 39.8166 130.757C37.4666 132.377 35.1123 130.757 34.3 132.46C33.4877 134.162 34.2174 134.975 34.5432 136.274C34.869 137.572 33.4877 138.141 32.6754 140.895C31.8631 143.649 35.5163 147.385 36.5848 146.169C36.9845 145.551 37.2576 144.86 37.3884 144.136C36.7201 142.333 36.5271 140.388 36.8281 138.489C37.3667 134.115 42.6271 130.427 44.0345 127.79Z" fill="white"/>
<path d="M52.1627 123.376C47.7016 126.295 42.6715 134.083 40.1564 137.245C37.6413 140.408 37.6457 144.951 36.5901 146.168C35.5346 147.384 31.8858 143.653 32.6807 140.894C33.4756 138.136 34.8526 137.571 34.5485 136.272C34.2444 134.974 33.493 134.161 34.3053 132.458C35.1176 130.756 37.4676 132.38 39.8219 130.756C42.1763 129.131 44.5263 122.155 47.4453 114.857C50.3644 107.56 56.5326 107.716 57.2624 106.582C57.9921 105.449 62.1275 90.6796 66.3497 91.4137C70.5719 92.1478 78.1996 99.6061 75.7714 103.681C73.3432 107.755 70.498 107.66 67.0838 110.01C63.6695 112.36 64.0822 112.85 61.8104 115.283C59.5385 117.716 57.9009 118.124 56.6977 118.445C56.6977 118.445 54.9949 120.313 53.9393 121.69C52.8838 123.067 52.1627 123.376 52.1627 123.376Z" stroke="#263238" stroke-miterlimit="10" stroke-linecap="round"/>
<path d="M51.5454 123.811C50.5568 123.75 49.5858 123.521 48.6741 123.134C46.8931 122.387 46.1938 120.454 45.9332 118.742C43.6917 124.498 41.7631 129.428 39.8518 130.757C37.4974 132.382 35.1474 130.757 34.3351 132.46C33.5228 134.163 34.2526 134.975 34.5784 136.274C34.9042 137.573 33.5228 138.142 32.7105 140.896C31.8983 143.65 35.5514 147.385 36.62 146.169C37.6886 144.953 37.6755 140.409 40.1863 137.247C42.5797 134.228 47.245 127.004 51.5454 123.811Z" fill="#FF1F00"/>
<path opacity="0.2" d="M36.5895 146.169C36.651 146.096 36.7062 146.017 36.7546 145.934L36.7937 145.869C36.8414 145.782 36.8892 145.687 36.937 145.578C36.937 145.578 36.937 145.539 36.9587 145.522C36.9978 145.426 37.0369 145.326 37.0717 145.222C37.0852 145.189 37.0968 145.156 37.1064 145.122C37.1499 145 37.1889 144.874 37.228 144.744L37.2671 144.605C37.2932 144.505 37.3236 144.401 37.354 144.292L37.3931 144.136C36.7248 142.333 36.5318 140.388 36.8328 138.489C37.3584 134.097 42.6274 130.41 44.0348 127.773C45.0841 125.896 46.2521 124.088 47.5316 122.36C46.5716 121.422 46.1285 120.015 45.9331 118.729L45.5508 119.702L45.49 119.867L45.1077 120.84L44.7472 121.752L44.6864 121.904C44.5691 122.2 44.4518 122.491 44.3345 122.773L44.2737 122.925C44.1564 123.216 44.0392 123.503 43.9219 123.794L43.5744 124.611L43.5092 124.763C43.3963 125.023 43.2833 125.275 43.1704 125.523L43.1183 125.644L42.8012 126.331L42.7664 126.405C42.6535 126.639 42.5449 126.865 42.4363 127.082C42.4146 127.13 42.3885 127.173 42.3668 127.212C42.2582 127.43 42.1496 127.647 42.041 127.842L42.0019 127.916L41.6935 128.459L41.6457 128.542C41.5371 128.724 41.4329 128.894 41.3243 129.059L41.2591 129.154C41.1505 129.319 41.0419 129.471 40.9377 129.615L40.9073 129.649C40.8074 129.784 40.7031 129.91 40.6032 130.027L40.5467 130.092C40.4425 130.214 40.3339 130.318 40.2296 130.418L40.1688 130.475C40.0656 130.568 39.9568 130.655 39.843 130.735C39.1981 131.177 38.4498 131.443 37.6711 131.509C37.2367 131.552 36.8632 131.552 36.4939 131.556C36.1541 131.551 35.8143 131.571 35.4775 131.617C35.2281 131.638 34.9888 131.726 34.7843 131.87C34.5797 132.014 34.4172 132.21 34.3133 132.438C34.094 132.866 33.9681 133.335 33.9441 133.815C33.9395 133.97 33.9483 134.126 33.9702 134.28C33.979 134.353 33.992 134.426 34.0093 134.497C34.1309 135.075 34.3959 135.605 34.5566 136.235C34.5931 136.384 34.6091 136.537 34.6044 136.691C34.5696 137.273 34.17 137.764 33.7356 138.524C33.2894 139.252 32.9418 140.037 32.7018 140.856C32.5169 141.575 32.5579 142.334 32.8191 143.028C33.0115 143.57 33.2775 144.083 33.6096 144.553C33.7182 144.709 33.8312 144.857 33.9485 144.987C34.8867 146.152 36.0639 146.777 36.5895 146.169Z" fill="black"/>
<path d="M51.5454 123.811C50.5568 123.75 49.5858 123.521 48.6741 123.134C46.8931 122.387 46.1938 120.454 45.9332 118.742C43.6917 124.498 41.7631 129.428 39.8518 130.757C37.4974 132.382 35.1474 130.757 34.3351 132.46C33.5228 134.163 34.2526 134.975 34.5784 136.274C34.9042 137.573 33.5228 138.142 32.7105 140.896C31.8983 143.65 35.5514 147.385 36.62 146.169C37.6886 144.953 37.6755 140.409 40.1863 137.247C42.5797 134.228 47.245 127.004 51.5454 123.811Z" stroke="#263238" stroke-miterlimit="10" stroke-linecap="round"/>
<path d="M32.5889 79.9727C32.5889 79.9727 36.5635 85.3243 40.7813 85.2635C44.9992 85.2026 47.4578 81.467 49.6254 81.7232C51.2277 81.9657 52.7982 82.3853 54.308 82.9742C54.308 82.9742 69.3724 62.7885 72.8388 59.3699C76.3051 55.9513 78.3076 52.0375 73.5468 50.8299C68.786 49.6224 58.843 51.7639 53.8562 56.1468C48.8695 60.5297 33.0667 77.9702 33.0667 77.9702L32.5889 79.9727Z" fill="#FF1F00"/>
<path opacity="0.5" d="M32.5889 79.9727C32.5889 79.9727 36.5635 85.3243 40.7813 85.2635C44.9992 85.2026 47.4578 81.467 49.6254 81.7232C51.2277 81.9657 52.7982 82.3853 54.308 82.9742C54.308 82.9742 69.3724 62.7885 72.8388 59.3699C76.3051 55.9513 78.3076 52.0375 73.5468 50.8299C68.786 49.6224 58.843 51.7639 53.8562 56.1468C48.8695 60.5297 33.0667 77.9702 33.0667 77.9702L32.5889 79.9727Z" fill="black" stroke="#263238" stroke-miterlimit="10" stroke-linecap="round"/>
<path d="M32.5889 79.9727C32.5889 79.9727 36.5635 85.3243 40.7813 85.2635C44.9992 85.2026 47.4578 81.467 49.6254 81.7232C51.2277 81.9657 52.7982 82.3853 54.308 82.9742C54.308 82.9742 69.3724 62.7885 72.8388 59.3699C76.3051 55.9513 78.3076 52.0375 73.5468 50.8299C68.786 49.6224 58.843 51.7639 53.8562 56.1468C48.8695 60.5297 33.0667 77.9702 33.0667 77.9702L32.5889 79.9727Z" stroke="#263238" stroke-miterlimit="10" stroke-linecap="round"/>
<path d="M89.4929 32.8426C89.4929 32.8426 90.7092 29.9236 93.1417 28.6248C94.7636 27.816 96.5426 27.3713 98.3543 27.3216L104.679 23.4122C104.679 23.4122 106.464 17.2439 112.55 14.7245C118.636 12.2051 144.512 2.80071 144.755 2.63999C144.998 2.47926 148 1.01539 148 1.25865C148.003 1.67648 147.92 2.09052 147.757 2.47492C147.513 3.12649 141.51 7.01856 141.51 7.01856C141.51 7.01856 144.429 5.23325 144.512 6.1498C144.594 7.06634 144.512 7.28354 143.456 7.93511C142.401 8.58668 140.455 9.79861 140.051 10.0419C139.647 10.2851 138.105 11.7446 136.884 11.9097C135.663 12.0748 132.588 12.3137 132.345 12.5569C132.101 12.8002 124.148 20.5061 121.555 22.6998C118.961 24.8934 114.739 26.9176 114.739 26.9176C114.739 26.9176 109.062 32.999 104.748 36.1656C100.435 39.3323 97.529 40.1402 97.529 40.1402L97.2032 40.4617C97.2032 40.4617 97.4464 43.3025 97.4464 43.6283C97.4464 43.9541 99.8008 51.9815 98.7496 56.4426C97.6984 60.9037 95.6655 62.7716 95.6655 62.7716C95.6655 62.7716 95.344 68.045 94.0452 69.991C92.7464 71.937 89.1758 74.2914 86.6607 76.1592C84.1457 78.0271 83.8242 82.1624 83.6591 82.6489C83.4941 83.1354 81.4872 91.4104 80.4143 93.4346C79.3414 95.4589 76.0705 96.6013 75.5275 96.762C75.2321 96.8489 72.2088 101.436 69.2985 101.21C67.4159 101.077 65.6451 100.268 64.3126 98.9312C62.9801 97.5947 62.176 95.8214 62.0486 93.9385C62.0024 93.1368 62.0315 92.3326 62.1355 91.5364C62.7827 86.5844 64.7418 84.5298 64.7418 84.5298C64.7418 84.5298 68.8988 68.2882 68.4905 63.9878C68.0822 59.6874 68.004 57.0117 69.2203 54.5791C70.4365 52.1466 74.4111 48.4152 80.5794 45.7351C86.7476 43.0549 87.473 41.274 87.473 38.1942C87.5356 36.236 88.246 34.3538 89.4929 32.8426Z" fill="white"/>
<path d="M98.5234 48.7829L98.4756 48.7612C98.4756 48.7612 98.1238 54.0303 97.2463 57.5444C96.3689 61.0586 92.681 63.3391 92.681 63.3391L90.748 68.6082C90.748 68.6082 86.3563 72.6436 83.5459 72.6436C80.7354 72.6436 80.3706 70.3631 80.3706 70.3631C77.7252 68.113 71.987 66.5622 68.2643 67.4397C67.6822 72.0398 66.062 78.9986 65.2236 82.4476C66.7918 83.286 69.3068 84.0765 72.9947 83.7117C76.8048 83.2959 80.5262 82.286 84.0237 80.7188C84.3929 79.2419 85.1097 77.2871 86.63 76.1621L87.477 75.5409C84.9316 76.6008 81.6998 80.0541 79.3237 80.3712C76.687 80.7231 75.8095 80.1975 75.9876 79.142C76.1657 78.0864 79.8189 78.7554 81.0786 78.2732C82.3383 77.791 81.2567 77.5738 78.62 77.222C75.9833 76.8701 76.5132 75.8146 76.5132 75.8146C76.5132 75.8146 80.7919 76.1708 81.6042 75.8146C82.4165 75.4584 88.1199 74.077 90.7262 71.7748C93.3325 69.4726 93.5584 64.5858 93.5584 64.5858L95.5826 63.5737C95.6261 63.0915 95.6434 62.7918 95.6434 62.7918C95.6434 62.7918 97.672 60.9283 98.7276 56.4628C99.2358 54.2996 98.9534 51.3284 98.5234 48.7829Z" fill="#FF1F00"/>
<path d="M119.965 20.8576C114.891 23.0556 113.883 22.3779 113.883 22.3779C114.323 22.6949 114.736 23.048 115.117 23.4335C115.851 24.1459 114.895 26.4351 112.189 28.468C109.483 30.5009 100.687 35.9176 99.1663 35.9176C97.646 35.9176 97.646 30.8484 97.646 30.8484C97.0059 33.9926 96.8769 37.2195 97.2637 40.4048L97.5113 40.1616C97.5113 40.1616 100.43 39.3493 104.731 36.187C109.031 33.0246 114.722 26.9389 114.722 26.9389C114.722 26.9389 118.939 24.9104 121.537 22.7211C122.962 21.5178 125.998 18.6509 128.487 16.2705C125.755 17.993 122.907 19.5257 119.965 20.8576Z" fill="#FF1F00"/>
<path opacity="0.5" d="M119.965 20.8576C114.891 23.0556 113.883 22.3779 113.883 22.3779C114.323 22.6949 114.736 23.048 115.117 23.4335C115.851 24.1459 114.895 26.4351 112.189 28.468C109.483 30.5009 100.687 35.9176 99.1663 35.9176C97.646 35.9176 97.646 30.8484 97.646 30.8484C97.0059 33.9926 96.8769 37.2195 97.2637 40.4048L97.5113 40.1616C97.5113 40.1616 100.43 39.3493 104.731 36.187C109.031 33.0246 114.722 26.9389 114.722 26.9389C114.722 26.9389 118.939 24.9104 121.537 22.7211C122.962 21.5178 125.998 18.6509 128.487 16.2705C125.755 17.993 122.907 19.5257 119.965 20.8576Z" fill="white"/>
<path opacity="0.5" d="M98.5234 48.7829L98.4756 48.7612C98.4756 48.7612 98.1238 54.0303 97.2463 57.5444C96.3689 61.0586 92.681 63.3391 92.681 63.3391L90.748 68.6082C90.748 68.6082 86.3563 72.6436 83.5459 72.6436C80.7354 72.6436 80.3706 70.3631 80.3706 70.3631C77.7252 68.113 71.987 66.5622 68.2643 67.4397C67.6822 72.0398 66.062 78.9986 65.2236 82.4476C66.7918 83.286 69.3068 84.0765 72.9947 83.7117C76.8048 83.2959 80.5262 82.286 84.0237 80.7188C84.3929 79.2419 85.1097 77.2871 86.63 76.1621L87.477 75.5409C84.9316 76.6008 81.6998 80.0541 79.3237 80.3712C76.687 80.7231 75.8095 80.1975 75.9876 79.142C76.1657 78.0864 79.8189 78.7554 81.0786 78.2732C82.3383 77.791 81.2567 77.5738 78.62 77.222C75.9833 76.8701 76.5132 75.8146 76.5132 75.8146C76.5132 75.8146 80.7919 76.1708 81.6042 75.8146C82.4165 75.4584 88.1199 74.077 90.7262 71.7748C93.3325 69.4726 93.5584 64.5858 93.5584 64.5858L95.5826 63.5737C95.6261 63.0915 95.6434 62.7918 95.6434 62.7918C95.6434 62.7918 97.672 60.9283 98.7276 56.4628C99.2358 54.2996 98.9534 51.3284 98.5234 48.7829Z" fill="white"/>
<path d="M89.4929 32.8426C89.4929 32.8426 90.7092 29.9236 93.1417 28.6248C94.7636 27.816 96.5426 27.3713 98.3543 27.3216L104.679 23.4122C104.679 23.4122 106.464 17.2439 112.55 14.7245C118.636 12.2051 144.512 2.80071 144.755 2.63999C144.998 2.47926 148 1.01539 148 1.25865C148.003 1.67648 147.92 2.09052 147.757 2.47492C147.513 3.12649 141.51 7.01856 141.51 7.01856C141.51 7.01856 144.429 5.23325 144.512 6.1498C144.594 7.06634 144.512 7.28354 143.456 7.93511C142.401 8.58668 140.455 9.79861 140.051 10.0419C139.647 10.2851 138.105 11.7446 136.884 11.9097C135.663 12.0748 132.588 12.3137 132.345 12.5569C132.101 12.8002 124.148 20.5061 121.555 22.6998C118.961 24.8934 114.739 26.9176 114.739 26.9176C114.739 26.9176 109.062 32.999 104.748 36.1656C100.435 39.3323 97.529 40.1402 97.529 40.1402L97.2032 40.4617C97.2032 40.4617 97.4464 43.3025 97.4464 43.6283C97.4464 43.9541 99.8008 51.9815 98.7496 56.4426C97.6984 60.9037 95.6655 62.7716 95.6655 62.7716C95.6655 62.7716 95.344 68.045 94.0452 69.991C92.7464 71.937 89.1758 74.2914 86.6607 76.1592C84.1457 78.0271 83.8242 82.1624 83.6591 82.6489C83.4941 83.1354 81.4872 91.4104 80.4143 93.4346C79.3414 95.4589 76.0705 96.6013 75.5275 96.762C75.2321 96.8489 72.2088 101.436 69.2985 101.21C67.4159 101.077 65.6451 100.268 64.3126 98.9312C62.9801 97.5947 62.176 95.8214 62.0486 93.9385C62.0024 93.1368 62.0315 92.3326 62.1355 91.5364C62.7827 86.5844 64.7418 84.5298 64.7418 84.5298C64.7418 84.5298 68.8988 68.2882 68.4905 63.9878C68.0822 59.6874 68.004 57.0117 69.2203 54.5791C70.4365 52.1466 74.4111 48.4152 80.5794 45.7351C86.7476 43.0549 87.473 41.274 87.473 38.1942C87.5356 36.236 88.246 34.3538 89.4929 32.8426V32.8426Z" stroke="#263238" stroke-miterlimit="10" stroke-linecap="round"/>
<path d="M95.5713 60.8523C96.4295 57.2046 95.2321 53.8022 92.8969 53.2527C90.5616 52.7033 87.9728 55.2149 87.1145 58.8626C86.2563 62.5103 87.4536 65.9127 89.7889 66.4622C92.1242 67.0116 94.713 64.5 95.5713 60.8523Z" fill="#FF1F00"/>
<path d="M80.806 76.1635C76.423 77.1365 74.7246 75.0254 74.7246 75.0254C74.7246 75.0254 75.2111 78.2702 79.8373 78.7567" stroke="#263238" stroke-linecap="round" stroke-linejoin="round"/>
<path d="M91.1047 56.6118C91.1047 56.6118 93.6198 62.6932 91.5912 67.3193C89.5627 71.9455 86.6393 73.7091 81.127 74.6213" stroke="#263238" stroke-miterlimit="10" stroke-linecap="round"/>
<path d="M85.8308 76.2412C85.8308 76.2412 82.5034 79.2428 79.9058 80.2158C77.3082 81.1888 75.284 82.896 73.0947 79.9726" stroke="#263238" stroke-miterlimit="10" stroke-linecap="round"/>
<path d="M111.95 23.5118C111.95 23.5118 113.979 22.1348 115.113 23.4336C116.246 24.7324 114.709 26.9087 114.709 26.9087" stroke="#263238" stroke-linecap="round" stroke-linejoin="round"/>
<path d="M97.8371 29.5151C97.3976 31.6867 97.0772 33.8808 96.8771 36.0873C96.7644 37.5547 96.8728 39.0307 97.1986 40.4659" stroke="#263238" stroke-linecap="round" stroke-linejoin="round"/>
<path d="M78.7334 59.0099L83.5898 56.4297" stroke="#263238" stroke-miterlimit="10" stroke-linecap="round"/>
<path d="M144.725 2.66661C144.507 2.80995 123.957 10.29 115.187 13.6999C115.977 13.7347 120.121 14.0822 121.22 17.6745C121.703 19.2063 121.927 20.8081 121.88 22.4136C124.765 19.9073 132.101 12.7964 132.336 12.5618C132.571 12.3273 135.659 12.0753 136.875 11.9146C138.092 11.7539 139.634 10.29 140.042 10.0468C140.45 9.80352 142.392 8.58724 143.447 7.94001C144.503 7.29278 144.586 7.04519 144.503 6.1547C144.42 5.26422 141.501 7.02347 141.501 7.02347C141.501 7.02347 147.505 3.11402 147.748 2.47982C147.912 2.09542 147.994 1.68139 147.991 1.26355C147.969 1.04202 144.968 2.50154 144.725 2.66661Z" fill="#FF1F00" stroke="#263238" stroke-linecap="round" stroke-linejoin="round"/>
<path d="M141.481 7.04492L138.64 8.50445" stroke="#263238" stroke-linecap="round" stroke-linejoin="round"/>
<path d="M84.2154 80.0728C83.3075 80.4246 82.1608 80.8981 81.0661 81.4237C78.0265 82.8868 74.7481 83.7903 71.3881 84.0908C68.747 84.3123 66.5013 83.1308 65.272 82.2968C64.9375 83.6694 64.7203 84.5339 64.7203 84.5339C64.7203 84.5339 62.7612 86.5885 62.114 91.5405C62.01 92.3367 61.9809 93.1409 62.0271 93.9426C62.1545 95.8255 62.9587 97.5988 64.2911 98.9352C65.6236 100.272 67.3945 101.081 69.277 101.214C72.1873 101.44 75.2106 96.8703 75.506 96.7661C76.0707 96.6054 79.3416 95.4629 80.3928 93.4387C81.444 91.4145 83.4769 83.1395 83.6377 82.653C83.7159 82.4184 83.8462 81.3368 84.2154 80.0728Z" fill="#263238" stroke="#263238" stroke-miterlimit="10" stroke-linecap="round"/>
<path d="M66.8184 86.9277C66.8184 86.9277 70.2934 85.429 73.8032 86.6757" stroke="white" stroke-width="0.75" stroke-linecap="round" stroke-linejoin="round"/>
<path d="M74.1511 82.6615C69.6726 83.1654 67.0794 81.5278 65.7632 80.2334C65.4635 81.5365 65.2028 82.5964 65.0117 83.3566C67.3072 84.7855 70.0178 85.3977 72.7046 85.0941C77.535 84.499 81.9179 82.5226 83.8596 81.5408C83.877 81.4395 83.8987 81.3352 83.9247 81.2281C83.9899 80.911 84.0768 80.5678 84.181 80.203C84.181 80.1812 84.181 80.1595 84.2027 80.1335C84.2375 80.0205 84.2722 79.9032 84.3113 79.7859C84.3132 79.7686 84.3132 79.7511 84.3113 79.7338C84.4455 79.3323 84.6036 78.9392 84.7848 78.5566C81.6398 80.7937 77.9835 82.2051 74.1511 82.6615Z" fill="#FF1F00" stroke="#263238" stroke-miterlimit="10" stroke-linecap="round"/>
<path d="M60.5455 54.1624C60.5455 54.1624 59.7593 54.562 62.5958 52.6985C65.4323 50.835 64.5766 53.5325 66.5052 48.7456C68.4339 43.9587 70.5623 40.3925 74.0504 39.0937C77.5385 37.7949 87.8421 39.6627 87.8421 39.6627L90.2746 41.3655L86.8864 47.9333C86.0707 47.5318 85.1785 47.3093 84.2698 47.2808C83.361 47.2524 82.4566 47.4186 81.6174 47.7683C78.8591 48.9845 77.3952 50.4441 77.7079 51.7429C78.0207 53.0417 80.627 56.6123 80.627 56.6123C80.627 56.6123 68.3427 51.7863 66.3966 52.8375C64.4506 53.8887 58.5213 56.0433 58.1955 56.2083C57.8697 56.3734 60.5455 54.1624 60.5455 54.1624Z" fill="#FF1F00" stroke="#263238" stroke-miterlimit="10" stroke-linecap="round"/>
<path d="M68.1084 50.3611C68.5211 49.7573 68.9772 49.0579 69.4419 48.2543C71.553 44.6881 75.7709 43.146 75.7709 43.146" stroke="#263238" stroke-miterlimit="10" stroke-linecap="round"/>
<path d="M76.0794 47.042C74.9406 47.3212 73.8684 47.823 72.9246 48.5186C71.9807 49.2142 71.1839 50.0898 70.5801 51.0948" stroke="#263238" stroke-miterlimit="10" stroke-linecap="round"/>
<path d="M73.8249 58.6411C73.8249 58.6411 68.8773 57.9114 65.1373 61.0737C61.3973 64.236 61.8186 67.6285 61.8186 67.6285C61.8186 67.6285 58.1655 69.2488 57.4357 71.1036C57.0092 72.1994 56.7175 73.3429 56.5669 74.5091C56.5669 74.5091 54.6209 76.377 52.9963 78.2405C51.3717 80.104 49.9947 80.4124 49.6689 82.8666C49.3431 85.3209 49.5082 91.3024 51.2935 97.223C53.0788 103.144 54.2951 105.741 54.7686 106.779C55.2421 107.818 59.4729 113.187 60.2027 113.352C60.9325 113.517 61.6622 113.673 62.2313 113.352C62.8003 113.03 67.0095 112.048 66.8574 110.837C66.826 110.189 66.5988 109.567 66.2059 109.051L66.0452 108.808C66.0452 108.808 66.7749 107.427 66.2884 106.779C65.8019 106.132 65.3936 106.05 64.5031 105.237C63.6126 104.425 63.1261 104.182 62.0705 104.182C61.015 104.182 59.8986 104.264 59.8986 104.264C59.8986 104.264 58.274 103.613 58.274 98.9084C58.274 94.204 59.7336 90.1469 60.446 88.0488C60.8761 86.849 61.1221 85.591 61.1757 84.3175C61.1757 84.3175 61.7448 85.1298 65.7194 83.2619C69.694 81.3941 70.5888 76.125 70.5888 76.125L64.7333 77.0546C67.5999 76.8033 70.4294 76.2321 73.169 75.3518C77.7127 73.8923 79.6587 73.649 81.4223 66.7511" fill="white"/>
<path d="M66.1106 73.6781C65.2766 72.5617 70.0201 69.3343 71.2755 68.0963C72.5308 66.8583 67.227 70.19 65.9717 70.468C64.7163 70.746 63.5999 69.9077 64.2993 66.0026C64.8038 63.5489 65.9955 61.2891 67.7352 59.4868C66.7913 59.8786 65.9125 60.4118 65.1289 61.068C61.3976 64.2303 61.8059 67.6402 61.8059 67.6402C61.8059 67.6402 58.1528 69.2604 57.423 71.1152C56.9965 72.211 56.7048 73.3546 56.5542 74.5208C56.5542 74.5208 54.6082 76.3886 52.9836 78.2521C51.359 80.1156 49.982 80.4241 49.6562 82.8783C49.3304 85.3326 49.4955 91.314 51.2808 97.2347C53.0661 103.155 54.2824 105.753 54.7559 106.791C55.2294 107.829 59.4602 113.198 60.19 113.363C60.9198 113.528 61.6495 113.685 62.2186 113.363C62.7876 113.042 66.9968 112.06 66.8448 110.848C66.8086 110.554 66.7491 110.264 66.6667 109.979C65.1116 110.175 62.2664 111.17 61.5019 111.17C60.6678 111.17 59.8295 109.914 58.5741 108.516C57.3187 107.117 55.364 103.494 55.0991 99.0287C54.8341 94.5632 56.7714 90.3758 56.7714 88.282C56.7714 86.1883 54.2607 91.0751 54.8167 88.9814C55.3727 86.8877 57.6098 83.8166 59.2822 82.9782C60.9545 82.1399 62.9136 81.5839 63.626 80.1895C64.3384 78.7951 61.1153 79.7551 62.2316 78.6518C63.348 77.5484 70.6065 76.115 72.9782 74.7423C75.35 73.3697 66.949 74.7945 66.1106 73.6781Z" fill="#FF1F00"/>
<path opacity="0.5" d="M66.1106 73.6781C65.2766 72.5617 70.0201 69.3343 71.2755 68.0963C72.5308 66.8583 67.227 70.19 65.9717 70.468C64.7163 70.746 63.5999 69.9077 64.2993 66.0026C64.8038 63.5489 65.9955 61.2891 67.7352 59.4868C66.7913 59.8786 65.9125 60.4118 65.1289 61.068C61.3976 64.2303 61.8059 67.6402 61.8059 67.6402C61.8059 67.6402 58.1528 69.2604 57.423 71.1152C56.9965 72.211 56.7048 73.3546 56.5542 74.5208C56.5542 74.5208 54.6082 76.3886 52.9836 78.2521C51.359 80.1156 49.982 80.4241 49.6562 82.8783C49.3304 85.3326 49.4955 91.314 51.2808 97.2347C53.0661 103.155 54.2824 105.753 54.7559 106.791C55.2294 107.829 59.4602 113.198 60.19 113.363C60.9198 113.528 61.6495 113.685 62.2186 113.363C62.7876 113.042 66.9968 112.06 66.8448 110.848C66.8086 110.554 66.7491 110.264 66.6667 109.979C65.1116 110.175 62.2664 111.17 61.5019 111.17C60.6678 111.17 59.8295 109.914 58.5741 108.516C57.3187 107.117 55.364 103.494 55.0991 99.0287C54.8341 94.5632 56.7714 90.3758 56.7714 88.282C56.7714 86.1883 54.2607 91.0751 54.8167 88.9814C55.3727 86.8877 57.6098 83.8166 59.2822 82.9782C60.9545 82.1399 62.9136 81.5839 63.626 80.1895C64.3384 78.7951 61.1153 79.7551 62.2316 78.6518C63.348 77.5484 70.6065 76.115 72.9782 74.7423C75.35 73.3697 66.949 74.7945 66.1106 73.6781Z" fill="white"/>
<path d="M73.8249 58.6411C73.8249 58.6411 68.8773 57.9114 65.1373 61.0737C61.3973 64.236 61.8186 67.6285 61.8186 67.6285C61.8186 67.6285 58.1655 69.2488 57.4357 71.1036C57.0092 72.1994 56.7175 73.3429 56.5669 74.5091C56.5669 74.5091 54.6209 76.377 52.9963 78.2405C51.3717 80.104 49.9947 80.4124 49.6689 82.8666C49.3431 85.3209 49.5082 91.3024 51.2935 97.223C53.0788 103.144 54.2951 105.741 54.7686 106.779C55.2421 107.818 59.4729 113.187 60.2027 113.352C60.9325 113.517 61.6622 113.673 62.2313 113.352C62.8003 113.03 67.0095 112.048 66.8574 110.837C66.826 110.189 66.5988 109.567 66.2059 109.051L66.0452 108.808C66.0452 108.808 66.7749 107.427 66.2884 106.779C65.8019 106.132 65.3936 106.05 64.5031 105.237C63.6126 104.425 63.1261 104.182 62.0705 104.182C61.015 104.182 59.8986 104.264 59.8986 104.264C59.8986 104.264 58.274 103.613 58.274 98.9084C58.274 94.204 59.7336 90.1469 60.446 88.0488C60.8761 86.849 61.1221 85.591 61.1757 84.3175C61.1757 84.3175 61.7448 85.1298 65.7194 83.2619C69.694 81.3941 70.5888 76.125 70.5888 76.125L64.7333 77.0546C67.5999 76.8033 70.4294 76.2321 73.169 75.3518C77.7127 73.8923 79.6587 73.649 81.4223 66.7511" stroke="#263238" stroke-miterlimit="10" stroke-linecap="round"/>
<path d="M61.1669 84.3555L60.7021 80.6328" stroke="#263238" stroke-linecap="round" stroke-linejoin="round"/>
<path d="M84.1239 55.5571C86.4783 54.8273 87.0473 51.9083 88.4243 48.8241C89.5129 46.5346 90.7401 44.3137 92.0992 42.1737C89.7251 42.2064 87.3637 41.8211 85.123 41.0357C81.4699 39.7325 77.1695 40.6317 76.3615 41.5222C75.5536 42.4126 75.6318 41.2789 75.7925 44.0372C75.9532 46.7956 77.0088 50.7702 77.9644 52.1515C78.92 53.5328 79.5065 54.3234 79.5065 54.3234" fill="white"/>
<path d="M91.0569 42.165C89.027 42.0836 87.0203 41.7031 85.1015 41.0357C81.4484 39.7325 77.148 40.6317 76.34 41.5222C75.5321 42.4126 75.6103 41.2789 75.771 44.0372C75.9317 46.7956 76.9873 50.7702 77.9429 52.1515L78.2904 52.638L91.2567 42.265L91.0569 42.165Z" fill="#FF1F00"/>
<path opacity="0.5" d="M91.0569 42.165C89.027 42.0836 87.0203 41.7031 85.1015 41.0357C81.4484 39.7325 77.148 40.6317 76.34 41.5222C75.5321 42.4126 75.6103 41.2789 75.771 44.0372C75.9317 46.7956 76.9873 50.7702 77.9429 52.1515L78.2904 52.638L91.2567 42.265L91.0569 42.165Z" fill="white"/>
<path d="M84.1239 55.5571C86.4783 54.8273 87.0473 51.9083 88.4243 48.8241C89.5129 46.5346 90.7401 44.3137 92.0992 42.1737C89.7251 42.2064 87.3637 41.8211 85.123 41.0357C81.4699 39.7325 77.1695 40.6317 76.3615 41.5222C75.5536 42.4126 75.6318 41.2789 75.7925 44.0372C75.9532 46.7956 77.0088 50.7702 77.9644 52.1515C78.92 53.5328 79.5065 54.3234 79.5065 54.3234" stroke="#263238" stroke-miterlimit="10" stroke-linecap="round"/>
<path d="M83.5592 50.7702C84.9994 50.7813 86.4348 50.6046 87.8292 50.2446C88.016 49.7798 88.2115 49.3063 88.4243 48.8241C89.5129 46.5346 90.7401 44.3137 92.0992 42.1737C89.7251 42.2064 87.3637 41.8211 85.123 41.0357C81.4699 39.7325 77.1695 40.6317 76.3615 41.5222C75.5536 42.4126 75.6318 41.2789 75.7925 44.0372C75.9117 45.6227 76.1867 47.1926 76.6135 48.7242C77.9253 49.8189 80.0755 50.7354 83.5592 50.7702Z" stroke="#263238" stroke-miterlimit="10" stroke-linecap="round"/>
<path d="M84.32 54.2716L82.3652 45.6665" stroke="#263238" stroke-linecap="round" stroke-linejoin="round"/>
<path d="M86.5874 25.9974C86.8214 25.038 86.9926 24.0643 87.1 23.0827C87.2651 21.5406 83.5598 18.8083 79.7459 19.1341C75.932 19.4599 77.3134 23.1913 76.8268 24.4075C76.3403 25.6238 72.6872 24.325 71.7142 26.5143C70.7412 28.7036 72.4439 29.3552 72.4439 29.9894C72.4439 30.6236 69.4423 32.3437 69.8376 36.1576C70.2329 39.9715 76.8138 43.6985 78.2733 44.0243C79.7329 44.35 81.5182 42.9687 81.5182 41.8523C81.5182 40.736 83.9507 40.3103 84.6023 39.246C85.2539 38.1818 83.5468 34.5417 83.6249 33.7294C83.7031 32.9171 86.2312 29.6766 85.4103 28.8643C84.5893 28.052 86.5874 25.9974 86.5874 25.9974Z" fill="#263238" stroke="#263238" stroke-miterlimit="10" stroke-linecap="round"/>
<path d="M82.7033 26.9082C82.7033 26.9082 83.9631 26.7692 83.9631 23.9761C83.9631 21.183 79.9146 21.8824 79.3543 22.9988C78.7939 24.1151 79.2153 26.2089 77.8209 26.7692C76.4265 27.3296 74.1895 27.3252 74.1895 28.4416V29.9793" stroke="white" stroke-width="0.75" stroke-linecap="round" stroke-linejoin="round"/>
<path d="M79.0679 29.1412C79.0679 29.1412 73.9031 28.8632 71.249 33.6067" stroke="white" stroke-width="0.75" stroke-linecap="round" stroke-linejoin="round"/>
<path d="M79.7755 30.3965C79.7755 30.3965 76.3004 30.5355 74.4717 32.9072" stroke="white" stroke-width="0.75" stroke-linecap="round" stroke-linejoin="round"/>
<path d="M85.7271 26.509C85.9573 26.2093 88.9589 29.3282 89.0762 29.68C89.1947 30.1088 89.2889 30.5438 89.3585 30.9832C89.3721 31.0653 89.4023 31.1438 89.4471 31.214C89.4918 31.2842 89.5504 31.3445 89.6191 31.3915L91.7172 32.8293C91.8526 32.9241 91.9454 33.0683 91.9754 33.2308C92.0055 33.3933 91.9705 33.5611 91.8779 33.6981L91.1482 34.7493C91.0847 34.8387 91.0463 34.9435 91.0372 35.0527C91.028 35.162 91.0483 35.2717 91.096 35.3704C91.6825 36.6301 93.7588 41.1043 93.6198 41.4518C93.4566 41.8784 93.1365 42.2266 92.725 42.4248C92.321 42.5855 84.8583 45.1006 83.9635 45.1831C83.2772 45.244 81.6265 42.4248 80.8967 41.113C80.8109 40.9684 80.6711 40.8639 80.5082 40.8224C80.3453 40.7808 80.1726 40.8057 80.028 40.8914C79.7152 41.072 79.3623 41.1718 79.0013 41.1816C78.6403 41.1915 78.2825 41.1112 77.9603 40.9479C76.3357 40.2138 74.4852 38.8368 75.2802 37.2948C76.0751 35.7527 77.3913 35.6745 77.9603 36.0785C78.3382 36.3478 79.0072 36.9125 79.4111 37.2513C79.5086 37.3359 79.63 37.3881 79.7584 37.4005C79.8869 37.413 80.016 37.3851 80.1279 37.3208L80.471 37.121C80.5529 37.0764 80.6237 37.014 80.6781 36.9383C80.7326 36.8627 80.7693 36.7757 80.7856 36.6839C80.8018 36.5921 80.7972 36.4979 80.7721 36.4081C80.747 36.3183 80.702 36.2354 80.6404 36.1654C80.5105 36.0004 80.4078 35.8156 80.3364 35.618C80.3364 35.618 82.6864 33.5895 81.8784 32.4557C81.0705 31.322 78.8769 29.6149 79.1201 28.7244C79.3634 27.8339 82.5952 26.6958 83.9852 26.6958C84.5021 26.6784 85.5577 26.7349 85.7271 26.509Z" fill="white"/>
<path d="M81.8571 32.4427C82.6651 33.5764 80.315 35.605 80.315 35.605C80.3865 35.8025 80.4891 35.9873 80.6191 36.1523C80.6807 36.2223 80.7257 36.3053 80.7508 36.3951C80.7759 36.4848 80.7805 36.5791 80.7642 36.6709C80.748 36.7627 80.7112 36.8496 80.6568 36.9253C80.6024 37.0009 80.5316 37.0634 80.4497 37.108L80.1065 37.3078C79.9947 37.3721 79.8655 37.3999 79.7371 37.3875C79.6086 37.375 79.4873 37.3229 79.3898 37.2383C78.9858 36.8995 78.3169 36.3348 77.939 36.0655C77.3699 35.6615 76.0711 35.7397 75.2588 37.2817C74.4465 38.8238 76.3144 40.2008 77.939 40.9349C78.2611 41.0981 78.6189 41.1785 78.98 41.1686C79.341 41.1587 79.6939 41.059 80.0066 40.8784C80.1512 40.7926 80.324 40.7678 80.4869 40.8093C80.6498 40.8509 80.7895 40.9554 80.8754 41.0999C81.6052 42.4031 83.2558 45.2309 83.9421 45.1701C84.837 45.0876 92.2997 42.5638 92.7036 42.4118C93.1152 42.2135 93.4353 41.8654 93.5985 41.4388C93.5985 41.4388 90.3753 42.9634 88.6204 41.3823C86.8655 39.8011 84.5807 37.5206 83.877 36.4651C83.1733 35.4095 84.6372 33.0769 83.1733 30.8442C81.7094 28.6115 79.0771 28.7027 79.0771 28.7027C78.8555 29.5975 81.0448 31.3003 81.8571 32.4427Z" fill="#FF1F00"/>
<path opacity="0.5" d="M81.8571 32.4427C82.6651 33.5764 80.315 35.605 80.315 35.605C80.3865 35.8025 80.4891 35.9873 80.6191 36.1523C80.6807 36.2223 80.7257 36.3053 80.7508 36.3951C80.7759 36.4848 80.7805 36.5791 80.7642 36.6709C80.748 36.7627 80.7112 36.8496 80.6568 36.9253C80.6024 37.0009 80.5316 37.0634 80.4497 37.108L80.1065 37.3078C79.9947 37.3721 79.8655 37.3999 79.7371 37.3875C79.6086 37.375 79.4873 37.3229 79.3898 37.2383C78.9858 36.8995 78.3169 36.3348 77.939 36.0655C77.3699 35.6615 76.0711 35.7397 75.2588 37.2817C74.4465 38.8238 76.3144 40.2008 77.939 40.9349C78.2611 41.0981 78.6189 41.1785 78.98 41.1686C79.341 41.1587 79.6939 41.059 80.0066 40.8784C80.1512 40.7926 80.324 40.7678 80.4869 40.8093C80.6498 40.8509 80.7895 40.9554 80.8754 41.0999C81.6052 42.4031 83.2558 45.2309 83.9421 45.1701C84.837 45.0876 92.2997 42.5638 92.7036 42.4118C93.1152 42.2135 93.4353 41.8654 93.5985 41.4388C93.5985 41.4388 90.3753 42.9634 88.6204 41.3823C86.8655 39.8011 84.5807 37.5206 83.877 36.4651C83.1733 35.4095 84.6372 33.0769 83.1733 30.8442C81.7094 28.6115 79.0771 28.7027 79.0771 28.7027C78.8555 29.5975 81.0448 31.3003 81.8571 32.4427Z" fill="white"/>
<path d="M85.7271 26.509C85.9573 26.2093 88.9589 29.3282 89.0762 29.68C89.1947 30.1088 89.2889 30.5438 89.3585 30.9832C89.3721 31.0653 89.4023 31.1438 89.4471 31.214C89.4918 31.2842 89.5504 31.3445 89.6191 31.3915L91.7172 32.8293C91.8526 32.9241 91.9454 33.0683 91.9754 33.2308C92.0055 33.3933 91.9705 33.5611 91.8779 33.6981L91.1482 34.7493C91.0847 34.8387 91.0463 34.9435 91.0372 35.0527C91.028 35.162 91.0483 35.2717 91.096 35.3704C91.6825 36.6301 93.7588 41.1043 93.6198 41.4518C93.4566 41.8784 93.1365 42.2266 92.725 42.4248C92.321 42.5855 84.8583 45.1006 83.9635 45.1831C83.2772 45.244 81.6265 42.4248 80.8967 41.113C80.8109 40.9684 80.6711 40.8639 80.5082 40.8224C80.3453 40.7808 80.1726 40.8057 80.028 40.8914C79.7152 41.072 79.3623 41.1718 79.0013 41.1816C78.6403 41.1915 78.2825 41.1112 77.9603 40.9479C76.3357 40.2138 74.4852 38.8368 75.2802 37.2948C76.0751 35.7527 77.3913 35.6745 77.9603 36.0785C78.3382 36.3478 79.0072 36.9125 79.4111 37.2513C79.5086 37.3359 79.63 37.3881 79.7584 37.4005C79.8869 37.413 80.016 37.3851 80.1279 37.3208L80.471 37.121C80.5529 37.0764 80.6237 37.014 80.6781 36.9383C80.7326 36.8627 80.7693 36.7757 80.7856 36.6839C80.8018 36.5921 80.7972 36.4979 80.7721 36.4081C80.747 36.3183 80.702 36.2354 80.6404 36.1654V36.1654C80.5105 36.0004 80.4078 35.8156 80.3364 35.618C80.3364 35.618 82.6864 33.5895 81.8784 32.4557C81.0705 31.322 78.8769 29.6149 79.1201 28.7244C79.3634 27.8339 82.5952 26.6958 83.9852 26.6958C84.5021 26.6784 85.5577 26.7349 85.7271 26.509Z" stroke="#263238" stroke-miterlimit="10" stroke-linecap="round"/>
<path d="M88.003 30.8532C88.003 30.8532 86.2654 30.8532 85.7746 31.1008C85.2837 31.3484 84.6582 33.0815 84.6582 33.0815L86.2698 32.0911L88.1246 31.7219L88.6198 30.3623L88.003 30.8532Z" fill="#263238"/>
<path d="M88.1252 32.5864L86.6396 33.3292H88.1252" fill="white"/>
<path d="M88.1252 32.5864L86.6396 33.3292H88.1252" stroke="#263238" stroke-miterlimit="10" stroke-linecap="round"/>
<path d="M86.5612 112.101C83.7515 112.965 81.0551 114.162 78.5295 115.667C74.7243 118.017 68.3867 121.753 65.5501 121.926C62.7136 122.1 61.8188 121.197 60.116 120.549C58.4132 119.902 57.5097 122.009 57.5097 123.225C57.5097 124.441 57.5097 125.01 56.6974 126.148C55.8851 127.287 53.7871 131.483 53.7871 131.483C53.7871 131.483 52.649 136.026 53.7871 136.187C54.9251 136.348 55.6506 134.81 58.0049 132.864C60.3593 130.918 64.0863 126.696 67.4136 126.374C70.741 126.053 85.5882 124.507 91.7391 121.596C97.8899 118.686 97.499 119.485 99.2843 118.121C101.07 116.757 100.418 114.146 99.5276 112.361C99.0539 111.352 98.3608 110.462 97.499 109.755" fill="white"/>
<path d="M95.4053 119.953C94.6755 119.823 94.1021 119.632 94.1021 119.363C94.1021 118.659 96.2089 118.659 97.2644 117.256C98.32 115.853 97.0863 114.445 95.6833 112.864C95.1446 112.26 94.48 111.396 93.7633 110.553L86.5786 112.1C83.7688 112.964 81.0725 114.161 78.5469 115.666C74.7243 118.016 68.3867 121.752 65.5501 121.925C62.7136 122.099 61.8188 121.196 60.116 120.548C58.4132 119.901 57.5097 122.008 57.5097 123.224C57.5097 124.44 57.5097 125.009 56.6974 126.148C55.8851 127.286 53.7871 131.482 53.7871 131.482C53.7871 131.482 52.649 136.025 53.7871 136.186C54.9251 136.347 55.6506 134.809 58.0049 132.863C60.3593 130.917 64.0863 126.695 67.4136 126.373C70.741 126.052 85.5882 124.506 91.7391 121.595C93.3724 120.822 94.5321 120.314 95.4053 119.953Z" fill="#FF1F00"/>
<path opacity="0.5" d="M95.4053 119.953C94.6755 119.823 94.1021 119.632 94.1021 119.363C94.1021 118.659 96.2089 118.659 97.2644 117.256C98.32 115.853 97.0863 114.445 95.6833 112.864C95.1446 112.26 94.48 111.396 93.7633 110.553L86.5786 112.1C83.7688 112.964 81.0725 114.161 78.5469 115.666C74.7243 118.016 68.3867 121.752 65.5501 121.925C62.7136 122.099 61.8188 121.196 60.116 120.548C58.4132 119.901 57.5097 122.008 57.5097 123.224C57.5097 124.44 57.5097 125.009 56.6974 126.148C55.8851 127.286 53.7871 131.482 53.7871 131.482C53.7871 131.482 52.649 136.025 53.7871 136.186C54.9251 136.347 55.6506 134.809 58.0049 132.863C60.3593 130.917 64.0863 126.695 67.4136 126.373C70.741 126.052 85.5882 124.506 91.7391 121.595C93.3724 120.822 94.5321 120.314 95.4053 119.953Z" fill="white"/>
<path d="M86.5612 112.101C83.7515 112.965 81.0551 114.162 78.5295 115.667C74.7243 118.017 68.3867 121.753 65.5501 121.926C62.7136 122.1 61.8188 121.197 60.116 120.549C58.4132 119.902 57.5097 122.009 57.5097 123.225C57.5097 124.441 57.5097 125.01 56.6974 126.148C55.8851 127.287 53.7871 131.483 53.7871 131.483C53.7871 131.483 52.649 136.026 53.7871 136.187C54.9251 136.348 55.6506 134.81 58.0049 132.864C60.3593 130.918 64.0863 126.696 67.4136 126.374C70.741 126.053 85.5882 124.507 91.7391 121.596C97.8899 118.686 97.499 119.485 99.2843 118.121C101.07 116.757 100.418 114.146 99.5276 112.361C99.0539 111.352 98.3608 110.462 97.499 109.755" stroke="#263238" stroke-miterlimit="10" stroke-linecap="round"/>
<path d="M99.8794 113.239C99.8794 113.239 97.9464 105.685 85.0191 94.7601C76.3315 87.4103 72.4438 85.8379 67.4962 90.2164C62.5485 94.595 63.5216 97.4402 65.3242 100.207C67.1269 102.974 74.4072 108.239 80.4103 110.919C86.4135 113.599 92.4992 117.326 95.9048 117" fill="white"/>
<path d="M90.2225 107.769C88.4633 107.595 91.6256 111.11 87.9377 110.228C84.2498 109.346 71.4311 98.4647 68.7944 94.9505C66.6225 92.0575 68.5034 89.6467 69.2288 88.8691C68.6141 89.2541 68.0329 89.69 67.4913 90.1723C62.5437 94.5552 63.5167 97.3917 65.3194 100.163C67.122 102.934 74.4023 108.195 80.4055 110.875C86.4086 113.555 92.4943 117.282 95.8999 116.956L97.5201 115.436C97.2291 114.611 96.482 113.764 95.6783 112.856C94.2709 111.283 91.9774 107.947 90.2225 107.769Z" fill="#FF1F00"/>
<path opacity="0.5" d="M90.2225 107.769C88.4633 107.595 91.6256 111.11 87.9377 110.228C84.2498 109.346 71.4311 98.4647 68.7944 94.9505C66.6225 92.0575 68.5034 89.6467 69.2288 88.8691C68.6141 89.2541 68.0329 89.69 67.4913 90.1723C62.5437 94.5552 63.5167 97.3917 65.3194 100.163C67.122 102.934 74.4023 108.195 80.4055 110.875C86.4086 113.555 92.4943 117.282 95.8999 116.956L97.5201 115.436C97.2291 114.611 96.482 113.764 95.6783 112.856C94.2709 111.283 91.9774 107.947 90.2225 107.769Z" fill="white"/>
<path d="M99.8794 113.239C99.8794 113.239 97.9464 105.685 85.0191 94.7601C76.3315 87.4103 72.4438 85.8379 67.4962 90.2164C62.5485 94.595 63.5216 97.4402 65.3242 100.207C67.1269 102.974 74.4072 108.239 80.4103 110.919C86.4135 113.599 92.4992 117.326 95.9048 117" stroke="#263238" stroke-miterlimit="10" stroke-linecap="round"/>
<path d="M79.989 120.375C79.168 118.564 79.3679 116.527 79.7631 114.954C79.3505 115.18 78.9378 115.415 78.5295 115.666C74.7243 118.016 68.3867 121.752 65.5501 121.926C62.7136 122.1 61.8188 121.196 60.116 120.549C58.4132 119.902 57.5097 122.008 57.5097 123.225C57.5097 124.441 57.5097 125.01 56.6974 126.148C55.8851 127.286 53.7871 131.482 53.7871 131.482C53.7871 131.482 52.649 136.026 53.7871 136.187C54.9251 136.347 55.6506 134.81 58.0049 132.864C60.3593 130.918 64.0863 126.695 67.4136 126.374C72.9799 125.845 78.5154 125.032 83.9984 123.937C82.2441 123.326 80.8029 122.045 79.989 120.375Z" fill="#FF1F00"/>
<path opacity="0.2" d="M79.989 120.375C79.168 118.564 79.3679 116.527 79.7631 114.954C79.3505 115.18 78.9378 115.415 78.5295 115.666C74.7243 118.016 68.3867 121.752 65.5501 121.926C62.7136 122.1 61.8188 121.196 60.116 120.549C58.4132 119.902 57.5097 122.008 57.5097 123.225C57.5097 124.441 57.5097 125.01 56.6974 126.148C55.8851 127.286 53.7871 131.482 53.7871 131.482C53.7871 131.482 52.649 136.026 53.7871 136.187C54.9251 136.347 55.6506 134.81 58.0049 132.864C60.3593 130.918 64.0863 126.695 67.4136 126.374C72.9799 125.845 78.5154 125.032 83.9984 123.937C82.2441 123.326 80.8029 122.045 79.989 120.375Z" fill="black"/>
<path d="M79.989 120.375C79.168 118.564 79.3679 116.527 79.7631 114.954C79.3505 115.18 78.9378 115.415 78.5295 115.666C74.7243 118.016 68.3867 121.752 65.5501 121.926C62.7136 122.1 61.8188 121.196 60.116 120.549C58.4132 119.902 57.5097 122.008 57.5097 123.225C57.5097 124.441 57.5097 125.01 56.6974 126.148C55.8851 127.286 53.7871 131.482 53.7871 131.482C53.7871 131.482 52.649 136.026 53.7871 136.187C54.9251 136.347 55.6506 134.81 58.0049 132.864C60.3593 130.918 64.0863 126.695 67.4136 126.374C72.9799 125.845 78.5154 125.032 83.9984 123.937C82.2441 123.326 80.8029 122.045 79.989 120.375V120.375Z" stroke="#263238" stroke-linecap="round" stroke-linejoin="round"/>
<path d="M65.9111 99.0898C65.9111 99.0898 83.6557 110.445 88.8596 112.339C94.0635 114.232 92.8819 110.679 92.8819 110.679" stroke="#263238" stroke-linecap="round" stroke-linejoin="round"/>
<path d="M81.7607 121.327C81.7607 121.327 86.7301 121.801 90.0401 118.721" stroke="#263238" stroke-linecap="round" stroke-linejoin="round"/>
<path d="M80.6708 57.7406C80.6708 57.7406 74.3809 53.627 67.1006 54.4957C59.8204 55.3645 51.1762 62.8098 45.5726 69.1779C39.9691 75.5459 15.0573 110.279 15.0573 110.279L14.2841 104.602C13.9222 101.927 14.6292 99.2177 16.2518 97.0609L20.209 91.7918C20.209 91.7918 20.6043 85.3108 24.1185 81.9835C26.4518 79.801 28.987 77.8448 31.6898 76.141C32.5976 75.5155 41.6806 66.4152 48.0877 59.9081C54.4949 53.4011 62.2703 48.7402 69.316 50.7123C76.3617 52.6844 79.1852 54.1873 80.8271 55.6382C82.4691 57.089 82.5256 56.9413 82.5256 56.9413L80.6708 57.7406Z" fill="#FF1F00" stroke="#263238" stroke-miterlimit="10" stroke-linecap="round"/>
<path d="M37.9658 73.18L39.4297 71.5337" stroke="#263238" stroke-miterlimit="10" stroke-linecap="round"/>
<path d="M20.209 91.7932L37.3628 73.7446" stroke="#263238" stroke-miterlimit="10" stroke-linecap="round"/>
<path d="M61.9306 53.5322C61.4702 53.7147 61.0097 53.9188 60.5449 54.1577" stroke="#263238" stroke-miterlimit="10" stroke-linecap="round"/>
<path d="M81.4609 57.563C81.4609 57.563 72.5865 50.4261 63.3037 53.0715" stroke="#263238" stroke-miterlimit="10" stroke-linecap="round"/>
<path d="M66.0368 108.855C66.0368 108.855 66.7666 107.474 66.2801 106.827C65.7936 106.179 65.3852 106.097 64.4948 105.284C63.6043 104.472 63.1178 104.229 62.0622 104.229C61.0067 104.229 59.8903 104.311 59.8903 104.311C59.8903 104.311 58.2657 103.66 58.2657 98.9555C58.3085 96.0513 58.7858 93.1698 59.6818 90.4069C58.26 91.2485 56.667 91.7592 55.0209 91.9012C54.0334 92.0083 53.0349 91.8633 52.1187 91.4797C51.2026 91.0961 50.3987 90.4863 49.7822 89.7075C50.046 92.2627 50.5433 94.7883 51.2678 97.2528C53.0531 103.173 54.2694 105.771 54.7429 106.809C55.2164 107.847 59.4472 113.216 60.177 113.381C60.9068 113.546 61.6365 113.703 62.2056 113.381C62.7746 113.06 66.9838 112.078 66.8317 110.866C66.8003 110.219 66.5731 109.596 66.1802 109.081L66.0368 108.855Z" fill="#FF1F00"/>
<path opacity="0.2" d="M66.8478 110.884C66.8478 110.753 66.8087 110.636 66.787 110.527C66.787 110.493 66.787 110.458 66.787 110.423C66.787 110.388 66.7522 110.267 66.7349 110.197C66.7175 110.128 66.7001 110.08 66.6871 110.028C65.132 110.223 62.2868 111.218 61.5223 111.218C60.6883 111.218 59.8499 109.963 58.5945 108.564C57.3392 107.165 55.3844 103.543 55.1195 99.0772C54.9501 96.4014 55.5843 93.8298 56.1186 91.7404C55.771 91.8099 55.4149 91.8621 55.0326 91.9012C54.0451 92.0083 53.0466 91.8633 52.1305 91.4797C51.2143 91.0961 50.4104 90.4863 49.7939 89.7075C49.7939 89.8205 49.82 89.9377 49.833 90.0507C49.8548 90.2505 49.8808 90.4503 49.9069 90.6588C49.9069 90.7935 49.946 90.9368 49.9634 91.0932C49.9807 91.2496 50.0198 91.4668 50.0459 91.6579C50.072 91.849 50.0937 91.9489 50.1154 92.0923C50.1371 92.2356 50.1805 92.4745 50.2153 92.6657L50.2935 93.1001L50.3977 93.6908L50.489 94.1252C50.5324 94.3294 50.5802 94.5379 50.628 94.7464C50.6584 94.8854 50.6888 95.0244 50.7235 95.159C50.78 95.3936 50.8408 95.6282 50.9016 95.8584C50.9277 95.9757 50.9581 96.093 50.9885 96.2059C51.0841 96.5577 51.184 96.9096 51.2882 97.2571C53.0735 103.178 54.2898 105.775 54.7633 106.814C54.8029 106.897 54.8478 106.979 54.8979 107.057C54.9848 107.204 55.0978 107.383 55.2368 107.587C55.467 107.926 55.7624 108.33 56.1055 108.773L56.3097 109.038C57.7518 110.936 59.7326 113.277 60.2191 113.381C60.9489 113.542 61.6787 113.703 62.2477 113.381C62.4586 113.282 62.6764 113.198 62.8993 113.129L63.2337 113.021C64.6238 112.569 66.9694 111.796 66.8478 110.884Z" fill="black"/>
<path d="M65.5706 107.41L64.5498 108.257C64.5498 108.257 65.3056 108.205 66.1961 109.099" stroke="#263238" stroke-linecap="round" stroke-linejoin="round"/>
<path d="M66.0368 108.855C66.0368 108.855 66.7666 107.474 66.2801 106.827C65.7936 106.179 65.3852 106.097 64.4948 105.284C63.6043 104.472 63.1178 104.229 62.0622 104.229C61.0067 104.229 59.8903 104.311 59.8903 104.311C59.8903 104.311 58.2657 103.66 58.2657 98.9555C58.3085 96.0513 58.7858 93.1698 59.6818 90.4069C58.26 91.2485 56.667 91.7592 55.0209 91.9012C54.0334 92.0083 53.0349 91.8633 52.1187 91.4797C51.2026 91.0961 50.3987 90.4863 49.7822 89.7075C50.046 92.2627 50.5433 94.7883 51.2678 97.2528C53.0531 103.173 54.2694 105.771 54.7429 106.809C55.2164 107.847 59.4472 113.216 60.177 113.381C60.9068 113.546 61.6365 113.703 62.2056 113.381C62.7746 113.06 66.9838 112.078 66.8317 110.866C66.8003 110.219 66.5731 109.596 66.1802 109.081L66.0368 108.855Z" stroke="#263238" stroke-linecap="round" stroke-linejoin="round"/>
<path d="M129.386 24.1724L115.395 37.3038" stroke="#263238" stroke-linecap="round" stroke-linejoin="round"/>
<path d="M114.082 38.5327L111.819 40.6612" stroke="#263238" stroke-linecap="round" stroke-linejoin="round"/>
<path d="M28.0491 107.366L25.6035 109.659" stroke="#263238" stroke-linecap="round" stroke-linejoin="round"/>
<path d="M46.1104 90.415L30.0078 105.523" stroke="#263238" stroke-linecap="round" stroke-linejoin="round"/>
<path d="M61.2532 137.424L59.6416 138.94" stroke="#263238" stroke-linecap="round" stroke-linejoin="round"/>
<path d="M71.3437 127.955L62.8906 135.887" stroke="#263238" stroke-linecap="round" stroke-linejoin="round"/>
<path d="M2.95038 114.767L1 116.6" stroke="#263238" stroke-linecap="round" stroke-linejoin="round"/>
<path d="M21.5024 97.3574L5.56055 112.318" stroke="#263238" stroke-linecap="round" stroke-linejoin="round"/>
<path d="M49.8157 52.4771L47.3701 54.7706" stroke="#263238" stroke-linecap="round" stroke-linejoin="round"/>
<path d="M67.8735 35.5312L51.9316 50.4914" stroke="#263238" stroke-linecap="round" stroke-linejoin="round"/>
<path d="M125.916 30.7959L105.413 50.039" stroke="#263238" stroke-linecap="round" stroke-linejoin="round"/>
</svg>
