<svg width="11" height="11" viewBox="0 0 11 11" fill="none" xmlns="http://www.w3.org/2000/svg">
<path d="M10.6777 10.3555H9.25977V7.19727C9.25977 6.84187 8.97063 6.55273 8.61523 6.55273H8.13609C8.00983 6.0019 7.75848 5.52894 7.40006 5.17363C7.17447 4.95 6.91219 4.77911 6.62131 4.66415C7.24477 4.12622 7.65166 3.19629 7.65166 2.35611C7.65166 1.59367 7.43957 0.995264 7.02129 0.577586C6.64293 0.199719 6.11688 0 5.5 0C4.88314 0 4.35707 0.199719 3.97869 0.577586C3.56041 0.995264 3.34832 1.59367 3.34832 2.35611C3.34832 3.19627 3.75521 4.12622 4.37867 4.66415C4.08781 4.77911 3.82553 4.95 3.59994 5.17363C3.24152 5.52894 2.99017 6.00192 2.86393 6.55273H2.38477C2.02937 6.55273 1.74023 6.84187 1.74023 7.19727V10.3555H0.322266C0.144289 10.3555 0 10.4998 0 10.6777C0 10.8557 0.144289 11 0.322266 11H10.6777C10.8557 11 11 10.8557 11 10.6777C11 10.4998 10.8557 10.3555 10.6777 10.3555ZM5.5 0.644531C5.9733 0.644531 6.71614 0.801861 6.94066 1.73725C6.6122 1.69548 6.42464 1.60269 6.27784 1.53005C6.13394 1.45885 5.97083 1.37814 5.77178 1.42377C5.61019 1.46081 5.49467 1.55197 5.38297 1.64014C5.17941 1.80082 4.88222 2.03487 4.00447 2.08227C4.11376 0.839115 4.97361 0.644531 5.5 0.644531ZM4.02531 2.72654C5.11988 2.6689 5.5287 2.34627 5.78233 2.14605C5.81904 2.11705 5.86631 2.07977 5.89557 2.06192C5.92144 2.07283 5.95962 2.09172 5.99201 2.10775C6.18138 2.20144 6.4787 2.34848 7.00631 2.39162C6.99789 2.86614 6.82148 3.39245 6.52994 3.80712C6.23242 4.23032 5.85701 4.47305 5.5 4.47305C5.14299 4.47305 4.76758 4.23032 4.47004 3.80712C4.24585 3.48822 4.08944 3.1032 4.02531 2.72654ZM5.32812 5.13477H5.67188C6.56623 5.13477 7.21862 5.6577 7.47175 6.55273H3.52825C3.78138 5.6577 4.43377 5.13477 5.32812 5.13477ZM2.38477 10.3555V7.19727H8.61523V10.3555H2.38477Z" fill="black"/>
<path d="M5.50098 8.91602C5.67896 8.91602 5.82324 8.77173 5.82324 8.59375C5.82324 8.41577 5.67896 8.27148 5.50098 8.27148C5.32299 8.27148 5.17871 8.41577 5.17871 8.59375C5.17871 8.77173 5.32299 8.91602 5.50098 8.91602Z" fill="black"/>
</svg>
