<svg width="301" height="104" viewBox="0 0 301 104" fill="none" xmlns="http://www.w3.org/2000/svg">
<path fill-rule="evenodd" clip-rule="evenodd" d="M0 72.4369C6.60347 75.2756 77.3112 104.904 147.49 103C252.84 100.141 301 71.5 301 71.5L301 33.6358H296.1V39.6981H273.763V63.165H262.048V55.3427H248.068V39.6981H213.43V58.1587H208.041V63.2041H204.507V31.3869H200.602V23.5646H193.905V30.2723H186.642V57.1223H183.244V63.2823H179.339V44.2546H152.004V59.8992H143.061V66.6068H138.024V70.5179H133.006V66.0788L129.921 62.989V56.0076H116.253V72.2193H111.216V68.3081H105.632V23.5646H101.238V11.2445H96.2204V5.08449H89.5233V0H79.3701V9.01519H73.7859V18.5193H70.4471V51.4316H64.2967V45.3693H56.4866V54.3258H47.544V28.5905L44.1857 25.2269V13.4934H25.7538V21.8829H16.2646V38.6617H11.7933V35.2981H6.20911L2.85077 38.6617L0 40V72.4369Z" fill="#3C3C3B"/>
</svg>
