<svg width="63" height="62" viewBox="0 0 63 62" fill="none" xmlns="http://www.w3.org/2000/svg">
<path d="M54.9998 29.4511L54.8332 29.15L59.985 24.0812C60.8142 23.2654 61.2715 22.1798 61.2715 21.0255C61.2715 18.6418 59.3001 16.7021 56.8772 16.7021C56.3851 16.7021 55.9114 16.7984 55.459 16.95V4.31152C55.459 2.73505 54.155 1.45215 52.5527 1.45215H22.3558C21.5799 1.45215 20.8494 1.74952 20.3001 2.28995L11.748 10.7041C11.1987 11.2436 10.8965 11.9623 10.8965 12.7267V14.8445C5.47342 15.3277 1.20898 19.8208 1.20898 25.2803V55.7803C1.20898 58.408 3.38189 60.5459 6.05273 60.5459H17.6777C20.3486 60.5459 22.5215 58.408 22.5215 55.7803V54.8271H45.7715H46.7402H60.4781L58.3623 42.3374C58.3449 37.8472 57.1853 33.3933 54.9998 29.4511ZM56.4045 41.715L46.9601 44.2494L44.6826 42.4565C43.5279 41.5463 42.8652 40.19 42.8652 38.7346V30.999V30.0459C43.9338 30.0459 44.8027 30.9009 44.8027 31.9521V38.624H46.7402V37.1124L53.3994 30.5606C55.2623 33.9918 56.2902 37.8272 56.4045 41.715ZM42.8652 28.1396C41.7967 28.1396 40.9277 28.9946 40.9277 30.0459V30.999C40.9277 31.5242 40.4928 31.9521 39.959 31.9521C39.4252 31.9521 38.9902 31.5242 38.9902 30.999V30.0459C38.9902 27.9433 40.7282 26.2334 42.8652 26.2334H45.3704L43.3806 28.1911C43.2101 28.1682 43.0415 28.1396 42.8652 28.1396ZM32.2565 44.4114L33.5313 41.2737L36.2971 43.9949L33.107 45.2501C32.6972 45.4141 32.209 45.0891 32.209 44.6506C32.209 44.5677 32.2245 44.4876 32.2565 44.4114ZM38.0215 42.9951L34.5475 39.5771L40.4056 33.8136C40.5867 33.786 40.7601 33.7412 40.9277 33.6821V38.7336C40.9277 39.1664 40.9781 39.5895 41.0595 40.0051L38.0215 42.9951ZM37.231 31.9521H26.3965V28.1396H37.3918C37.1767 28.7373 37.0527 29.3768 37.0527 30.0459V30.999C37.0527 31.3345 37.1225 31.6529 37.231 31.9521ZM26.3965 33.8584H37.6204L33.7454 37.6709H26.3965V33.8584ZM26.3965 39.5771H32.1344L30.5844 43.3896H26.3965V39.5771ZM26.3965 45.2959H30.3664C30.659 46.3891 31.6636 47.2021 32.8658 47.2021C33.1981 47.2021 33.5226 47.1411 33.8287 47.0201L36.084 46.1318V49.1084H26.3965V45.2959ZM38.0215 45.3693L38.5659 45.1548L41.7919 41.9809C41.8267 42.0429 41.8587 42.1058 41.8965 42.1668V49.1084H38.0215V45.3693ZM43.834 44.2284L45.7715 45.7534V49.1084H43.834V44.2284ZM59.334 21.0255C59.334 21.6708 59.0782 22.2779 58.6142 22.7345L46.7402 34.4169V31.9521C46.7402 30.7588 46.1687 29.7047 45.2929 29.0051L55.1403 19.3166C55.6043 18.86 56.2214 18.6084 56.8772 18.6084C58.2315 18.6084 59.334 19.6931 59.334 21.0255ZM20.584 4.70612V10.0303C20.584 10.5554 20.149 10.9834 19.6152 10.9834H14.2038L20.584 4.70612ZM11.8652 16.7021C16.6722 16.7021 20.584 20.5509 20.584 25.2803C20.584 30.0097 16.6722 33.8584 11.8652 33.8584C7.0583 33.8584 3.14648 30.0097 3.14648 25.2803C3.14648 20.5509 7.0583 16.7021 11.8652 16.7021ZM7.02148 34.6076C8.47655 35.3415 10.1205 35.7646 11.8652 35.7646C13.61 35.7646 15.2539 35.3415 16.709 34.6076V39.5771H7.02148V34.6076ZM17.6777 58.6396H6.05273C4.45042 58.6396 3.14648 57.3567 3.14648 55.7803V31.2897C3.6977 32.0618 4.34677 32.7614 5.08398 33.3618V39.5771C5.08398 40.6284 5.95295 41.4834 7.02148 41.4834H16.709C17.7775 41.4834 18.6465 40.6284 18.6465 39.5771V33.3618C19.3837 32.7614 20.0328 32.0618 20.584 31.2897V55.7803C20.584 57.3567 19.28 58.6396 17.6777 58.6396ZM22.5215 52.9209V25.2803C22.5215 19.8208 18.257 15.3277 12.834 14.8445V12.8896H19.6152C21.2175 12.8896 22.5215 11.6067 22.5215 10.0303V3.3584H52.5527C53.0865 3.3584 53.5215 3.78635 53.5215 4.31152V18.2138L47.3079 24.3271H42.8652C41.1496 24.3271 39.6102 25.0668 38.5446 26.2334H24.459V51.0146H45.7715V52.9209H22.5215ZM47.709 52.9209V46.0241L56.6166 43.6336L58.1899 52.9209H47.709Z" fill="white" fill-opacity="0.55"/>
<path d="M10.8965 29.9077V31.9521H12.834V29.9077C13.9529 29.5589 14.7715 28.54 14.7715 27.3257C14.7715 26.2896 14.1864 25.3565 13.2428 24.8924L11.3537 23.964C11.0718 23.8249 10.8965 23.5456 10.8965 23.2349C10.8965 22.7859 11.2675 22.4209 11.7238 22.4209H12.0067C12.463 22.4209 12.834 22.7859 12.834 23.2349V24.3271H14.7715V23.2349C14.7715 22.0206 13.9529 21.0017 12.834 20.6529V18.6084H10.8965V20.6529C9.77758 21.0017 8.95898 22.0206 8.95898 23.2349C8.95898 24.2709 9.54411 25.204 10.4877 25.6682L12.3767 26.5965C12.6586 26.7357 12.834 27.015 12.834 27.3257C12.834 27.7746 12.463 28.1396 12.0067 28.1396H11.7238C11.2675 28.1396 10.8965 27.7746 10.8965 27.3257V26.2334H8.95898V27.3257C8.95898 28.54 9.77758 29.5589 10.8965 29.9077Z" fill="white" fill-opacity="0.55"/>
<path d="M16.709 43.3896H7.02148C5.95295 43.3896 5.08398 44.2446 5.08398 45.2959V54.8271C5.08398 55.8784 5.95295 56.7334 7.02148 56.7334H16.709C17.7775 56.7334 18.6465 55.8784 18.6465 54.8271V45.2959C18.6465 44.2446 17.7775 43.3896 16.709 43.3896ZM16.709 47.2021H14.7715V45.2959H16.709V47.2021ZM12.834 54.8271H10.8965V52.9209H12.834V54.8271ZM12.834 51.0146H10.8965V49.1084H12.834V51.0146ZM8.95898 51.0146H7.02148V49.1084H8.95898V51.0146ZM10.8965 47.2021V45.2959H12.834V47.2021H10.8965ZM8.95898 45.2959V47.2021H7.02148V45.2959H8.95898ZM7.02148 52.9209H8.95898V54.8271H7.02148V52.9209ZM14.7715 54.8271V49.1084H16.71L16.7109 54.8271H14.7715Z" fill="white" fill-opacity="0.55"/>
<path d="M51.584 5.26465H24.459V10.9834H51.584V5.26465ZM49.6465 9.07715H26.3965V7.1709H49.6465V9.07715Z" fill="white" fill-opacity="0.55"/>
<path d="M24.459 12.8896H51.584V14.7959H24.459V12.8896Z" fill="white" fill-opacity="0.55"/>
<path d="M24.459 16.7021H51.584V18.6084H24.459V16.7021Z" fill="white" fill-opacity="0.55"/>
<path d="M24.459 20.5146H39.959V22.4209H24.459V20.5146Z" fill="white" fill-opacity="0.55"/>
</svg>
