<svg width="67" height="67" viewBox="0 0 67 67" fill="none" xmlns="http://www.w3.org/2000/svg">
<path d="M58.9766 3.05371H7.41406C6.59355 3.05371 5.80664 3.37966 5.22645 3.95985C4.64626 4.54004 4.32031 5.32695 4.32031 6.14746V51.5225C4.32031 52.343 4.64626 53.1299 5.22645 53.7101C5.80664 54.2903 6.59355 54.6162 7.41406 54.6162H9.90247C8.96756 55.5735 8.44453 56.8587 8.44531 58.1967V63.8975C8.44531 64.171 8.55396 64.4333 8.74736 64.6267C8.94076 64.8201 9.20306 64.9287 9.47656 64.9287H25.9766C26.2501 64.9287 26.5124 64.8201 26.7058 64.6267C26.8992 64.4333 27.0078 64.171 27.0078 63.8975V58.1967C27.0086 56.8587 26.4856 55.5735 25.5507 54.6162H40.84C39.9051 55.5735 39.382 56.8587 39.3828 58.1967V63.8975C39.3828 64.171 39.4915 64.4333 39.6849 64.6267C39.8783 64.8201 40.1406 64.9287 40.4141 64.9287H56.9141C57.1876 64.9287 57.4499 64.8201 57.6433 64.6267C57.8367 64.4333 57.9453 64.171 57.9453 63.8975V58.1967C57.9461 56.8587 57.4231 55.5735 56.4882 54.6162H58.9766C59.7971 54.6162 60.584 54.2903 61.1642 53.7101C61.7444 53.1299 62.0703 52.343 62.0703 51.5225V6.14746C62.0703 5.32695 61.7444 4.54004 61.1642 3.95985C60.584 3.37966 59.7971 3.05371 58.9766 3.05371ZM7.41406 5.11621H58.9766C59.2501 5.11621 59.5124 5.22486 59.7058 5.41826C59.8992 5.61165 60.0078 5.87396 60.0078 6.14746V11.3037H6.38281V6.14746C6.38281 5.87396 6.49146 5.61165 6.68486 5.41826C6.87826 5.22486 7.14056 5.11621 7.41406 5.11621ZM14.3307 40.4809L14.0285 40.1787H20.8203C21.0938 40.1787 21.3561 40.2874 21.5495 40.4808C21.7429 40.6742 21.8516 40.9365 21.8516 41.21V41.9978L21.4514 42.7981L19.3302 41.3832C19.1318 41.2509 18.8937 41.1915 18.6564 41.215C18.4191 41.2385 18.1973 41.3435 18.0287 41.5121L17.1738 42.366C16.5927 42.9446 15.8066 43.2704 14.9865 43.2725H14.0285L13.8222 43.0662L14.5214 41.6678C14.6177 41.4749 14.6511 41.2566 14.6169 41.0437C14.5827 40.8308 14.4826 40.6339 14.3307 40.4809ZM14.9865 45.335C15.6639 45.3366 16.3348 45.204 16.9606 44.9446C17.5863 44.6853 18.1544 44.3045 18.632 43.8242L18.8888 43.5684L20.8203 44.8554V46.3662C20.8203 47.1867 20.4944 47.9736 19.9142 48.5538C19.334 49.134 18.5471 49.46 17.7266 49.46C16.906 49.46 16.1191 49.134 15.539 48.5538C14.9588 47.9736 14.6328 47.1867 14.6328 46.3662V45.335H14.9865ZM19.9953 53.8087L20.8038 54.213L20.3831 55.1463L19.3518 54.4553L19.9953 53.8087ZM17.7266 51.5225C18.0729 51.5228 18.4184 51.4883 18.7578 51.4193V52.1278L17.7266 53.1591L16.6953 52.1278V51.4193C17.0347 51.4883 17.3802 51.5228 17.7266 51.5225ZM15.4578 53.8087L16.1044 54.4553L15.0732 55.1463L14.6524 54.213L15.4578 53.8087ZM24.9453 62.8662H10.5078V58.1967C10.5058 57.6218 10.6649 57.0579 10.9671 56.5688C11.2694 56.0798 11.7026 55.6852 12.2176 55.4299L12.8054 55.136L13.6923 57.1026C13.7538 57.2391 13.8444 57.3607 13.9576 57.4587C14.0709 57.5568 14.2041 57.6289 14.3481 57.6703C14.4921 57.7116 14.6433 57.721 14.7914 57.698C14.9394 57.6749 15.0806 57.6199 15.2052 57.5367L17.7266 55.8537L20.248 57.5346C20.3726 57.6178 20.5138 57.6728 20.6618 57.6959C20.8098 57.719 20.961 57.7095 21.105 57.6682C21.249 57.6269 21.3822 57.5547 21.4955 57.4566C21.6088 57.3586 21.6993 57.2371 21.7608 57.1005L22.6477 55.1339L23.2355 55.4278C23.7509 55.6833 24.1843 56.0782 24.4865 56.5677C24.7888 57.0571 24.9477 57.6215 24.9453 58.1967V62.8662ZM45.2682 40.4809L44.966 40.1787H51.7578C52.0313 40.1787 52.2936 40.2874 52.487 40.4808C52.6804 40.6742 52.7891 40.9365 52.7891 41.21V41.9978L52.3889 42.7981L50.2677 41.3832C50.0693 41.2509 49.8312 41.1915 49.5939 41.215C49.3566 41.2385 49.1348 41.3435 48.9662 41.5121L48.1113 42.366C47.5302 42.9446 46.7441 43.2704 45.924 43.2725H44.966L44.7598 43.0662L45.4589 41.6678C45.5552 41.4749 45.5886 41.2566 45.5544 41.0437C45.5202 40.8308 45.4201 40.6339 45.2682 40.4809ZM45.924 45.335C46.6014 45.3366 47.2723 45.204 47.8981 44.9446C48.5238 44.6853 49.0919 44.3045 49.5695 43.8242L49.8263 43.5684L51.7578 44.8554V46.3662C51.7578 47.1867 51.4319 47.9736 50.8517 48.5538C50.2715 49.134 49.4846 49.46 48.6641 49.46C47.8435 49.46 47.0566 49.134 46.4765 48.5538C45.8963 47.9736 45.5703 47.1867 45.5703 46.3662V45.335H45.924ZM50.9328 53.8087L51.7413 54.213L51.3206 55.1463L50.2893 54.4553L50.9328 53.8087ZM48.6641 51.5225C49.0104 51.5228 49.3559 51.4883 49.6953 51.4193V52.1278L48.6641 53.1591L47.6328 52.1278V51.4193C47.9722 51.4883 48.3177 51.5228 48.6641 51.5225ZM46.3953 53.8087L47.0419 54.4553L46.0107 55.1463L45.5899 54.213L46.3953 53.8087ZM55.8828 62.8662H41.4453V58.1967C41.4433 57.6218 41.6024 57.0579 41.9046 56.5688C42.2069 56.0798 42.6401 55.6852 43.1551 55.4299L43.7429 55.136L44.6298 57.1026C44.6913 57.2391 44.7819 57.3607 44.8951 57.4587C45.0084 57.5568 45.1416 57.6289 45.2856 57.6703C45.4296 57.7116 45.5808 57.721 45.7289 57.698C45.8769 57.6749 46.0181 57.6199 46.1427 57.5367L48.6641 55.8537L51.1855 57.5346C51.3101 57.6178 51.4513 57.6728 51.5993 57.6959C51.7473 57.719 51.8985 57.7095 52.0425 57.6682C52.1865 57.6269 52.3198 57.5547 52.433 57.4566C52.5463 57.3586 52.6368 57.2371 52.6983 57.1005L53.5852 55.1339L54.173 55.4278C54.6884 55.6833 55.1218 56.0782 55.424 56.5677C55.7263 57.0571 55.8852 57.6215 55.8828 58.1967V62.8662ZM58.9766 52.5537H53.0324L51.7578 51.9164V50.4644C52.3959 49.9881 52.9145 49.3699 53.2725 48.6586C53.6304 47.9473 53.818 47.1625 53.8203 46.3662V44.5471L54.7484 42.7022C54.818 42.5586 54.8533 42.4008 54.8516 42.2412V41.21C54.8516 40.3894 54.5256 39.6025 53.9454 39.0224C53.3652 38.4422 52.5783 38.1162 51.7578 38.1162H42.4766C42.2726 38.1163 42.0733 38.1768 41.9037 38.2901C41.7342 38.4034 41.6021 38.5644 41.524 38.7528C41.446 38.9413 41.4256 39.1486 41.4653 39.3486C41.5051 39.5486 41.6033 39.7323 41.7475 39.8766L43.284 41.4131L42.5848 42.8115C42.4882 43.0051 42.4549 43.2242 42.4897 43.4378C42.5245 43.6514 42.6256 43.8486 42.7787 44.0016L43.5078 44.7307V46.3662C43.5101 47.1625 43.6977 47.9473 44.0557 48.6586C44.4136 49.3699 44.9322 49.9881 45.5703 50.4644V51.9164L44.2957 52.5537H22.0949L20.8203 51.9164V50.4644C21.4584 49.9881 21.977 49.3699 22.335 48.6586C22.6929 47.9473 22.8805 47.1625 22.8828 46.3662V44.5471L23.8058 42.7022C23.8771 42.559 23.9142 42.4012 23.9141 42.2412V41.21C23.9141 40.3894 23.5881 39.6025 23.0079 39.0224C22.4277 38.4422 21.6408 38.1162 20.8203 38.1162H11.5391C11.3351 38.1163 11.1358 38.1768 10.9662 38.2901C10.7967 38.4034 10.6646 38.5644 10.5865 38.7528C10.5085 38.9413 10.4881 39.1486 10.5278 39.3486C10.5676 39.5486 10.6658 39.7323 10.81 39.8766L12.3465 41.4131L11.6473 42.8115C11.5507 43.0051 11.5174 43.2242 11.5522 43.4378C11.587 43.6514 11.6881 43.8486 11.8412 44.0016L12.5703 44.7307V46.3662C12.5726 47.1625 12.7602 47.9473 13.1182 48.6586C13.4761 49.3699 13.9947 49.9881 14.6328 50.4644V51.9164L13.3582 52.5537H7.41406C7.14056 52.5537 6.87826 52.4451 6.68486 52.2517C6.49146 52.0583 6.38281 51.796 6.38281 51.5225V13.3662H60.0078V51.5225C60.0078 51.796 59.8992 52.0583 59.7058 52.2517C59.5124 52.4451 59.2501 52.5537 58.9766 52.5537Z" fill="white" fill-opacity="0.55"/>
<path d="M10.5078 7.17871H12.5703V9.24121H10.5078V7.17871Z" fill="white" fill-opacity="0.55"/>
<path d="M14.6328 7.17871H16.6953V9.24121H14.6328V7.17871Z" fill="white" fill-opacity="0.55"/>
<path d="M18.7578 7.17871H20.8203V9.24121H18.7578V7.17871Z" fill="white" fill-opacity="0.55"/>
<path d="M32.1641 24.71H34.2266C34.5001 24.71 34.7624 24.8186 34.9558 25.012C35.1492 25.2054 35.2578 25.4677 35.2578 25.7412H37.3203C37.3203 24.9207 36.9944 24.1338 36.4142 23.5536C35.834 22.9734 35.0471 22.6475 34.2266 22.6475V21.6162H32.1641V22.6475C31.3435 22.6475 30.5566 22.9734 29.9765 23.5536C29.3963 24.1338 29.0703 24.9207 29.0703 25.7412C29.0703 26.5617 29.3963 27.3486 29.9765 27.9288C30.5566 28.509 31.3435 28.835 32.1641 28.835H34.2266C34.5001 28.835 34.7624 28.9436 34.9558 29.137C35.1492 29.3304 35.2578 29.5927 35.2578 29.8662C35.2578 30.1397 35.1492 30.402 34.9558 30.5954C34.7624 30.7888 34.5001 30.8975 34.2266 30.8975H32.1641C31.8906 30.8975 31.6283 30.7888 31.4349 30.5954C31.2415 30.402 31.1328 30.1397 31.1328 29.8662H29.0703C29.0703 30.6867 29.3963 31.4736 29.9765 32.0538C30.5566 32.634 31.3435 32.96 32.1641 32.96V33.9912H34.2266V32.96C35.0471 32.96 35.834 32.634 36.4142 32.0538C36.9944 31.4736 37.3203 30.6867 37.3203 29.8662C37.3203 29.0457 36.9944 28.2588 36.4142 27.6786C35.834 27.0984 35.0471 26.7725 34.2266 26.7725H32.1641C31.8906 26.7725 31.6283 26.6638 31.4349 26.4704C31.2415 26.277 31.1328 26.0147 31.1328 25.7412C31.1328 25.4677 31.2415 25.2054 31.4349 25.012C31.6283 24.8186 31.8906 24.71 32.1641 24.71Z" fill="white" fill-opacity="0.55"/>
<path d="M33.1953 17.4912C31.1557 17.4912 29.1619 18.096 27.466 19.2292C25.7701 20.3623 24.4483 21.9729 23.6678 23.8573C22.8873 25.7416 22.6831 27.8151 23.081 29.8156C23.4789 31.816 24.461 33.6535 25.9033 35.0957C27.3455 36.538 29.183 37.5201 31.1834 37.918C33.1839 38.316 35.2574 38.1117 37.1417 37.3312C39.0261 36.5507 40.6367 35.2289 41.7698 33.533C42.903 31.8371 43.5078 29.8433 43.5078 27.8037C43.5048 25.0696 42.4173 22.4483 40.484 20.515C38.5507 18.5817 35.9294 17.4942 33.1953 17.4912ZM33.1953 36.0537C31.5636 36.0537 29.9686 35.5698 28.6119 34.6633C27.2552 33.7568 26.1977 32.4683 25.5733 30.9608C24.9489 29.4534 24.7855 27.7946 25.1038 26.1942C25.4222 24.5939 26.2079 23.1239 27.3617 21.9701C28.5155 20.8163 29.9855 20.0306 31.5858 19.7122C33.1862 19.3939 34.845 19.5573 36.3524 20.1817C37.8599 20.8061 39.1484 21.8635 40.0549 23.2203C40.9615 24.577 41.4453 26.172 41.4453 27.8037C41.4428 29.991 40.5729 32.088 39.0262 33.6346C37.4796 35.1813 35.3826 36.0512 33.1953 36.0537Z" fill="white" fill-opacity="0.55"/>
<path d="M38.0492 41.5122L36.591 42.9704L37.9244 44.3038H28.4658L29.7992 42.9704L28.341 41.5122L25.2472 44.606C25.0539 44.7993 24.9453 45.0616 24.9453 45.3351C24.9453 45.6085 25.0539 45.8708 25.2472 46.0641L28.341 49.1579L29.7992 47.6997L28.4658 46.3663H37.9244L36.591 47.6997L38.0492 49.1579L41.1429 46.0641C41.3363 45.8708 41.4449 45.6085 41.4449 45.3351C41.4449 45.0616 41.3363 44.7993 41.1429 44.606L38.0492 41.5122Z" fill="white" fill-opacity="0.55"/>
<path d="M10.5078 19.5537H12.5703V21.6162H10.5078V19.5537Z" fill="white" fill-opacity="0.55"/>
<path d="M14.6328 19.5537H20.8203V21.6162H14.6328V19.5537Z" fill="white" fill-opacity="0.55"/>
<path d="M10.5078 23.6787H20.8203V25.7412H10.5078V23.6787Z" fill="white" fill-opacity="0.55"/>
<path d="M10.5078 27.8037H20.8203V29.8662H10.5078V27.8037Z" fill="white" fill-opacity="0.55"/>
<path d="M10.5078 31.9287H20.8203V33.9912H10.5078V31.9287Z" fill="white" fill-opacity="0.55"/>
<path d="M45.5703 19.5537H55.8828V21.6162H45.5703V19.5537Z" fill="white" fill-opacity="0.55"/>
<path d="M45.5703 23.6787H55.8828V25.7412H45.5703V23.6787Z" fill="white" fill-opacity="0.55"/>
<path d="M45.5703 27.8037H55.8828V29.8662H45.5703V27.8037Z" fill="white" fill-opacity="0.55"/>
<path d="M45.5703 31.9287H55.8828V33.9912H45.5703V31.9287Z" fill="white" fill-opacity="0.55"/>
</svg>
