<svg width="39" height="39" viewBox="0 0 39 39" fill="none" xmlns="http://www.w3.org/2000/svg">
<g clip-path="url(#clip0)">
<path d="M38.7374 8.33583C38.2743 7.66842 37.357 7.5024 36.689 7.96572L32.119 11.1367C31.704 11.4246 31.4657 11.9052 31.4875 12.4098C31.5007 12.7124 31.5071 12.9961 31.5071 13.2771C31.5071 22.6187 24.399 32.2809 12.5035 32.2809C10.0786 32.2809 7.69625 31.8194 5.46972 30.929L12.5224 28.9564C13.3052 28.7374 13.7622 27.9254 13.5432 27.1426C13.3242 26.36 12.5129 25.9028 11.7294 26.1218L1.07534 29.1019C0.516842 29.2581 0.102188 29.7277 0.0162352 30.3013C-0.0695213 30.8747 0.189318 31.4454 0.677562 31.7584C4.21458 34.0259 8.30401 35.2247 12.5035 35.2247C20.7568 35.2247 25.9259 31.3254 28.8092 28.0545C32.3945 23.9869 34.4507 18.6009 34.4507 13.2773C34.4507 13.219 34.4505 13.1608 34.4501 13.1023L38.3673 10.3844C39.0349 9.92085 39.2007 9.00382 38.7374 8.33583Z" fill="white"/>
<path d="M3.24816 7.87689L18.0809 15.3958C18.2913 15.5026 18.5193 15.5549 18.7462 15.5549C19.0692 15.5549 19.3902 15.4488 19.6545 15.2414C20.1045 14.8885 20.3094 14.3071 20.1799 13.7499C20.0816 13.3272 20.0319 12.8873 20.0319 12.4426C20.0319 9.28648 22.6001 6.71869 25.7568 6.71869C27.3348 6.71869 28.8582 7.37746 29.9359 8.52625C30.3386 8.95562 30.9585 9.10339 31.5119 8.90244L36.0898 7.23911C36.8537 6.96144 37.2482 6.11721 36.9705 5.35325C36.693 4.5891 35.848 4.19525 35.0846 4.47253L31.3594 5.82599C29.8034 4.51276 27.8108 3.7749 25.7568 3.7749C21.257 3.7749 17.5471 7.22106 17.1278 11.6123L4.57905 5.25141C3.85395 4.88365 2.96832 5.1737 2.60077 5.8986C2.23321 6.62371 2.52306 7.50933 3.24816 7.87689Z" fill="white"/>
<path d="M2.49069 16.6904L5.74984 17.5901C5.88092 17.6264 6.0126 17.6435 6.14231 17.6435C6.78775 17.6435 7.37999 17.2155 7.56014 16.563C7.77659 15.7796 7.31661 14.969 6.53322 14.7525L3.27408 13.8528C2.49109 13.6365 1.68003 14.0961 1.46358 14.8797C1.24732 15.6635 1.70711 16.4739 2.49069 16.6904Z" fill="white"/>
<path d="M5.3476 21.071C4.53537 21.1019 3.90191 21.7852 3.93272 22.5974C3.96274 23.3908 4.61524 24.0135 5.40255 24.0135C5.42139 24.0135 5.44023 24.0131 5.45907 24.0125L8.70918 23.8892C9.52142 23.8584 10.1549 23.1751 10.1243 22.3627C10.0935 21.5505 9.40838 20.9178 8.59791 20.9478L5.3476 21.071Z" fill="white"/>
</g>
<defs>
<clipPath id="clip0">
<rect width="39" height="39" fill="white"/>
</clipPath>
</defs>
</svg>
