<svg width="57" height="55" viewBox="0 0 57 55" fill="none" xmlns="http://www.w3.org/2000/svg">
<g clip-path="url(#clip0)" filter="url(#filter0_d)">
<path d="M28.2852 31.4922C27.7675 31.4922 27.3477 31.9119 27.3477 32.4297C27.3477 32.9475 27.7675 33.3672 28.2852 33.3672H28.2942C28.8118 33.3672 29.2272 32.9475 29.2272 32.4297C29.2272 31.9119 28.8029 31.4922 28.2852 31.4922Z" fill="white"/>
<path d="M9.26428 28.0169C9.09 27.8425 8.84812 27.7422 8.60156 27.7422C8.355 27.7422 8.11313 27.8425 7.93875 28.0169C7.76438 28.1912 7.66406 28.4331 7.66406 28.6797C7.66406 28.9272 7.76428 29.1681 7.93875 29.3425C8.11322 29.5169 8.355 29.6172 8.60156 29.6172C8.84812 29.6172 9.09 29.5169 9.26428 29.3425C9.43875 29.1681 9.53906 28.9262 9.53906 28.6797C9.53906 28.4331 9.43875 28.1912 9.26428 28.0169Z" fill="white"/>
<path d="M48.2578 2.0542H8.13281C5.96166 2.0542 4.19531 3.82054 4.19531 5.9917V32.4292C4.19531 35.0139 6.29813 37.1167 8.88281 37.1167H23.1328V40.6796H21.8203C19.6492 40.6796 17.8828 42.4459 17.8828 44.6171V45.3671C17.8828 45.8849 18.3026 46.3046 18.8203 46.3046H37.5703C38.088 46.3046 38.5078 45.8849 38.5078 45.3671V44.6171C38.5078 42.4459 36.7415 40.6796 34.5703 40.6796H33.2578V37.1167H47.5078C50.0925 37.1167 52.1953 35.0139 52.1953 32.4292V5.9917C52.1953 3.82054 50.429 2.0542 48.2578 2.0542ZM34.5703 42.5546C35.6444 42.5546 36.5293 43.3798 36.6244 44.4296H19.7662C19.8613 43.3798 20.7462 42.5546 21.8203 42.5546H34.5703ZM25.0078 40.6796V37.1167H31.3828V40.6796H25.0078ZM50.3203 32.4292C50.3203 33.98 49.0586 35.2417 47.5078 35.2417H8.88281C7.332 35.2417 6.07031 33.98 6.07031 32.4292V5.9917C6.07031 4.85442 6.99553 3.9292 8.13281 3.9292H27.2578V27.7421H11.9766C11.4589 27.7421 11.0391 28.1618 11.0391 28.6796C11.0391 29.1974 11.4589 29.6171 11.9766 29.6171H50.3203V32.4292ZM50.3203 27.7421H29.1328V3.9292H48.2578C49.3951 3.9292 50.3203 4.85442 50.3203 5.9917V27.7421Z" fill="white"/>
<path d="M46.582 5.8042H31.957C31.4393 5.8042 31.0195 6.22392 31.0195 6.7417V13.4917C31.0195 14.0095 31.4393 14.4292 31.957 14.4292H46.582C47.0997 14.4292 47.5195 14.0095 47.5195 13.4917V6.7417C47.5195 6.22392 47.0997 5.8042 46.582 5.8042ZM45.6445 12.5542H32.8945V7.6792H45.6445V12.5542Z" fill="white"/>
<path d="M15.9678 16.1167H9.85547C9.33778 16.1167 8.91797 16.5364 8.91797 17.0542C8.91797 17.572 9.33778 17.9917 9.85547 17.9917H15.9678C16.4856 17.9917 16.9053 17.572 16.9053 17.0542C16.9053 16.5364 16.4855 16.1167 15.9678 16.1167Z" fill="white"/>
<path d="M23.8637 16.1167H19.1953C18.6776 16.1167 18.2578 16.5364 18.2578 17.0542C18.2578 17.572 18.6776 17.9917 19.1953 17.9917H23.8637C24.3814 17.9917 24.8012 17.572 24.8012 17.0542C24.8012 16.5364 24.3814 16.1167 23.8637 16.1167Z" fill="white"/>
<path d="M23.8627 23.6157H22.1172C21.5995 23.6157 21.1797 24.0354 21.1797 24.5532C21.1797 25.071 21.5995 25.4907 22.1172 25.4907H23.8627C24.3804 25.4907 24.8002 25.071 24.8002 24.5532C24.8002 24.0354 24.3805 23.6157 23.8627 23.6157Z" fill="white"/>
<path d="M18.3786 23.6167H9.85547C9.33778 23.6167 8.91797 24.0364 8.91797 24.5542C8.91797 25.072 9.33778 25.4917 9.85547 25.4917H18.3786C18.8963 25.4917 19.3161 25.072 19.3161 24.5542C19.3161 24.0364 18.8963 23.6167 18.3786 23.6167Z" fill="white"/>
<path d="M12.9117 19.8667H9.85547C9.33778 19.8667 8.91797 20.2864 8.91797 20.8042C8.91797 21.322 9.33778 21.7417 9.85547 21.7417H12.9117C13.4294 21.7417 13.8492 21.322 13.8492 20.8042C13.8492 20.2864 13.4294 19.8667 12.9117 19.8667Z" fill="white"/>
<path d="M23.8625 19.8667H17.4141C16.8964 19.8667 16.4766 20.2864 16.4766 20.8042C16.4766 21.322 16.8964 21.7417 17.4141 21.7417H23.8625C24.3802 21.7417 24.8 21.322 24.8 20.8042C24.8 20.2864 24.3803 19.8667 23.8625 19.8667Z" fill="white"/>
<path d="M46.5834 16.1167H32C31.4823 16.1167 31.0625 16.5364 31.0625 17.0542C31.0625 17.572 31.4823 17.9917 32 17.9917H46.5834C47.1011 17.9917 47.5209 17.572 47.5209 17.0542C47.5209 16.5364 47.1011 16.1167 46.5834 16.1167Z" fill="white"/>
<path d="M47.2448 23.8919C47.0695 23.7166 46.8286 23.6172 46.582 23.6172C46.3345 23.6172 46.0936 23.7166 45.9192 23.8919C45.7439 24.0662 45.6445 24.3072 45.6445 24.5547C45.6445 24.8012 45.7439 25.0431 45.9192 25.2175C46.0936 25.3919 46.3346 25.4922 46.582 25.4922C46.8286 25.4922 47.0695 25.3919 47.2448 25.2175C47.4191 25.0431 47.5195 24.8012 47.5195 24.5547C47.5195 24.3072 47.4192 24.0662 47.2448 23.8919Z" fill="white"/>
<path d="M42.7746 23.6167H32C31.4823 23.6167 31.0625 24.0364 31.0625 24.5542C31.0625 25.072 31.4823 25.4917 32 25.4917H42.7746C43.2923 25.4917 43.7121 25.072 43.7121 24.5542C43.7121 24.0364 43.2923 23.6167 42.7746 23.6167Z" fill="white"/>
<path d="M46.5834 19.8667H32C31.4823 19.8667 31.0625 20.2864 31.0625 20.8042C31.0625 21.322 31.4823 21.7417 32 21.7417H46.5834C47.1011 21.7417 47.5209 21.322 47.5209 20.8042C47.5209 20.2864 47.1011 19.8667 46.5834 19.8667Z" fill="white"/>
<path d="M11.1812 9.74178L12.9485 7.97441C13.3146 7.60831 13.3146 7.01469 12.9485 6.64859C12.5824 6.2825 11.9889 6.2825 11.6226 6.64859L9.19254 9.07897C8.82645 9.44506 8.82645 10.0387 9.19254 10.4048L11.6227 12.835C11.8058 13.0181 12.0457 13.1096 12.2856 13.1096C12.5255 13.1096 12.7654 13.018 12.9485 12.835C13.3146 12.4689 13.3146 11.8752 12.9485 11.5092L11.1812 9.74178Z" fill="white"/>
<path d="M24.1361 9.07927L21.7059 6.64908C21.3399 6.28299 20.7465 6.28299 20.38 6.64908C20.0139 7.01518 20.0139 7.6088 20.38 7.9749L22.1474 9.74227L20.38 11.5096C20.014 11.8756 20.014 12.4691 20.3801 12.8353C20.5632 13.0184 20.8031 13.1099 21.043 13.1099C21.2829 13.1099 21.5229 13.0183 21.7059 12.8353L24.1361 10.4051C24.5022 10.039 24.5022 9.44536 24.1361 9.07927Z" fill="white"/>
<path d="M18.8558 6.01419C18.4093 5.75179 17.8348 5.90104 17.5726 6.34748L14.1411 12.1865C13.8787 12.6329 14.028 13.2074 14.4744 13.4698C14.6237 13.5575 14.7871 13.5991 14.9485 13.5991C15.27 13.5991 15.5831 13.4337 15.7577 13.1365L19.1891 7.29744C19.4515 6.8511 19.3023 6.27651 18.8558 6.01419Z" fill="white"/>
</g>
<defs>
<filter id="filter0_d" x="0.195312" y="0.179688" width="56" height="56" filterUnits="userSpaceOnUse" color-interpolation-filters="sRGB">
<feFlood flood-opacity="0" result="BackgroundImageFix"/>
<feColorMatrix in="SourceAlpha" type="matrix" values="0 0 0 0 0 0 0 0 0 0 0 0 0 0 0 0 0 0 127 0"/>
<feOffset dy="4"/>
<feGaussianBlur stdDeviation="2"/>
<feColorMatrix type="matrix" values="0 0 0 0 0 0 0 0 0 0 0 0 0 0 0 0 0 0 0.25 0"/>
<feBlend mode="normal" in2="BackgroundImageFix" result="effect1_dropShadow"/>
<feBlend mode="normal" in="SourceGraphic" in2="effect1_dropShadow" result="shape"/>
</filter>
<clipPath id="clip0">
<rect width="48" height="48" fill="white" transform="translate(4.19531 0.179688)"/>
</clipPath>
</defs>
</svg>
