<svg width="37" height="37" viewBox="0 0 37 37" fill="none" xmlns="http://www.w3.org/2000/svg">
<path d="M26.789 0H10.2104C4.58038 0 0 4.5806 0 10.2106V26.7892C0 32.4194 4.58038 36.9998 10.2104 36.9998H26.789C32.4194 36.9998 36.9998 32.4192 36.9998 26.7892V10.2106C37 4.5806 32.4194 0 26.789 0ZM33.7172 26.7892C33.7172 30.6093 30.6093 33.717 26.7892 33.717H10.2104C6.39052 33.7172 3.2828 30.6093 3.2828 26.7892V10.2106C3.2828 6.39074 6.39052 3.2828 10.2104 3.2828H26.789C30.609 3.2828 33.717 6.39074 33.717 10.2106V26.7892H33.7172Z" fill="white"/>
<path d="M18.5007 8.96631C13.2436 8.96631 8.9668 13.2431 8.9668 18.5002C8.9668 23.7571 13.2436 28.0337 18.5007 28.0337C23.7578 28.0337 28.0346 23.7571 28.0346 18.5002C28.0346 13.2431 23.7578 8.96631 18.5007 8.96631ZM18.5007 24.7507C15.054 24.7507 12.2496 21.9467 12.2496 18.5C12.2496 15.0531 15.0538 12.2489 18.5007 12.2489C21.9476 12.2489 24.7518 15.0531 24.7518 18.5C24.7518 21.9467 21.9474 24.7507 18.5007 24.7507Z" fill="white"/>
<path d="M28.4328 6.18262C27.8003 6.18262 27.179 6.43868 26.7323 6.88733C26.2834 7.33379 26.0254 7.95533 26.0254 8.59C26.0254 9.22271 26.2836 9.84403 26.7323 10.2927C27.1787 10.7391 27.8003 10.9974 28.4328 10.9974C29.0675 10.9974 29.6868 10.7391 30.1355 10.2927C30.5841 9.84403 30.8402 9.22249 30.8402 8.59C30.8402 7.95533 30.5841 7.33379 30.1355 6.88733C29.689 6.43868 29.0675 6.18262 28.4328 6.18262Z" fill="white"/>
</svg>
