<svg width="39" height="39" viewBox="0 0 39 39" fill="none" xmlns="http://www.w3.org/2000/svg">
<g clip-path="url(#clip0)">
<path d="M34.291 4.36352C31.2081 1.34116 26.224 -0.123288 19.4747 0.00867192C12.6691 0.142522 8.11994 1.33703 5.15823 3.76798C2.29463 6.11818 0.960938 9.55721 0.960938 14.5908V19.7279C0.960938 25.6702 4.14516 32.2031 10.231 33.1916C10.9335 33.3066 11.5954 32.8289 11.7095 32.1261C11.8236 31.4237 11.3466 30.7617 10.644 30.6476C6.02868 29.8979 3.53828 24.462 3.53828 19.7279V14.5908C3.53828 7.37317 6.2127 2.84718 19.5252 2.58533C25.5605 2.46574 29.9165 3.68413 32.4863 6.20374C34.4889 8.16751 35.4624 10.9108 35.4624 14.5908V19.7279C35.4624 27.507 31.9708 30.9382 23.0154 31.9485H16.6652C16.3234 31.9485 15.9956 32.0842 15.754 32.326L11.2796 36.8004C10.7763 37.3037 10.7763 38.1197 11.2796 38.6229C11.5311 38.8745 11.861 39.0004 12.1908 39.0004C12.5205 39.0004 12.8504 38.8747 13.1019 38.6229L17.1991 34.5258H23.0874C23.1348 34.5258 23.1824 34.5232 23.2297 34.5179C28.3548 33.9487 31.8645 32.6148 34.2743 30.3199C36.8082 27.9069 38.04 24.4422 38.04 19.7277V14.5908C38.04 10.2438 36.7786 6.80289 34.291 4.36352Z" fill="white"/>
<path d="M20.3045 8.41799C20.3046 8.41799 20.3046 8.41799 20.305 8.41799C22.3815 8.41799 24.3337 9.22676 25.8021 10.6952C27.2707 12.1637 28.0794 14.1163 28.0793 16.1931C28.0793 16.9048 28.6561 17.4818 29.3678 17.4818C29.3679 17.4818 29.3679 17.4818 29.3679 17.4818C30.0796 17.4818 30.6566 16.905 30.6566 16.1933C30.6568 13.428 29.58 10.8281 27.6246 8.8728C25.6695 6.91746 23.0701 5.84082 20.305 5.84082C20.3048 5.84082 20.3043 5.84082 20.3041 5.84082C19.5924 5.84082 19.0156 6.4178 19.0156 7.12949C19.0158 7.84101 19.5928 8.41799 20.3045 8.41799Z" fill="white"/>
<path d="M20.3041 12.9499C22.0925 12.9502 23.5476 14.4052 23.5478 16.1934C23.548 16.9051 24.1248 17.4821 24.8366 17.4819C25.5485 17.4819 26.1253 16.9047 26.1251 16.1931C26.1246 12.9841 23.5136 10.3731 20.3045 10.3726H20.3043C19.5926 10.3726 19.0158 10.9494 19.0156 11.6611C19.0156 12.3727 19.5924 12.9499 20.3041 12.9499Z" fill="white"/>
<path d="M14.5255 15.1572C13.9381 15.5589 13.7874 16.3608 14.1889 16.9483C14.5905 17.5357 15.3925 17.6862 15.98 17.2847C16.442 16.9689 17.5242 16.229 17.4482 14.75C17.4001 13.8647 16.6016 12.6008 15.9403 11.6963C14.9729 10.373 14.1393 9.57586 13.4676 9.32878C12.8404 9.09528 12.1846 9.09029 11.5169 9.31435C10.1339 9.78033 9.12976 10.6224 8.61326 11.7496C8.11034 12.8469 8.1215 14.1079 8.64574 15.3971C9.88389 18.4345 11.6172 21.0938 13.8092 23.3124C16.0162 25.4927 18.6754 27.226 21.7141 28.4649C22.3716 28.7324 23.0222 28.8662 23.6474 28.8662C24.2471 28.8662 24.8235 28.7432 25.3607 28.497C26.4878 27.9803 27.3297 26.9764 27.7962 25.5916C28.0196 24.9255 28.0146 24.27 27.783 23.6471C27.5342 22.9707 26.737 22.1371 25.4138 21.1698C24.5091 20.5084 23.2452 19.71 22.3565 19.6617C20.8806 19.5875 20.1414 20.6677 19.8256 21.1297C19.4238 21.7172 19.5742 22.5191 20.1616 22.921C20.7493 23.3229 21.551 23.1724 21.9529 22.5849C22.0931 22.3799 22.1732 22.2868 22.2191 22.2461C22.9424 22.4779 25.0052 23.9933 25.3765 24.5741C25.3856 24.6112 25.3876 24.6678 25.3533 24.7707C25.1907 25.2533 24.8737 25.8851 24.2869 26.1542C23.7373 26.4057 23.1127 26.2514 22.6862 26.0781C19.9634 24.9679 17.5862 23.4207 15.6315 21.4899C13.6898 19.5244 12.1425 17.1472 11.033 14.4254C10.8592 13.9979 10.7047 13.373 10.9564 12.8238C11.2253 12.2371 11.8573 11.9199 12.3384 11.7577C12.4411 11.7233 12.4977 11.7252 12.5368 11.7346C13.1178 12.1066 14.6324 14.1682 14.8643 14.8917C14.8235 14.9369 14.7305 15.0171 14.5255 15.1572Z" fill="white"/>
</g>
<defs>
<clipPath id="clip0">
<rect width="39" height="39" fill="white"/>
</clipPath>
</defs>
</svg>
