<svg width="302" height="227" viewBox="0 0 302 227" fill="none" xmlns="http://www.w3.org/2000/svg">
<path d="M244.908 18.2207H164.229V112.872H244.908V18.2207Z" fill="#E6E6E6"/>
<path d="M167.134 121.279L149.92 139.439C150.773 134.286 151.626 127.43 152.857 118.29C157.546 83.3621 131.211 79.1323 131.211 79.1323C131.211 79.1323 119.131 152.151 134.057 153.649C135.122 153.755 136.088 153.838 137.002 153.899L136.171 159.906C159.803 164.446 173.755 123.95 173.755 123.95L167.134 121.279Z" fill="#430099"/>
<path opacity="0.46" d="M167.134 121.279L149.92 139.439C150.773 134.286 151.626 127.43 152.857 118.29C157.546 83.3621 131.211 79.1323 131.211 79.1323C131.211 79.1323 119.131 152.151 134.057 153.649C135.122 153.755 136.088 153.838 137.002 153.899L136.171 159.906C159.803 164.446 173.755 123.95 173.755 123.95L167.134 121.279Z" fill="white"/>
<path opacity="0.45" d="M132.586 204.459C190.596 204.459 237.622 197.128 237.622 188.085C237.622 179.041 190.596 171.71 132.586 171.71C74.5768 171.71 27.5508 179.041 27.5508 188.085C27.5508 197.128 74.5768 204.459 132.586 204.459Z" fill="#E6E6E6"/>
<path d="M131.211 79.1399C129.248 78.4619 127.2 78.062 125.126 77.952C118.595 77.5282 100.762 77.4147 80.1129 86.0256C54.0277 96.9065 89.339 170.114 89.339 170.114L133.635 166.792C133.635 166.792 164.59 91.0272 131.211 79.1399Z" fill="#430099"/>
<path d="M266.371 96.5059L217.232 97.8901L218.096 128.689L267.235 127.305L266.371 96.5059Z" fill="#F2F2F2"/>
<path d="M217.221 97.9052L242.332 116.587L266.364 96.5205L217.221 97.9052Z" fill="#C9C9C9"/>
<path opacity="0.08" d="M87.625 91.3525C87.625 91.3525 104.477 92.1092 103.714 118.297C102.952 144.486 114.76 137.623 114.76 137.623L134.05 106.841C134.05 106.841 140.196 106.123 141.049 112.607C141.592 116.792 134.254 134.657 128.969 146.801C127.503 150.194 127.166 153.969 128.006 157.569C128.846 161.169 130.82 164.403 133.635 166.792L89.3766 170.114L87.8666 166.792L87.625 91.3525Z" fill="black"/>
<path d="M98.1948 54.7145C98.1948 54.7145 101.879 59.822 103.117 63.9459C103.237 64.3458 103.275 64.7654 103.232 65.1805C103.189 65.5956 103.064 65.998 102.864 66.3644C102.665 66.7309 102.395 67.0542 102.071 67.3157C101.746 67.5772 101.373 67.7717 100.973 67.8881C98.8894 68.4859 95.9071 68.6448 93.5968 66.1856L89.165 62.4023C89.165 62.4023 86.4696 59.9506 88.2061 55.9327C89.9426 51.9148 96.111 51.4911 98.1948 54.7145Z" fill="#F4A28C"/>
<path d="M91.7851 62.1826L89.5352 82.711L100.913 83.1423L97.9836 68.0317L91.7851 62.1826Z" fill="#F4A28C"/>
<path d="M96.9949 55.7434C95.3659 56.8054 93.6204 57.6763 91.7929 58.3388C92.7093 58.7898 93.4758 59.4971 93.9997 60.3753C94.5236 61.2535 94.7824 62.2649 94.745 63.2874C94.7208 64.2812 94.3529 65.2358 93.7043 65.988C93.0557 66.7401 92.1666 67.2432 91.1889 67.4112L87.1346 60.4045C86.5207 59.4224 86.1826 58.2924 86.156 57.1338C86.1294 55.9752 86.4153 54.8308 86.9836 53.8215C87.4799 52.9484 88.0295 52.1069 88.6295 51.3018C90.1395 49.3042 93.8616 48.888 94.8507 46.4591C94.9498 46.2152 95.1108 46.0014 95.3176 45.8389C95.5245 45.6764 95.7701 45.5708 96.0301 45.5326C96.2901 45.4944 96.5556 45.5249 96.8003 45.621C97.045 45.7172 97.2604 45.8756 97.4252 46.0808C98.9956 48.0027 100.604 51.5591 98.437 54.4041C98.0332 54.9271 97.5459 55.3797 96.9949 55.7434Z" fill="#24285B"/>
<path d="M95.2277 62.8035C95.2277 62.8035 93.9442 60.7454 92.4795 61.8426C91.0148 62.9397 92.8494 65.9285 95.1371 64.9373L95.2277 62.8035Z" fill="#F4A28C"/>
<path d="M100.355 58.0513L103.104 59.2317C103.26 59.2993 103.396 59.4052 103.501 59.5396C103.605 59.674 103.674 59.8326 103.701 60.0007C103.728 60.1689 103.712 60.3411 103.655 60.5016C103.599 60.6621 103.502 60.8057 103.375 60.919L101.541 62.5459L100.355 58.0513Z" fill="#F4A28C"/>
<path opacity="0.31" d="M97.826 68.5237C96.3712 68.5409 94.9433 68.1305 93.7188 67.3433C93.7187 67.3433 93.8924 71.1266 98.8377 73.722L97.826 68.5237Z" fill="#CE8172"/>
<path d="M89.3391 170.114C89.3391 170.114 66.3946 178.664 71.9741 191.49C76.1341 201.114 97.2288 192.889 111.045 188.803C115.986 187.354 121.153 186.841 126.281 187.29C135.772 188.107 147.836 191.028 151.891 185.504C157.863 177.385 150.215 170.273 133.627 166.822L89.3391 170.114Z" fill="#24285B"/>
<path d="M93.2956 99.8801C90.2756 86.4493 71.8762 84.9435 66.6516 97.6782C64.6056 102.657 63.307 109.066 63.6316 117.231C64.9302 145.87 70.6003 170.25 92.1102 166.391C113.62 162.532 134.081 117.208 134.081 117.208L124.266 111.661L94.0204 141.171C94.0204 141.171 97.3499 117.662 93.2956 99.8801Z" fill="#430099"/>
<path opacity="0.46" d="M93.2956 99.8801C90.2756 86.4493 71.8762 84.9435 66.6516 97.6782C64.6056 102.657 63.307 109.066 63.6316 117.231C64.9302 145.87 70.6003 170.25 92.1102 166.391C113.62 162.532 134.081 117.208 134.081 117.208L124.266 111.661L94.0204 141.171C94.0204 141.171 97.3499 117.662 93.2956 99.8801Z" fill="white"/>
<path d="M125.473 112.342C125.473 112.342 130.614 103.05 136.043 104.987C141.471 106.924 133.989 109.467 133.989 109.467C133.989 109.467 137.809 112.811 132.758 116.466L125.473 112.342Z" fill="#F4A28C"/>
<path d="M116.881 180.707L118.315 187.343C118.315 187.343 125.11 192.345 129.391 189.212C133.672 186.079 127.119 182.462 116.881 180.707Z" fill="#430099"/>
<path d="M174.8 97.77L161.279 95.8921L157.944 120.011L171.465 121.889L174.8 97.77Z" fill="#FFD200"/>
<path d="M173.755 123.957C173.755 123.957 176.775 112.607 169.489 112.607C162.204 112.607 165.012 124.616 173.755 123.957Z" fill="#F4A28C"/>
<path d="M86.8773 83.4754C86.8773 83.4754 86.7716 78.61 90.237 76.3325C92.8493 74.6224 98.9195 77.5204 101.743 79.0489C102.414 79.3945 102.951 79.9538 103.269 80.6387C103.588 81.3237 103.67 82.0954 103.502 82.8322C103.337 83.413 103.002 83.9308 102.54 84.3191C102.079 84.7075 101.512 84.9486 100.913 85.0114C96.8282 85.8892 86.8773 83.4754 86.8773 83.4754Z" fill="#430099"/>
<path opacity="0.46" d="M86.8773 83.4754C86.8773 83.4754 86.7716 78.61 90.237 76.3325C92.8493 74.6224 98.9195 77.5204 101.743 79.0489C102.414 79.3945 102.951 79.9538 103.269 80.6387C103.588 81.3237 103.67 82.0954 103.502 82.8322C103.337 83.413 103.002 83.9308 102.54 84.3191C102.079 84.7075 101.512 84.9486 100.913 85.0114C96.8282 85.8892 86.8773 83.4754 86.8773 83.4754Z" fill="white"/>
<path d="M210.336 45.5436V29.8579H154.715V51.1429H210.336H221.094L210.336 45.5436Z" fill="#FFD200"/>
<path d="M198.663 83.7931V68.1074H254.284V89.3925H198.663H187.904L198.663 83.7931Z" fill="#24285B"/>
<path d="M230.788 56.4625C233.657 56.4625 235.983 54.1318 235.983 51.2566C235.983 48.3815 233.657 46.0508 230.788 46.0508C227.919 46.0508 225.594 48.3815 225.594 51.2566C225.594 54.1318 227.919 56.4625 230.788 56.4625Z" fill="#F2F2F2"/>
<path d="M177.108 94.1066C179.977 94.1066 182.303 91.7758 182.303 88.9007C182.303 86.0256 179.977 83.6948 177.108 83.6948C174.24 83.6948 171.914 86.0256 171.914 88.9007C171.914 91.7758 174.24 94.1066 177.108 94.1066Z" fill="#F2F2F2"/>
<path d="M199.576 34.5269H165.035V38.4994H199.576V34.5269Z" fill="white"/>
<path opacity="0.37" d="M199.576 42.0933H165.035V46.0658H199.576V42.0933Z" fill="white"/>
<path d="M243.405 72.9805H208.863V76.953H243.405V72.9805Z" fill="white"/>
<path opacity="0.37" d="M243.405 80.5469H208.863V84.5194H243.405V80.5469Z" fill="white"/>
<path opacity="0.58" d="M192.132 171.832C192.132 171.832 182.128 169.138 179.916 159.831C179.916 159.831 195.386 156.63 195.892 172.641L192.132 171.832Z" fill="#430099"/>
<path opacity="0.73" d="M193.356 170.833C193.356 170.833 186.327 159.808 192.427 149.434C192.427 149.434 204.228 156.88 199.056 170.833H193.356Z" fill="#430099"/>
<path d="M195.152 170.833C195.152 170.833 198.791 159.142 209.928 156.88C209.928 156.88 212.057 164.447 202.77 170.833H195.152Z" fill="#430099"/>
<path d="M187.904 170.605L189.988 184.483H202.748L204.567 170.605H187.904Z" fill="#24285B"/>
<path d="M237.334 40.5044H224.311V43.13H237.334V40.5044Z" fill="#ADADAD"/>
<path opacity="0.55" d="M183.623 77.8232H170.6V80.4489H183.623V77.8232Z" fill="#ADADAD"/>
</svg>
