<svg width="303" height="227" viewBox="0 0 303 227" fill="none" xmlns="http://www.w3.org/2000/svg">
<path d="M245.72 18.2207H165.041V112.872H245.72V18.2207Z" fill="#E6E6E6"/>
<path d="M167.947 121.278L150.733 139.438C151.586 134.285 152.439 127.43 153.669 118.289C158.358 83.3616 132.024 79.1318 132.024 79.1318C132.024 79.1318 119.944 152.15 134.87 153.648C135.935 153.754 136.901 153.838 137.814 153.898L136.984 159.906C160.615 164.446 174.568 123.949 174.568 123.949L167.947 121.278Z" fill="#430099"/>
<path opacity="0.46" d="M167.947 121.278L150.733 139.438C151.586 134.285 152.439 127.43 153.669 118.289C158.358 83.3616 132.024 79.1318 132.024 79.1318C132.024 79.1318 119.944 152.15 134.87 153.648C135.935 153.754 136.901 153.838 137.814 153.898L136.984 159.906C160.615 164.446 174.568 123.949 174.568 123.949L167.947 121.278Z" fill="white"/>
<path opacity="0.45" d="M133.399 204.458C191.408 204.458 238.435 197.127 238.435 188.084C238.435 179.041 191.408 171.71 133.399 171.71C75.3893 171.71 28.3633 179.041 28.3633 188.084C28.3633 197.127 75.3893 204.458 133.399 204.458Z" fill="#E6E6E6"/>
<path d="M132.024 79.1399C130.061 78.4619 128.012 78.062 125.939 77.952C119.408 77.5282 101.575 77.4147 80.9254 86.0256C54.8402 96.9065 90.1515 170.114 90.1515 170.114L134.447 166.792C134.447 166.792 165.402 91.0272 132.024 79.1399Z" fill="#430099"/>
<path d="M267.184 96.5054L218.045 97.8896L218.909 128.689L268.047 127.305L267.184 96.5054Z" fill="#F2F2F2"/>
<path d="M218.033 97.9052L243.145 116.587L267.176 96.5205L218.033 97.9052Z" fill="#C9C9C9"/>
<path opacity="0.08" d="M88.4375 91.3525C88.4375 91.3525 105.289 92.1092 104.527 118.297C103.764 144.486 115.572 137.623 115.572 137.623L134.862 106.841C134.862 106.841 141.008 106.123 141.861 112.607C142.405 116.792 135.066 134.657 129.781 146.801C128.316 150.194 127.978 153.969 128.819 157.569C129.659 161.169 131.632 164.403 134.447 166.792L90.1891 170.114L88.6791 166.792L88.4375 91.3525Z" fill="black"/>
<path d="M99.0073 54.7145C99.0073 54.7145 102.692 59.822 103.93 63.9459C104.049 64.3458 104.088 64.7654 104.045 65.1805C104.001 65.5956 103.876 65.998 103.677 66.3644C103.478 66.7309 103.208 67.0542 102.883 67.3157C102.559 67.5772 102.186 67.7717 101.786 67.8881C99.7019 68.4859 96.7196 68.6448 94.4093 66.1856L89.9775 62.4023C89.9775 62.4023 87.2821 59.9506 89.0186 55.9327C90.7551 51.9148 96.9235 51.4911 99.0073 54.7145Z" fill="#F4A28C"/>
<path d="M92.5976 62.1826L90.3477 82.711L101.726 83.1423L98.7961 68.0317L92.5976 62.1826Z" fill="#F4A28C"/>
<path d="M97.8074 55.7434C96.1784 56.8054 94.4329 57.6763 92.6054 58.3388C93.5218 58.7898 94.2883 59.4971 94.8122 60.3753C95.3361 61.2535 95.5949 62.2649 95.5575 63.2874C95.5333 64.2812 95.1654 65.2358 94.5168 65.988C93.8682 66.7401 92.9791 67.2432 92.0014 67.4112L87.9471 60.4045C87.3332 59.4224 86.9951 58.2924 86.9685 57.1338C86.9419 55.9752 87.2278 54.8308 87.7961 53.8215C88.2924 52.9484 88.842 52.1069 89.442 51.3018C90.952 49.3042 94.6741 48.888 95.6632 46.4591C95.7623 46.2152 95.9233 46.0014 96.1301 45.8389C96.337 45.6764 96.5826 45.5708 96.8426 45.5326C97.1026 45.4944 97.3681 45.5249 97.6128 45.621C97.8575 45.7172 98.0729 45.8756 98.2377 46.0808C99.8081 48.0027 101.416 51.5591 99.2495 54.4041C98.8457 54.9271 98.3584 55.3797 97.8074 55.7434Z" fill="#24285B"/>
<path d="M96.0402 62.8035C96.0402 62.8035 94.7567 60.7454 93.292 61.8426C91.8273 62.9397 93.6619 65.9285 95.9496 64.9373L96.0402 62.8035Z" fill="#F4A28C"/>
<path d="M101.168 58.0518L103.916 59.2322C104.072 59.2998 104.209 59.4057 104.313 59.5401C104.417 59.6745 104.486 59.8331 104.513 60.0012C104.54 60.1693 104.525 60.3416 104.468 60.5021C104.411 60.6626 104.315 60.8062 104.188 60.9195L102.353 62.5464L101.168 58.0518Z" fill="#F4A28C"/>
<path opacity="0.31" d="M98.6385 68.5241C97.1837 68.5414 95.7558 68.131 94.5312 67.3438C94.5312 67.3437 94.7049 71.1271 99.6502 73.7224L98.6385 68.5241Z" fill="#CE8172"/>
<path d="M90.1516 170.114C90.1516 170.114 67.2071 178.664 72.7866 191.49C76.9466 201.114 98.0413 192.889 111.858 188.803C116.798 187.354 121.965 186.841 127.094 187.29C136.584 188.107 148.649 191.028 152.703 185.504C158.675 177.385 151.027 170.273 134.44 166.822L90.1516 170.114Z" fill="#24285B"/>
<path d="M94.1081 99.8801C91.0881 86.4493 72.6887 84.9435 67.4641 97.6782C65.4181 102.657 64.1195 109.066 64.4441 117.231C65.7427 145.87 71.4128 170.25 92.9227 166.391C114.433 162.532 134.893 117.208 134.893 117.208L125.078 111.661L94.8329 141.171C94.8329 141.171 98.1624 117.662 94.1081 99.8801Z" fill="#430099"/>
<path opacity="0.46" d="M94.1081 99.8801C91.0881 86.4493 72.6887 84.9435 67.4641 97.6782C65.4181 102.657 64.1195 109.066 64.4441 117.231C65.7427 145.87 71.4128 170.25 92.9227 166.391C114.433 162.532 134.893 117.208 134.893 117.208L125.078 111.661L94.8329 141.171C94.8329 141.171 98.1624 117.662 94.1081 99.8801Z" fill="white"/>
<path d="M126.285 112.342C126.285 112.342 131.427 103.05 136.855 104.987C142.284 106.924 134.802 109.467 134.802 109.467C134.802 109.467 138.622 112.811 133.571 116.466L126.285 112.342Z" fill="#F4A28C"/>
<path d="M117.693 180.707L119.128 187.343C119.128 187.343 125.923 192.345 130.204 189.212C134.485 186.079 127.931 182.462 117.693 180.707Z" fill="#430099"/>
<path d="M175.613 97.7705L162.092 95.8926L158.757 120.012L172.278 121.89L175.613 97.7705Z" fill="#FFD200"/>
<path d="M174.568 123.957C174.568 123.957 177.588 112.607 170.302 112.607C163.016 112.607 165.825 124.616 174.568 123.957Z" fill="#F4A28C"/>
<path d="M87.6898 83.4759C87.6898 83.4759 87.5841 78.6105 91.0495 76.3329C93.6618 74.6229 99.732 77.5209 102.556 79.0494C103.226 79.395 103.763 79.9543 104.082 80.6392C104.4 81.3242 104.482 82.0959 104.315 82.8327C104.149 83.4134 103.814 83.9313 103.353 84.3196C102.891 84.708 102.325 84.9491 101.725 85.0119C97.6407 85.8897 87.6898 83.4759 87.6898 83.4759Z" fill="#430099"/>
<path opacity="0.46" d="M87.6898 83.4759C87.6898 83.4759 87.5841 78.6105 91.0495 76.3329C93.6618 74.6229 99.732 77.5209 102.556 79.0494C103.226 79.395 103.763 79.9543 104.082 80.6392C104.4 81.3242 104.482 82.0959 104.315 82.8327C104.149 83.4134 103.814 83.9313 103.353 84.3196C102.891 84.708 102.325 84.9491 101.725 85.0119C97.6407 85.8897 87.6898 83.4759 87.6898 83.4759Z" fill="white"/>
<path d="M211.148 45.5441V29.8584H155.527V51.1434H211.148H221.907L211.148 45.5441Z" fill="#FFD200"/>
<path d="M199.476 83.7931V68.1074H255.096V89.3925H199.476H188.717L199.476 83.7931Z" fill="#24285B"/>
<path d="M231.601 56.4625C234.469 56.4625 236.795 54.1318 236.795 51.2566C236.795 48.3815 234.469 46.0508 231.601 46.0508C228.732 46.0508 226.406 48.3815 226.406 51.2566C226.406 54.1318 228.732 56.4625 231.601 56.4625Z" fill="#F2F2F2"/>
<path d="M177.921 94.107C180.79 94.107 183.115 91.7763 183.115 88.9012C183.115 86.0261 180.79 83.6953 177.921 83.6953C175.052 83.6953 172.727 86.0261 172.727 88.9012C172.727 91.7763 175.052 94.107 177.921 94.107Z" fill="#F2F2F2"/>
<path d="M200.389 34.5264H165.848V38.4989H200.389V34.5264Z" fill="white"/>
<path opacity="0.37" d="M200.389 42.0938H165.848V46.0662H200.389V42.0938Z" fill="white"/>
<path d="M244.217 72.9805H209.676V76.953H244.217V72.9805Z" fill="white"/>
<path opacity="0.37" d="M244.217 80.5469H209.676V84.5194H244.217V80.5469Z" fill="white"/>
<path opacity="0.58" d="M192.944 171.831C192.944 171.831 182.941 169.137 180.729 159.83C180.729 159.83 196.198 156.63 196.704 172.641L192.944 171.831Z" fill="#430099"/>
<path opacity="0.73" d="M194.168 170.832C194.168 170.832 187.139 159.807 193.24 149.434C193.24 149.434 205.04 156.879 199.869 170.832H194.168Z" fill="#430099"/>
<path d="M195.965 170.833C195.965 170.833 199.604 159.142 210.74 156.88C210.74 156.88 212.869 164.447 203.583 170.833H195.965Z" fill="#430099"/>
<path d="M188.717 170.605L190.801 184.483H203.56L205.38 170.605H188.717Z" fill="#24285B"/>
<path d="M238.147 40.5049H225.123V43.1305H238.147V40.5049Z" fill="#ADADAD"/>
<path opacity="0.55" d="M184.436 77.8232H171.412V80.4489H184.436V77.8232Z" fill="#ADADAD"/>
</svg>
