<svg width="77" height="78" viewBox="0 0 77 78" fill="none" xmlns="http://www.w3.org/2000/svg">
<g clip-path="url(#clip0)">
<path d="M57.1912 25.2285C54.3921 25.2285 52.123 27.5275 52.123 30.3633C52.123 33.1992 54.3921 35.4981 57.1912 35.4981C59.9902 35.4981 62.2593 33.1992 62.2593 30.3633C62.2593 27.5275 59.9902 25.2285 57.1912 25.2285ZM57.1912 32.9307C55.7916 32.9307 54.6571 31.7813 54.6571 30.3633C54.6571 28.9453 55.7916 27.7959 57.1912 27.7959C58.5908 27.7959 59.7252 28.9453 59.7252 30.3633C59.7252 31.7813 58.5906 32.9307 57.1912 32.9307Z" fill="white" fill-opacity="0.55"/>
<path d="M57.1912 43.2007C54.3921 43.2007 52.123 45.4996 52.123 48.3355C52.123 51.1713 54.3921 53.4703 57.1912 53.4703C59.9902 53.4703 62.2593 51.1713 62.2593 48.3355C62.2593 45.4996 59.9902 43.2007 57.1912 43.2007ZM57.1912 50.9029C55.7916 50.9029 54.6571 49.7535 54.6571 48.3355C54.6571 46.9175 55.7916 45.7681 57.1912 45.7681C58.5908 45.7681 59.7252 46.9175 59.7252 48.3355C59.7252 49.7535 58.5906 50.9029 57.1912 50.9029Z" fill="white" fill-opacity="0.55"/>
<path d="M48.322 34.2148C45.523 34.2148 43.2539 36.5138 43.2539 39.3497C43.2539 42.1855 45.523 44.4845 48.322 44.4845C51.1211 44.4845 53.3902 42.1855 53.3902 39.3497C53.3902 36.5138 51.1211 34.2148 48.322 34.2148ZM48.322 41.9171C46.9224 41.9171 45.788 40.7677 45.788 39.3497C45.788 37.9316 46.9224 36.7822 48.322 36.7822C49.7216 36.7822 50.8561 37.9316 50.8561 39.3497C50.8561 40.7677 49.7215 41.9171 48.322 41.9171Z" fill="white" fill-opacity="0.55"/>
<path d="M66.0603 34.2148C63.2613 34.2148 60.9922 36.5138 60.9922 39.3497C60.9922 42.1855 63.2613 44.4845 66.0603 44.4845C68.8593 44.4845 71.1284 42.1855 71.1284 39.3497C71.1284 36.5138 68.8593 34.2148 66.0603 34.2148ZM66.0603 41.9171C64.6607 41.9171 63.5262 40.7677 63.5262 39.3497C63.5262 37.9316 64.6607 36.7822 66.0603 36.7822C67.4599 36.7822 68.5944 37.9316 68.5944 39.3497C68.5944 40.7677 67.4597 41.9171 66.0603 41.9171Z" fill="white" fill-opacity="0.55"/>
<path d="M29.3149 34.2144H24.2468V29.0796C24.2468 28.3707 23.6795 27.7959 22.9798 27.7959H15.3776C14.6779 27.7959 14.1105 28.3707 14.1105 29.0796V34.2144H9.04242C8.3427 34.2144 7.77539 34.7892 7.77539 35.4981V43.2003C7.77539 43.9093 8.3427 44.484 9.04242 44.484H14.1105V49.6188C14.1105 50.3278 14.6779 50.9025 15.3776 50.9025H22.9798C23.6795 50.9025 24.2468 50.3278 24.2468 49.6188V44.484H29.3149C30.0146 44.484 30.5819 43.9093 30.5819 43.2003V35.4981C30.5819 34.789 30.0146 34.2144 29.3149 34.2144ZM28.0479 41.9166H22.9798C22.28 41.9166 21.7127 42.4914 21.7127 43.2003V48.3351H16.6446V43.2003C16.6446 42.4914 16.0773 41.9166 15.3776 41.9166H10.3095V36.7818H15.3776C16.0773 36.7818 16.6446 36.207 16.6446 35.4981V30.3633H21.7127V35.4981C21.7127 36.207 22.28 36.7818 22.9798 36.7818H28.0479V41.9166Z" fill="white" fill-opacity="0.55"/>
<path d="M57.3432 20.1028C57.2924 20.0965 57.2412 20.0936 57.1899 20.0938H19.179C19.1281 20.0935 19.0773 20.0965 19.0269 20.1028C8.45624 20.2767 0.0262062 29.0996 0.197889 39.8092C0.367513 50.3885 8.87499 58.8778 19.3183 58.8885C24.2683 58.9033 29.0284 56.9591 32.5842 53.47H43.7847C51.4018 60.8958 63.5181 60.6594 70.8474 52.9423C74.2801 49.3278 76.1969 44.5064 76.1954 39.4905C76.1646 28.9075 67.7872 20.2919 57.3432 20.1028ZM57.0518 56.3224L57.0505 56.3211C52.5942 56.3335 48.3226 54.5178 45.2088 51.2877C44.9713 51.0421 44.6463 50.9034 44.3067 50.9026H32.0621C31.7227 50.9034 31.3976 51.0421 31.16 51.2877C24.7317 57.916 14.2171 58.0093 7.67511 51.4965C1.13312 44.9836 1.04078 34.3307 7.46906 27.7026C10.5609 24.5145 14.7778 22.7039 19.1891 22.6702C19.2314 22.6702 19.2738 22.6676 19.3158 22.6625H57.0518C57.0939 22.6676 57.1362 22.6702 57.1785 22.6702C66.3504 22.7786 73.6988 30.3997 73.5918 39.6921C73.486 48.8816 66.1225 56.2852 57.0518 56.3224Z" fill="white" fill-opacity="0.55"/>
</g>
<defs>
<clipPath id="clip0">
<rect width="76" height="77" fill="white" transform="translate(0.195312 0.991211)"/>
</clipPath>
</defs>
</svg>
