<svg width="61" height="59" viewBox="0 0 61 59" fill="none" xmlns="http://www.w3.org/2000/svg">
<g clip-path="url(#clip0)">
<path d="M42.3828 1.89746H18.0078C17.0137 1.89872 16.0606 2.28104 15.3576 2.96059C14.6546 3.64014 14.2591 4.56144 14.2578 5.52246V54.46C14.2591 55.421 14.6546 56.3423 15.3576 57.0218C16.0606 57.7014 17.0137 58.0837 18.0078 58.085H42.3828C43.377 58.0837 44.33 57.7014 45.033 57.0218C45.736 56.3423 46.1315 55.421 46.1328 54.46V5.52246C46.1315 4.56144 45.736 3.64014 45.033 2.96059C44.33 2.28104 43.377 1.89872 42.3828 1.89746ZM34.5828 3.70996L34.0555 5.52246H26.2402L25.7715 3.70996H34.5828ZM44.2578 54.46C44.2572 54.9405 44.0594 55.4011 43.7079 55.7409C43.3564 56.0807 42.8799 56.2718 42.3828 56.2725H18.0078C17.5107 56.2718 17.0342 56.0807 16.6827 55.7409C16.3312 55.4011 16.1335 54.9405 16.1328 54.46V5.52246C16.1335 5.04195 16.3312 4.5813 16.6827 4.24153C17.0342 3.90175 17.5107 3.71059 18.0078 3.70996H23.8379L24.5984 6.64848C24.6491 6.84453 24.7662 7.01859 24.9309 7.14297C25.0957 7.26735 25.2988 7.33493 25.5078 7.33496H34.7656C34.9699 7.33496 35.1686 7.27044 35.3315 7.15123C35.4944 7.03201 35.6126 6.86462 35.668 6.67453L36.5305 3.70996H42.3828C42.8799 3.71059 43.3564 3.90175 43.7079 4.24153C44.0594 4.5813 44.2572 5.04195 44.2578 5.52246V54.46Z" fill="white"/>
<path d="M25.5078 52.6475H18.9453C18.6967 52.6475 18.4582 52.7429 18.2824 52.9129C18.1066 53.0828 18.0078 53.3134 18.0078 53.5537C18.0078 53.7941 18.1066 54.0246 18.2824 54.1945C18.4582 54.3645 18.6967 54.46 18.9453 54.46H25.5078C25.7565 54.46 25.9949 54.3645 26.1707 54.1945C26.3465 54.0246 26.4453 53.7941 26.4453 53.5537C26.4453 53.3134 26.3465 53.0828 26.1707 52.9129C25.9949 52.7429 25.7565 52.6475 25.5078 52.6475Z" fill="white"/>
<path d="M29.2578 52.6475H28.3203C28.0717 52.6475 27.8332 52.7429 27.6574 52.9129C27.4816 53.0828 27.3828 53.3134 27.3828 53.5537C27.3828 53.7941 27.4816 54.0246 27.6574 54.1945C27.8332 54.3645 28.0717 54.46 28.3203 54.46H29.2578C29.5065 54.46 29.7449 54.3645 29.9207 54.1945C30.0965 54.0246 30.1953 53.7941 30.1953 53.5537C30.1953 53.3134 30.0965 53.0828 29.9207 52.9129C29.7449 52.7429 29.5065 52.6475 29.2578 52.6475Z" fill="white"/>
<path d="M33.4902 24.6829C33.3846 24.6216 33.2676 24.5811 33.1458 24.5636C33.024 24.5461 32.8999 24.5519 32.7804 24.5808C32.661 24.6096 32.5486 24.661 32.4497 24.7318C32.3508 24.8027 32.2673 24.8917 32.2039 24.9937L26.5789 34.0562C26.451 34.2623 26.413 34.5091 26.4733 34.7423C26.5336 34.9754 26.6873 35.1759 26.9005 35.2996C27.1137 35.4232 27.369 35.46 27.6102 35.4017C27.8514 35.3434 28.0588 35.1948 28.1867 34.9887L33.8117 25.9262C33.8751 25.8242 33.917 25.7111 33.9351 25.5934C33.9532 25.4756 33.9472 25.3556 33.9173 25.2402C33.8875 25.1247 33.8344 25.0161 33.7611 24.9204C33.6878 24.8248 33.5957 24.7441 33.4902 24.6829Z" fill="white"/>
<path d="M36.5516 24.8937C36.4746 24.8008 36.3795 24.7234 36.2716 24.666C36.1638 24.6086 36.0452 24.5724 35.9229 24.5592C35.6757 24.5327 35.4277 24.6023 35.2336 24.7525C35.0394 24.9027 34.915 25.1213 34.8876 25.3603C34.8601 25.5992 34.932 25.8389 35.0874 26.0265L38.3687 29.9914L35.0874 33.9562C34.932 34.1439 34.8601 34.3836 34.8876 34.6225C34.915 34.8615 35.0394 35.0801 35.2336 35.2303C35.4277 35.3805 35.6757 35.45 35.9229 35.4236C36.17 35.3971 36.3962 35.2767 36.5516 35.0891L40.3016 30.5578C40.4347 30.3971 40.5073 30.1973 40.5073 29.9914C40.5073 29.7855 40.4347 29.5857 40.3016 29.425L36.5516 24.8937Z" fill="white"/>
<path d="M23.8385 35.089C23.9939 35.2767 24.22 35.3971 24.4672 35.4235C24.7144 35.45 24.9623 35.3805 25.1565 35.2303C25.3506 35.0801 25.4751 34.8615 25.5025 34.6225C25.5299 34.3836 25.458 34.1439 25.3026 33.9562L22.0214 29.9914L25.3026 26.0265C25.3796 25.9336 25.4368 25.8269 25.4711 25.7126C25.5054 25.5983 25.5161 25.4786 25.5025 25.3603C25.4889 25.2419 25.4514 25.1274 25.392 25.0231C25.3327 24.9188 25.2526 24.8269 25.1565 24.7525C25.0603 24.6781 24.95 24.6227 24.8317 24.5896C24.7135 24.5564 24.5896 24.5461 24.4672 24.5592C24.3448 24.5723 24.2263 24.6086 24.1184 24.666C24.0105 24.7234 23.9154 24.8008 23.8385 24.8937L20.0885 29.425C19.9553 29.5857 19.8828 29.7855 19.8828 29.9914C19.8828 30.1973 19.9553 30.3971 20.0885 30.5578L23.8385 35.089Z" fill="white"/>
</g>
<defs>
<clipPath id="clip0">
<rect width="60" height="58" fill="white" transform="translate(0.195312 0.991211)"/>
</clipPath>
</defs>
</svg>
