<svg width="33" height="33" viewBox="0 0 33 33" fill="none" xmlns="http://www.w3.org/2000/svg">
<path d="M15.8416 7.46878C16.6968 7.46878 17.3902 6.77542 17.3902 5.92019C17.3902 4.36354 18.6567 3.0972 20.2132 3.0972H24.5862C25.4414 3.0972 26.1348 2.40384 26.1348 1.5486C26.1348 0.693359 25.4414 0 24.5862 0H20.2132C16.9487 0 14.293 2.65574 14.293 5.92019C14.293 6.77522 14.9863 7.46878 15.8416 7.46878Z" fill="white"/>
<path d="M24.2532 12.312H8.41579C7.56055 12.312 6.86719 13.0054 6.86719 13.8606C6.86719 14.7158 7.56055 15.4092 8.41579 15.4092H14.2922V31.4516C14.2922 32.3069 14.9856 33.0002 15.8408 33.0002C16.696 33.0002 17.3894 32.3069 17.3894 31.4516V15.4092H24.2534C25.1086 15.4092 25.802 14.7158 25.802 13.8606C25.802 13.0054 25.1084 12.312 24.2532 12.312Z" fill="white"/>
</svg>
