<svg width="61" height="61" viewBox="0 0 61 61" fill="none" xmlns="http://www.w3.org/2000/svg">
<g clip-path="url(#clip0)">
<path d="M50.0423 53.4326H5.76172C3.6616 53.4326 1.95312 51.7241 1.95312 49.624V19.0967H40.7422C41.2277 19.0967 41.6211 18.7033 41.6211 18.2178C41.6211 17.7323 41.2277 17.3389 40.7422 17.3389H1.95312V12.3584C1.95312 10.2583 3.6616 8.5498 5.76172 8.5498H9.66512C10.1506 8.5498 10.544 8.15641 10.544 7.6709C10.544 7.18539 10.1506 6.79199 9.66512 6.79199H5.76172C2.69246 6.79199 0.195312 9.28914 0.195312 12.3584V49.624C0.195312 52.6933 2.69246 55.1904 5.76172 55.1904H50.0423C50.5278 55.1904 50.9212 54.797 50.9212 54.3115C50.9212 53.826 50.5278 53.4326 50.0423 53.4326Z" fill="white" fill-opacity="0.55"/>
<path d="M54.6298 6.79199H13.7676C13.2821 6.79199 12.8887 7.18539 12.8887 7.6709C12.8887 8.15641 13.2821 8.5498 13.7676 8.5498H54.6298C56.7299 8.5498 58.4384 10.2583 58.4384 12.3584V17.3389H44.8447C44.3591 17.3389 43.9657 17.7323 43.9657 18.2178C43.9657 18.7033 44.3591 19.0967 44.8447 19.0967H58.4384V49.624C58.4384 51.7241 56.7299 53.4326 54.6298 53.4326H54.0801C53.5946 53.4326 53.2012 53.826 53.2012 54.3115C53.2012 54.797 53.5946 55.1904 54.0801 55.1904H54.6298C57.6991 55.1904 60.1962 52.6933 60.1962 49.624V12.3584C60.1962 9.28914 57.6991 6.79199 54.6298 6.79199Z" fill="white" fill-opacity="0.55"/>
<path d="M3.79883 12.915C3.79883 14.3689 4.98172 15.5518 6.43555 15.5518C7.88938 15.5518 9.07227 14.3689 9.07227 12.915C9.07227 11.4612 7.88938 10.2783 6.43555 10.2783C4.98172 10.2783 3.79883 11.4612 3.79883 12.915ZM7.31445 12.915C7.31445 13.3997 6.92023 13.7939 6.43555 13.7939C5.95086 13.7939 5.55664 13.3997 5.55664 12.915C5.55664 12.4304 5.95086 12.0361 6.43555 12.0361C6.92023 12.0361 7.31445 12.4304 7.31445 12.915Z" fill="white" fill-opacity="0.55"/>
<path d="M13.9648 15.5811C15.4187 15.5811 16.6016 14.3982 16.6016 12.9443C16.6016 11.4905 15.4187 10.3076 13.9648 10.3076C12.511 10.3076 11.3281 11.4905 11.3281 12.9443C11.3281 14.3982 12.511 15.5811 13.9648 15.5811ZM13.9648 12.0654C14.4495 12.0654 14.8438 12.4596 14.8438 12.9443C14.8438 13.429 14.4495 13.8232 13.9648 13.8232C13.4802 13.8232 13.0859 13.429 13.0859 12.9443C13.0859 12.4596 13.4802 12.0654 13.9648 12.0654Z" fill="white" fill-opacity="0.55"/>
<path d="M24.1016 12.9443C24.1016 11.4905 22.9187 10.3076 21.4648 10.3076C20.011 10.3076 18.8281 11.4905 18.8281 12.9443C18.8281 14.3982 20.011 15.5811 21.4648 15.5811C22.9187 15.5811 24.1016 14.3982 24.1016 12.9443ZM20.5859 12.9443C20.5859 12.4596 20.9802 12.0654 21.4648 12.0654C21.9495 12.0654 22.3438 12.4596 22.3438 12.9443C22.3438 13.429 21.9495 13.8232 21.4648 13.8232C20.9802 13.8232 20.5859 13.429 20.5859 12.9443Z" fill="white" fill-opacity="0.55"/>
<path d="M54.043 15.5811C55.4968 15.5811 56.6797 14.3982 56.6797 12.9443C56.6797 11.4905 55.4968 10.3076 54.043 10.3076H29.082C27.6282 10.3076 26.4453 11.4905 26.4453 12.9443C26.4453 14.3982 27.6282 15.5811 29.082 15.5811H54.043ZM28.2031 12.9443C28.2031 12.4596 28.5973 12.0654 29.082 12.0654H54.043C54.5277 12.0654 54.9219 12.4596 54.9219 12.9443C54.9219 13.429 54.5277 13.8232 54.043 13.8232H29.082C28.5973 13.8232 28.2031 13.429 28.2031 12.9443Z" fill="white" fill-opacity="0.55"/>
<path d="M53.5527 25.2378H36.7949C36.3094 25.2378 35.916 25.6312 35.916 26.1167C35.916 26.6022 36.3094 26.9956 36.7949 26.9956H53.5527C54.0382 26.9956 54.4316 26.6022 54.4316 26.1167C54.4316 25.6312 54.0381 25.2378 53.5527 25.2378Z" fill="white" fill-opacity="0.55"/>
<path d="M53.5527 29.9253H36.7949C36.3094 29.9253 35.916 30.3187 35.916 30.8042C35.916 31.2897 36.3094 31.6831 36.7949 31.6831H53.5527C54.0382 31.6831 54.4316 31.2897 54.4316 30.8042C54.4316 30.3187 54.0381 29.9253 53.5527 29.9253Z" fill="white" fill-opacity="0.55"/>
<path d="M54.4316 35.4917C54.4316 35.0062 54.0382 34.6128 53.5527 34.6128H36.7949C36.3094 34.6128 35.916 35.0062 35.916 35.4917C35.916 35.9772 36.3094 36.3706 36.7949 36.3706H53.5527C54.0381 36.3706 54.4316 35.9772 54.4316 35.4917Z" fill="white" fill-opacity="0.55"/>
<path d="M21.0547 50.0229H39.3359C41.6299 50.0229 43.4961 48.1567 43.4961 45.8628C43.4961 43.5688 41.6299 41.7026 39.3359 41.7026H21.0547C18.7607 41.7026 16.8945 43.5688 16.8945 45.8628C16.8945 48.1567 18.7607 50.0229 21.0547 50.0229ZM21.0547 43.4604H39.3359C40.6606 43.4604 41.7383 44.5381 41.7383 45.8628C41.7383 47.1875 40.6606 48.2651 39.3359 48.2651H21.0547C19.73 48.2651 18.6523 47.1875 18.6523 45.8628C18.6523 44.5381 19.73 43.4604 21.0547 43.4604Z" fill="white" fill-opacity="0.55"/>
<path d="M23.2012 23.3042H10.3105C7.88734 23.3042 5.91602 25.2755 5.91602 27.6987V33.9097C5.91602 36.3329 7.88734 38.3042 10.3105 38.3042H23.2012C25.6244 38.3042 27.5957 36.3329 27.5957 33.9097V33.669C27.5957 33.6688 27.5957 33.6686 27.5957 33.6684V27.6988C27.5957 25.2756 25.6243 23.3042 23.2012 23.3042ZM10.2961 36.546L11.8466 34.1628C12.1114 33.7559 11.9961 33.2116 11.5892 32.9467C11.1823 32.6821 10.6379 32.7973 10.3731 33.2042L8.60664 35.9194C8.03652 35.4354 7.67383 34.7142 7.67383 33.9096V27.6986C7.67383 26.2448 8.85672 25.0619 10.3105 25.0619H23.2012C24.655 25.0619 25.8379 26.2448 25.8379 27.6986V31.2562L23.172 28.0721C23.0079 27.876 22.7666 27.7613 22.5111 27.7574C22.2578 27.7489 22.0108 27.8614 21.8411 28.0524L18.8554 31.4112L15.9741 26.876C15.8138 26.6235 15.5362 26.4699 15.2371 26.4683C15.2355 26.4683 15.2339 26.4683 15.2323 26.4683C14.9351 26.4683 14.6579 26.6185 14.4957 26.8679L12.6136 29.7608C12.3488 30.1676 12.4641 30.712 12.871 30.9767C13.2777 31.2415 13.8223 31.1261 14.0869 30.7194L15.2235 28.9724L20.0354 36.5465H10.3105C10.3057 36.5464 10.3009 36.546 10.2961 36.546ZM23.2012 36.5464H22.1178L19.8357 32.9542L22.478 29.9817L25.8357 33.9923C25.792 35.4079 24.6273 36.5464 23.2012 36.5464Z" fill="white" fill-opacity="0.55"/>
</g>
<defs>
<clipPath id="clip0">
<rect width="60" height="60" fill="white" transform="translate(0.195312 0.991211)"/>
</clipPath>
</defs>
</svg>
