<svg width="49" height="49" viewBox="0 0 49 49" fill="none" xmlns="http://www.w3.org/2000/svg">
<g clip-path="url(#clip0)">
<path d="M24.2832 31.4922C23.7655 31.4922 23.3457 31.9119 23.3457 32.4297C23.3457 32.9475 23.7655 33.3672 24.2832 33.3672H24.2922C24.8099 33.3672 25.2252 32.9475 25.2252 32.4297C25.2252 31.9119 24.801 31.4922 24.2832 31.4922Z" fill="white" fill-opacity="0.55"/>
<path d="M5.26428 28.0169C5.09 27.8425 4.84812 27.7422 4.60156 27.7422C4.355 27.7422 4.11313 27.8425 3.93875 28.0169C3.76438 28.1912 3.66406 28.4331 3.66406 28.6797C3.66406 28.9272 3.76428 29.1681 3.93875 29.3425C4.11322 29.5169 4.355 29.6172 4.60156 29.6172C4.84812 29.6172 5.09 29.5169 5.26428 29.3425C5.43875 29.1681 5.53906 28.9262 5.53906 28.6797C5.53906 28.4331 5.43875 28.1912 5.26428 28.0169Z" fill="white" fill-opacity="0.55"/>
<path d="M44.2578 2.0542H4.13281C1.96166 2.0542 0.195312 3.82054 0.195312 5.9917V32.4292C0.195312 35.0139 2.29813 37.1167 4.88281 37.1167H19.1328V40.6796H17.8203C15.6492 40.6796 13.8828 42.4459 13.8828 44.6171V45.3671C13.8828 45.8849 14.3026 46.3046 14.8203 46.3046H33.5703C34.088 46.3046 34.5078 45.8849 34.5078 45.3671V44.6171C34.5078 42.4459 32.7415 40.6796 30.5703 40.6796H29.2578V37.1167H43.5078C46.0925 37.1167 48.1953 35.0139 48.1953 32.4292V5.9917C48.1953 3.82054 46.429 2.0542 44.2578 2.0542ZM30.5703 42.5546C31.6444 42.5546 32.5293 43.3798 32.6244 44.4296H15.7662C15.8613 43.3798 16.7462 42.5546 17.8203 42.5546H30.5703ZM21.0078 40.6796V37.1167H27.3828V40.6796H21.0078ZM46.3203 32.4292C46.3203 33.98 45.0586 35.2417 43.5078 35.2417H4.88281C3.332 35.2417 2.07031 33.98 2.07031 32.4292V5.9917C2.07031 4.85442 2.99553 3.9292 4.13281 3.9292H23.2578V27.7421H7.97656C7.45888 27.7421 7.03906 28.1618 7.03906 28.6796C7.03906 29.1974 7.45888 29.6171 7.97656 29.6171H46.3203V32.4292ZM46.3203 27.7421H25.1328V3.9292H44.2578C45.3951 3.9292 46.3203 4.85442 46.3203 5.9917V27.7421Z" fill="white" fill-opacity="0.55"/>
<path d="M42.582 5.8042H27.957C27.4393 5.8042 27.0195 6.22392 27.0195 6.7417V13.4917C27.0195 14.0095 27.4393 14.4292 27.957 14.4292H42.582C43.0997 14.4292 43.5195 14.0095 43.5195 13.4917V6.7417C43.5195 6.22392 43.0997 5.8042 42.582 5.8042ZM41.6445 12.5542H28.8945V7.6792H41.6445V12.5542Z" fill="white" fill-opacity="0.55"/>
<path d="M11.9678 16.1167H5.85547C5.33778 16.1167 4.91797 16.5364 4.91797 17.0542C4.91797 17.572 5.33778 17.9917 5.85547 17.9917H11.9678C12.4856 17.9917 12.9053 17.572 12.9053 17.0542C12.9053 16.5364 12.4855 16.1167 11.9678 16.1167Z" fill="white" fill-opacity="0.55"/>
<path d="M19.8637 16.1167H15.1953C14.6776 16.1167 14.2578 16.5364 14.2578 17.0542C14.2578 17.572 14.6776 17.9917 15.1953 17.9917H19.8637C20.3814 17.9917 20.8012 17.572 20.8012 17.0542C20.8012 16.5364 20.3814 16.1167 19.8637 16.1167Z" fill="white" fill-opacity="0.55"/>
<path d="M19.8627 23.6157H18.1172C17.5995 23.6157 17.1797 24.0354 17.1797 24.5532C17.1797 25.071 17.5995 25.4907 18.1172 25.4907H19.8627C20.3804 25.4907 20.8002 25.071 20.8002 24.5532C20.8002 24.0354 20.3805 23.6157 19.8627 23.6157Z" fill="white" fill-opacity="0.55"/>
<path d="M14.3786 23.6167H5.85547C5.33778 23.6167 4.91797 24.0364 4.91797 24.5542C4.91797 25.072 5.33778 25.4917 5.85547 25.4917H14.3786C14.8963 25.4917 15.3161 25.072 15.3161 24.5542C15.3161 24.0364 14.8963 23.6167 14.3786 23.6167Z" fill="white" fill-opacity="0.55"/>
<path d="M8.91172 19.8667H5.85547C5.33778 19.8667 4.91797 20.2864 4.91797 20.8042C4.91797 21.322 5.33778 21.7417 5.85547 21.7417H8.91172C9.42941 21.7417 9.84922 21.322 9.84922 20.8042C9.84922 20.2864 9.42941 19.8667 8.91172 19.8667Z" fill="white" fill-opacity="0.55"/>
<path d="M19.8625 19.8667H13.4141C12.8964 19.8667 12.4766 20.2864 12.4766 20.8042C12.4766 21.322 12.8964 21.7417 13.4141 21.7417H19.8625C20.3802 21.7417 20.8 21.322 20.8 20.8042C20.8 20.2864 20.3803 19.8667 19.8625 19.8667Z" fill="white" fill-opacity="0.55"/>
<path d="M42.5834 16.1167H28C27.4823 16.1167 27.0625 16.5364 27.0625 17.0542C27.0625 17.572 27.4823 17.9917 28 17.9917H42.5834C43.1011 17.9917 43.5209 17.572 43.5209 17.0542C43.5209 16.5364 43.1011 16.1167 42.5834 16.1167Z" fill="white" fill-opacity="0.55"/>
<path d="M43.2448 23.8919C43.0695 23.7166 42.8286 23.6172 42.582 23.6172C42.3345 23.6172 42.0936 23.7166 41.9192 23.8919C41.7439 24.0662 41.6445 24.3072 41.6445 24.5547C41.6445 24.8012 41.7439 25.0431 41.9192 25.2175C42.0936 25.3919 42.3346 25.4922 42.582 25.4922C42.8286 25.4922 43.0695 25.3919 43.2448 25.2175C43.4191 25.0431 43.5195 24.8012 43.5195 24.5547C43.5195 24.3072 43.4192 24.0662 43.2448 23.8919Z" fill="white" fill-opacity="0.55"/>
<path d="M38.7746 23.6167H28C27.4823 23.6167 27.0625 24.0364 27.0625 24.5542C27.0625 25.072 27.4823 25.4917 28 25.4917H38.7746C39.2923 25.4917 39.7121 25.072 39.7121 24.5542C39.7121 24.0364 39.2923 23.6167 38.7746 23.6167Z" fill="white" fill-opacity="0.55"/>
<path d="M42.5834 19.8667H28C27.4823 19.8667 27.0625 20.2864 27.0625 20.8042C27.0625 21.322 27.4823 21.7417 28 21.7417H42.5834C43.1011 21.7417 43.5209 21.322 43.5209 20.8042C43.5209 20.2864 43.1011 19.8667 42.5834 19.8667Z" fill="white" fill-opacity="0.55"/>
<path d="M7.18116 9.74178L8.94854 7.97441C9.31463 7.60831 9.31463 7.01469 8.94854 6.64859C8.58235 6.2825 7.98891 6.2825 7.62263 6.64859L5.19254 9.07897C4.82645 9.44506 4.82645 10.0387 5.19254 10.4048L7.62273 12.835C7.80582 13.0181 8.04573 13.1096 8.28563 13.1096C8.52554 13.1096 8.76545 13.018 8.94854 12.835C9.31463 12.4689 9.31463 11.8752 8.94854 11.5092L7.18116 9.74178Z" fill="white" fill-opacity="0.55"/>
<path d="M20.1342 9.07927L17.704 6.64908C17.338 6.28299 16.7446 6.28299 16.3781 6.64908C16.012 7.01518 16.012 7.6088 16.3781 7.9749L18.1455 9.74227L16.3781 11.5096C16.0121 11.8756 16.0121 12.4691 16.3782 12.8353C16.5613 13.0184 16.8012 13.1099 17.0411 13.1099C17.281 13.1099 17.5209 13.0183 17.704 12.8353L20.1342 10.4051C20.5003 10.039 20.5003 9.44536 20.1342 9.07927Z" fill="white" fill-opacity="0.55"/>
<path d="M14.8558 6.01419C14.4093 5.75179 13.8348 5.90104 13.5726 6.34748L10.1411 12.1865C9.87874 12.6329 10.028 13.2074 10.4744 13.4698C10.6237 13.5575 10.7871 13.5991 10.9485 13.5991C11.27 13.5991 11.5831 13.4337 11.7577 13.1365L15.1891 7.29744C15.4515 6.8511 15.3023 6.27651 14.8558 6.01419Z" fill="white" fill-opacity="0.55"/>
</g>
<defs>
<clipPath id="clip0">
<rect width="48" height="48" fill="white" transform="translate(0.195312 0.179688)"/>
</clipPath>
</defs>
</svg>
